M48
; DRILL file KiCad 10.0.4 date 2026-07-21T16:02:39
; FORMAT={-:-/ absolute / metric / decimal}
; #@! TF.CreationDate,2026-07-21T16:02:39-07:00
; #@! TF.GenerationSoftware,Kicad,Pcbnew,10.0.4
; #@! TF.FileFunction,Plated,1,2,PTH
FMAT,2
METRIC
; #@! TA.AperFunction,Plated,PTH,ViaDrill
T1C0.300
; #@! TA.AperFunction,Plated,PTH,ComponentDrill
T2C0.800
; #@! TA.AperFunction,Plated,PTH,ComponentDrill
T3C1.020
; #@! TA.AperFunction,Plated,PTH,ComponentDrill
T4C1.524
%
G90
G05
T1
X75.063Y-79.332
X75.063Y-83.3
X75.857Y-112.669
X81.413Y-78.538
T2
X118.855Y-133.924
X119.915Y-141.47
X122.259Y-52.849
X122.651Y-71.952
X122.79Y-60.45
X123.182Y-79.554
X123.363Y-91.226
X123.895Y-98.827
X124.219Y-109.934
X124.751Y-117.535
X138.69Y-130.981
X139.487Y-138.559
X141.986Y-49.617
X142.384Y-57.227
X142.986Y-68.617
X143.384Y-76.227
X143.486Y-87.617
X143.884Y-95.227
X144.277Y-106.689
X144.676Y-114.299
X158.441Y-127.965
X158.84Y-135.575
X161.723Y-44.335
X161.989Y-51.951
X162.254Y-63.517
X162.52Y-71.133
X163.092Y-82.593
X163.358Y-90.208
X163.757Y-101.093
X164.022Y-108.708
X182.58Y-48.32
X182.713Y-55.938
X182.926Y-67.32
X183.059Y-74.939
X183.218Y-86.524
X183.351Y-94.143
X183.591Y-105.334
X183.724Y-112.953
X203.011Y-52.584
X203.011Y-60.204
X203.011Y-72.084
X203.011Y-79.704
X203.011Y-91.084
X203.011Y-98.704
X203.011Y-110.394
X203.011Y-118.014
X222.017Y-52.649
X222.017Y-60.269
X226.903Y-72.274
X226.903Y-79.894
X231.646Y-90.964
X231.646Y-98.584
X237.026Y-110.51
X237.026Y-118.13
T3
X78.873Y-46.947
X78.873Y-49.487
X78.873Y-52.027
X78.873Y-54.567
X78.873Y-57.107
X78.873Y-59.647
X78.873Y-62.187
X78.873Y-64.727
X78.873Y-67.267
X78.873Y-69.807
X78.873Y-72.347
X78.873Y-74.887
X78.873Y-77.427
X78.873Y-79.967
X78.873Y-82.507
X78.873Y-85.047
X78.873Y-87.587
X78.873Y-90.127
X78.873Y-92.667
X78.873Y-95.207
X85.223Y-94.977
X87.763Y-94.977
X90.303Y-94.977
X96.653Y-46.947
X96.653Y-49.487
X96.653Y-52.027
X96.653Y-54.567
X96.653Y-57.107
X96.653Y-59.647
X96.653Y-62.187
X96.653Y-64.727
X96.653Y-67.267
X96.653Y-69.807
X96.653Y-72.347
X96.653Y-74.887
X96.653Y-77.427
X96.653Y-79.967
X96.653Y-82.507
X96.653Y-85.047
X96.653Y-87.587
X96.653Y-90.127
X96.653Y-92.667
X96.653Y-95.207
T4
X98.804Y-138.477
X104.739Y-135.078
X109.047Y-54.881
X109.359Y-73.985
X110.151Y-93.056
X110.95Y-112.135
X115.204Y-51.905
X115.516Y-71.008
X116.309Y-90.079
X117.108Y-109.158
X125.534Y-133.673
X128.747Y-51.585
X129.744Y-70.609
X130.165Y-89.633
X130.959Y-108.657
X131.583Y-130.484
X134.956Y-48.716
X135.953Y-67.74
X136.374Y-86.764
X137.167Y-105.788
X145.123Y-129.863
X148.459Y-45.898
X149.122Y-64.887
X149.748Y-83.957
X150.413Y-102.995
X151.331Y-126.994
X154.717Y-43.138
X155.38Y-62.127
X156.006Y-81.196
X156.671Y-100.235
X168.793Y-49.656
X169.625Y-68.703
X169.958Y-87.75
X170.29Y-106.797
X175.097Y-47.005
X175.93Y-66.053
X176.262Y-85.1
X176.595Y-104.147
X189.701Y-54.254
X189.701Y-73.304
X189.701Y-92.354
X189.701Y-111.404
X196.051Y-51.714
X196.051Y-70.764
X196.051Y-89.814
X196.051Y-108.864
X208.751Y-54.254
X211.132Y-73.304
X213.593Y-92.354
X215.101Y-51.714
X215.894Y-111.404
X217.482Y-70.764
X219.943Y-89.814
X222.244Y-108.864
M30
