%TF.GenerationSoftware,KiCad,Pcbnew,10.0.4*%
%TF.CreationDate,2026-07-21T16:02:34-07:00*%
%TF.ProjectId,right_keyboard,72696768-745f-46b6-9579-626f6172642e,rev?*%
%TF.SameCoordinates,Original*%
%TF.FileFunction,Soldermask,Top*%
%TF.FilePolarity,Negative*%
%FSLAX46Y46*%
G04 Gerber Fmt 4.6, Leading zero omitted, Abs format (unit mm)*
G04 Created by KiCad (PCBNEW 10.0.4) date 2026-07-21 16:02:34*
%MOMM*%
%LPD*%
G01*
G04 APERTURE LIST*
G04 Aperture macros list*
%AMRoundRect*
0 Rectangle with rounded corners*
0 $1 Rounding radius*
0 $2 $3 $4 $5 $6 $7 $8 $9 X,Y pos of 4 corners*
0 Add a 4 corners polygon primitive as box body*
4,1,4,$2,$3,$4,$5,$6,$7,$8,$9,$2,$3,0*
0 Add four circle primitives for the rounded corners*
1,1,$1+$1,$2,$3*
1,1,$1+$1,$4,$5*
1,1,$1+$1,$6,$7*
1,1,$1+$1,$8,$9*
0 Add four rect primitives between the rounded corners*
20,1,$1+$1,$2,$3,$4,$5,0*
20,1,$1+$1,$4,$5,$6,$7,0*
20,1,$1+$1,$6,$7,$8,$9,0*
20,1,$1+$1,$8,$9,$2,$3,0*%
G04 Aperture macros list end*
%ADD10C,3.200000*%
%ADD11RoundRect,0.250000X0.550000X-0.550000X0.550000X0.550000X-0.550000X0.550000X-0.550000X-0.550000X0*%
%ADD12C,1.600000*%
%ADD13C,1.750000*%
%ADD14C,3.987800*%
%ADD15RoundRect,0.250000X0.578031X-0.520461X0.520461X0.578031X-0.578031X0.520461X-0.520461X-0.578031X0*%
%ADD16RoundRect,0.250000X0.568860X-0.530470X0.530470X0.568860X-0.568860X0.530470X-0.530470X-0.568860X0*%
%ADD17RoundRect,0.250000X0.587026X-0.510294X0.510294X0.587026X-0.587026X0.510294X-0.510294X-0.587026X0*%
%ADD18RoundRect,0.250000X0.559515X-0.540317X0.540317X0.559515X-0.559515X0.540317X-0.540317X-0.559515X0*%
%ADD19O,1.800000X1.800000*%
%ADD20O,1.500000X1.500000*%
%ADD21O,1.700000X1.700000*%
%ADD22R,3.500000X1.700000*%
%ADD23R,1.700000X1.700000*%
%ADD24R,1.700000X3.500000*%
%ADD25RoundRect,0.250000X0.621193X-0.468102X0.468102X0.621193X-0.621193X0.468102X-0.468102X-0.621193X0*%
%ADD26RoundRect,0.250000X0.604478X-0.489496X0.489496X0.604478X-0.604478X0.489496X-0.489496X-0.604478X0*%
G04 APERTURE END LIST*
D10*
%TO.C,H4*%
X118822803Y-43403743D03*
%TD*%
%TO.C,H5*%
X225887595Y-47516689D03*
%TD*%
%TO.C,H4*%
X235743750Y-127793750D03*
%TD*%
%TO.C,H4*%
X79375000Y-111125000D03*
%TD*%
%TO.C,H4*%
X164306250Y-132556250D03*
%TD*%
%TO.C,H3*%
X366712500Y-138112500D03*
%TD*%
%TO.C,H1*%
X454025000Y-104775000D03*
%TD*%
%TO.C,H2*%
X456406250Y-139700000D03*
%TD*%
%TO.C,H6*%
X423862500Y-44450000D03*
%TD*%
%TO.C,H4*%
X81556260Y-135793403D03*
%TD*%
D11*
%TO.C,D39*%
X203010530Y-79704111D03*
D12*
X203010530Y-72084111D03*
%TD*%
D11*
%TO.C,D52*%
X237025677Y-118130205D03*
D12*
X237025677Y-110510205D03*
%TD*%
D13*
%TO.C,SW44*%
X168732107Y-90311830D03*
D14*
X173811333Y-90223172D03*
D13*
X178890559Y-90134514D03*
%TD*%
D15*
%TO.C,D55*%
X158839930Y-135575048D03*
D12*
X158441127Y-127965491D03*
%TD*%
D16*
%TO.C,D49*%
X164022477Y-108708061D03*
D12*
X163756540Y-101092703D03*
%TD*%
D13*
%TO.C,SW38*%
X168399639Y-71264732D03*
D14*
X173478865Y-71176074D03*
D13*
X178558091Y-71087416D03*
%TD*%
%TO.C,SW51*%
X188430528Y-113944113D03*
D14*
X193510528Y-113944113D03*
D13*
X198590528Y-113944113D03*
%TD*%
D17*
%TO.C,D35*%
X123182414Y-79553750D03*
D12*
X122650867Y-71952312D03*
%TD*%
D18*
%TO.C,D44*%
X183351333Y-94143172D03*
D12*
X183218343Y-86524333D03*
%TD*%
D15*
%TO.C,D48*%
X144676191Y-114298672D03*
D12*
X144277388Y-106689115D03*
%TD*%
D15*
%TO.C,D30*%
X142384305Y-57226992D03*
D12*
X141985502Y-49617435D03*
%TD*%
D11*
%TO.C,D33*%
X203010530Y-60204111D03*
D12*
X203010530Y-52584111D03*
%TD*%
D13*
%TO.C,SW46*%
X212323027Y-94894113D03*
D14*
X217403027Y-94894113D03*
D13*
X222483027Y-94894113D03*
%TD*%
D16*
%TO.C,D31*%
X161988822Y-51950714D03*
D12*
X161722885Y-44335356D03*
%TD*%
D13*
%TO.C,SW47*%
X109860514Y-114756986D03*
D14*
X114928139Y-114402624D03*
D13*
X119995764Y-114048262D03*
%TD*%
D16*
%TO.C,D43*%
X163357642Y-90208063D03*
D12*
X163091705Y-82592705D03*
%TD*%
D15*
%TO.C,D42*%
X143884305Y-95226994D03*
D12*
X143485502Y-87617437D03*
%TD*%
D13*
%TO.C,SW42*%
X129030001Y-92235868D03*
D14*
X134103039Y-91970002D03*
D13*
X139176077Y-91704136D03*
%TD*%
%TO.C,SW54*%
X124536186Y-136332279D03*
D14*
X129588357Y-135801275D03*
D13*
X134640528Y-135270271D03*
%TD*%
D11*
%TO.C,D51*%
X203010531Y-118014113D03*
D12*
X203010531Y-110394113D03*
%TD*%
D16*
%TO.C,D37*%
X162519864Y-71132668D03*
D12*
X162253927Y-63517310D03*
%TD*%
D13*
%TO.C,SW43*%
X148567769Y-86539280D03*
D14*
X153644674Y-86361991D03*
D13*
X158721579Y-86184702D03*
%TD*%
%TO.C,SW48*%
X129823751Y-111259760D03*
D14*
X134896789Y-110993894D03*
D13*
X139969827Y-110728028D03*
%TD*%
%TO.C,SW31*%
X147278771Y-48481080D03*
D14*
X152355676Y-48303791D03*
D13*
X157432581Y-48126502D03*
%TD*%
D17*
%TO.C,D47*%
X124750578Y-117535073D03*
D12*
X124219031Y-109933635D03*
%TD*%
D13*
%TO.C,SW33*%
X188430528Y-56794113D03*
D14*
X193510528Y-56794113D03*
D13*
X198590528Y-56794113D03*
%TD*%
%TO.C,SW50*%
X169064576Y-109358929D03*
D14*
X174143802Y-109270271D03*
D13*
X179223028Y-109181613D03*
%TD*%
%TO.C,SW45*%
X188430528Y-94894113D03*
D14*
X193510528Y-94894113D03*
D13*
X198590528Y-94894113D03*
%TD*%
%TO.C,SW55*%
X143987490Y-132466229D03*
D14*
X149060528Y-132200363D03*
D13*
X154133566Y-131934497D03*
%TD*%
%TO.C,SW41*%
X109061533Y-95678568D03*
D14*
X114129158Y-95324206D03*
D13*
X119196783Y-94969844D03*
%TD*%
%TO.C,SW30*%
X127611865Y-54188084D03*
D14*
X132684903Y-53922218D03*
D13*
X137757941Y-53656352D03*
%TD*%
D11*
%TO.C,D40*%
X226903028Y-79894113D03*
D12*
X226903028Y-72274113D03*
%TD*%
D13*
%TO.C,SW36*%
X128608866Y-73211975D03*
D14*
X133681904Y-72946109D03*
D13*
X138754942Y-72680243D03*
%TD*%
%TO.C,SW29*%
X107956888Y-57503693D03*
D14*
X113024513Y-57149331D03*
D13*
X118092138Y-56794969D03*
%TD*%
%TO.C,SW52*%
X214624278Y-113944113D03*
D14*
X219704278Y-113944113D03*
D13*
X224784278Y-113944113D03*
%TD*%
%TO.C,SW40*%
X209861778Y-75844113D03*
D14*
X214941778Y-75844113D03*
D13*
X220021778Y-75844113D03*
%TD*%
D19*
%TO.C,U1*%
X85038352Y-47076530D03*
D20*
X85338352Y-50106530D03*
X90188352Y-50106530D03*
D19*
X90488352Y-47076530D03*
D21*
X78873352Y-46946530D03*
D22*
X77973352Y-46946530D03*
D21*
X78873352Y-49486530D03*
D22*
X77973352Y-49486530D03*
D23*
X78873352Y-52026530D03*
D22*
X77973352Y-52026530D03*
D21*
X78873352Y-54566530D03*
D22*
X77973352Y-54566530D03*
D21*
X78873352Y-57106530D03*
D22*
X77973352Y-57106530D03*
D21*
X78873352Y-59646530D03*
D22*
X77973352Y-59646530D03*
D21*
X78873352Y-62186530D03*
D22*
X77973352Y-62186530D03*
D23*
X78873352Y-64726530D03*
D22*
X77973352Y-64726530D03*
D21*
X78873352Y-67266530D03*
D22*
X77973352Y-67266530D03*
D21*
X78873352Y-69806530D03*
D22*
X77973352Y-69806530D03*
D21*
X78873352Y-72346530D03*
D22*
X77973352Y-72346530D03*
D21*
X78873352Y-74886530D03*
D22*
X77973352Y-74886530D03*
D23*
X78873352Y-77426530D03*
D22*
X77973352Y-77426530D03*
D21*
X78873352Y-79966530D03*
D22*
X77973352Y-79966530D03*
D21*
X78873352Y-82506530D03*
D22*
X77973352Y-82506530D03*
D21*
X78873352Y-85046530D03*
D22*
X77973352Y-85046530D03*
D21*
X78873352Y-87586530D03*
D22*
X77973352Y-87586530D03*
D23*
X78873352Y-90126530D03*
D22*
X77973352Y-90126530D03*
D21*
X78873352Y-92666530D03*
D22*
X77973352Y-92666530D03*
D21*
X78873352Y-95206530D03*
D22*
X77973352Y-95206530D03*
D21*
X96653352Y-95206530D03*
D22*
X97553352Y-95206530D03*
D21*
X96653352Y-92666530D03*
D22*
X97553352Y-92666530D03*
D23*
X96653352Y-90126530D03*
D22*
X97553352Y-90126530D03*
D21*
X96653352Y-87586530D03*
D22*
X97553352Y-87586530D03*
D21*
X96653352Y-85046530D03*
D22*
X97553352Y-85046530D03*
D21*
X96653352Y-82506530D03*
D22*
X97553352Y-82506530D03*
D21*
X96653352Y-79966530D03*
D22*
X97553352Y-79966530D03*
D23*
X96653352Y-77426530D03*
D22*
X97553352Y-77426530D03*
D21*
X96653352Y-74886530D03*
D22*
X97553352Y-74886530D03*
D21*
X96653352Y-72346530D03*
D22*
X97553352Y-72346530D03*
D21*
X96653352Y-69806530D03*
D22*
X97553352Y-69806530D03*
D21*
X96653352Y-67266530D03*
D22*
X97553352Y-67266530D03*
D23*
X96653352Y-64726530D03*
D22*
X97553352Y-64726530D03*
D21*
X96653352Y-62186530D03*
D22*
X97553352Y-62186530D03*
D21*
X96653352Y-59646530D03*
D22*
X97553352Y-59646530D03*
D21*
X96653352Y-57106530D03*
D22*
X97553352Y-57106530D03*
D21*
X96653352Y-54566530D03*
D22*
X97553352Y-54566530D03*
D23*
X96653352Y-52026530D03*
D22*
X97553352Y-52026530D03*
D21*
X96653352Y-49486530D03*
D22*
X97553352Y-49486530D03*
D21*
X96653352Y-46946530D03*
D22*
X97553352Y-46946530D03*
D21*
X85223352Y-94976530D03*
D24*
X85223352Y-95876530D03*
D23*
X87763352Y-94976530D03*
D24*
X87763352Y-95876530D03*
D21*
X90303352Y-94976530D03*
D24*
X90303352Y-95876530D03*
%TD*%
D18*
%TO.C,D32*%
X182712892Y-55938393D03*
D12*
X182579902Y-48319554D03*
%TD*%
D11*
%TO.C,D34*%
X222016778Y-60269113D03*
D12*
X222016778Y-52649113D03*
%TD*%
D13*
%TO.C,SW39*%
X188430528Y-75844113D03*
D14*
X193510528Y-75844113D03*
D13*
X198590528Y-75844113D03*
%TD*%
%TO.C,SW32*%
X167567170Y-52217633D03*
D14*
X172646396Y-52128975D03*
D13*
X177725622Y-52040317D03*
%TD*%
%TO.C,SW53*%
X97900119Y-141168564D03*
D14*
X102930680Y-140461565D03*
D13*
X107961241Y-139754566D03*
%TD*%
D15*
%TO.C,D36*%
X143384305Y-76226995D03*
D12*
X142985502Y-68617438D03*
%TD*%
D18*
%TO.C,D50*%
X183723804Y-112953170D03*
D12*
X183590814Y-105334331D03*
%TD*%
D18*
%TO.C,D38*%
X183058865Y-74938973D03*
D12*
X182925875Y-67320134D03*
%TD*%
D11*
%TO.C,D46*%
X231646398Y-98584111D03*
D12*
X231646398Y-90964111D03*
%TD*%
D17*
%TO.C,D41*%
X123894932Y-98826939D03*
D12*
X123363385Y-91225501D03*
%TD*%
D25*
%TO.C,D53*%
X119915192Y-141470075D03*
D12*
X118854691Y-133924233D03*
%TD*%
D26*
%TO.C,D54*%
X139486612Y-138559398D03*
D12*
X138690103Y-130981142D03*
%TD*%
D17*
%TO.C,D29*%
X122790287Y-60450048D03*
D12*
X122258740Y-52848610D03*
%TD*%
D13*
%TO.C,SW34*%
X207480528Y-56794113D03*
D14*
X212560528Y-56794113D03*
D13*
X217640528Y-56794113D03*
%TD*%
%TO.C,SW35*%
X108269015Y-76607395D03*
D14*
X113336640Y-76253033D03*
D13*
X118404265Y-75898671D03*
%TD*%
%TO.C,SW49*%
X149232604Y-105577673D03*
D14*
X154309509Y-105400384D03*
D13*
X159386414Y-105223095D03*
%TD*%
%TO.C,SW37*%
X147941862Y-67469507D03*
D14*
X153018767Y-67292218D03*
D13*
X158095672Y-67114929D03*
%TD*%
D11*
%TO.C,D45*%
X203010530Y-98704111D03*
D12*
X203010530Y-91084111D03*
%TD*%
M02*
