%TF.GenerationSoftware,KiCad,Pcbnew,10.0.4*%
%TF.CreationDate,2026-07-21T16:02:34-07:00*%
%TF.ProjectId,right_keyboard,72696768-745f-46b6-9579-626f6172642e,rev?*%
%TF.SameCoordinates,Original*%
%TF.FileFunction,Legend,Top*%
%TF.FilePolarity,Positive*%
%FSLAX46Y46*%
G04 Gerber Fmt 4.6, Leading zero omitted, Abs format (unit mm)*
G04 Created by KiCad (PCBNEW 10.0.4) date 2026-07-21 16:02:34*
%MOMM*%
%LPD*%
G01*
G04 APERTURE LIST*
%ADD10C,0.150000*%
%ADD11C,0.120000*%
G04 APERTURE END LIST*
D10*
X118060898Y-39708562D02*
X118060898Y-38708562D01*
X118060898Y-39184752D02*
X118632326Y-39184752D01*
X118632326Y-39708562D02*
X118632326Y-38708562D01*
X119537088Y-39041895D02*
X119537088Y-39708562D01*
X119298993Y-38660943D02*
X119060898Y-39375228D01*
X119060898Y-39375228D02*
X119679945Y-39375228D01*
X225125690Y-43821508D02*
X225125690Y-42821508D01*
X225125690Y-43297698D02*
X225697118Y-43297698D01*
X225697118Y-43821508D02*
X225697118Y-42821508D01*
X226649499Y-42821508D02*
X226173309Y-42821508D01*
X226173309Y-42821508D02*
X226125690Y-43297698D01*
X226125690Y-43297698D02*
X226173309Y-43250079D01*
X226173309Y-43250079D02*
X226268547Y-43202460D01*
X226268547Y-43202460D02*
X226506642Y-43202460D01*
X226506642Y-43202460D02*
X226601880Y-43250079D01*
X226601880Y-43250079D02*
X226649499Y-43297698D01*
X226649499Y-43297698D02*
X226697118Y-43392936D01*
X226697118Y-43392936D02*
X226697118Y-43631031D01*
X226697118Y-43631031D02*
X226649499Y-43726269D01*
X226649499Y-43726269D02*
X226601880Y-43773889D01*
X226601880Y-43773889D02*
X226506642Y-43821508D01*
X226506642Y-43821508D02*
X226268547Y-43821508D01*
X226268547Y-43821508D02*
X226173309Y-43773889D01*
X226173309Y-43773889D02*
X226125690Y-43726269D01*
X234981845Y-124098569D02*
X234981845Y-123098569D01*
X234981845Y-123574759D02*
X235553273Y-123574759D01*
X235553273Y-124098569D02*
X235553273Y-123098569D01*
X236458035Y-123431902D02*
X236458035Y-124098569D01*
X236219940Y-123050950D02*
X235981845Y-123765235D01*
X235981845Y-123765235D02*
X236600892Y-123765235D01*
X78613095Y-107429819D02*
X78613095Y-106429819D01*
X78613095Y-106906009D02*
X79184523Y-106906009D01*
X79184523Y-107429819D02*
X79184523Y-106429819D01*
X80089285Y-106763152D02*
X80089285Y-107429819D01*
X79851190Y-106382200D02*
X79613095Y-107096485D01*
X79613095Y-107096485D02*
X80232142Y-107096485D01*
X163544345Y-128861069D02*
X163544345Y-127861069D01*
X163544345Y-128337259D02*
X164115773Y-128337259D01*
X164115773Y-128861069D02*
X164115773Y-127861069D01*
X165020535Y-128194402D02*
X165020535Y-128861069D01*
X164782440Y-127813450D02*
X164544345Y-128527735D01*
X164544345Y-128527735D02*
X165163392Y-128527735D01*
X365950595Y-134417319D02*
X365950595Y-133417319D01*
X365950595Y-133893509D02*
X366522023Y-133893509D01*
X366522023Y-134417319D02*
X366522023Y-133417319D01*
X366902976Y-133417319D02*
X367522023Y-133417319D01*
X367522023Y-133417319D02*
X367188690Y-133798271D01*
X367188690Y-133798271D02*
X367331547Y-133798271D01*
X367331547Y-133798271D02*
X367426785Y-133845890D01*
X367426785Y-133845890D02*
X367474404Y-133893509D01*
X367474404Y-133893509D02*
X367522023Y-133988747D01*
X367522023Y-133988747D02*
X367522023Y-134226842D01*
X367522023Y-134226842D02*
X367474404Y-134322080D01*
X367474404Y-134322080D02*
X367426785Y-134369700D01*
X367426785Y-134369700D02*
X367331547Y-134417319D01*
X367331547Y-134417319D02*
X367045833Y-134417319D01*
X367045833Y-134417319D02*
X366950595Y-134369700D01*
X366950595Y-134369700D02*
X366902976Y-134322080D01*
X453263095Y-101079819D02*
X453263095Y-100079819D01*
X453263095Y-100556009D02*
X453834523Y-100556009D01*
X453834523Y-101079819D02*
X453834523Y-100079819D01*
X454834523Y-101079819D02*
X454263095Y-101079819D01*
X454548809Y-101079819D02*
X454548809Y-100079819D01*
X454548809Y-100079819D02*
X454453571Y-100222676D01*
X454453571Y-100222676D02*
X454358333Y-100317914D01*
X454358333Y-100317914D02*
X454263095Y-100365533D01*
X455644345Y-136004819D02*
X455644345Y-135004819D01*
X455644345Y-135481009D02*
X456215773Y-135481009D01*
X456215773Y-136004819D02*
X456215773Y-135004819D01*
X456644345Y-135100057D02*
X456691964Y-135052438D01*
X456691964Y-135052438D02*
X456787202Y-135004819D01*
X456787202Y-135004819D02*
X457025297Y-135004819D01*
X457025297Y-135004819D02*
X457120535Y-135052438D01*
X457120535Y-135052438D02*
X457168154Y-135100057D01*
X457168154Y-135100057D02*
X457215773Y-135195295D01*
X457215773Y-135195295D02*
X457215773Y-135290533D01*
X457215773Y-135290533D02*
X457168154Y-135433390D01*
X457168154Y-135433390D02*
X456596726Y-136004819D01*
X456596726Y-136004819D02*
X457215773Y-136004819D01*
X423100595Y-40754819D02*
X423100595Y-39754819D01*
X423100595Y-40231009D02*
X423672023Y-40231009D01*
X423672023Y-40754819D02*
X423672023Y-39754819D01*
X424576785Y-39754819D02*
X424386309Y-39754819D01*
X424386309Y-39754819D02*
X424291071Y-39802438D01*
X424291071Y-39802438D02*
X424243452Y-39850057D01*
X424243452Y-39850057D02*
X424148214Y-39992914D01*
X424148214Y-39992914D02*
X424100595Y-40183390D01*
X424100595Y-40183390D02*
X424100595Y-40564342D01*
X424100595Y-40564342D02*
X424148214Y-40659580D01*
X424148214Y-40659580D02*
X424195833Y-40707200D01*
X424195833Y-40707200D02*
X424291071Y-40754819D01*
X424291071Y-40754819D02*
X424481547Y-40754819D01*
X424481547Y-40754819D02*
X424576785Y-40707200D01*
X424576785Y-40707200D02*
X424624404Y-40659580D01*
X424624404Y-40659580D02*
X424672023Y-40564342D01*
X424672023Y-40564342D02*
X424672023Y-40326247D01*
X424672023Y-40326247D02*
X424624404Y-40231009D01*
X424624404Y-40231009D02*
X424576785Y-40183390D01*
X424576785Y-40183390D02*
X424481547Y-40135771D01*
X424481547Y-40135771D02*
X424291071Y-40135771D01*
X424291071Y-40135771D02*
X424195833Y-40183390D01*
X424195833Y-40183390D02*
X424148214Y-40231009D01*
X424148214Y-40231009D02*
X424100595Y-40326247D01*
X80794355Y-132098222D02*
X80794355Y-131098222D01*
X80794355Y-131574412D02*
X81365783Y-131574412D01*
X81365783Y-132098222D02*
X81365783Y-131098222D01*
X82270545Y-131431555D02*
X82270545Y-132098222D01*
X82032450Y-131050603D02*
X81794355Y-131764888D01*
X81794355Y-131764888D02*
X82413402Y-131764888D01*
X201345351Y-77108394D02*
X200345351Y-77108394D01*
X200345351Y-77108394D02*
X200345351Y-76870299D01*
X200345351Y-76870299D02*
X200392970Y-76727442D01*
X200392970Y-76727442D02*
X200488208Y-76632204D01*
X200488208Y-76632204D02*
X200583446Y-76584585D01*
X200583446Y-76584585D02*
X200773922Y-76536966D01*
X200773922Y-76536966D02*
X200916779Y-76536966D01*
X200916779Y-76536966D02*
X201107255Y-76584585D01*
X201107255Y-76584585D02*
X201202493Y-76632204D01*
X201202493Y-76632204D02*
X201297732Y-76727442D01*
X201297732Y-76727442D02*
X201345351Y-76870299D01*
X201345351Y-76870299D02*
X201345351Y-77108394D01*
X200345351Y-76203632D02*
X200345351Y-75584585D01*
X200345351Y-75584585D02*
X200726303Y-75917918D01*
X200726303Y-75917918D02*
X200726303Y-75775061D01*
X200726303Y-75775061D02*
X200773922Y-75679823D01*
X200773922Y-75679823D02*
X200821541Y-75632204D01*
X200821541Y-75632204D02*
X200916779Y-75584585D01*
X200916779Y-75584585D02*
X201154874Y-75584585D01*
X201154874Y-75584585D02*
X201250112Y-75632204D01*
X201250112Y-75632204D02*
X201297732Y-75679823D01*
X201297732Y-75679823D02*
X201345351Y-75775061D01*
X201345351Y-75775061D02*
X201345351Y-76060775D01*
X201345351Y-76060775D02*
X201297732Y-76156013D01*
X201297732Y-76156013D02*
X201250112Y-76203632D01*
X201345351Y-75108394D02*
X201345351Y-74917918D01*
X201345351Y-74917918D02*
X201297732Y-74822680D01*
X201297732Y-74822680D02*
X201250112Y-74775061D01*
X201250112Y-74775061D02*
X201107255Y-74679823D01*
X201107255Y-74679823D02*
X200916779Y-74632204D01*
X200916779Y-74632204D02*
X200535827Y-74632204D01*
X200535827Y-74632204D02*
X200440589Y-74679823D01*
X200440589Y-74679823D02*
X200392970Y-74727442D01*
X200392970Y-74727442D02*
X200345351Y-74822680D01*
X200345351Y-74822680D02*
X200345351Y-75013156D01*
X200345351Y-75013156D02*
X200392970Y-75108394D01*
X200392970Y-75108394D02*
X200440589Y-75156013D01*
X200440589Y-75156013D02*
X200535827Y-75203632D01*
X200535827Y-75203632D02*
X200773922Y-75203632D01*
X200773922Y-75203632D02*
X200869160Y-75156013D01*
X200869160Y-75156013D02*
X200916779Y-75108394D01*
X200916779Y-75108394D02*
X200964398Y-75013156D01*
X200964398Y-75013156D02*
X200964398Y-74822680D01*
X200964398Y-74822680D02*
X200916779Y-74727442D01*
X200916779Y-74727442D02*
X200869160Y-74679823D01*
X200869160Y-74679823D02*
X200773922Y-74632204D01*
X201665351Y-79966026D02*
X200665351Y-79966026D01*
X201665351Y-79394598D02*
X201093922Y-79823169D01*
X200665351Y-79394598D02*
X201236779Y-79966026D01*
X235025333Y-115534488D02*
X234025333Y-115534488D01*
X234025333Y-115534488D02*
X234025333Y-115296393D01*
X234025333Y-115296393D02*
X234072952Y-115153536D01*
X234072952Y-115153536D02*
X234168190Y-115058298D01*
X234168190Y-115058298D02*
X234263428Y-115010679D01*
X234263428Y-115010679D02*
X234453904Y-114963060D01*
X234453904Y-114963060D02*
X234596761Y-114963060D01*
X234596761Y-114963060D02*
X234787237Y-115010679D01*
X234787237Y-115010679D02*
X234882475Y-115058298D01*
X234882475Y-115058298D02*
X234977714Y-115153536D01*
X234977714Y-115153536D02*
X235025333Y-115296393D01*
X235025333Y-115296393D02*
X235025333Y-115534488D01*
X234025333Y-114058298D02*
X234025333Y-114534488D01*
X234025333Y-114534488D02*
X234501523Y-114582107D01*
X234501523Y-114582107D02*
X234453904Y-114534488D01*
X234453904Y-114534488D02*
X234406285Y-114439250D01*
X234406285Y-114439250D02*
X234406285Y-114201155D01*
X234406285Y-114201155D02*
X234453904Y-114105917D01*
X234453904Y-114105917D02*
X234501523Y-114058298D01*
X234501523Y-114058298D02*
X234596761Y-114010679D01*
X234596761Y-114010679D02*
X234834856Y-114010679D01*
X234834856Y-114010679D02*
X234930094Y-114058298D01*
X234930094Y-114058298D02*
X234977714Y-114105917D01*
X234977714Y-114105917D02*
X235025333Y-114201155D01*
X235025333Y-114201155D02*
X235025333Y-114439250D01*
X235025333Y-114439250D02*
X234977714Y-114534488D01*
X234977714Y-114534488D02*
X234930094Y-114582107D01*
X234120571Y-113629726D02*
X234072952Y-113582107D01*
X234072952Y-113582107D02*
X234025333Y-113486869D01*
X234025333Y-113486869D02*
X234025333Y-113248774D01*
X234025333Y-113248774D02*
X234072952Y-113153536D01*
X234072952Y-113153536D02*
X234120571Y-113105917D01*
X234120571Y-113105917D02*
X234215809Y-113058298D01*
X234215809Y-113058298D02*
X234311047Y-113058298D01*
X234311047Y-113058298D02*
X234453904Y-113105917D01*
X234453904Y-113105917D02*
X235025333Y-113677345D01*
X235025333Y-113677345D02*
X235025333Y-113058298D01*
X235345333Y-118392120D02*
X234345333Y-118392120D01*
X235345333Y-117820692D02*
X234773904Y-118249263D01*
X234345333Y-117820692D02*
X234916761Y-118392120D01*
X156005690Y-130692400D02*
X157004319Y-130640064D01*
X157004319Y-130640064D02*
X157016780Y-130877833D01*
X157016780Y-130877833D02*
X156976703Y-131022987D01*
X156976703Y-131022987D02*
X156886580Y-131123079D01*
X156886580Y-131123079D02*
X156793965Y-131175617D01*
X156793965Y-131175617D02*
X156606242Y-131233139D01*
X156606242Y-131233139D02*
X156463580Y-131240616D01*
X156463580Y-131240616D02*
X156270873Y-131203031D01*
X156270873Y-131203031D02*
X156173273Y-131160462D01*
X156173273Y-131160462D02*
X156073181Y-131070338D01*
X156073181Y-131070338D02*
X156018151Y-130930169D01*
X156018151Y-130930169D02*
X156005690Y-130692400D01*
X157081577Y-132114232D02*
X157056655Y-131638694D01*
X157056655Y-131638694D02*
X156578625Y-131616062D01*
X156578625Y-131616062D02*
X156628671Y-131661124D01*
X156628671Y-131661124D02*
X156681210Y-131753739D01*
X156681210Y-131753739D02*
X156693670Y-131991508D01*
X156693670Y-131991508D02*
X156651101Y-132089108D01*
X156651101Y-132089108D02*
X156606039Y-132139154D01*
X156606039Y-132139154D02*
X156513424Y-132191692D01*
X156513424Y-132191692D02*
X156275655Y-132204153D01*
X156275655Y-132204153D02*
X156178055Y-132161583D01*
X156178055Y-132161583D02*
X156128009Y-132116522D01*
X156128009Y-132116522D02*
X156075471Y-132023906D01*
X156075471Y-132023906D02*
X156063010Y-131786137D01*
X156063010Y-131786137D02*
X156105580Y-131688538D01*
X156105580Y-131688538D02*
X156150641Y-131638492D01*
X157131421Y-133065308D02*
X157106499Y-132589770D01*
X157106499Y-132589770D02*
X156628469Y-132567138D01*
X156628469Y-132567138D02*
X156678515Y-132612199D01*
X156678515Y-132612199D02*
X156731053Y-132704815D01*
X156731053Y-132704815D02*
X156743514Y-132942584D01*
X156743514Y-132942584D02*
X156700945Y-133040183D01*
X156700945Y-133040183D02*
X156655883Y-133090229D01*
X156655883Y-133090229D02*
X156563268Y-133142768D01*
X156563268Y-133142768D02*
X156325499Y-133155229D01*
X156325499Y-133155229D02*
X156227899Y-133112659D01*
X156227899Y-133112659D02*
X156177853Y-133067597D01*
X156177853Y-133067597D02*
X156125315Y-132974982D01*
X156125315Y-132974982D02*
X156112854Y-132737213D01*
X156112854Y-132737213D02*
X156155423Y-132639613D01*
X156155423Y-132639613D02*
X156200485Y-132589567D01*
X156574497Y-135431521D02*
X157573126Y-135379185D01*
X156604403Y-136002167D02*
X157152619Y-135544276D01*
X157603033Y-135949831D02*
X157002481Y-135409091D01*
X161273883Y-103776692D02*
X162273273Y-103741793D01*
X162273273Y-103741793D02*
X162281583Y-103979743D01*
X162281583Y-103979743D02*
X162238978Y-104124175D01*
X162238978Y-104124175D02*
X162147122Y-104222679D01*
X162147122Y-104222679D02*
X162053604Y-104273593D01*
X162053604Y-104273593D02*
X161864906Y-104327830D01*
X161864906Y-104327830D02*
X161722135Y-104332816D01*
X161722135Y-104332816D02*
X161530113Y-104291873D01*
X161530113Y-104291873D02*
X161433271Y-104247607D01*
X161433271Y-104247607D02*
X161334768Y-104155751D01*
X161334768Y-104155751D02*
X161282192Y-104014643D01*
X161282192Y-104014643D02*
X161273883Y-103776692D01*
X161990000Y-105181127D02*
X161323739Y-105204394D01*
X162362410Y-104929882D02*
X161640250Y-104716860D01*
X161640250Y-104716860D02*
X161661855Y-105335531D01*
X161343682Y-105775474D02*
X161350329Y-105965834D01*
X161350329Y-105965834D02*
X161401243Y-106059352D01*
X161401243Y-106059352D02*
X161450495Y-106105281D01*
X161450495Y-106105281D02*
X161596589Y-106195475D01*
X161596589Y-106195475D02*
X161788611Y-106236418D01*
X161788611Y-106236418D02*
X162169331Y-106223123D01*
X162169331Y-106223123D02*
X162262849Y-106172209D01*
X162262849Y-106172209D02*
X162308777Y-106122957D01*
X162308777Y-106122957D02*
X162353044Y-106026115D01*
X162353044Y-106026115D02*
X162346396Y-105835755D01*
X162346396Y-105835755D02*
X162295482Y-105742236D01*
X162295482Y-105742236D02*
X162246230Y-105696308D01*
X162246230Y-105696308D02*
X162149388Y-105652042D01*
X162149388Y-105652042D02*
X161911438Y-105660351D01*
X161911438Y-105660351D02*
X161817920Y-105711265D01*
X161817920Y-105711265D02*
X161771992Y-105760517D01*
X161771992Y-105760517D02*
X161727726Y-105857359D01*
X161727726Y-105857359D02*
X161734373Y-106047719D01*
X161734373Y-106047719D02*
X161785287Y-106141237D01*
X161785287Y-106141237D02*
X161834539Y-106187166D01*
X161834539Y-106187166D02*
X161931381Y-106231432D01*
X161759893Y-108525018D02*
X162759284Y-108490119D01*
X161779836Y-109096099D02*
X162335959Y-108647846D01*
X162779227Y-109061199D02*
X162188204Y-108510061D01*
X120263392Y-74721310D02*
X121260956Y-74651554D01*
X121260956Y-74651554D02*
X121277565Y-74889069D01*
X121277565Y-74889069D02*
X121240027Y-75034900D01*
X121240027Y-75034900D02*
X121151664Y-75136549D01*
X121151664Y-75136549D02*
X121059980Y-75190696D01*
X121059980Y-75190696D02*
X120873290Y-75251486D01*
X120873290Y-75251486D02*
X120730780Y-75261451D01*
X120730780Y-75261451D02*
X120537446Y-75227235D01*
X120537446Y-75227235D02*
X120439119Y-75186376D01*
X120439119Y-75186376D02*
X120337469Y-75098013D01*
X120337469Y-75098013D02*
X120280001Y-74958826D01*
X120280001Y-74958826D02*
X120263392Y-74721310D01*
X121324069Y-75554112D02*
X121367252Y-76171651D01*
X121367252Y-76171651D02*
X120963975Y-75865704D01*
X120963975Y-75865704D02*
X120973940Y-76008213D01*
X120973940Y-76008213D02*
X120933081Y-76106541D01*
X120933081Y-76106541D02*
X120888899Y-76157366D01*
X120888899Y-76157366D02*
X120797215Y-76211512D01*
X120797215Y-76211512D02*
X120559700Y-76228121D01*
X120559700Y-76228121D02*
X120461372Y-76187261D01*
X120461372Y-76187261D02*
X120410547Y-76143080D01*
X120410547Y-76143080D02*
X120356401Y-76051396D01*
X120356401Y-76051396D02*
X120336470Y-75766377D01*
X120336470Y-75766377D02*
X120377330Y-75668050D01*
X120377330Y-75668050D02*
X120421511Y-75617225D01*
X121430365Y-77074209D02*
X121397147Y-76599179D01*
X121397147Y-76599179D02*
X120918795Y-76584893D01*
X120918795Y-76584893D02*
X120969620Y-76629075D01*
X120969620Y-76629075D02*
X121023766Y-76720759D01*
X121023766Y-76720759D02*
X121040375Y-76958274D01*
X121040375Y-76958274D02*
X120999516Y-77056602D01*
X120999516Y-77056602D02*
X120955334Y-77107427D01*
X120955334Y-77107427D02*
X120863650Y-77161573D01*
X120863650Y-77161573D02*
X120626135Y-77178182D01*
X120626135Y-77178182D02*
X120527807Y-77137322D01*
X120527807Y-77137322D02*
X120476982Y-77093141D01*
X120476982Y-77093141D02*
X120422835Y-77001457D01*
X120422835Y-77001457D02*
X120406227Y-76763941D01*
X120406227Y-76763941D02*
X120447086Y-76665614D01*
X120447086Y-76665614D02*
X120491268Y-76614789D01*
X120914821Y-79449782D02*
X121912385Y-79380026D01*
X120954682Y-80019819D02*
X121494823Y-79552431D01*
X121952246Y-79950062D02*
X121342348Y-79419887D01*
X180689222Y-89164585D02*
X181689069Y-89147133D01*
X181689069Y-89147133D02*
X181693225Y-89385192D01*
X181693225Y-89385192D02*
X181648106Y-89528858D01*
X181648106Y-89528858D02*
X181554544Y-89625744D01*
X181554544Y-89625744D02*
X181460152Y-89675018D01*
X181460152Y-89675018D02*
X181270536Y-89725954D01*
X181270536Y-89725954D02*
X181127700Y-89728447D01*
X181127700Y-89728447D02*
X180936422Y-89684160D01*
X180936422Y-89684160D02*
X180840368Y-89638210D01*
X180840368Y-89638210D02*
X180743482Y-89544649D01*
X180743482Y-89544649D02*
X180693377Y-89402644D01*
X180693377Y-89402644D02*
X180689222Y-89164585D01*
X181380719Y-90581304D02*
X180714154Y-90592939D01*
X181757458Y-90336597D02*
X181039125Y-90111004D01*
X181039125Y-90111004D02*
X181049929Y-90729957D01*
X181397340Y-91533540D02*
X180730775Y-91545175D01*
X181774079Y-91288833D02*
X181055747Y-91063240D01*
X181055747Y-91063240D02*
X181066551Y-91682193D01*
X181092288Y-93920669D02*
X182092136Y-93903217D01*
X181102261Y-94492011D02*
X181666123Y-94053532D01*
X182102108Y-94474558D02*
X181520794Y-93913190D01*
X141841951Y-109416024D02*
X142840580Y-109363688D01*
X142840580Y-109363688D02*
X142853041Y-109601457D01*
X142853041Y-109601457D02*
X142812964Y-109746611D01*
X142812964Y-109746611D02*
X142722841Y-109846703D01*
X142722841Y-109846703D02*
X142630226Y-109899241D01*
X142630226Y-109899241D02*
X142442503Y-109956763D01*
X142442503Y-109956763D02*
X142299841Y-109964240D01*
X142299841Y-109964240D02*
X142107134Y-109926655D01*
X142107134Y-109926655D02*
X142009534Y-109884086D01*
X142009534Y-109884086D02*
X141909442Y-109793962D01*
X141909442Y-109793962D02*
X141854412Y-109653793D01*
X141854412Y-109653793D02*
X141841951Y-109416024D01*
X142582470Y-110807747D02*
X141916717Y-110842638D01*
X142950439Y-110550041D02*
X142224671Y-110349655D01*
X142224671Y-110349655D02*
X142257070Y-110967854D01*
X142522253Y-111478485D02*
X142564822Y-111380885D01*
X142564822Y-111380885D02*
X142609884Y-111330839D01*
X142609884Y-111330839D02*
X142702499Y-111278301D01*
X142702499Y-111278301D02*
X142750053Y-111275809D01*
X142750053Y-111275809D02*
X142847653Y-111318378D01*
X142847653Y-111318378D02*
X142897699Y-111363440D01*
X142897699Y-111363440D02*
X142950237Y-111456055D01*
X142950237Y-111456055D02*
X142960206Y-111646270D01*
X142960206Y-111646270D02*
X142917636Y-111743870D01*
X142917636Y-111743870D02*
X142872575Y-111793916D01*
X142872575Y-111793916D02*
X142779959Y-111846454D01*
X142779959Y-111846454D02*
X142732405Y-111848946D01*
X142732405Y-111848946D02*
X142634806Y-111806377D01*
X142634806Y-111806377D02*
X142584760Y-111761315D01*
X142584760Y-111761315D02*
X142532221Y-111668700D01*
X142532221Y-111668700D02*
X142522253Y-111478485D01*
X142522253Y-111478485D02*
X142469715Y-111385869D01*
X142469715Y-111385869D02*
X142419669Y-111340808D01*
X142419669Y-111340808D02*
X142322069Y-111298238D01*
X142322069Y-111298238D02*
X142131854Y-111308207D01*
X142131854Y-111308207D02*
X142039238Y-111360745D01*
X142039238Y-111360745D02*
X141994177Y-111410791D01*
X141994177Y-111410791D02*
X141951607Y-111508391D01*
X141951607Y-111508391D02*
X141961576Y-111698606D01*
X141961576Y-111698606D02*
X142014114Y-111791221D01*
X142014114Y-111791221D02*
X142064160Y-111836283D01*
X142064160Y-111836283D02*
X142161760Y-111878853D01*
X142161760Y-111878853D02*
X142351975Y-111868884D01*
X142351975Y-111868884D02*
X142444590Y-111816346D01*
X142444590Y-111816346D02*
X142489652Y-111766300D01*
X142489652Y-111766300D02*
X142532221Y-111668700D01*
X142410758Y-114155145D02*
X143409387Y-114102809D01*
X142440664Y-114725791D02*
X142988880Y-114267900D01*
X143439294Y-114673455D02*
X142838742Y-114132715D01*
X139550065Y-52344344D02*
X140548694Y-52292008D01*
X140548694Y-52292008D02*
X140561155Y-52529777D01*
X140561155Y-52529777D02*
X140521078Y-52674931D01*
X140521078Y-52674931D02*
X140430955Y-52775023D01*
X140430955Y-52775023D02*
X140338340Y-52827561D01*
X140338340Y-52827561D02*
X140150617Y-52885083D01*
X140150617Y-52885083D02*
X140007955Y-52892560D01*
X140007955Y-52892560D02*
X139815248Y-52854975D01*
X139815248Y-52854975D02*
X139717648Y-52812406D01*
X139717648Y-52812406D02*
X139617556Y-52722282D01*
X139617556Y-52722282D02*
X139562526Y-52582113D01*
X139562526Y-52582113D02*
X139550065Y-52344344D01*
X140596046Y-53195530D02*
X140628445Y-53813730D01*
X140628445Y-53813730D02*
X140230569Y-53500790D01*
X140230569Y-53500790D02*
X140238045Y-53643452D01*
X140238045Y-53643452D02*
X140195476Y-53741052D01*
X140195476Y-53741052D02*
X140150414Y-53791098D01*
X140150414Y-53791098D02*
X140057799Y-53843636D01*
X140057799Y-53843636D02*
X139820030Y-53856097D01*
X139820030Y-53856097D02*
X139722430Y-53813527D01*
X139722430Y-53813527D02*
X139672384Y-53768466D01*
X139672384Y-53768466D02*
X139619846Y-53675850D01*
X139619846Y-53675850D02*
X139604893Y-53390528D01*
X139604893Y-53390528D02*
X139647463Y-53292928D01*
X139647463Y-53292928D02*
X139692524Y-53242882D01*
X140660843Y-54431929D02*
X140665827Y-54527036D01*
X140665827Y-54527036D02*
X140623258Y-54624636D01*
X140623258Y-54624636D02*
X140578196Y-54674682D01*
X140578196Y-54674682D02*
X140485581Y-54727220D01*
X140485581Y-54727220D02*
X140297858Y-54784743D01*
X140297858Y-54784743D02*
X140060089Y-54797204D01*
X140060089Y-54797204D02*
X139867382Y-54759619D01*
X139867382Y-54759619D02*
X139769782Y-54717049D01*
X139769782Y-54717049D02*
X139719736Y-54671988D01*
X139719736Y-54671988D02*
X139667198Y-54579372D01*
X139667198Y-54579372D02*
X139662213Y-54484265D01*
X139662213Y-54484265D02*
X139704783Y-54386665D01*
X139704783Y-54386665D02*
X139749844Y-54336619D01*
X139749844Y-54336619D02*
X139842460Y-54284081D01*
X139842460Y-54284081D02*
X140030183Y-54226558D01*
X140030183Y-54226558D02*
X140267952Y-54214097D01*
X140267952Y-54214097D02*
X140460659Y-54251682D01*
X140460659Y-54251682D02*
X140558259Y-54294252D01*
X140558259Y-54294252D02*
X140608305Y-54339313D01*
X140608305Y-54339313D02*
X140660843Y-54431929D01*
X140118872Y-57083465D02*
X141117501Y-57031129D01*
X140148778Y-57654111D02*
X140696994Y-57196220D01*
X141147408Y-57601775D02*
X140546856Y-57061035D01*
X201345351Y-57608394D02*
X200345351Y-57608394D01*
X200345351Y-57608394D02*
X200345351Y-57370299D01*
X200345351Y-57370299D02*
X200392970Y-57227442D01*
X200392970Y-57227442D02*
X200488208Y-57132204D01*
X200488208Y-57132204D02*
X200583446Y-57084585D01*
X200583446Y-57084585D02*
X200773922Y-57036966D01*
X200773922Y-57036966D02*
X200916779Y-57036966D01*
X200916779Y-57036966D02*
X201107255Y-57084585D01*
X201107255Y-57084585D02*
X201202493Y-57132204D01*
X201202493Y-57132204D02*
X201297732Y-57227442D01*
X201297732Y-57227442D02*
X201345351Y-57370299D01*
X201345351Y-57370299D02*
X201345351Y-57608394D01*
X200345351Y-56703632D02*
X200345351Y-56084585D01*
X200345351Y-56084585D02*
X200726303Y-56417918D01*
X200726303Y-56417918D02*
X200726303Y-56275061D01*
X200726303Y-56275061D02*
X200773922Y-56179823D01*
X200773922Y-56179823D02*
X200821541Y-56132204D01*
X200821541Y-56132204D02*
X200916779Y-56084585D01*
X200916779Y-56084585D02*
X201154874Y-56084585D01*
X201154874Y-56084585D02*
X201250112Y-56132204D01*
X201250112Y-56132204D02*
X201297732Y-56179823D01*
X201297732Y-56179823D02*
X201345351Y-56275061D01*
X201345351Y-56275061D02*
X201345351Y-56560775D01*
X201345351Y-56560775D02*
X201297732Y-56656013D01*
X201297732Y-56656013D02*
X201250112Y-56703632D01*
X200345351Y-55751251D02*
X200345351Y-55132204D01*
X200345351Y-55132204D02*
X200726303Y-55465537D01*
X200726303Y-55465537D02*
X200726303Y-55322680D01*
X200726303Y-55322680D02*
X200773922Y-55227442D01*
X200773922Y-55227442D02*
X200821541Y-55179823D01*
X200821541Y-55179823D02*
X200916779Y-55132204D01*
X200916779Y-55132204D02*
X201154874Y-55132204D01*
X201154874Y-55132204D02*
X201250112Y-55179823D01*
X201250112Y-55179823D02*
X201297732Y-55227442D01*
X201297732Y-55227442D02*
X201345351Y-55322680D01*
X201345351Y-55322680D02*
X201345351Y-55608394D01*
X201345351Y-55608394D02*
X201297732Y-55703632D01*
X201297732Y-55703632D02*
X201250112Y-55751251D01*
X201665351Y-60466026D02*
X200665351Y-60466026D01*
X201665351Y-59894598D02*
X201093922Y-60323169D01*
X200665351Y-59894598D02*
X201236779Y-60466026D01*
X159240228Y-47019345D02*
X160239618Y-46984446D01*
X160239618Y-46984446D02*
X160247928Y-47222396D01*
X160247928Y-47222396D02*
X160205323Y-47366828D01*
X160205323Y-47366828D02*
X160113467Y-47465332D01*
X160113467Y-47465332D02*
X160019949Y-47516246D01*
X160019949Y-47516246D02*
X159831251Y-47570483D01*
X159831251Y-47570483D02*
X159688480Y-47575469D01*
X159688480Y-47575469D02*
X159496458Y-47534526D01*
X159496458Y-47534526D02*
X159399616Y-47490260D01*
X159399616Y-47490260D02*
X159301113Y-47398404D01*
X159301113Y-47398404D02*
X159248537Y-47257296D01*
X159248537Y-47257296D02*
X159240228Y-47019345D01*
X160271194Y-47888657D02*
X160292799Y-48507327D01*
X160292799Y-48507327D02*
X159900445Y-48187492D01*
X159900445Y-48187492D02*
X159905431Y-48330262D01*
X159905431Y-48330262D02*
X159861164Y-48427104D01*
X159861164Y-48427104D02*
X159815236Y-48476356D01*
X159815236Y-48476356D02*
X159721718Y-48527270D01*
X159721718Y-48527270D02*
X159483768Y-48535579D01*
X159483768Y-48535579D02*
X159386926Y-48491313D01*
X159386926Y-48491313D02*
X159337674Y-48445385D01*
X159337674Y-48445385D02*
X159286760Y-48351867D01*
X159286760Y-48351867D02*
X159276789Y-48066326D01*
X159276789Y-48066326D02*
X159321055Y-47969484D01*
X159321055Y-47969484D02*
X159366983Y-47920232D01*
X159326645Y-49494027D02*
X159306703Y-48922947D01*
X159316674Y-49208487D02*
X160316065Y-49173588D01*
X160316065Y-49173588D02*
X160169971Y-49083393D01*
X160169971Y-49083393D02*
X160071467Y-48991537D01*
X160071467Y-48991537D02*
X160020553Y-48898019D01*
X159726238Y-51767671D02*
X160725629Y-51732772D01*
X159746181Y-52338752D02*
X160302304Y-51890499D01*
X160745572Y-52303852D02*
X160154549Y-51752714D01*
X160609048Y-85276694D02*
X161608438Y-85241795D01*
X161608438Y-85241795D02*
X161616748Y-85479745D01*
X161616748Y-85479745D02*
X161574143Y-85624177D01*
X161574143Y-85624177D02*
X161482287Y-85722681D01*
X161482287Y-85722681D02*
X161388769Y-85773595D01*
X161388769Y-85773595D02*
X161200071Y-85827832D01*
X161200071Y-85827832D02*
X161057300Y-85832818D01*
X161057300Y-85832818D02*
X160865278Y-85791875D01*
X160865278Y-85791875D02*
X160768436Y-85747609D01*
X160768436Y-85747609D02*
X160669933Y-85655753D01*
X160669933Y-85655753D02*
X160617357Y-85514645D01*
X160617357Y-85514645D02*
X160609048Y-85276694D01*
X161325165Y-86681129D02*
X160658904Y-86704396D01*
X161697575Y-86429884D02*
X160975415Y-86216862D01*
X160975415Y-86216862D02*
X160997020Y-86835533D01*
X161673252Y-87097806D02*
X161694856Y-87716477D01*
X161694856Y-87716477D02*
X161302503Y-87396642D01*
X161302503Y-87396642D02*
X161307488Y-87539412D01*
X161307488Y-87539412D02*
X161263222Y-87636254D01*
X161263222Y-87636254D02*
X161217294Y-87685506D01*
X161217294Y-87685506D02*
X161123776Y-87736420D01*
X161123776Y-87736420D02*
X160885826Y-87744729D01*
X160885826Y-87744729D02*
X160788984Y-87700463D01*
X160788984Y-87700463D02*
X160739732Y-87654535D01*
X160739732Y-87654535D02*
X160688818Y-87561016D01*
X160688818Y-87561016D02*
X160678847Y-87275476D01*
X160678847Y-87275476D02*
X160723113Y-87178634D01*
X160723113Y-87178634D02*
X160769041Y-87129382D01*
X161095058Y-90025020D02*
X162094449Y-89990121D01*
X161115001Y-90596101D02*
X161671124Y-90147848D01*
X162114392Y-90561201D02*
X161523369Y-90010063D01*
X141050065Y-90344346D02*
X142048694Y-90292010D01*
X142048694Y-90292010D02*
X142061155Y-90529779D01*
X142061155Y-90529779D02*
X142021078Y-90674933D01*
X142021078Y-90674933D02*
X141930955Y-90775025D01*
X141930955Y-90775025D02*
X141838340Y-90827563D01*
X141838340Y-90827563D02*
X141650617Y-90885085D01*
X141650617Y-90885085D02*
X141507955Y-90892562D01*
X141507955Y-90892562D02*
X141315248Y-90854977D01*
X141315248Y-90854977D02*
X141217648Y-90812408D01*
X141217648Y-90812408D02*
X141117556Y-90722284D01*
X141117556Y-90722284D02*
X141062526Y-90582115D01*
X141062526Y-90582115D02*
X141050065Y-90344346D01*
X141790584Y-91736069D02*
X141124831Y-91770960D01*
X142158553Y-91478363D02*
X141432785Y-91277977D01*
X141432785Y-91277977D02*
X141465184Y-91896176D01*
X142053274Y-92199146D02*
X142103320Y-92244208D01*
X142103320Y-92244208D02*
X142155859Y-92336823D01*
X142155859Y-92336823D02*
X142168320Y-92574592D01*
X142168320Y-92574592D02*
X142125750Y-92672192D01*
X142125750Y-92672192D02*
X142080689Y-92722238D01*
X142080689Y-92722238D02*
X141988073Y-92774776D01*
X141988073Y-92774776D02*
X141892966Y-92779760D01*
X141892966Y-92779760D02*
X141747812Y-92739683D01*
X141747812Y-92739683D02*
X141147260Y-92198944D01*
X141147260Y-92198944D02*
X141179659Y-92817143D01*
X141618872Y-95083467D02*
X142617501Y-95031131D01*
X141648778Y-95654113D02*
X142196994Y-95196222D01*
X142647408Y-95601777D02*
X142046856Y-95061037D01*
X201345352Y-115418396D02*
X200345352Y-115418396D01*
X200345352Y-115418396D02*
X200345352Y-115180301D01*
X200345352Y-115180301D02*
X200392971Y-115037444D01*
X200392971Y-115037444D02*
X200488209Y-114942206D01*
X200488209Y-114942206D02*
X200583447Y-114894587D01*
X200583447Y-114894587D02*
X200773923Y-114846968D01*
X200773923Y-114846968D02*
X200916780Y-114846968D01*
X200916780Y-114846968D02*
X201107256Y-114894587D01*
X201107256Y-114894587D02*
X201202494Y-114942206D01*
X201202494Y-114942206D02*
X201297733Y-115037444D01*
X201297733Y-115037444D02*
X201345352Y-115180301D01*
X201345352Y-115180301D02*
X201345352Y-115418396D01*
X200345352Y-113942206D02*
X200345352Y-114418396D01*
X200345352Y-114418396D02*
X200821542Y-114466015D01*
X200821542Y-114466015D02*
X200773923Y-114418396D01*
X200773923Y-114418396D02*
X200726304Y-114323158D01*
X200726304Y-114323158D02*
X200726304Y-114085063D01*
X200726304Y-114085063D02*
X200773923Y-113989825D01*
X200773923Y-113989825D02*
X200821542Y-113942206D01*
X200821542Y-113942206D02*
X200916780Y-113894587D01*
X200916780Y-113894587D02*
X201154875Y-113894587D01*
X201154875Y-113894587D02*
X201250113Y-113942206D01*
X201250113Y-113942206D02*
X201297733Y-113989825D01*
X201297733Y-113989825D02*
X201345352Y-114085063D01*
X201345352Y-114085063D02*
X201345352Y-114323158D01*
X201345352Y-114323158D02*
X201297733Y-114418396D01*
X201297733Y-114418396D02*
X201250113Y-114466015D01*
X201345352Y-112942206D02*
X201345352Y-113513634D01*
X201345352Y-113227920D02*
X200345352Y-113227920D01*
X200345352Y-113227920D02*
X200488209Y-113323158D01*
X200488209Y-113323158D02*
X200583447Y-113418396D01*
X200583447Y-113418396D02*
X200631066Y-113513634D01*
X201665352Y-118276028D02*
X200665352Y-118276028D01*
X201665352Y-117704600D02*
X201093923Y-118133171D01*
X200665352Y-117704600D02*
X201236780Y-118276028D01*
X159771270Y-66201299D02*
X160770660Y-66166400D01*
X160770660Y-66166400D02*
X160778970Y-66404350D01*
X160778970Y-66404350D02*
X160736365Y-66548782D01*
X160736365Y-66548782D02*
X160644509Y-66647286D01*
X160644509Y-66647286D02*
X160550991Y-66698200D01*
X160550991Y-66698200D02*
X160362293Y-66752437D01*
X160362293Y-66752437D02*
X160219522Y-66757423D01*
X160219522Y-66757423D02*
X160027500Y-66716480D01*
X160027500Y-66716480D02*
X159930658Y-66672214D01*
X159930658Y-66672214D02*
X159832155Y-66580358D01*
X159832155Y-66580358D02*
X159779579Y-66439250D01*
X159779579Y-66439250D02*
X159771270Y-66201299D01*
X160802236Y-67070611D02*
X160823841Y-67689281D01*
X160823841Y-67689281D02*
X160431487Y-67369446D01*
X160431487Y-67369446D02*
X160436473Y-67512216D01*
X160436473Y-67512216D02*
X160392206Y-67609058D01*
X160392206Y-67609058D02*
X160346278Y-67658310D01*
X160346278Y-67658310D02*
X160252760Y-67709224D01*
X160252760Y-67709224D02*
X160014810Y-67717533D01*
X160014810Y-67717533D02*
X159917968Y-67673267D01*
X159917968Y-67673267D02*
X159868716Y-67627339D01*
X159868716Y-67627339D02*
X159817802Y-67533821D01*
X159817802Y-67533821D02*
X159807831Y-67248280D01*
X159807831Y-67248280D02*
X159852097Y-67151438D01*
X159852097Y-67151438D02*
X159898025Y-67102186D01*
X160835474Y-68022411D02*
X160858740Y-68688672D01*
X160858740Y-68688672D02*
X159844392Y-68295261D01*
X160257280Y-70949625D02*
X161256671Y-70914726D01*
X160277223Y-71520706D02*
X160833346Y-71072453D01*
X161276614Y-71485806D02*
X160685591Y-70934668D01*
X121831556Y-112702633D02*
X122829120Y-112632877D01*
X122829120Y-112632877D02*
X122845729Y-112870392D01*
X122845729Y-112870392D02*
X122808191Y-113016223D01*
X122808191Y-113016223D02*
X122719828Y-113117872D01*
X122719828Y-113117872D02*
X122628144Y-113172019D01*
X122628144Y-113172019D02*
X122441454Y-113232809D01*
X122441454Y-113232809D02*
X122298944Y-113242774D01*
X122298944Y-113242774D02*
X122105610Y-113208558D01*
X122105610Y-113208558D02*
X122007283Y-113167699D01*
X122007283Y-113167699D02*
X121905633Y-113079336D01*
X121905633Y-113079336D02*
X121848165Y-112940149D01*
X121848165Y-112940149D02*
X121831556Y-112702633D01*
X122596251Y-114081220D02*
X121931208Y-114127725D01*
X122959667Y-113817131D02*
X122230512Y-113629442D01*
X122230512Y-113629442D02*
X122273695Y-114246982D01*
X122958668Y-114485496D02*
X123005172Y-115150538D01*
X123005172Y-115150538D02*
X121977713Y-114792767D01*
X122482985Y-117431105D02*
X123480549Y-117361349D01*
X122522846Y-118001142D02*
X123062987Y-117533754D01*
X123520410Y-117931385D02*
X122910512Y-117401210D01*
X225237849Y-77298396D02*
X224237849Y-77298396D01*
X224237849Y-77298396D02*
X224237849Y-77060301D01*
X224237849Y-77060301D02*
X224285468Y-76917444D01*
X224285468Y-76917444D02*
X224380706Y-76822206D01*
X224380706Y-76822206D02*
X224475944Y-76774587D01*
X224475944Y-76774587D02*
X224666420Y-76726968D01*
X224666420Y-76726968D02*
X224809277Y-76726968D01*
X224809277Y-76726968D02*
X224999753Y-76774587D01*
X224999753Y-76774587D02*
X225094991Y-76822206D01*
X225094991Y-76822206D02*
X225190230Y-76917444D01*
X225190230Y-76917444D02*
X225237849Y-77060301D01*
X225237849Y-77060301D02*
X225237849Y-77298396D01*
X224571182Y-75869825D02*
X225237849Y-75869825D01*
X224190230Y-76107920D02*
X224904515Y-76346015D01*
X224904515Y-76346015D02*
X224904515Y-75726968D01*
X224237849Y-75155539D02*
X224237849Y-75060301D01*
X224237849Y-75060301D02*
X224285468Y-74965063D01*
X224285468Y-74965063D02*
X224333087Y-74917444D01*
X224333087Y-74917444D02*
X224428325Y-74869825D01*
X224428325Y-74869825D02*
X224618801Y-74822206D01*
X224618801Y-74822206D02*
X224856896Y-74822206D01*
X224856896Y-74822206D02*
X225047372Y-74869825D01*
X225047372Y-74869825D02*
X225142610Y-74917444D01*
X225142610Y-74917444D02*
X225190230Y-74965063D01*
X225190230Y-74965063D02*
X225237849Y-75060301D01*
X225237849Y-75060301D02*
X225237849Y-75155539D01*
X225237849Y-75155539D02*
X225190230Y-75250777D01*
X225190230Y-75250777D02*
X225142610Y-75298396D01*
X225142610Y-75298396D02*
X225047372Y-75346015D01*
X225047372Y-75346015D02*
X224856896Y-75393634D01*
X224856896Y-75393634D02*
X224618801Y-75393634D01*
X224618801Y-75393634D02*
X224428325Y-75346015D01*
X224428325Y-75346015D02*
X224333087Y-75298396D01*
X224333087Y-75298396D02*
X224285468Y-75250777D01*
X224285468Y-75250777D02*
X224237849Y-75155539D01*
X225557849Y-80156028D02*
X224557849Y-80156028D01*
X225557849Y-79584600D02*
X224986420Y-80013171D01*
X224557849Y-79584600D02*
X225129277Y-80156028D01*
X87001447Y-70531349D02*
X87001447Y-71340872D01*
X87001447Y-71340872D02*
X87049066Y-71436110D01*
X87049066Y-71436110D02*
X87096685Y-71483730D01*
X87096685Y-71483730D02*
X87191923Y-71531349D01*
X87191923Y-71531349D02*
X87382399Y-71531349D01*
X87382399Y-71531349D02*
X87477637Y-71483730D01*
X87477637Y-71483730D02*
X87525256Y-71436110D01*
X87525256Y-71436110D02*
X87572875Y-71340872D01*
X87572875Y-71340872D02*
X87572875Y-70531349D01*
X88572875Y-71531349D02*
X88001447Y-71531349D01*
X88287161Y-71531349D02*
X88287161Y-70531349D01*
X88287161Y-70531349D02*
X88191923Y-70674206D01*
X88191923Y-70674206D02*
X88096685Y-70769444D01*
X88096685Y-70769444D02*
X88001447Y-70817063D01*
X73607350Y-82897398D02*
X73526537Y-82924335D01*
X73526537Y-82924335D02*
X73445725Y-83005148D01*
X73445725Y-83005148D02*
X73391850Y-83112897D01*
X73391850Y-83112897D02*
X73391850Y-83220647D01*
X73391850Y-83220647D02*
X73418788Y-83301459D01*
X73418788Y-83301459D02*
X73499600Y-83436146D01*
X73499600Y-83436146D02*
X73580412Y-83516958D01*
X73580412Y-83516958D02*
X73715099Y-83597771D01*
X73715099Y-83597771D02*
X73795912Y-83624708D01*
X73795912Y-83624708D02*
X73903661Y-83624708D01*
X73903661Y-83624708D02*
X74011411Y-83570833D01*
X74011411Y-83570833D02*
X74065286Y-83516958D01*
X74065286Y-83516958D02*
X74119160Y-83409209D01*
X74119160Y-83409209D02*
X74119160Y-83355334D01*
X74119160Y-83355334D02*
X73930599Y-83166772D01*
X73930599Y-83166772D02*
X73822849Y-83274522D01*
X74415472Y-83166772D02*
X73849786Y-82601087D01*
X73849786Y-82601087D02*
X74065286Y-82385587D01*
X74065286Y-82385587D02*
X74146098Y-82358650D01*
X74146098Y-82358650D02*
X74199973Y-82358650D01*
X74199973Y-82358650D02*
X74280785Y-82385587D01*
X74280785Y-82385587D02*
X74361597Y-82466400D01*
X74361597Y-82466400D02*
X74388534Y-82547212D01*
X74388534Y-82547212D02*
X74388534Y-82601087D01*
X74388534Y-82601087D02*
X74361597Y-82681899D01*
X74361597Y-82681899D02*
X74146098Y-82897398D01*
X75277469Y-82304775D02*
X74954220Y-82628024D01*
X75115844Y-82466400D02*
X74550159Y-81900714D01*
X74550159Y-81900714D02*
X74577096Y-82035401D01*
X74577096Y-82035401D02*
X74577096Y-82143151D01*
X74577096Y-82143151D02*
X74550159Y-82223963D01*
X75816217Y-81766027D02*
X75492968Y-82089276D01*
X75654592Y-81927651D02*
X75088907Y-81361966D01*
X75088907Y-81361966D02*
X75115844Y-81496653D01*
X75115844Y-81496653D02*
X75115844Y-81604403D01*
X75115844Y-81604403D02*
X75088907Y-81685215D01*
X73607350Y-85437398D02*
X73526537Y-85464335D01*
X73526537Y-85464335D02*
X73445725Y-85545148D01*
X73445725Y-85545148D02*
X73391850Y-85652897D01*
X73391850Y-85652897D02*
X73391850Y-85760647D01*
X73391850Y-85760647D02*
X73418788Y-85841459D01*
X73418788Y-85841459D02*
X73499600Y-85976146D01*
X73499600Y-85976146D02*
X73580412Y-86056958D01*
X73580412Y-86056958D02*
X73715099Y-86137771D01*
X73715099Y-86137771D02*
X73795912Y-86164708D01*
X73795912Y-86164708D02*
X73903661Y-86164708D01*
X73903661Y-86164708D02*
X74011411Y-86110833D01*
X74011411Y-86110833D02*
X74065286Y-86056958D01*
X74065286Y-86056958D02*
X74119160Y-85949209D01*
X74119160Y-85949209D02*
X74119160Y-85895334D01*
X74119160Y-85895334D02*
X73930599Y-85706772D01*
X73930599Y-85706772D02*
X73822849Y-85814522D01*
X74415472Y-85706772D02*
X73849786Y-85141087D01*
X73849786Y-85141087D02*
X74065286Y-84925587D01*
X74065286Y-84925587D02*
X74146098Y-84898650D01*
X74146098Y-84898650D02*
X74199973Y-84898650D01*
X74199973Y-84898650D02*
X74280785Y-84925587D01*
X74280785Y-84925587D02*
X74361597Y-85006400D01*
X74361597Y-85006400D02*
X74388534Y-85087212D01*
X74388534Y-85087212D02*
X74388534Y-85141087D01*
X74388534Y-85141087D02*
X74361597Y-85221899D01*
X74361597Y-85221899D02*
X74146098Y-85437398D01*
X75277469Y-84844775D02*
X74954220Y-85168024D01*
X75115844Y-85006400D02*
X74550159Y-84440714D01*
X74550159Y-84440714D02*
X74577096Y-84575401D01*
X74577096Y-84575401D02*
X74577096Y-84683151D01*
X74577096Y-84683151D02*
X74550159Y-84763963D01*
X74981157Y-84117465D02*
X74981157Y-84063590D01*
X74981157Y-84063590D02*
X75008095Y-83982778D01*
X75008095Y-83982778D02*
X75142782Y-83848091D01*
X75142782Y-83848091D02*
X75223594Y-83821154D01*
X75223594Y-83821154D02*
X75277469Y-83821154D01*
X75277469Y-83821154D02*
X75358281Y-83848091D01*
X75358281Y-83848091D02*
X75412156Y-83901966D01*
X75412156Y-83901966D02*
X75466031Y-84009716D01*
X75466031Y-84009716D02*
X75466031Y-84656213D01*
X75466031Y-84656213D02*
X75816217Y-84306027D01*
X73707350Y-93057398D02*
X73626537Y-93084335D01*
X73626537Y-93084335D02*
X73545725Y-93165148D01*
X73545725Y-93165148D02*
X73491850Y-93272897D01*
X73491850Y-93272897D02*
X73491850Y-93380647D01*
X73491850Y-93380647D02*
X73518788Y-93461459D01*
X73518788Y-93461459D02*
X73599600Y-93596146D01*
X73599600Y-93596146D02*
X73680412Y-93676958D01*
X73680412Y-93676958D02*
X73815099Y-93757771D01*
X73815099Y-93757771D02*
X73895912Y-93784708D01*
X73895912Y-93784708D02*
X74003661Y-93784708D01*
X74003661Y-93784708D02*
X74111411Y-93730833D01*
X74111411Y-93730833D02*
X74165286Y-93676958D01*
X74165286Y-93676958D02*
X74219160Y-93569209D01*
X74219160Y-93569209D02*
X74219160Y-93515334D01*
X74219160Y-93515334D02*
X74030599Y-93326772D01*
X74030599Y-93326772D02*
X73922849Y-93434522D01*
X74515472Y-93326772D02*
X73949786Y-92761087D01*
X73949786Y-92761087D02*
X74165286Y-92545587D01*
X74165286Y-92545587D02*
X74246098Y-92518650D01*
X74246098Y-92518650D02*
X74299973Y-92518650D01*
X74299973Y-92518650D02*
X74380785Y-92545587D01*
X74380785Y-92545587D02*
X74461597Y-92626400D01*
X74461597Y-92626400D02*
X74488534Y-92707212D01*
X74488534Y-92707212D02*
X74488534Y-92761087D01*
X74488534Y-92761087D02*
X74461597Y-92841899D01*
X74461597Y-92841899D02*
X74246098Y-93057398D01*
X75377469Y-92464775D02*
X75054220Y-92788024D01*
X75215844Y-92626400D02*
X74650159Y-92060714D01*
X74650159Y-92060714D02*
X74677096Y-92195401D01*
X74677096Y-92195401D02*
X74677096Y-92303151D01*
X74677096Y-92303151D02*
X74650159Y-92383963D01*
X75485218Y-91602778D02*
X75862342Y-91979902D01*
X75135032Y-91521966D02*
X75404406Y-92060714D01*
X75404406Y-92060714D02*
X75754592Y-91710528D01*
X73753350Y-80357398D02*
X73672537Y-80384335D01*
X73672537Y-80384335D02*
X73591725Y-80465148D01*
X73591725Y-80465148D02*
X73537850Y-80572897D01*
X73537850Y-80572897D02*
X73537850Y-80680647D01*
X73537850Y-80680647D02*
X73564788Y-80761459D01*
X73564788Y-80761459D02*
X73645600Y-80896146D01*
X73645600Y-80896146D02*
X73726412Y-80976958D01*
X73726412Y-80976958D02*
X73861099Y-81057771D01*
X73861099Y-81057771D02*
X73941912Y-81084708D01*
X73941912Y-81084708D02*
X74049661Y-81084708D01*
X74049661Y-81084708D02*
X74157411Y-81030833D01*
X74157411Y-81030833D02*
X74211286Y-80976958D01*
X74211286Y-80976958D02*
X74265160Y-80869209D01*
X74265160Y-80869209D02*
X74265160Y-80815334D01*
X74265160Y-80815334D02*
X74076599Y-80626772D01*
X74076599Y-80626772D02*
X73968849Y-80734522D01*
X74561472Y-80626772D02*
X73995786Y-80061087D01*
X73995786Y-80061087D02*
X74211286Y-79845587D01*
X74211286Y-79845587D02*
X74292098Y-79818650D01*
X74292098Y-79818650D02*
X74345973Y-79818650D01*
X74345973Y-79818650D02*
X74426785Y-79845587D01*
X74426785Y-79845587D02*
X74507597Y-79926400D01*
X74507597Y-79926400D02*
X74534534Y-80007212D01*
X74534534Y-80007212D02*
X74534534Y-80061087D01*
X74534534Y-80061087D02*
X74507597Y-80141899D01*
X74507597Y-80141899D02*
X74292098Y-80357398D01*
X75423469Y-79764775D02*
X75100220Y-80088024D01*
X75261844Y-79926400D02*
X74696159Y-79360714D01*
X74696159Y-79360714D02*
X74723096Y-79495401D01*
X74723096Y-79495401D02*
X74723096Y-79603151D01*
X74723096Y-79603151D02*
X74696159Y-79683963D01*
X75207970Y-78848903D02*
X75261844Y-78795029D01*
X75261844Y-78795029D02*
X75342657Y-78768091D01*
X75342657Y-78768091D02*
X75396531Y-78768091D01*
X75396531Y-78768091D02*
X75477344Y-78795029D01*
X75477344Y-78795029D02*
X75612031Y-78875841D01*
X75612031Y-78875841D02*
X75746718Y-79010528D01*
X75746718Y-79010528D02*
X75827530Y-79145215D01*
X75827530Y-79145215D02*
X75854467Y-79226027D01*
X75854467Y-79226027D02*
X75854467Y-79279902D01*
X75854467Y-79279902D02*
X75827530Y-79360714D01*
X75827530Y-79360714D02*
X75773655Y-79414589D01*
X75773655Y-79414589D02*
X75692843Y-79441526D01*
X75692843Y-79441526D02*
X75638968Y-79441526D01*
X75638968Y-79441526D02*
X75558156Y-79414589D01*
X75558156Y-79414589D02*
X75423469Y-79333777D01*
X75423469Y-79333777D02*
X75288782Y-79199090D01*
X75288782Y-79199090D02*
X75207970Y-79064403D01*
X75207970Y-79064403D02*
X75181032Y-78983590D01*
X75181032Y-78983590D02*
X75181032Y-78929716D01*
X75181032Y-78929716D02*
X75207970Y-78848903D01*
X73753350Y-87977398D02*
X73672537Y-88004335D01*
X73672537Y-88004335D02*
X73591725Y-88085148D01*
X73591725Y-88085148D02*
X73537850Y-88192897D01*
X73537850Y-88192897D02*
X73537850Y-88300647D01*
X73537850Y-88300647D02*
X73564788Y-88381459D01*
X73564788Y-88381459D02*
X73645600Y-88516146D01*
X73645600Y-88516146D02*
X73726412Y-88596958D01*
X73726412Y-88596958D02*
X73861099Y-88677771D01*
X73861099Y-88677771D02*
X73941912Y-88704708D01*
X73941912Y-88704708D02*
X74049661Y-88704708D01*
X74049661Y-88704708D02*
X74157411Y-88650833D01*
X74157411Y-88650833D02*
X74211286Y-88596958D01*
X74211286Y-88596958D02*
X74265160Y-88489209D01*
X74265160Y-88489209D02*
X74265160Y-88435334D01*
X74265160Y-88435334D02*
X74076599Y-88246772D01*
X74076599Y-88246772D02*
X73968849Y-88354522D01*
X74561472Y-88246772D02*
X73995786Y-87681087D01*
X73995786Y-87681087D02*
X74211286Y-87465587D01*
X74211286Y-87465587D02*
X74292098Y-87438650D01*
X74292098Y-87438650D02*
X74345973Y-87438650D01*
X74345973Y-87438650D02*
X74426785Y-87465587D01*
X74426785Y-87465587D02*
X74507597Y-87546400D01*
X74507597Y-87546400D02*
X74534534Y-87627212D01*
X74534534Y-87627212D02*
X74534534Y-87681087D01*
X74534534Y-87681087D02*
X74507597Y-87761899D01*
X74507597Y-87761899D02*
X74292098Y-87977398D01*
X75423469Y-87384775D02*
X75100220Y-87708024D01*
X75261844Y-87546400D02*
X74696159Y-86980714D01*
X74696159Y-86980714D02*
X74723096Y-87115401D01*
X74723096Y-87115401D02*
X74723096Y-87223151D01*
X74723096Y-87223151D02*
X74696159Y-87303963D01*
X75046345Y-86630528D02*
X75396531Y-86280342D01*
X75396531Y-86280342D02*
X75423469Y-86684403D01*
X75423469Y-86684403D02*
X75504281Y-86603590D01*
X75504281Y-86603590D02*
X75585093Y-86576653D01*
X75585093Y-86576653D02*
X75638968Y-86576653D01*
X75638968Y-86576653D02*
X75719780Y-86603590D01*
X75719780Y-86603590D02*
X75854467Y-86738277D01*
X75854467Y-86738277D02*
X75881405Y-86819090D01*
X75881405Y-86819090D02*
X75881405Y-86872964D01*
X75881405Y-86872964D02*
X75854467Y-86953777D01*
X75854467Y-86953777D02*
X75692843Y-87115401D01*
X75692843Y-87115401D02*
X75612031Y-87142338D01*
X75612031Y-87142338D02*
X75558156Y-87142338D01*
X73753350Y-95597398D02*
X73672537Y-95624335D01*
X73672537Y-95624335D02*
X73591725Y-95705148D01*
X73591725Y-95705148D02*
X73537850Y-95812897D01*
X73537850Y-95812897D02*
X73537850Y-95920647D01*
X73537850Y-95920647D02*
X73564788Y-96001459D01*
X73564788Y-96001459D02*
X73645600Y-96136146D01*
X73645600Y-96136146D02*
X73726412Y-96216958D01*
X73726412Y-96216958D02*
X73861099Y-96297771D01*
X73861099Y-96297771D02*
X73941912Y-96324708D01*
X73941912Y-96324708D02*
X74049661Y-96324708D01*
X74049661Y-96324708D02*
X74157411Y-96270833D01*
X74157411Y-96270833D02*
X74211286Y-96216958D01*
X74211286Y-96216958D02*
X74265160Y-96109209D01*
X74265160Y-96109209D02*
X74265160Y-96055334D01*
X74265160Y-96055334D02*
X74076599Y-95866772D01*
X74076599Y-95866772D02*
X73968849Y-95974522D01*
X74561472Y-95866772D02*
X73995786Y-95301087D01*
X73995786Y-95301087D02*
X74211286Y-95085587D01*
X74211286Y-95085587D02*
X74292098Y-95058650D01*
X74292098Y-95058650D02*
X74345973Y-95058650D01*
X74345973Y-95058650D02*
X74426785Y-95085587D01*
X74426785Y-95085587D02*
X74507597Y-95166400D01*
X74507597Y-95166400D02*
X74534534Y-95247212D01*
X74534534Y-95247212D02*
X74534534Y-95301087D01*
X74534534Y-95301087D02*
X74507597Y-95381899D01*
X74507597Y-95381899D02*
X74292098Y-95597398D01*
X75423469Y-95004775D02*
X75100220Y-95328024D01*
X75261844Y-95166400D02*
X74696159Y-94600714D01*
X74696159Y-94600714D02*
X74723096Y-94735401D01*
X74723096Y-94735401D02*
X74723096Y-94843151D01*
X74723096Y-94843151D02*
X74696159Y-94923963D01*
X75369594Y-93927279D02*
X75100220Y-94196653D01*
X75100220Y-94196653D02*
X75342657Y-94492964D01*
X75342657Y-94492964D02*
X75342657Y-94439090D01*
X75342657Y-94439090D02*
X75369594Y-94358277D01*
X75369594Y-94358277D02*
X75504281Y-94223590D01*
X75504281Y-94223590D02*
X75585093Y-94196653D01*
X75585093Y-94196653D02*
X75638968Y-94196653D01*
X75638968Y-94196653D02*
X75719780Y-94223590D01*
X75719780Y-94223590D02*
X75854467Y-94358277D01*
X75854467Y-94358277D02*
X75881405Y-94439090D01*
X75881405Y-94439090D02*
X75881405Y-94492964D01*
X75881405Y-94492964D02*
X75854467Y-94573777D01*
X75854467Y-94573777D02*
X75719780Y-94708464D01*
X75719780Y-94708464D02*
X75638968Y-94735401D01*
X75638968Y-94735401D02*
X75585093Y-94735401D01*
X74176724Y-49598024D02*
X74095912Y-49624961D01*
X74095912Y-49624961D02*
X74015100Y-49705773D01*
X74015100Y-49705773D02*
X73961225Y-49813523D01*
X73961225Y-49813523D02*
X73961225Y-49921272D01*
X73961225Y-49921272D02*
X73988162Y-50002085D01*
X73988162Y-50002085D02*
X74068975Y-50136772D01*
X74068975Y-50136772D02*
X74149787Y-50217584D01*
X74149787Y-50217584D02*
X74284474Y-50298396D01*
X74284474Y-50298396D02*
X74365286Y-50325333D01*
X74365286Y-50325333D02*
X74473036Y-50325333D01*
X74473036Y-50325333D02*
X74580785Y-50271459D01*
X74580785Y-50271459D02*
X74634660Y-50217584D01*
X74634660Y-50217584D02*
X74688535Y-50109834D01*
X74688535Y-50109834D02*
X74688535Y-50055959D01*
X74688535Y-50055959D02*
X74499973Y-49867398D01*
X74499973Y-49867398D02*
X74392223Y-49975147D01*
X74984846Y-49867398D02*
X74419161Y-49301712D01*
X74419161Y-49301712D02*
X74634660Y-49086213D01*
X74634660Y-49086213D02*
X74715472Y-49059276D01*
X74715472Y-49059276D02*
X74769347Y-49059276D01*
X74769347Y-49059276D02*
X74850159Y-49086213D01*
X74850159Y-49086213D02*
X74930971Y-49167025D01*
X74930971Y-49167025D02*
X74957909Y-49247837D01*
X74957909Y-49247837D02*
X74957909Y-49301712D01*
X74957909Y-49301712D02*
X74930971Y-49382524D01*
X74930971Y-49382524D02*
X74715472Y-49598024D01*
X75846843Y-49005401D02*
X75523594Y-49328650D01*
X75685219Y-49167025D02*
X75119533Y-48601340D01*
X75119533Y-48601340D02*
X75146471Y-48736027D01*
X75146471Y-48736027D02*
X75146471Y-48843776D01*
X75146471Y-48843776D02*
X75119533Y-48924589D01*
X74176724Y-54688024D02*
X74095912Y-54714961D01*
X74095912Y-54714961D02*
X74015100Y-54795773D01*
X74015100Y-54795773D02*
X73961225Y-54903523D01*
X73961225Y-54903523D02*
X73961225Y-55011272D01*
X73961225Y-55011272D02*
X73988162Y-55092085D01*
X73988162Y-55092085D02*
X74068975Y-55226772D01*
X74068975Y-55226772D02*
X74149787Y-55307584D01*
X74149787Y-55307584D02*
X74284474Y-55388396D01*
X74284474Y-55388396D02*
X74365286Y-55415333D01*
X74365286Y-55415333D02*
X74473036Y-55415333D01*
X74473036Y-55415333D02*
X74580785Y-55361459D01*
X74580785Y-55361459D02*
X74634660Y-55307584D01*
X74634660Y-55307584D02*
X74688535Y-55199834D01*
X74688535Y-55199834D02*
X74688535Y-55145959D01*
X74688535Y-55145959D02*
X74499973Y-54957398D01*
X74499973Y-54957398D02*
X74392223Y-55065147D01*
X74984846Y-54957398D02*
X74419161Y-54391712D01*
X74419161Y-54391712D02*
X74634660Y-54176213D01*
X74634660Y-54176213D02*
X74715472Y-54149276D01*
X74715472Y-54149276D02*
X74769347Y-54149276D01*
X74769347Y-54149276D02*
X74850159Y-54176213D01*
X74850159Y-54176213D02*
X74930971Y-54257025D01*
X74930971Y-54257025D02*
X74957909Y-54337837D01*
X74957909Y-54337837D02*
X74957909Y-54391712D01*
X74957909Y-54391712D02*
X74930971Y-54472524D01*
X74930971Y-54472524D02*
X74715472Y-54688024D01*
X75011784Y-53906839D02*
X75011784Y-53852964D01*
X75011784Y-53852964D02*
X75038721Y-53772152D01*
X75038721Y-53772152D02*
X75173408Y-53637465D01*
X75173408Y-53637465D02*
X75254220Y-53610528D01*
X75254220Y-53610528D02*
X75308095Y-53610528D01*
X75308095Y-53610528D02*
X75388907Y-53637465D01*
X75388907Y-53637465D02*
X75442782Y-53691340D01*
X75442782Y-53691340D02*
X75496657Y-53799089D01*
X75496657Y-53799089D02*
X75496657Y-54445587D01*
X75496657Y-54445587D02*
X75846843Y-54095401D01*
X74276724Y-47068024D02*
X74195912Y-47094961D01*
X74195912Y-47094961D02*
X74115100Y-47175773D01*
X74115100Y-47175773D02*
X74061225Y-47283523D01*
X74061225Y-47283523D02*
X74061225Y-47391272D01*
X74061225Y-47391272D02*
X74088162Y-47472085D01*
X74088162Y-47472085D02*
X74168975Y-47606772D01*
X74168975Y-47606772D02*
X74249787Y-47687584D01*
X74249787Y-47687584D02*
X74384474Y-47768396D01*
X74384474Y-47768396D02*
X74465286Y-47795333D01*
X74465286Y-47795333D02*
X74573036Y-47795333D01*
X74573036Y-47795333D02*
X74680785Y-47741459D01*
X74680785Y-47741459D02*
X74734660Y-47687584D01*
X74734660Y-47687584D02*
X74788535Y-47579834D01*
X74788535Y-47579834D02*
X74788535Y-47525959D01*
X74788535Y-47525959D02*
X74599973Y-47337398D01*
X74599973Y-47337398D02*
X74492223Y-47445147D01*
X75084846Y-47337398D02*
X74519161Y-46771712D01*
X74519161Y-46771712D02*
X74734660Y-46556213D01*
X74734660Y-46556213D02*
X74815472Y-46529276D01*
X74815472Y-46529276D02*
X74869347Y-46529276D01*
X74869347Y-46529276D02*
X74950159Y-46556213D01*
X74950159Y-46556213D02*
X75030971Y-46637025D01*
X75030971Y-46637025D02*
X75057909Y-46717837D01*
X75057909Y-46717837D02*
X75057909Y-46771712D01*
X75057909Y-46771712D02*
X75030971Y-46852524D01*
X75030971Y-46852524D02*
X74815472Y-47068024D01*
X75192596Y-46098277D02*
X75246471Y-46044402D01*
X75246471Y-46044402D02*
X75327283Y-46017465D01*
X75327283Y-46017465D02*
X75381158Y-46017465D01*
X75381158Y-46017465D02*
X75461970Y-46044402D01*
X75461970Y-46044402D02*
X75596657Y-46125215D01*
X75596657Y-46125215D02*
X75731344Y-46259902D01*
X75731344Y-46259902D02*
X75812156Y-46394589D01*
X75812156Y-46394589D02*
X75839093Y-46475401D01*
X75839093Y-46475401D02*
X75839093Y-46529276D01*
X75839093Y-46529276D02*
X75812156Y-46610088D01*
X75812156Y-46610088D02*
X75758281Y-46663963D01*
X75758281Y-46663963D02*
X75677469Y-46690900D01*
X75677469Y-46690900D02*
X75623594Y-46690900D01*
X75623594Y-46690900D02*
X75542782Y-46663963D01*
X75542782Y-46663963D02*
X75408095Y-46583150D01*
X75408095Y-46583150D02*
X75273408Y-46448463D01*
X75273408Y-46448463D02*
X75192596Y-46313776D01*
X75192596Y-46313776D02*
X75165658Y-46232964D01*
X75165658Y-46232964D02*
X75165658Y-46179089D01*
X75165658Y-46179089D02*
X75192596Y-46098277D01*
X74249787Y-52174961D02*
X74168975Y-52201898D01*
X74168975Y-52201898D02*
X74088163Y-52282710D01*
X74088163Y-52282710D02*
X74034288Y-52390460D01*
X74034288Y-52390460D02*
X74034288Y-52498210D01*
X74034288Y-52498210D02*
X74061225Y-52579022D01*
X74061225Y-52579022D02*
X74142037Y-52713709D01*
X74142037Y-52713709D02*
X74222850Y-52794521D01*
X74222850Y-52794521D02*
X74357537Y-52875333D01*
X74357537Y-52875333D02*
X74438349Y-52902271D01*
X74438349Y-52902271D02*
X74546098Y-52902271D01*
X74546098Y-52902271D02*
X74653848Y-52848396D01*
X74653848Y-52848396D02*
X74707723Y-52794521D01*
X74707723Y-52794521D02*
X74761598Y-52686771D01*
X74761598Y-52686771D02*
X74761598Y-52632897D01*
X74761598Y-52632897D02*
X74573036Y-52444335D01*
X74573036Y-52444335D02*
X74465286Y-52552084D01*
X75057909Y-52444335D02*
X74492224Y-51878649D01*
X74492224Y-51878649D02*
X75381158Y-52121086D01*
X75381158Y-52121086D02*
X74815472Y-51555401D01*
X75650532Y-51851712D02*
X75084846Y-51286027D01*
X75084846Y-51286027D02*
X75219533Y-51151340D01*
X75219533Y-51151340D02*
X75327283Y-51097465D01*
X75327283Y-51097465D02*
X75435032Y-51097465D01*
X75435032Y-51097465D02*
X75515845Y-51124402D01*
X75515845Y-51124402D02*
X75650532Y-51205215D01*
X75650532Y-51205215D02*
X75731344Y-51286027D01*
X75731344Y-51286027D02*
X75812156Y-51420714D01*
X75812156Y-51420714D02*
X75839093Y-51501526D01*
X75839093Y-51501526D02*
X75839093Y-51609276D01*
X75839093Y-51609276D02*
X75785219Y-51717025D01*
X75785219Y-51717025D02*
X75650532Y-51851712D01*
X74276724Y-57228024D02*
X74195912Y-57254961D01*
X74195912Y-57254961D02*
X74115100Y-57335773D01*
X74115100Y-57335773D02*
X74061225Y-57443523D01*
X74061225Y-57443523D02*
X74061225Y-57551272D01*
X74061225Y-57551272D02*
X74088162Y-57632085D01*
X74088162Y-57632085D02*
X74168975Y-57766772D01*
X74168975Y-57766772D02*
X74249787Y-57847584D01*
X74249787Y-57847584D02*
X74384474Y-57928396D01*
X74384474Y-57928396D02*
X74465286Y-57955333D01*
X74465286Y-57955333D02*
X74573036Y-57955333D01*
X74573036Y-57955333D02*
X74680785Y-57901459D01*
X74680785Y-57901459D02*
X74734660Y-57847584D01*
X74734660Y-57847584D02*
X74788535Y-57739834D01*
X74788535Y-57739834D02*
X74788535Y-57685959D01*
X74788535Y-57685959D02*
X74599973Y-57497398D01*
X74599973Y-57497398D02*
X74492223Y-57605147D01*
X75084846Y-57497398D02*
X74519161Y-56931712D01*
X74519161Y-56931712D02*
X74734660Y-56716213D01*
X74734660Y-56716213D02*
X74815472Y-56689276D01*
X74815472Y-56689276D02*
X74869347Y-56689276D01*
X74869347Y-56689276D02*
X74950159Y-56716213D01*
X74950159Y-56716213D02*
X75030971Y-56797025D01*
X75030971Y-56797025D02*
X75057909Y-56877837D01*
X75057909Y-56877837D02*
X75057909Y-56931712D01*
X75057909Y-56931712D02*
X75030971Y-57012524D01*
X75030971Y-57012524D02*
X74815472Y-57228024D01*
X75030971Y-56419902D02*
X75381158Y-56069715D01*
X75381158Y-56069715D02*
X75408095Y-56473776D01*
X75408095Y-56473776D02*
X75488907Y-56392964D01*
X75488907Y-56392964D02*
X75569719Y-56366027D01*
X75569719Y-56366027D02*
X75623594Y-56366027D01*
X75623594Y-56366027D02*
X75704406Y-56392964D01*
X75704406Y-56392964D02*
X75839093Y-56527651D01*
X75839093Y-56527651D02*
X75866031Y-56608463D01*
X75866031Y-56608463D02*
X75866031Y-56662338D01*
X75866031Y-56662338D02*
X75839093Y-56743150D01*
X75839093Y-56743150D02*
X75677469Y-56904775D01*
X75677469Y-56904775D02*
X75596657Y-56931712D01*
X75596657Y-56931712D02*
X75542782Y-56931712D01*
X74276724Y-59768024D02*
X74195912Y-59794961D01*
X74195912Y-59794961D02*
X74115100Y-59875773D01*
X74115100Y-59875773D02*
X74061225Y-59983523D01*
X74061225Y-59983523D02*
X74061225Y-60091272D01*
X74061225Y-60091272D02*
X74088162Y-60172085D01*
X74088162Y-60172085D02*
X74168975Y-60306772D01*
X74168975Y-60306772D02*
X74249787Y-60387584D01*
X74249787Y-60387584D02*
X74384474Y-60468396D01*
X74384474Y-60468396D02*
X74465286Y-60495333D01*
X74465286Y-60495333D02*
X74573036Y-60495333D01*
X74573036Y-60495333D02*
X74680785Y-60441459D01*
X74680785Y-60441459D02*
X74734660Y-60387584D01*
X74734660Y-60387584D02*
X74788535Y-60279834D01*
X74788535Y-60279834D02*
X74788535Y-60225959D01*
X74788535Y-60225959D02*
X74599973Y-60037398D01*
X74599973Y-60037398D02*
X74492223Y-60145147D01*
X75084846Y-60037398D02*
X74519161Y-59471712D01*
X74519161Y-59471712D02*
X74734660Y-59256213D01*
X74734660Y-59256213D02*
X74815472Y-59229276D01*
X74815472Y-59229276D02*
X74869347Y-59229276D01*
X74869347Y-59229276D02*
X74950159Y-59256213D01*
X74950159Y-59256213D02*
X75030971Y-59337025D01*
X75030971Y-59337025D02*
X75057909Y-59417837D01*
X75057909Y-59417837D02*
X75057909Y-59471712D01*
X75057909Y-59471712D02*
X75030971Y-59552524D01*
X75030971Y-59552524D02*
X74815472Y-59768024D01*
X75515845Y-58852152D02*
X75892968Y-59229276D01*
X75165658Y-58771340D02*
X75435032Y-59310088D01*
X75435032Y-59310088D02*
X75785219Y-58959902D01*
X74276724Y-62308024D02*
X74195912Y-62334961D01*
X74195912Y-62334961D02*
X74115100Y-62415773D01*
X74115100Y-62415773D02*
X74061225Y-62523523D01*
X74061225Y-62523523D02*
X74061225Y-62631272D01*
X74061225Y-62631272D02*
X74088162Y-62712085D01*
X74088162Y-62712085D02*
X74168975Y-62846772D01*
X74168975Y-62846772D02*
X74249787Y-62927584D01*
X74249787Y-62927584D02*
X74384474Y-63008396D01*
X74384474Y-63008396D02*
X74465286Y-63035333D01*
X74465286Y-63035333D02*
X74573036Y-63035333D01*
X74573036Y-63035333D02*
X74680785Y-62981459D01*
X74680785Y-62981459D02*
X74734660Y-62927584D01*
X74734660Y-62927584D02*
X74788535Y-62819834D01*
X74788535Y-62819834D02*
X74788535Y-62765959D01*
X74788535Y-62765959D02*
X74599973Y-62577398D01*
X74599973Y-62577398D02*
X74492223Y-62685147D01*
X75084846Y-62577398D02*
X74519161Y-62011712D01*
X74519161Y-62011712D02*
X74734660Y-61796213D01*
X74734660Y-61796213D02*
X74815472Y-61769276D01*
X74815472Y-61769276D02*
X74869347Y-61769276D01*
X74869347Y-61769276D02*
X74950159Y-61796213D01*
X74950159Y-61796213D02*
X75030971Y-61877025D01*
X75030971Y-61877025D02*
X75057909Y-61957837D01*
X75057909Y-61957837D02*
X75057909Y-62011712D01*
X75057909Y-62011712D02*
X75030971Y-62092524D01*
X75030971Y-62092524D02*
X74815472Y-62308024D01*
X75354220Y-61176653D02*
X75084846Y-61446027D01*
X75084846Y-61446027D02*
X75327283Y-61742338D01*
X75327283Y-61742338D02*
X75327283Y-61688463D01*
X75327283Y-61688463D02*
X75354220Y-61607651D01*
X75354220Y-61607651D02*
X75488907Y-61472964D01*
X75488907Y-61472964D02*
X75569719Y-61446027D01*
X75569719Y-61446027D02*
X75623594Y-61446027D01*
X75623594Y-61446027D02*
X75704406Y-61472964D01*
X75704406Y-61472964D02*
X75839093Y-61607651D01*
X75839093Y-61607651D02*
X75866031Y-61688463D01*
X75866031Y-61688463D02*
X75866031Y-61742338D01*
X75866031Y-61742338D02*
X75839093Y-61823150D01*
X75839093Y-61823150D02*
X75704406Y-61957837D01*
X75704406Y-61957837D02*
X75623594Y-61984775D01*
X75623594Y-61984775D02*
X75569719Y-61984775D01*
X74249787Y-64874961D02*
X74168975Y-64901898D01*
X74168975Y-64901898D02*
X74088163Y-64982710D01*
X74088163Y-64982710D02*
X74034288Y-65090460D01*
X74034288Y-65090460D02*
X74034288Y-65198210D01*
X74034288Y-65198210D02*
X74061225Y-65279022D01*
X74061225Y-65279022D02*
X74142037Y-65413709D01*
X74142037Y-65413709D02*
X74222850Y-65494521D01*
X74222850Y-65494521D02*
X74357537Y-65575333D01*
X74357537Y-65575333D02*
X74438349Y-65602271D01*
X74438349Y-65602271D02*
X74546098Y-65602271D01*
X74546098Y-65602271D02*
X74653848Y-65548396D01*
X74653848Y-65548396D02*
X74707723Y-65494521D01*
X74707723Y-65494521D02*
X74761598Y-65386771D01*
X74761598Y-65386771D02*
X74761598Y-65332897D01*
X74761598Y-65332897D02*
X74573036Y-65144335D01*
X74573036Y-65144335D02*
X74465286Y-65252084D01*
X75057909Y-65144335D02*
X74492224Y-64578649D01*
X74492224Y-64578649D02*
X75381158Y-64821086D01*
X75381158Y-64821086D02*
X74815472Y-64255401D01*
X75650532Y-64551712D02*
X75084846Y-63986027D01*
X75084846Y-63986027D02*
X75219533Y-63851340D01*
X75219533Y-63851340D02*
X75327283Y-63797465D01*
X75327283Y-63797465D02*
X75435032Y-63797465D01*
X75435032Y-63797465D02*
X75515845Y-63824402D01*
X75515845Y-63824402D02*
X75650532Y-63905215D01*
X75650532Y-63905215D02*
X75731344Y-63986027D01*
X75731344Y-63986027D02*
X75812156Y-64120714D01*
X75812156Y-64120714D02*
X75839093Y-64201526D01*
X75839093Y-64201526D02*
X75839093Y-64309276D01*
X75839093Y-64309276D02*
X75785219Y-64417025D01*
X75785219Y-64417025D02*
X75650532Y-64551712D01*
X74276724Y-67388024D02*
X74195912Y-67414961D01*
X74195912Y-67414961D02*
X74115100Y-67495773D01*
X74115100Y-67495773D02*
X74061225Y-67603523D01*
X74061225Y-67603523D02*
X74061225Y-67711272D01*
X74061225Y-67711272D02*
X74088162Y-67792085D01*
X74088162Y-67792085D02*
X74168975Y-67926772D01*
X74168975Y-67926772D02*
X74249787Y-68007584D01*
X74249787Y-68007584D02*
X74384474Y-68088396D01*
X74384474Y-68088396D02*
X74465286Y-68115333D01*
X74465286Y-68115333D02*
X74573036Y-68115333D01*
X74573036Y-68115333D02*
X74680785Y-68061459D01*
X74680785Y-68061459D02*
X74734660Y-68007584D01*
X74734660Y-68007584D02*
X74788535Y-67899834D01*
X74788535Y-67899834D02*
X74788535Y-67845959D01*
X74788535Y-67845959D02*
X74599973Y-67657398D01*
X74599973Y-67657398D02*
X74492223Y-67765147D01*
X75084846Y-67657398D02*
X74519161Y-67091712D01*
X74519161Y-67091712D02*
X74734660Y-66876213D01*
X74734660Y-66876213D02*
X74815472Y-66849276D01*
X74815472Y-66849276D02*
X74869347Y-66849276D01*
X74869347Y-66849276D02*
X74950159Y-66876213D01*
X74950159Y-66876213D02*
X75030971Y-66957025D01*
X75030971Y-66957025D02*
X75057909Y-67037837D01*
X75057909Y-67037837D02*
X75057909Y-67091712D01*
X75057909Y-67091712D02*
X75030971Y-67172524D01*
X75030971Y-67172524D02*
X74815472Y-67388024D01*
X75327283Y-66283590D02*
X75219533Y-66391340D01*
X75219533Y-66391340D02*
X75192596Y-66472152D01*
X75192596Y-66472152D02*
X75192596Y-66526027D01*
X75192596Y-66526027D02*
X75219533Y-66660714D01*
X75219533Y-66660714D02*
X75300345Y-66795401D01*
X75300345Y-66795401D02*
X75515845Y-67010900D01*
X75515845Y-67010900D02*
X75596657Y-67037837D01*
X75596657Y-67037837D02*
X75650532Y-67037837D01*
X75650532Y-67037837D02*
X75731344Y-67010900D01*
X75731344Y-67010900D02*
X75839093Y-66903150D01*
X75839093Y-66903150D02*
X75866031Y-66822338D01*
X75866031Y-66822338D02*
X75866031Y-66768463D01*
X75866031Y-66768463D02*
X75839093Y-66687651D01*
X75839093Y-66687651D02*
X75704406Y-66552964D01*
X75704406Y-66552964D02*
X75623594Y-66526027D01*
X75623594Y-66526027D02*
X75569719Y-66526027D01*
X75569719Y-66526027D02*
X75488907Y-66552964D01*
X75488907Y-66552964D02*
X75381158Y-66660714D01*
X75381158Y-66660714D02*
X75354220Y-66741526D01*
X75354220Y-66741526D02*
X75354220Y-66795401D01*
X75354220Y-66795401D02*
X75381158Y-66876213D01*
X74276724Y-72468024D02*
X74195912Y-72494961D01*
X74195912Y-72494961D02*
X74115100Y-72575773D01*
X74115100Y-72575773D02*
X74061225Y-72683523D01*
X74061225Y-72683523D02*
X74061225Y-72791272D01*
X74061225Y-72791272D02*
X74088162Y-72872085D01*
X74088162Y-72872085D02*
X74168975Y-73006772D01*
X74168975Y-73006772D02*
X74249787Y-73087584D01*
X74249787Y-73087584D02*
X74384474Y-73168396D01*
X74384474Y-73168396D02*
X74465286Y-73195333D01*
X74465286Y-73195333D02*
X74573036Y-73195333D01*
X74573036Y-73195333D02*
X74680785Y-73141459D01*
X74680785Y-73141459D02*
X74734660Y-73087584D01*
X74734660Y-73087584D02*
X74788535Y-72979834D01*
X74788535Y-72979834D02*
X74788535Y-72925959D01*
X74788535Y-72925959D02*
X74599973Y-72737398D01*
X74599973Y-72737398D02*
X74492223Y-72845147D01*
X75084846Y-72737398D02*
X74519161Y-72171712D01*
X74519161Y-72171712D02*
X74734660Y-71956213D01*
X74734660Y-71956213D02*
X74815472Y-71929276D01*
X74815472Y-71929276D02*
X74869347Y-71929276D01*
X74869347Y-71929276D02*
X74950159Y-71956213D01*
X74950159Y-71956213D02*
X75030971Y-72037025D01*
X75030971Y-72037025D02*
X75057909Y-72117837D01*
X75057909Y-72117837D02*
X75057909Y-72171712D01*
X75057909Y-72171712D02*
X75030971Y-72252524D01*
X75030971Y-72252524D02*
X74815472Y-72468024D01*
X75408095Y-71767651D02*
X75327283Y-71794589D01*
X75327283Y-71794589D02*
X75273408Y-71794589D01*
X75273408Y-71794589D02*
X75192596Y-71767651D01*
X75192596Y-71767651D02*
X75165658Y-71740714D01*
X75165658Y-71740714D02*
X75138721Y-71659902D01*
X75138721Y-71659902D02*
X75138721Y-71606027D01*
X75138721Y-71606027D02*
X75165658Y-71525215D01*
X75165658Y-71525215D02*
X75273408Y-71417465D01*
X75273408Y-71417465D02*
X75354220Y-71390528D01*
X75354220Y-71390528D02*
X75408095Y-71390528D01*
X75408095Y-71390528D02*
X75488907Y-71417465D01*
X75488907Y-71417465D02*
X75515845Y-71444402D01*
X75515845Y-71444402D02*
X75542782Y-71525215D01*
X75542782Y-71525215D02*
X75542782Y-71579089D01*
X75542782Y-71579089D02*
X75515845Y-71659902D01*
X75515845Y-71659902D02*
X75408095Y-71767651D01*
X75408095Y-71767651D02*
X75381158Y-71848463D01*
X75381158Y-71848463D02*
X75381158Y-71902338D01*
X75381158Y-71902338D02*
X75408095Y-71983150D01*
X75408095Y-71983150D02*
X75515845Y-72090900D01*
X75515845Y-72090900D02*
X75596657Y-72117837D01*
X75596657Y-72117837D02*
X75650532Y-72117837D01*
X75650532Y-72117837D02*
X75731344Y-72090900D01*
X75731344Y-72090900D02*
X75839093Y-71983150D01*
X75839093Y-71983150D02*
X75866031Y-71902338D01*
X75866031Y-71902338D02*
X75866031Y-71848463D01*
X75866031Y-71848463D02*
X75839093Y-71767651D01*
X75839093Y-71767651D02*
X75731344Y-71659902D01*
X75731344Y-71659902D02*
X75650532Y-71632964D01*
X75650532Y-71632964D02*
X75596657Y-71632964D01*
X75596657Y-71632964D02*
X75515845Y-71659902D01*
X74276724Y-75008024D02*
X74195912Y-75034961D01*
X74195912Y-75034961D02*
X74115100Y-75115773D01*
X74115100Y-75115773D02*
X74061225Y-75223523D01*
X74061225Y-75223523D02*
X74061225Y-75331272D01*
X74061225Y-75331272D02*
X74088162Y-75412085D01*
X74088162Y-75412085D02*
X74168975Y-75546772D01*
X74168975Y-75546772D02*
X74249787Y-75627584D01*
X74249787Y-75627584D02*
X74384474Y-75708396D01*
X74384474Y-75708396D02*
X74465286Y-75735333D01*
X74465286Y-75735333D02*
X74573036Y-75735333D01*
X74573036Y-75735333D02*
X74680785Y-75681459D01*
X74680785Y-75681459D02*
X74734660Y-75627584D01*
X74734660Y-75627584D02*
X74788535Y-75519834D01*
X74788535Y-75519834D02*
X74788535Y-75465959D01*
X74788535Y-75465959D02*
X74599973Y-75277398D01*
X74599973Y-75277398D02*
X74492223Y-75385147D01*
X75084846Y-75277398D02*
X74519161Y-74711712D01*
X74519161Y-74711712D02*
X74734660Y-74496213D01*
X74734660Y-74496213D02*
X74815472Y-74469276D01*
X74815472Y-74469276D02*
X74869347Y-74469276D01*
X74869347Y-74469276D02*
X74950159Y-74496213D01*
X74950159Y-74496213D02*
X75030971Y-74577025D01*
X75030971Y-74577025D02*
X75057909Y-74657837D01*
X75057909Y-74657837D02*
X75057909Y-74711712D01*
X75057909Y-74711712D02*
X75030971Y-74792524D01*
X75030971Y-74792524D02*
X74815472Y-75008024D01*
X75677469Y-74684775D02*
X75785219Y-74577025D01*
X75785219Y-74577025D02*
X75812156Y-74496213D01*
X75812156Y-74496213D02*
X75812156Y-74442338D01*
X75812156Y-74442338D02*
X75785219Y-74307651D01*
X75785219Y-74307651D02*
X75704406Y-74172964D01*
X75704406Y-74172964D02*
X75488907Y-73957465D01*
X75488907Y-73957465D02*
X75408095Y-73930528D01*
X75408095Y-73930528D02*
X75354220Y-73930528D01*
X75354220Y-73930528D02*
X75273408Y-73957465D01*
X75273408Y-73957465D02*
X75165658Y-74065215D01*
X75165658Y-74065215D02*
X75138721Y-74146027D01*
X75138721Y-74146027D02*
X75138721Y-74199902D01*
X75138721Y-74199902D02*
X75165658Y-74280714D01*
X75165658Y-74280714D02*
X75300345Y-74415401D01*
X75300345Y-74415401D02*
X75381158Y-74442338D01*
X75381158Y-74442338D02*
X75435032Y-74442338D01*
X75435032Y-74442338D02*
X75515845Y-74415401D01*
X75515845Y-74415401D02*
X75623594Y-74307651D01*
X75623594Y-74307651D02*
X75650532Y-74226839D01*
X75650532Y-74226839D02*
X75650532Y-74172964D01*
X75650532Y-74172964D02*
X75623594Y-74092152D01*
X74249787Y-77574961D02*
X74168975Y-77601898D01*
X74168975Y-77601898D02*
X74088163Y-77682710D01*
X74088163Y-77682710D02*
X74034288Y-77790460D01*
X74034288Y-77790460D02*
X74034288Y-77898210D01*
X74034288Y-77898210D02*
X74061225Y-77979022D01*
X74061225Y-77979022D02*
X74142037Y-78113709D01*
X74142037Y-78113709D02*
X74222850Y-78194521D01*
X74222850Y-78194521D02*
X74357537Y-78275333D01*
X74357537Y-78275333D02*
X74438349Y-78302271D01*
X74438349Y-78302271D02*
X74546098Y-78302271D01*
X74546098Y-78302271D02*
X74653848Y-78248396D01*
X74653848Y-78248396D02*
X74707723Y-78194521D01*
X74707723Y-78194521D02*
X74761598Y-78086771D01*
X74761598Y-78086771D02*
X74761598Y-78032897D01*
X74761598Y-78032897D02*
X74573036Y-77844335D01*
X74573036Y-77844335D02*
X74465286Y-77952084D01*
X75057909Y-77844335D02*
X74492224Y-77278649D01*
X74492224Y-77278649D02*
X75381158Y-77521086D01*
X75381158Y-77521086D02*
X74815472Y-76955401D01*
X75650532Y-77251712D02*
X75084846Y-76686027D01*
X75084846Y-76686027D02*
X75219533Y-76551340D01*
X75219533Y-76551340D02*
X75327283Y-76497465D01*
X75327283Y-76497465D02*
X75435032Y-76497465D01*
X75435032Y-76497465D02*
X75515845Y-76524402D01*
X75515845Y-76524402D02*
X75650532Y-76605215D01*
X75650532Y-76605215D02*
X75731344Y-76686027D01*
X75731344Y-76686027D02*
X75812156Y-76820714D01*
X75812156Y-76820714D02*
X75839093Y-76901526D01*
X75839093Y-76901526D02*
X75839093Y-77009276D01*
X75839093Y-77009276D02*
X75785219Y-77117025D01*
X75785219Y-77117025D02*
X75650532Y-77251712D01*
X74249787Y-90274961D02*
X74168975Y-90301898D01*
X74168975Y-90301898D02*
X74088163Y-90382710D01*
X74088163Y-90382710D02*
X74034288Y-90490460D01*
X74034288Y-90490460D02*
X74034288Y-90598210D01*
X74034288Y-90598210D02*
X74061225Y-90679022D01*
X74061225Y-90679022D02*
X74142037Y-90813709D01*
X74142037Y-90813709D02*
X74222850Y-90894521D01*
X74222850Y-90894521D02*
X74357537Y-90975333D01*
X74357537Y-90975333D02*
X74438349Y-91002271D01*
X74438349Y-91002271D02*
X74546098Y-91002271D01*
X74546098Y-91002271D02*
X74653848Y-90948396D01*
X74653848Y-90948396D02*
X74707723Y-90894521D01*
X74707723Y-90894521D02*
X74761598Y-90786771D01*
X74761598Y-90786771D02*
X74761598Y-90732897D01*
X74761598Y-90732897D02*
X74573036Y-90544335D01*
X74573036Y-90544335D02*
X74465286Y-90652084D01*
X75057909Y-90544335D02*
X74492224Y-89978649D01*
X74492224Y-89978649D02*
X75381158Y-90221086D01*
X75381158Y-90221086D02*
X74815472Y-89655401D01*
X75650532Y-89951712D02*
X75084846Y-89386027D01*
X75084846Y-89386027D02*
X75219533Y-89251340D01*
X75219533Y-89251340D02*
X75327283Y-89197465D01*
X75327283Y-89197465D02*
X75435032Y-89197465D01*
X75435032Y-89197465D02*
X75515845Y-89224402D01*
X75515845Y-89224402D02*
X75650532Y-89305215D01*
X75650532Y-89305215D02*
X75731344Y-89386027D01*
X75731344Y-89386027D02*
X75812156Y-89520714D01*
X75812156Y-89520714D02*
X75839093Y-89601526D01*
X75839093Y-89601526D02*
X75839093Y-89709276D01*
X75839093Y-89709276D02*
X75785219Y-89817025D01*
X75785219Y-89817025D02*
X75650532Y-89951712D01*
X74376724Y-69898024D02*
X74295912Y-69924961D01*
X74295912Y-69924961D02*
X74215100Y-70005773D01*
X74215100Y-70005773D02*
X74161225Y-70113523D01*
X74161225Y-70113523D02*
X74161225Y-70221272D01*
X74161225Y-70221272D02*
X74188162Y-70302085D01*
X74188162Y-70302085D02*
X74268975Y-70436772D01*
X74268975Y-70436772D02*
X74349787Y-70517584D01*
X74349787Y-70517584D02*
X74484474Y-70598396D01*
X74484474Y-70598396D02*
X74565286Y-70625333D01*
X74565286Y-70625333D02*
X74673036Y-70625333D01*
X74673036Y-70625333D02*
X74780785Y-70571459D01*
X74780785Y-70571459D02*
X74834660Y-70517584D01*
X74834660Y-70517584D02*
X74888535Y-70409834D01*
X74888535Y-70409834D02*
X74888535Y-70355959D01*
X74888535Y-70355959D02*
X74699973Y-70167398D01*
X74699973Y-70167398D02*
X74592223Y-70275147D01*
X75184846Y-70167398D02*
X74619161Y-69601712D01*
X74619161Y-69601712D02*
X74834660Y-69386213D01*
X74834660Y-69386213D02*
X74915472Y-69359276D01*
X74915472Y-69359276D02*
X74969347Y-69359276D01*
X74969347Y-69359276D02*
X75050159Y-69386213D01*
X75050159Y-69386213D02*
X75130971Y-69467025D01*
X75130971Y-69467025D02*
X75157909Y-69547837D01*
X75157909Y-69547837D02*
X75157909Y-69601712D01*
X75157909Y-69601712D02*
X75130971Y-69682524D01*
X75130971Y-69682524D02*
X74915472Y-69898024D01*
X75130971Y-69089902D02*
X75508095Y-68712778D01*
X75508095Y-68712778D02*
X75831344Y-69520900D01*
X80253827Y-97600730D02*
X80368113Y-97638825D01*
X80368113Y-97638825D02*
X80558589Y-97638825D01*
X80558589Y-97638825D02*
X80634780Y-97600730D01*
X80634780Y-97600730D02*
X80672875Y-97562634D01*
X80672875Y-97562634D02*
X80710970Y-97486444D01*
X80710970Y-97486444D02*
X80710970Y-97410253D01*
X80710970Y-97410253D02*
X80672875Y-97334063D01*
X80672875Y-97334063D02*
X80634780Y-97295968D01*
X80634780Y-97295968D02*
X80558589Y-97257872D01*
X80558589Y-97257872D02*
X80406208Y-97219777D01*
X80406208Y-97219777D02*
X80330018Y-97181682D01*
X80330018Y-97181682D02*
X80291923Y-97143587D01*
X80291923Y-97143587D02*
X80253827Y-97067396D01*
X80253827Y-97067396D02*
X80253827Y-96991206D01*
X80253827Y-96991206D02*
X80291923Y-96915015D01*
X80291923Y-96915015D02*
X80330018Y-96876920D01*
X80330018Y-96876920D02*
X80406208Y-96838825D01*
X80406208Y-96838825D02*
X80596685Y-96838825D01*
X80596685Y-96838825D02*
X80710970Y-96876920D01*
X80977637Y-96838825D02*
X81168113Y-97638825D01*
X81168113Y-97638825D02*
X81320494Y-97067396D01*
X81320494Y-97067396D02*
X81472875Y-97638825D01*
X81472875Y-97638825D02*
X81663352Y-96838825D01*
X82425257Y-97562634D02*
X82387161Y-97600730D01*
X82387161Y-97600730D02*
X82272876Y-97638825D01*
X82272876Y-97638825D02*
X82196685Y-97638825D01*
X82196685Y-97638825D02*
X82082399Y-97600730D01*
X82082399Y-97600730D02*
X82006209Y-97524539D01*
X82006209Y-97524539D02*
X81968114Y-97448349D01*
X81968114Y-97448349D02*
X81930018Y-97295968D01*
X81930018Y-97295968D02*
X81930018Y-97181682D01*
X81930018Y-97181682D02*
X81968114Y-97029301D01*
X81968114Y-97029301D02*
X82006209Y-96953110D01*
X82006209Y-96953110D02*
X82082399Y-96876920D01*
X82082399Y-96876920D02*
X82196685Y-96838825D01*
X82196685Y-96838825D02*
X82272876Y-96838825D01*
X82272876Y-96838825D02*
X82387161Y-96876920D01*
X82387161Y-96876920D02*
X82425257Y-96915015D01*
X83149066Y-97638825D02*
X82768114Y-97638825D01*
X82768114Y-97638825D02*
X82768114Y-96838825D01*
X83415733Y-97638825D02*
X83415733Y-96838825D01*
X83872876Y-97638825D02*
X83530018Y-97181682D01*
X83872876Y-96838825D02*
X83415733Y-97295968D01*
X91668113Y-97600730D02*
X91782399Y-97638825D01*
X91782399Y-97638825D02*
X91972875Y-97638825D01*
X91972875Y-97638825D02*
X92049066Y-97600730D01*
X92049066Y-97600730D02*
X92087161Y-97562634D01*
X92087161Y-97562634D02*
X92125256Y-97486444D01*
X92125256Y-97486444D02*
X92125256Y-97410253D01*
X92125256Y-97410253D02*
X92087161Y-97334063D01*
X92087161Y-97334063D02*
X92049066Y-97295968D01*
X92049066Y-97295968D02*
X91972875Y-97257872D01*
X91972875Y-97257872D02*
X91820494Y-97219777D01*
X91820494Y-97219777D02*
X91744304Y-97181682D01*
X91744304Y-97181682D02*
X91706209Y-97143587D01*
X91706209Y-97143587D02*
X91668113Y-97067396D01*
X91668113Y-97067396D02*
X91668113Y-96991206D01*
X91668113Y-96991206D02*
X91706209Y-96915015D01*
X91706209Y-96915015D02*
X91744304Y-96876920D01*
X91744304Y-96876920D02*
X91820494Y-96838825D01*
X91820494Y-96838825D02*
X92010971Y-96838825D01*
X92010971Y-96838825D02*
X92125256Y-96876920D01*
X92391923Y-96838825D02*
X92582399Y-97638825D01*
X92582399Y-97638825D02*
X92734780Y-97067396D01*
X92734780Y-97067396D02*
X92887161Y-97638825D01*
X92887161Y-97638825D02*
X93077638Y-96838825D01*
X93382400Y-97638825D02*
X93382400Y-96838825D01*
X93382400Y-96838825D02*
X93572876Y-96838825D01*
X93572876Y-96838825D02*
X93687162Y-96876920D01*
X93687162Y-96876920D02*
X93763352Y-96953110D01*
X93763352Y-96953110D02*
X93801447Y-97029301D01*
X93801447Y-97029301D02*
X93839543Y-97181682D01*
X93839543Y-97181682D02*
X93839543Y-97295968D01*
X93839543Y-97295968D02*
X93801447Y-97448349D01*
X93801447Y-97448349D02*
X93763352Y-97524539D01*
X93763352Y-97524539D02*
X93687162Y-97600730D01*
X93687162Y-97600730D02*
X93572876Y-97638825D01*
X93572876Y-97638825D02*
X93382400Y-97638825D01*
X94182400Y-97638825D02*
X94182400Y-96838825D01*
X94715733Y-96838825D02*
X94868114Y-96838825D01*
X94868114Y-96838825D02*
X94944304Y-96876920D01*
X94944304Y-96876920D02*
X95020495Y-96953110D01*
X95020495Y-96953110D02*
X95058590Y-97105491D01*
X95058590Y-97105491D02*
X95058590Y-97372158D01*
X95058590Y-97372158D02*
X95020495Y-97524539D01*
X95020495Y-97524539D02*
X94944304Y-97600730D01*
X94944304Y-97600730D02*
X94868114Y-97638825D01*
X94868114Y-97638825D02*
X94715733Y-97638825D01*
X94715733Y-97638825D02*
X94639542Y-97600730D01*
X94639542Y-97600730D02*
X94563352Y-97524539D01*
X94563352Y-97524539D02*
X94525256Y-97372158D01*
X94525256Y-97372158D02*
X94525256Y-97105491D01*
X94525256Y-97105491D02*
X94563352Y-96953110D01*
X94563352Y-96953110D02*
X94639542Y-96876920D01*
X94639542Y-96876920D02*
X94715733Y-96838825D01*
X99849787Y-52174961D02*
X99768975Y-52201898D01*
X99768975Y-52201898D02*
X99688163Y-52282710D01*
X99688163Y-52282710D02*
X99634288Y-52390460D01*
X99634288Y-52390460D02*
X99634288Y-52498210D01*
X99634288Y-52498210D02*
X99661225Y-52579022D01*
X99661225Y-52579022D02*
X99742037Y-52713709D01*
X99742037Y-52713709D02*
X99822850Y-52794521D01*
X99822850Y-52794521D02*
X99957537Y-52875333D01*
X99957537Y-52875333D02*
X100038349Y-52902271D01*
X100038349Y-52902271D02*
X100146098Y-52902271D01*
X100146098Y-52902271D02*
X100253848Y-52848396D01*
X100253848Y-52848396D02*
X100307723Y-52794521D01*
X100307723Y-52794521D02*
X100361598Y-52686771D01*
X100361598Y-52686771D02*
X100361598Y-52632897D01*
X100361598Y-52632897D02*
X100173036Y-52444335D01*
X100173036Y-52444335D02*
X100065286Y-52552084D01*
X100657909Y-52444335D02*
X100092224Y-51878649D01*
X100092224Y-51878649D02*
X100981158Y-52121086D01*
X100981158Y-52121086D02*
X100415472Y-51555401D01*
X101250532Y-51851712D02*
X100684846Y-51286027D01*
X100684846Y-51286027D02*
X100819533Y-51151340D01*
X100819533Y-51151340D02*
X100927283Y-51097465D01*
X100927283Y-51097465D02*
X101035032Y-51097465D01*
X101035032Y-51097465D02*
X101115845Y-51124402D01*
X101115845Y-51124402D02*
X101250532Y-51205215D01*
X101250532Y-51205215D02*
X101331344Y-51286027D01*
X101331344Y-51286027D02*
X101412156Y-51420714D01*
X101412156Y-51420714D02*
X101439093Y-51501526D01*
X101439093Y-51501526D02*
X101439093Y-51609276D01*
X101439093Y-51609276D02*
X101385219Y-51717025D01*
X101385219Y-51717025D02*
X101250532Y-51851712D01*
X99849787Y-77574961D02*
X99768975Y-77601898D01*
X99768975Y-77601898D02*
X99688163Y-77682710D01*
X99688163Y-77682710D02*
X99634288Y-77790460D01*
X99634288Y-77790460D02*
X99634288Y-77898210D01*
X99634288Y-77898210D02*
X99661225Y-77979022D01*
X99661225Y-77979022D02*
X99742037Y-78113709D01*
X99742037Y-78113709D02*
X99822850Y-78194521D01*
X99822850Y-78194521D02*
X99957537Y-78275333D01*
X99957537Y-78275333D02*
X100038349Y-78302271D01*
X100038349Y-78302271D02*
X100146098Y-78302271D01*
X100146098Y-78302271D02*
X100253848Y-78248396D01*
X100253848Y-78248396D02*
X100307723Y-78194521D01*
X100307723Y-78194521D02*
X100361598Y-78086771D01*
X100361598Y-78086771D02*
X100361598Y-78032897D01*
X100361598Y-78032897D02*
X100173036Y-77844335D01*
X100173036Y-77844335D02*
X100065286Y-77952084D01*
X100657909Y-77844335D02*
X100092224Y-77278649D01*
X100092224Y-77278649D02*
X100981158Y-77521086D01*
X100981158Y-77521086D02*
X100415472Y-76955401D01*
X101250532Y-77251712D02*
X100684846Y-76686027D01*
X100684846Y-76686027D02*
X100819533Y-76551340D01*
X100819533Y-76551340D02*
X100927283Y-76497465D01*
X100927283Y-76497465D02*
X101035032Y-76497465D01*
X101035032Y-76497465D02*
X101115845Y-76524402D01*
X101115845Y-76524402D02*
X101250532Y-76605215D01*
X101250532Y-76605215D02*
X101331344Y-76686027D01*
X101331344Y-76686027D02*
X101412156Y-76820714D01*
X101412156Y-76820714D02*
X101439093Y-76901526D01*
X101439093Y-76901526D02*
X101439093Y-77009276D01*
X101439093Y-77009276D02*
X101385219Y-77117025D01*
X101385219Y-77117025D02*
X101250532Y-77251712D01*
X99849787Y-90274961D02*
X99768975Y-90301898D01*
X99768975Y-90301898D02*
X99688163Y-90382710D01*
X99688163Y-90382710D02*
X99634288Y-90490460D01*
X99634288Y-90490460D02*
X99634288Y-90598210D01*
X99634288Y-90598210D02*
X99661225Y-90679022D01*
X99661225Y-90679022D02*
X99742037Y-90813709D01*
X99742037Y-90813709D02*
X99822850Y-90894521D01*
X99822850Y-90894521D02*
X99957537Y-90975333D01*
X99957537Y-90975333D02*
X100038349Y-91002271D01*
X100038349Y-91002271D02*
X100146098Y-91002271D01*
X100146098Y-91002271D02*
X100253848Y-90948396D01*
X100253848Y-90948396D02*
X100307723Y-90894521D01*
X100307723Y-90894521D02*
X100361598Y-90786771D01*
X100361598Y-90786771D02*
X100361598Y-90732897D01*
X100361598Y-90732897D02*
X100173036Y-90544335D01*
X100173036Y-90544335D02*
X100065286Y-90652084D01*
X100657909Y-90544335D02*
X100092224Y-89978649D01*
X100092224Y-89978649D02*
X100981158Y-90221086D01*
X100981158Y-90221086D02*
X100415472Y-89655401D01*
X101250532Y-89951712D02*
X100684846Y-89386027D01*
X100684846Y-89386027D02*
X100819533Y-89251340D01*
X100819533Y-89251340D02*
X100927283Y-89197465D01*
X100927283Y-89197465D02*
X101035032Y-89197465D01*
X101035032Y-89197465D02*
X101115845Y-89224402D01*
X101115845Y-89224402D02*
X101250532Y-89305215D01*
X101250532Y-89305215D02*
X101331344Y-89386027D01*
X101331344Y-89386027D02*
X101412156Y-89520714D01*
X101412156Y-89520714D02*
X101439093Y-89601526D01*
X101439093Y-89601526D02*
X101439093Y-89709276D01*
X101439093Y-89709276D02*
X101385219Y-89817025D01*
X101385219Y-89817025D02*
X101250532Y-89951712D01*
X99653475Y-57567398D02*
X100003661Y-57217212D01*
X100003661Y-57217212D02*
X100030599Y-57621273D01*
X100030599Y-57621273D02*
X100111411Y-57540461D01*
X100111411Y-57540461D02*
X100192223Y-57513523D01*
X100192223Y-57513523D02*
X100246098Y-57513523D01*
X100246098Y-57513523D02*
X100326910Y-57540461D01*
X100326910Y-57540461D02*
X100461597Y-57675148D01*
X100461597Y-57675148D02*
X100488534Y-57755960D01*
X100488534Y-57755960D02*
X100488534Y-57809835D01*
X100488534Y-57809835D02*
X100461597Y-57890647D01*
X100461597Y-57890647D02*
X100299973Y-58052271D01*
X100299973Y-58052271D02*
X100219160Y-58079209D01*
X100219160Y-58079209D02*
X100165286Y-58079209D01*
X100165286Y-57055587D02*
X100919533Y-57432711D01*
X100919533Y-57432711D02*
X100542409Y-56678464D01*
X100677096Y-56543777D02*
X101027282Y-56193591D01*
X101027282Y-56193591D02*
X101054220Y-56597652D01*
X101054220Y-56597652D02*
X101135032Y-56516839D01*
X101135032Y-56516839D02*
X101215844Y-56489902D01*
X101215844Y-56489902D02*
X101269719Y-56489902D01*
X101269719Y-56489902D02*
X101350531Y-56516839D01*
X101350531Y-56516839D02*
X101485218Y-56651526D01*
X101485218Y-56651526D02*
X101512156Y-56732339D01*
X101512156Y-56732339D02*
X101512156Y-56786213D01*
X101512156Y-56786213D02*
X101485218Y-56867026D01*
X101485218Y-56867026D02*
X101323594Y-57028650D01*
X101323594Y-57028650D02*
X101242782Y-57055587D01*
X101242782Y-57055587D02*
X101188907Y-57055587D01*
X100602003Y-73020240D02*
X100144068Y-72939428D01*
X100278755Y-73343489D02*
X99713069Y-72777804D01*
X99713069Y-72777804D02*
X99928568Y-72562305D01*
X99928568Y-72562305D02*
X100009381Y-72535367D01*
X100009381Y-72535367D02*
X100063255Y-72535367D01*
X100063255Y-72535367D02*
X100144068Y-72562305D01*
X100144068Y-72562305D02*
X100224880Y-72643117D01*
X100224880Y-72643117D02*
X100251817Y-72723929D01*
X100251817Y-72723929D02*
X100251817Y-72777804D01*
X100251817Y-72777804D02*
X100224880Y-72858616D01*
X100224880Y-72858616D02*
X100009381Y-73074115D01*
X100278755Y-72212118D02*
X100736690Y-72670054D01*
X100736690Y-72670054D02*
X100817503Y-72696992D01*
X100817503Y-72696992D02*
X100871377Y-72696992D01*
X100871377Y-72696992D02*
X100952190Y-72670054D01*
X100952190Y-72670054D02*
X101059939Y-72562305D01*
X101059939Y-72562305D02*
X101086877Y-72481492D01*
X101086877Y-72481492D02*
X101086877Y-72427618D01*
X101086877Y-72427618D02*
X101059939Y-72346805D01*
X101059939Y-72346805D02*
X100602003Y-71888870D01*
X101437063Y-72185181D02*
X100871377Y-71619496D01*
X100871377Y-71619496D02*
X101760311Y-71861932D01*
X101760311Y-71861932D02*
X101194626Y-71296247D01*
X99861350Y-62323398D02*
X99780537Y-62350335D01*
X99780537Y-62350335D02*
X99699725Y-62431148D01*
X99699725Y-62431148D02*
X99645850Y-62538897D01*
X99645850Y-62538897D02*
X99645850Y-62646647D01*
X99645850Y-62646647D02*
X99672788Y-62727459D01*
X99672788Y-62727459D02*
X99753600Y-62862146D01*
X99753600Y-62862146D02*
X99834412Y-62942958D01*
X99834412Y-62942958D02*
X99969099Y-63023771D01*
X99969099Y-63023771D02*
X100049912Y-63050708D01*
X100049912Y-63050708D02*
X100157661Y-63050708D01*
X100157661Y-63050708D02*
X100265411Y-62996833D01*
X100265411Y-62996833D02*
X100319286Y-62942958D01*
X100319286Y-62942958D02*
X100373160Y-62835209D01*
X100373160Y-62835209D02*
X100373160Y-62781334D01*
X100373160Y-62781334D02*
X100184599Y-62592772D01*
X100184599Y-62592772D02*
X100076849Y-62700522D01*
X100669472Y-62592772D02*
X100103786Y-62027087D01*
X100103786Y-62027087D02*
X100319286Y-61811587D01*
X100319286Y-61811587D02*
X100400098Y-61784650D01*
X100400098Y-61784650D02*
X100453973Y-61784650D01*
X100453973Y-61784650D02*
X100534785Y-61811587D01*
X100534785Y-61811587D02*
X100615597Y-61892400D01*
X100615597Y-61892400D02*
X100642534Y-61973212D01*
X100642534Y-61973212D02*
X100642534Y-62027087D01*
X100642534Y-62027087D02*
X100615597Y-62107899D01*
X100615597Y-62107899D02*
X100400098Y-62323398D01*
X100696409Y-61542213D02*
X100696409Y-61488339D01*
X100696409Y-61488339D02*
X100723347Y-61407526D01*
X100723347Y-61407526D02*
X100858034Y-61272839D01*
X100858034Y-61272839D02*
X100938846Y-61245902D01*
X100938846Y-61245902D02*
X100992721Y-61245902D01*
X100992721Y-61245902D02*
X101073533Y-61272839D01*
X101073533Y-61272839D02*
X101127408Y-61326714D01*
X101127408Y-61326714D02*
X101181282Y-61434464D01*
X101181282Y-61434464D02*
X101181282Y-62080961D01*
X101181282Y-62080961D02*
X101531469Y-61730775D01*
X101531469Y-61084277D02*
X101450657Y-61111215D01*
X101450657Y-61111215D02*
X101396782Y-61111215D01*
X101396782Y-61111215D02*
X101315970Y-61084277D01*
X101315970Y-61084277D02*
X101289032Y-61057340D01*
X101289032Y-61057340D02*
X101262095Y-60976528D01*
X101262095Y-60976528D02*
X101262095Y-60922653D01*
X101262095Y-60922653D02*
X101289032Y-60841841D01*
X101289032Y-60841841D02*
X101396782Y-60734091D01*
X101396782Y-60734091D02*
X101477594Y-60707154D01*
X101477594Y-60707154D02*
X101531469Y-60707154D01*
X101531469Y-60707154D02*
X101612281Y-60734091D01*
X101612281Y-60734091D02*
X101639218Y-60761029D01*
X101639218Y-60761029D02*
X101666156Y-60841841D01*
X101666156Y-60841841D02*
X101666156Y-60895716D01*
X101666156Y-60895716D02*
X101639218Y-60976528D01*
X101639218Y-60976528D02*
X101531469Y-61084277D01*
X101531469Y-61084277D02*
X101504531Y-61165090D01*
X101504531Y-61165090D02*
X101504531Y-61218964D01*
X101504531Y-61218964D02*
X101531469Y-61299777D01*
X101531469Y-61299777D02*
X101639218Y-61407526D01*
X101639218Y-61407526D02*
X101720031Y-61434464D01*
X101720031Y-61434464D02*
X101773905Y-61434464D01*
X101773905Y-61434464D02*
X101854718Y-61407526D01*
X101854718Y-61407526D02*
X101962467Y-61299777D01*
X101962467Y-61299777D02*
X101989405Y-61218964D01*
X101989405Y-61218964D02*
X101989405Y-61165090D01*
X101989405Y-61165090D02*
X101962467Y-61084277D01*
X101962467Y-61084277D02*
X101854718Y-60976528D01*
X101854718Y-60976528D02*
X101773905Y-60949590D01*
X101773905Y-60949590D02*
X101720031Y-60949590D01*
X101720031Y-60949590D02*
X101639218Y-60976528D01*
X99915225Y-65817770D02*
X100184599Y-65548396D01*
X100022975Y-66033269D02*
X99645851Y-65279022D01*
X99645851Y-65279022D02*
X100400098Y-65656145D01*
X100346223Y-64632524D02*
X100265411Y-64659462D01*
X100265411Y-64659462D02*
X100184599Y-64740274D01*
X100184599Y-64740274D02*
X100130724Y-64848024D01*
X100130724Y-64848024D02*
X100130724Y-64955773D01*
X100130724Y-64955773D02*
X100157662Y-65036585D01*
X100157662Y-65036585D02*
X100238474Y-65171272D01*
X100238474Y-65171272D02*
X100319286Y-65252085D01*
X100319286Y-65252085D02*
X100453973Y-65332897D01*
X100453973Y-65332897D02*
X100534785Y-65359834D01*
X100534785Y-65359834D02*
X100642535Y-65359834D01*
X100642535Y-65359834D02*
X100750284Y-65305959D01*
X100750284Y-65305959D02*
X100804159Y-65252085D01*
X100804159Y-65252085D02*
X100858034Y-65144335D01*
X100858034Y-65144335D02*
X100858034Y-65090460D01*
X100858034Y-65090460D02*
X100669472Y-64901898D01*
X100669472Y-64901898D02*
X100561723Y-65009648D01*
X101154345Y-64901898D02*
X100588660Y-64336213D01*
X100588660Y-64336213D02*
X101477594Y-64578650D01*
X101477594Y-64578650D02*
X100911909Y-64012964D01*
X101746968Y-64309276D02*
X101181283Y-63743590D01*
X101181283Y-63743590D02*
X101315970Y-63608903D01*
X101315970Y-63608903D02*
X101423719Y-63555028D01*
X101423719Y-63555028D02*
X101531469Y-63555028D01*
X101531469Y-63555028D02*
X101612281Y-63581966D01*
X101612281Y-63581966D02*
X101746968Y-63662778D01*
X101746968Y-63662778D02*
X101827780Y-63743590D01*
X101827780Y-63743590D02*
X101908593Y-63878277D01*
X101908593Y-63878277D02*
X101935530Y-63959090D01*
X101935530Y-63959090D02*
X101935530Y-64066839D01*
X101935530Y-64066839D02*
X101881655Y-64174589D01*
X101881655Y-64174589D02*
X101746968Y-64309276D01*
X99861350Y-67667398D02*
X99780537Y-67694335D01*
X99780537Y-67694335D02*
X99699725Y-67775148D01*
X99699725Y-67775148D02*
X99645850Y-67882897D01*
X99645850Y-67882897D02*
X99645850Y-67990647D01*
X99645850Y-67990647D02*
X99672788Y-68071459D01*
X99672788Y-68071459D02*
X99753600Y-68206146D01*
X99753600Y-68206146D02*
X99834412Y-68286958D01*
X99834412Y-68286958D02*
X99969099Y-68367771D01*
X99969099Y-68367771D02*
X100049912Y-68394708D01*
X100049912Y-68394708D02*
X100157661Y-68394708D01*
X100157661Y-68394708D02*
X100265411Y-68340833D01*
X100265411Y-68340833D02*
X100319286Y-68286958D01*
X100319286Y-68286958D02*
X100373160Y-68179209D01*
X100373160Y-68179209D02*
X100373160Y-68125334D01*
X100373160Y-68125334D02*
X100184599Y-67936772D01*
X100184599Y-67936772D02*
X100076849Y-68044522D01*
X100669472Y-67936772D02*
X100103786Y-67371087D01*
X100103786Y-67371087D02*
X100319286Y-67155587D01*
X100319286Y-67155587D02*
X100400098Y-67128650D01*
X100400098Y-67128650D02*
X100453973Y-67128650D01*
X100453973Y-67128650D02*
X100534785Y-67155587D01*
X100534785Y-67155587D02*
X100615597Y-67236400D01*
X100615597Y-67236400D02*
X100642534Y-67317212D01*
X100642534Y-67317212D02*
X100642534Y-67371087D01*
X100642534Y-67371087D02*
X100615597Y-67451899D01*
X100615597Y-67451899D02*
X100400098Y-67667398D01*
X100696409Y-66886213D02*
X100696409Y-66832339D01*
X100696409Y-66832339D02*
X100723347Y-66751526D01*
X100723347Y-66751526D02*
X100858034Y-66616839D01*
X100858034Y-66616839D02*
X100938846Y-66589902D01*
X100938846Y-66589902D02*
X100992721Y-66589902D01*
X100992721Y-66589902D02*
X101073533Y-66616839D01*
X101073533Y-66616839D02*
X101127408Y-66670714D01*
X101127408Y-66670714D02*
X101181282Y-66778464D01*
X101181282Y-66778464D02*
X101181282Y-67424961D01*
X101181282Y-67424961D02*
X101531469Y-67074775D01*
X101154345Y-66320528D02*
X101531469Y-65943404D01*
X101531469Y-65943404D02*
X101854718Y-66751526D01*
X99861350Y-70197398D02*
X99780537Y-70224335D01*
X99780537Y-70224335D02*
X99699725Y-70305148D01*
X99699725Y-70305148D02*
X99645850Y-70412897D01*
X99645850Y-70412897D02*
X99645850Y-70520647D01*
X99645850Y-70520647D02*
X99672788Y-70601459D01*
X99672788Y-70601459D02*
X99753600Y-70736146D01*
X99753600Y-70736146D02*
X99834412Y-70816958D01*
X99834412Y-70816958D02*
X99969099Y-70897771D01*
X99969099Y-70897771D02*
X100049912Y-70924708D01*
X100049912Y-70924708D02*
X100157661Y-70924708D01*
X100157661Y-70924708D02*
X100265411Y-70870833D01*
X100265411Y-70870833D02*
X100319286Y-70816958D01*
X100319286Y-70816958D02*
X100373160Y-70709209D01*
X100373160Y-70709209D02*
X100373160Y-70655334D01*
X100373160Y-70655334D02*
X100184599Y-70466772D01*
X100184599Y-70466772D02*
X100076849Y-70574522D01*
X100669472Y-70466772D02*
X100103786Y-69901087D01*
X100103786Y-69901087D02*
X100319286Y-69685587D01*
X100319286Y-69685587D02*
X100400098Y-69658650D01*
X100400098Y-69658650D02*
X100453973Y-69658650D01*
X100453973Y-69658650D02*
X100534785Y-69685587D01*
X100534785Y-69685587D02*
X100615597Y-69766400D01*
X100615597Y-69766400D02*
X100642534Y-69847212D01*
X100642534Y-69847212D02*
X100642534Y-69901087D01*
X100642534Y-69901087D02*
X100615597Y-69981899D01*
X100615597Y-69981899D02*
X100400098Y-70197398D01*
X100696409Y-69416213D02*
X100696409Y-69362339D01*
X100696409Y-69362339D02*
X100723347Y-69281526D01*
X100723347Y-69281526D02*
X100858034Y-69146839D01*
X100858034Y-69146839D02*
X100938846Y-69119902D01*
X100938846Y-69119902D02*
X100992721Y-69119902D01*
X100992721Y-69119902D02*
X101073533Y-69146839D01*
X101073533Y-69146839D02*
X101127408Y-69200714D01*
X101127408Y-69200714D02*
X101181282Y-69308464D01*
X101181282Y-69308464D02*
X101181282Y-69954961D01*
X101181282Y-69954961D02*
X101531469Y-69604775D01*
X101450657Y-68554216D02*
X101342907Y-68661966D01*
X101342907Y-68661966D02*
X101315970Y-68742778D01*
X101315970Y-68742778D02*
X101315970Y-68796653D01*
X101315970Y-68796653D02*
X101342907Y-68931340D01*
X101342907Y-68931340D02*
X101423719Y-69066027D01*
X101423719Y-69066027D02*
X101639218Y-69281526D01*
X101639218Y-69281526D02*
X101720031Y-69308464D01*
X101720031Y-69308464D02*
X101773905Y-69308464D01*
X101773905Y-69308464D02*
X101854718Y-69281526D01*
X101854718Y-69281526D02*
X101962467Y-69173777D01*
X101962467Y-69173777D02*
X101989405Y-69092964D01*
X101989405Y-69092964D02*
X101989405Y-69039090D01*
X101989405Y-69039090D02*
X101962467Y-68958277D01*
X101962467Y-68958277D02*
X101827780Y-68823590D01*
X101827780Y-68823590D02*
X101746968Y-68796653D01*
X101746968Y-68796653D02*
X101693093Y-68796653D01*
X101693093Y-68796653D02*
X101612281Y-68823590D01*
X101612281Y-68823590D02*
X101504531Y-68931340D01*
X101504531Y-68931340D02*
X101477594Y-69012152D01*
X101477594Y-69012152D02*
X101477594Y-69066027D01*
X101477594Y-69066027D02*
X101504531Y-69146839D01*
X99861350Y-75277398D02*
X99780537Y-75304335D01*
X99780537Y-75304335D02*
X99699725Y-75385148D01*
X99699725Y-75385148D02*
X99645850Y-75492897D01*
X99645850Y-75492897D02*
X99645850Y-75600647D01*
X99645850Y-75600647D02*
X99672788Y-75681459D01*
X99672788Y-75681459D02*
X99753600Y-75816146D01*
X99753600Y-75816146D02*
X99834412Y-75896958D01*
X99834412Y-75896958D02*
X99969099Y-75977771D01*
X99969099Y-75977771D02*
X100049912Y-76004708D01*
X100049912Y-76004708D02*
X100157661Y-76004708D01*
X100157661Y-76004708D02*
X100265411Y-75950833D01*
X100265411Y-75950833D02*
X100319286Y-75896958D01*
X100319286Y-75896958D02*
X100373160Y-75789209D01*
X100373160Y-75789209D02*
X100373160Y-75735334D01*
X100373160Y-75735334D02*
X100184599Y-75546772D01*
X100184599Y-75546772D02*
X100076849Y-75654522D01*
X100669472Y-75546772D02*
X100103786Y-74981087D01*
X100103786Y-74981087D02*
X100319286Y-74765587D01*
X100319286Y-74765587D02*
X100400098Y-74738650D01*
X100400098Y-74738650D02*
X100453973Y-74738650D01*
X100453973Y-74738650D02*
X100534785Y-74765587D01*
X100534785Y-74765587D02*
X100615597Y-74846400D01*
X100615597Y-74846400D02*
X100642534Y-74927212D01*
X100642534Y-74927212D02*
X100642534Y-74981087D01*
X100642534Y-74981087D02*
X100615597Y-75061899D01*
X100615597Y-75061899D02*
X100400098Y-75277398D01*
X100696409Y-74496213D02*
X100696409Y-74442339D01*
X100696409Y-74442339D02*
X100723347Y-74361526D01*
X100723347Y-74361526D02*
X100858034Y-74226839D01*
X100858034Y-74226839D02*
X100938846Y-74199902D01*
X100938846Y-74199902D02*
X100992721Y-74199902D01*
X100992721Y-74199902D02*
X101073533Y-74226839D01*
X101073533Y-74226839D02*
X101127408Y-74280714D01*
X101127408Y-74280714D02*
X101181282Y-74388464D01*
X101181282Y-74388464D02*
X101181282Y-75034961D01*
X101181282Y-75034961D02*
X101531469Y-74684775D01*
X101235157Y-73957465D02*
X101235157Y-73903590D01*
X101235157Y-73903590D02*
X101262095Y-73822778D01*
X101262095Y-73822778D02*
X101396782Y-73688091D01*
X101396782Y-73688091D02*
X101477594Y-73661154D01*
X101477594Y-73661154D02*
X101531469Y-73661154D01*
X101531469Y-73661154D02*
X101612281Y-73688091D01*
X101612281Y-73688091D02*
X101666156Y-73741966D01*
X101666156Y-73741966D02*
X101720031Y-73849716D01*
X101720031Y-73849716D02*
X101720031Y-74496213D01*
X101720031Y-74496213D02*
X102070217Y-74146027D01*
X99861350Y-80367398D02*
X99780537Y-80394335D01*
X99780537Y-80394335D02*
X99699725Y-80475148D01*
X99699725Y-80475148D02*
X99645850Y-80582897D01*
X99645850Y-80582897D02*
X99645850Y-80690647D01*
X99645850Y-80690647D02*
X99672788Y-80771459D01*
X99672788Y-80771459D02*
X99753600Y-80906146D01*
X99753600Y-80906146D02*
X99834412Y-80986958D01*
X99834412Y-80986958D02*
X99969099Y-81067771D01*
X99969099Y-81067771D02*
X100049912Y-81094708D01*
X100049912Y-81094708D02*
X100157661Y-81094708D01*
X100157661Y-81094708D02*
X100265411Y-81040833D01*
X100265411Y-81040833D02*
X100319286Y-80986958D01*
X100319286Y-80986958D02*
X100373160Y-80879209D01*
X100373160Y-80879209D02*
X100373160Y-80825334D01*
X100373160Y-80825334D02*
X100184599Y-80636772D01*
X100184599Y-80636772D02*
X100076849Y-80744522D01*
X100669472Y-80636772D02*
X100103786Y-80071087D01*
X100103786Y-80071087D02*
X100319286Y-79855587D01*
X100319286Y-79855587D02*
X100400098Y-79828650D01*
X100400098Y-79828650D02*
X100453973Y-79828650D01*
X100453973Y-79828650D02*
X100534785Y-79855587D01*
X100534785Y-79855587D02*
X100615597Y-79936400D01*
X100615597Y-79936400D02*
X100642534Y-80017212D01*
X100642534Y-80017212D02*
X100642534Y-80071087D01*
X100642534Y-80071087D02*
X100615597Y-80151899D01*
X100615597Y-80151899D02*
X100400098Y-80367398D01*
X100696409Y-79586213D02*
X100696409Y-79532339D01*
X100696409Y-79532339D02*
X100723347Y-79451526D01*
X100723347Y-79451526D02*
X100858034Y-79316839D01*
X100858034Y-79316839D02*
X100938846Y-79289902D01*
X100938846Y-79289902D02*
X100992721Y-79289902D01*
X100992721Y-79289902D02*
X101073533Y-79316839D01*
X101073533Y-79316839D02*
X101127408Y-79370714D01*
X101127408Y-79370714D02*
X101181282Y-79478464D01*
X101181282Y-79478464D02*
X101181282Y-80124961D01*
X101181282Y-80124961D02*
X101531469Y-79774775D01*
X102070217Y-79236027D02*
X101746968Y-79559276D01*
X101908592Y-79397651D02*
X101342907Y-78831966D01*
X101342907Y-78831966D02*
X101369844Y-78966653D01*
X101369844Y-78966653D02*
X101369844Y-79074403D01*
X101369844Y-79074403D02*
X101342907Y-79155215D01*
X99861350Y-82897398D02*
X99780537Y-82924335D01*
X99780537Y-82924335D02*
X99699725Y-83005148D01*
X99699725Y-83005148D02*
X99645850Y-83112897D01*
X99645850Y-83112897D02*
X99645850Y-83220647D01*
X99645850Y-83220647D02*
X99672788Y-83301459D01*
X99672788Y-83301459D02*
X99753600Y-83436146D01*
X99753600Y-83436146D02*
X99834412Y-83516958D01*
X99834412Y-83516958D02*
X99969099Y-83597771D01*
X99969099Y-83597771D02*
X100049912Y-83624708D01*
X100049912Y-83624708D02*
X100157661Y-83624708D01*
X100157661Y-83624708D02*
X100265411Y-83570833D01*
X100265411Y-83570833D02*
X100319286Y-83516958D01*
X100319286Y-83516958D02*
X100373160Y-83409209D01*
X100373160Y-83409209D02*
X100373160Y-83355334D01*
X100373160Y-83355334D02*
X100184599Y-83166772D01*
X100184599Y-83166772D02*
X100076849Y-83274522D01*
X100669472Y-83166772D02*
X100103786Y-82601087D01*
X100103786Y-82601087D02*
X100319286Y-82385587D01*
X100319286Y-82385587D02*
X100400098Y-82358650D01*
X100400098Y-82358650D02*
X100453973Y-82358650D01*
X100453973Y-82358650D02*
X100534785Y-82385587D01*
X100534785Y-82385587D02*
X100615597Y-82466400D01*
X100615597Y-82466400D02*
X100642534Y-82547212D01*
X100642534Y-82547212D02*
X100642534Y-82601087D01*
X100642534Y-82601087D02*
X100615597Y-82681899D01*
X100615597Y-82681899D02*
X100400098Y-82897398D01*
X100696409Y-82116213D02*
X100696409Y-82062339D01*
X100696409Y-82062339D02*
X100723347Y-81981526D01*
X100723347Y-81981526D02*
X100858034Y-81846839D01*
X100858034Y-81846839D02*
X100938846Y-81819902D01*
X100938846Y-81819902D02*
X100992721Y-81819902D01*
X100992721Y-81819902D02*
X101073533Y-81846839D01*
X101073533Y-81846839D02*
X101127408Y-81900714D01*
X101127408Y-81900714D02*
X101181282Y-82008464D01*
X101181282Y-82008464D02*
X101181282Y-82654961D01*
X101181282Y-82654961D02*
X101531469Y-82304775D01*
X101315970Y-81388903D02*
X101369844Y-81335029D01*
X101369844Y-81335029D02*
X101450657Y-81308091D01*
X101450657Y-81308091D02*
X101504531Y-81308091D01*
X101504531Y-81308091D02*
X101585344Y-81335029D01*
X101585344Y-81335029D02*
X101720031Y-81415841D01*
X101720031Y-81415841D02*
X101854718Y-81550528D01*
X101854718Y-81550528D02*
X101935530Y-81685215D01*
X101935530Y-81685215D02*
X101962467Y-81766027D01*
X101962467Y-81766027D02*
X101962467Y-81819902D01*
X101962467Y-81819902D02*
X101935530Y-81900714D01*
X101935530Y-81900714D02*
X101881655Y-81954589D01*
X101881655Y-81954589D02*
X101800843Y-81981526D01*
X101800843Y-81981526D02*
X101746968Y-81981526D01*
X101746968Y-81981526D02*
X101666156Y-81954589D01*
X101666156Y-81954589D02*
X101531469Y-81873777D01*
X101531469Y-81873777D02*
X101396782Y-81739090D01*
X101396782Y-81739090D02*
X101315970Y-81604403D01*
X101315970Y-81604403D02*
X101289032Y-81523590D01*
X101289032Y-81523590D02*
X101289032Y-81469716D01*
X101289032Y-81469716D02*
X101315970Y-81388903D01*
X99861350Y-85437398D02*
X99780537Y-85464335D01*
X99780537Y-85464335D02*
X99699725Y-85545148D01*
X99699725Y-85545148D02*
X99645850Y-85652897D01*
X99645850Y-85652897D02*
X99645850Y-85760647D01*
X99645850Y-85760647D02*
X99672788Y-85841459D01*
X99672788Y-85841459D02*
X99753600Y-85976146D01*
X99753600Y-85976146D02*
X99834412Y-86056958D01*
X99834412Y-86056958D02*
X99969099Y-86137771D01*
X99969099Y-86137771D02*
X100049912Y-86164708D01*
X100049912Y-86164708D02*
X100157661Y-86164708D01*
X100157661Y-86164708D02*
X100265411Y-86110833D01*
X100265411Y-86110833D02*
X100319286Y-86056958D01*
X100319286Y-86056958D02*
X100373160Y-85949209D01*
X100373160Y-85949209D02*
X100373160Y-85895334D01*
X100373160Y-85895334D02*
X100184599Y-85706772D01*
X100184599Y-85706772D02*
X100076849Y-85814522D01*
X100669472Y-85706772D02*
X100103786Y-85141087D01*
X100103786Y-85141087D02*
X100319286Y-84925587D01*
X100319286Y-84925587D02*
X100400098Y-84898650D01*
X100400098Y-84898650D02*
X100453973Y-84898650D01*
X100453973Y-84898650D02*
X100534785Y-84925587D01*
X100534785Y-84925587D02*
X100615597Y-85006400D01*
X100615597Y-85006400D02*
X100642534Y-85087212D01*
X100642534Y-85087212D02*
X100642534Y-85141087D01*
X100642534Y-85141087D02*
X100615597Y-85221899D01*
X100615597Y-85221899D02*
X100400098Y-85437398D01*
X101531469Y-84844775D02*
X101208220Y-85168024D01*
X101369844Y-85006400D02*
X100804159Y-84440714D01*
X100804159Y-84440714D02*
X100831096Y-84575401D01*
X100831096Y-84575401D02*
X100831096Y-84683151D01*
X100831096Y-84683151D02*
X100804159Y-84763963D01*
X101800843Y-84575401D02*
X101908592Y-84467651D01*
X101908592Y-84467651D02*
X101935530Y-84386839D01*
X101935530Y-84386839D02*
X101935530Y-84332964D01*
X101935530Y-84332964D02*
X101908592Y-84198277D01*
X101908592Y-84198277D02*
X101827780Y-84063590D01*
X101827780Y-84063590D02*
X101612281Y-83848091D01*
X101612281Y-83848091D02*
X101531469Y-83821154D01*
X101531469Y-83821154D02*
X101477594Y-83821154D01*
X101477594Y-83821154D02*
X101396782Y-83848091D01*
X101396782Y-83848091D02*
X101289032Y-83955841D01*
X101289032Y-83955841D02*
X101262095Y-84036653D01*
X101262095Y-84036653D02*
X101262095Y-84090528D01*
X101262095Y-84090528D02*
X101289032Y-84171340D01*
X101289032Y-84171340D02*
X101423719Y-84306027D01*
X101423719Y-84306027D02*
X101504531Y-84332964D01*
X101504531Y-84332964D02*
X101558406Y-84332964D01*
X101558406Y-84332964D02*
X101639218Y-84306027D01*
X101639218Y-84306027D02*
X101746968Y-84198277D01*
X101746968Y-84198277D02*
X101773905Y-84117465D01*
X101773905Y-84117465D02*
X101773905Y-84063590D01*
X101773905Y-84063590D02*
X101746968Y-83982778D01*
X99861350Y-87977398D02*
X99780537Y-88004335D01*
X99780537Y-88004335D02*
X99699725Y-88085148D01*
X99699725Y-88085148D02*
X99645850Y-88192897D01*
X99645850Y-88192897D02*
X99645850Y-88300647D01*
X99645850Y-88300647D02*
X99672788Y-88381459D01*
X99672788Y-88381459D02*
X99753600Y-88516146D01*
X99753600Y-88516146D02*
X99834412Y-88596958D01*
X99834412Y-88596958D02*
X99969099Y-88677771D01*
X99969099Y-88677771D02*
X100049912Y-88704708D01*
X100049912Y-88704708D02*
X100157661Y-88704708D01*
X100157661Y-88704708D02*
X100265411Y-88650833D01*
X100265411Y-88650833D02*
X100319286Y-88596958D01*
X100319286Y-88596958D02*
X100373160Y-88489209D01*
X100373160Y-88489209D02*
X100373160Y-88435334D01*
X100373160Y-88435334D02*
X100184599Y-88246772D01*
X100184599Y-88246772D02*
X100076849Y-88354522D01*
X100669472Y-88246772D02*
X100103786Y-87681087D01*
X100103786Y-87681087D02*
X100319286Y-87465587D01*
X100319286Y-87465587D02*
X100400098Y-87438650D01*
X100400098Y-87438650D02*
X100453973Y-87438650D01*
X100453973Y-87438650D02*
X100534785Y-87465587D01*
X100534785Y-87465587D02*
X100615597Y-87546400D01*
X100615597Y-87546400D02*
X100642534Y-87627212D01*
X100642534Y-87627212D02*
X100642534Y-87681087D01*
X100642534Y-87681087D02*
X100615597Y-87761899D01*
X100615597Y-87761899D02*
X100400098Y-87977398D01*
X101531469Y-87384775D02*
X101208220Y-87708024D01*
X101369844Y-87546400D02*
X100804159Y-86980714D01*
X100804159Y-86980714D02*
X100831096Y-87115401D01*
X100831096Y-87115401D02*
X100831096Y-87223151D01*
X100831096Y-87223151D02*
X100804159Y-87303963D01*
X101531469Y-86738277D02*
X101450657Y-86765215D01*
X101450657Y-86765215D02*
X101396782Y-86765215D01*
X101396782Y-86765215D02*
X101315970Y-86738277D01*
X101315970Y-86738277D02*
X101289032Y-86711340D01*
X101289032Y-86711340D02*
X101262095Y-86630528D01*
X101262095Y-86630528D02*
X101262095Y-86576653D01*
X101262095Y-86576653D02*
X101289032Y-86495841D01*
X101289032Y-86495841D02*
X101396782Y-86388091D01*
X101396782Y-86388091D02*
X101477594Y-86361154D01*
X101477594Y-86361154D02*
X101531469Y-86361154D01*
X101531469Y-86361154D02*
X101612281Y-86388091D01*
X101612281Y-86388091D02*
X101639218Y-86415029D01*
X101639218Y-86415029D02*
X101666156Y-86495841D01*
X101666156Y-86495841D02*
X101666156Y-86549716D01*
X101666156Y-86549716D02*
X101639218Y-86630528D01*
X101639218Y-86630528D02*
X101531469Y-86738277D01*
X101531469Y-86738277D02*
X101504531Y-86819090D01*
X101504531Y-86819090D02*
X101504531Y-86872964D01*
X101504531Y-86872964D02*
X101531469Y-86953777D01*
X101531469Y-86953777D02*
X101639218Y-87061526D01*
X101639218Y-87061526D02*
X101720031Y-87088464D01*
X101720031Y-87088464D02*
X101773905Y-87088464D01*
X101773905Y-87088464D02*
X101854718Y-87061526D01*
X101854718Y-87061526D02*
X101962467Y-86953777D01*
X101962467Y-86953777D02*
X101989405Y-86872964D01*
X101989405Y-86872964D02*
X101989405Y-86819090D01*
X101989405Y-86819090D02*
X101962467Y-86738277D01*
X101962467Y-86738277D02*
X101854718Y-86630528D01*
X101854718Y-86630528D02*
X101773905Y-86603590D01*
X101773905Y-86603590D02*
X101720031Y-86603590D01*
X101720031Y-86603590D02*
X101639218Y-86630528D01*
X99861350Y-93057398D02*
X99780537Y-93084335D01*
X99780537Y-93084335D02*
X99699725Y-93165148D01*
X99699725Y-93165148D02*
X99645850Y-93272897D01*
X99645850Y-93272897D02*
X99645850Y-93380647D01*
X99645850Y-93380647D02*
X99672788Y-93461459D01*
X99672788Y-93461459D02*
X99753600Y-93596146D01*
X99753600Y-93596146D02*
X99834412Y-93676958D01*
X99834412Y-93676958D02*
X99969099Y-93757771D01*
X99969099Y-93757771D02*
X100049912Y-93784708D01*
X100049912Y-93784708D02*
X100157661Y-93784708D01*
X100157661Y-93784708D02*
X100265411Y-93730833D01*
X100265411Y-93730833D02*
X100319286Y-93676958D01*
X100319286Y-93676958D02*
X100373160Y-93569209D01*
X100373160Y-93569209D02*
X100373160Y-93515334D01*
X100373160Y-93515334D02*
X100184599Y-93326772D01*
X100184599Y-93326772D02*
X100076849Y-93434522D01*
X100669472Y-93326772D02*
X100103786Y-92761087D01*
X100103786Y-92761087D02*
X100319286Y-92545587D01*
X100319286Y-92545587D02*
X100400098Y-92518650D01*
X100400098Y-92518650D02*
X100453973Y-92518650D01*
X100453973Y-92518650D02*
X100534785Y-92545587D01*
X100534785Y-92545587D02*
X100615597Y-92626400D01*
X100615597Y-92626400D02*
X100642534Y-92707212D01*
X100642534Y-92707212D02*
X100642534Y-92761087D01*
X100642534Y-92761087D02*
X100615597Y-92841899D01*
X100615597Y-92841899D02*
X100400098Y-93057398D01*
X101531469Y-92464775D02*
X101208220Y-92788024D01*
X101369844Y-92626400D02*
X100804159Y-92060714D01*
X100804159Y-92060714D02*
X100831096Y-92195401D01*
X100831096Y-92195401D02*
X100831096Y-92303151D01*
X100831096Y-92303151D02*
X100804159Y-92383963D01*
X101154345Y-91710528D02*
X101531469Y-91333404D01*
X101531469Y-91333404D02*
X101854718Y-92141526D01*
X99861350Y-95597398D02*
X99780537Y-95624335D01*
X99780537Y-95624335D02*
X99699725Y-95705148D01*
X99699725Y-95705148D02*
X99645850Y-95812897D01*
X99645850Y-95812897D02*
X99645850Y-95920647D01*
X99645850Y-95920647D02*
X99672788Y-96001459D01*
X99672788Y-96001459D02*
X99753600Y-96136146D01*
X99753600Y-96136146D02*
X99834412Y-96216958D01*
X99834412Y-96216958D02*
X99969099Y-96297771D01*
X99969099Y-96297771D02*
X100049912Y-96324708D01*
X100049912Y-96324708D02*
X100157661Y-96324708D01*
X100157661Y-96324708D02*
X100265411Y-96270833D01*
X100265411Y-96270833D02*
X100319286Y-96216958D01*
X100319286Y-96216958D02*
X100373160Y-96109209D01*
X100373160Y-96109209D02*
X100373160Y-96055334D01*
X100373160Y-96055334D02*
X100184599Y-95866772D01*
X100184599Y-95866772D02*
X100076849Y-95974522D01*
X100669472Y-95866772D02*
X100103786Y-95301087D01*
X100103786Y-95301087D02*
X100319286Y-95085587D01*
X100319286Y-95085587D02*
X100400098Y-95058650D01*
X100400098Y-95058650D02*
X100453973Y-95058650D01*
X100453973Y-95058650D02*
X100534785Y-95085587D01*
X100534785Y-95085587D02*
X100615597Y-95166400D01*
X100615597Y-95166400D02*
X100642534Y-95247212D01*
X100642534Y-95247212D02*
X100642534Y-95301087D01*
X100642534Y-95301087D02*
X100615597Y-95381899D01*
X100615597Y-95381899D02*
X100400098Y-95597398D01*
X101531469Y-95004775D02*
X101208220Y-95328024D01*
X101369844Y-95166400D02*
X100804159Y-94600714D01*
X100804159Y-94600714D02*
X100831096Y-94735401D01*
X100831096Y-94735401D02*
X100831096Y-94843151D01*
X100831096Y-94843151D02*
X100804159Y-94923963D01*
X101450657Y-93954216D02*
X101342907Y-94061966D01*
X101342907Y-94061966D02*
X101315970Y-94142778D01*
X101315970Y-94142778D02*
X101315970Y-94196653D01*
X101315970Y-94196653D02*
X101342907Y-94331340D01*
X101342907Y-94331340D02*
X101423719Y-94466027D01*
X101423719Y-94466027D02*
X101639218Y-94681526D01*
X101639218Y-94681526D02*
X101720031Y-94708464D01*
X101720031Y-94708464D02*
X101773905Y-94708464D01*
X101773905Y-94708464D02*
X101854718Y-94681526D01*
X101854718Y-94681526D02*
X101962467Y-94573777D01*
X101962467Y-94573777D02*
X101989405Y-94492964D01*
X101989405Y-94492964D02*
X101989405Y-94439090D01*
X101989405Y-94439090D02*
X101962467Y-94358277D01*
X101962467Y-94358277D02*
X101827780Y-94223590D01*
X101827780Y-94223590D02*
X101746968Y-94196653D01*
X101746968Y-94196653D02*
X101693093Y-94196653D01*
X101693093Y-94196653D02*
X101612281Y-94223590D01*
X101612281Y-94223590D02*
X101504531Y-94331340D01*
X101504531Y-94331340D02*
X101477594Y-94412152D01*
X101477594Y-94412152D02*
X101477594Y-94466027D01*
X101477594Y-94466027D02*
X101504531Y-94546839D01*
X99684101Y-50146772D02*
X100438348Y-50523896D01*
X100438348Y-50523896D02*
X100061225Y-49769648D01*
X100761597Y-50146772D02*
X100869347Y-50092897D01*
X100869347Y-50092897D02*
X101004034Y-49958210D01*
X101004034Y-49958210D02*
X101030971Y-49877398D01*
X101030971Y-49877398D02*
X101030971Y-49823523D01*
X101030971Y-49823523D02*
X101004034Y-49742711D01*
X101004034Y-49742711D02*
X100950159Y-49688836D01*
X100950159Y-49688836D02*
X100869347Y-49661899D01*
X100869347Y-49661899D02*
X100815472Y-49661899D01*
X100815472Y-49661899D02*
X100734660Y-49688836D01*
X100734660Y-49688836D02*
X100599973Y-49769648D01*
X100599973Y-49769648D02*
X100519160Y-49796586D01*
X100519160Y-49796586D02*
X100465286Y-49796586D01*
X100465286Y-49796586D02*
X100384473Y-49769648D01*
X100384473Y-49769648D02*
X100330599Y-49715774D01*
X100330599Y-49715774D02*
X100303661Y-49634961D01*
X100303661Y-49634961D02*
X100303661Y-49581087D01*
X100303661Y-49581087D02*
X100330599Y-49500274D01*
X100330599Y-49500274D02*
X100465286Y-49365587D01*
X100465286Y-49365587D02*
X100573035Y-49311713D01*
X101192596Y-49230900D02*
X101461970Y-49500274D01*
X100707722Y-49123151D02*
X101192596Y-49230900D01*
X101192596Y-49230900D02*
X101084846Y-48746027D01*
X101785218Y-49123151D02*
X101892968Y-49069276D01*
X101892968Y-49069276D02*
X102027655Y-48934589D01*
X102027655Y-48934589D02*
X102054592Y-48853777D01*
X102054592Y-48853777D02*
X102054592Y-48799902D01*
X102054592Y-48799902D02*
X102027655Y-48719090D01*
X102027655Y-48719090D02*
X101973780Y-48665215D01*
X101973780Y-48665215D02*
X101892968Y-48638278D01*
X101892968Y-48638278D02*
X101839093Y-48638278D01*
X101839093Y-48638278D02*
X101758281Y-48665215D01*
X101758281Y-48665215D02*
X101623594Y-48746027D01*
X101623594Y-48746027D02*
X101542782Y-48772965D01*
X101542782Y-48772965D02*
X101488907Y-48772965D01*
X101488907Y-48772965D02*
X101408095Y-48746027D01*
X101408095Y-48746027D02*
X101354220Y-48692152D01*
X101354220Y-48692152D02*
X101327282Y-48611340D01*
X101327282Y-48611340D02*
X101327282Y-48557465D01*
X101327282Y-48557465D02*
X101354220Y-48476653D01*
X101354220Y-48476653D02*
X101488907Y-48341966D01*
X101488907Y-48341966D02*
X101596656Y-48288091D01*
X99716758Y-47604115D02*
X100471005Y-47981239D01*
X100471005Y-47981239D02*
X100093881Y-47226992D01*
X100740379Y-47119242D02*
X100848128Y-47065368D01*
X100848128Y-47065368D02*
X100902003Y-47065368D01*
X100902003Y-47065368D02*
X100982815Y-47092305D01*
X100982815Y-47092305D02*
X101063628Y-47173117D01*
X101063628Y-47173117D02*
X101090565Y-47253929D01*
X101090565Y-47253929D02*
X101090565Y-47307804D01*
X101090565Y-47307804D02*
X101063628Y-47388616D01*
X101063628Y-47388616D02*
X100848128Y-47604116D01*
X100848128Y-47604116D02*
X100282443Y-47038430D01*
X100282443Y-47038430D02*
X100471005Y-46849868D01*
X100471005Y-46849868D02*
X100551817Y-46822931D01*
X100551817Y-46822931D02*
X100605692Y-46822931D01*
X100605692Y-46822931D02*
X100686504Y-46849868D01*
X100686504Y-46849868D02*
X100740379Y-46903743D01*
X100740379Y-46903743D02*
X100767316Y-46984555D01*
X100767316Y-46984555D02*
X100767316Y-47038430D01*
X100767316Y-47038430D02*
X100740379Y-47119242D01*
X100740379Y-47119242D02*
X100551817Y-47307804D01*
X100848128Y-46472745D02*
X101306064Y-46930681D01*
X101306064Y-46930681D02*
X101386876Y-46957618D01*
X101386876Y-46957618D02*
X101440751Y-46957618D01*
X101440751Y-46957618D02*
X101521563Y-46930681D01*
X101521563Y-46930681D02*
X101629313Y-46822931D01*
X101629313Y-46822931D02*
X101656250Y-46742119D01*
X101656250Y-46742119D02*
X101656250Y-46688244D01*
X101656250Y-46688244D02*
X101629313Y-46607432D01*
X101629313Y-46607432D02*
X101171377Y-46149496D01*
X101952562Y-46445807D02*
X102060311Y-46391933D01*
X102060311Y-46391933D02*
X102194998Y-46257246D01*
X102194998Y-46257246D02*
X102221936Y-46176433D01*
X102221936Y-46176433D02*
X102221936Y-46122559D01*
X102221936Y-46122559D02*
X102194998Y-46041746D01*
X102194998Y-46041746D02*
X102141123Y-45987872D01*
X102141123Y-45987872D02*
X102060311Y-45960934D01*
X102060311Y-45960934D02*
X102006436Y-45960934D01*
X102006436Y-45960934D02*
X101925624Y-45987872D01*
X101925624Y-45987872D02*
X101790937Y-46068684D01*
X101790937Y-46068684D02*
X101710125Y-46095621D01*
X101710125Y-46095621D02*
X101656250Y-46095621D01*
X101656250Y-46095621D02*
X101575438Y-46068684D01*
X101575438Y-46068684D02*
X101521563Y-46014809D01*
X101521563Y-46014809D02*
X101494626Y-45933997D01*
X101494626Y-45933997D02*
X101494626Y-45880122D01*
X101494626Y-45880122D02*
X101521563Y-45799310D01*
X101521563Y-45799310D02*
X101656250Y-45664623D01*
X101656250Y-45664623D02*
X101764000Y-45610748D01*
X99685759Y-55035114D02*
X100035945Y-54684928D01*
X100035945Y-54684928D02*
X100062883Y-55088989D01*
X100062883Y-55088989D02*
X100143695Y-55008176D01*
X100143695Y-55008176D02*
X100224507Y-54981239D01*
X100224507Y-54981239D02*
X100278382Y-54981239D01*
X100278382Y-54981239D02*
X100359194Y-55008176D01*
X100359194Y-55008176D02*
X100493881Y-55142863D01*
X100493881Y-55142863D02*
X100520819Y-55223676D01*
X100520819Y-55223676D02*
X100520819Y-55277550D01*
X100520819Y-55277550D02*
X100493881Y-55358363D01*
X100493881Y-55358363D02*
X100332257Y-55519987D01*
X100332257Y-55519987D02*
X100251445Y-55546924D01*
X100251445Y-55546924D02*
X100197570Y-55546924D01*
X100197570Y-54523303D02*
X100951817Y-54900427D01*
X100951817Y-54900427D02*
X100574694Y-54146179D01*
X100709380Y-54011493D02*
X101059567Y-53661306D01*
X101059567Y-53661306D02*
X101086504Y-54065367D01*
X101086504Y-54065367D02*
X101167316Y-53984555D01*
X101167316Y-53984555D02*
X101248128Y-53957618D01*
X101248128Y-53957618D02*
X101302003Y-53957618D01*
X101302003Y-53957618D02*
X101382816Y-53984555D01*
X101382816Y-53984555D02*
X101517503Y-54119242D01*
X101517503Y-54119242D02*
X101544440Y-54200054D01*
X101544440Y-54200054D02*
X101544440Y-54253929D01*
X101544440Y-54253929D02*
X101517503Y-54334741D01*
X101517503Y-54334741D02*
X101355878Y-54496366D01*
X101355878Y-54496366D02*
X101275066Y-54523303D01*
X101275066Y-54523303D02*
X101221191Y-54523303D01*
X101786877Y-54173117D02*
X102217875Y-53742118D01*
X102002376Y-53257245D02*
X102190938Y-53068683D01*
X102568061Y-53284182D02*
X102298687Y-53553556D01*
X102298687Y-53553556D02*
X101733002Y-52987871D01*
X101733002Y-52987871D02*
X102002376Y-52718497D01*
X102810498Y-53041745D02*
X102244813Y-52476060D01*
X102244813Y-52476060D02*
X103133747Y-52718497D01*
X103133747Y-52718497D02*
X102568062Y-52152811D01*
X99918416Y-60610579D02*
X100187790Y-60341205D01*
X100026165Y-60826079D02*
X99649042Y-60071831D01*
X99649042Y-60071831D02*
X100403289Y-60448955D01*
X100591851Y-60260393D02*
X100026165Y-59694708D01*
X100026165Y-59694708D02*
X100160852Y-59560021D01*
X100160852Y-59560021D02*
X100268602Y-59506146D01*
X100268602Y-59506146D02*
X100376351Y-59506146D01*
X100376351Y-59506146D02*
X100457164Y-59533083D01*
X100457164Y-59533083D02*
X100591851Y-59613896D01*
X100591851Y-59613896D02*
X100672663Y-59694708D01*
X100672663Y-59694708D02*
X100753475Y-59829395D01*
X100753475Y-59829395D02*
X100780412Y-59910207D01*
X100780412Y-59910207D02*
X100780412Y-60017957D01*
X100780412Y-60017957D02*
X100726538Y-60125706D01*
X100726538Y-60125706D02*
X100591851Y-60260393D01*
X101426910Y-59317584D02*
X101426910Y-59371459D01*
X101426910Y-59371459D02*
X101373035Y-59479209D01*
X101373035Y-59479209D02*
X101319160Y-59533083D01*
X101319160Y-59533083D02*
X101211411Y-59586958D01*
X101211411Y-59586958D02*
X101103661Y-59586958D01*
X101103661Y-59586958D02*
X101022849Y-59560021D01*
X101022849Y-59560021D02*
X100888162Y-59479209D01*
X100888162Y-59479209D02*
X100807350Y-59398396D01*
X100807350Y-59398396D02*
X100726538Y-59263709D01*
X100726538Y-59263709D02*
X100699600Y-59182897D01*
X100699600Y-59182897D02*
X100699600Y-59075148D01*
X100699600Y-59075148D02*
X100753475Y-58967398D01*
X100753475Y-58967398D02*
X100807350Y-58913523D01*
X100807350Y-58913523D02*
X100915099Y-58859648D01*
X100915099Y-58859648D02*
X100968974Y-58859648D01*
X101642409Y-59317584D02*
X102073408Y-58886586D01*
X101507722Y-58213151D02*
X102261970Y-58590274D01*
X102261970Y-58590274D02*
X101884846Y-57836027D01*
X102962342Y-57889902D02*
X102504406Y-57809090D01*
X102639093Y-58213151D02*
X102073408Y-57647465D01*
X102073408Y-57647465D02*
X102288907Y-57431966D01*
X102288907Y-57431966D02*
X102369719Y-57405029D01*
X102369719Y-57405029D02*
X102423594Y-57405029D01*
X102423594Y-57405029D02*
X102504406Y-57431966D01*
X102504406Y-57431966D02*
X102585218Y-57512778D01*
X102585218Y-57512778D02*
X102612156Y-57593591D01*
X102612156Y-57593591D02*
X102612156Y-57647465D01*
X102612156Y-57647465D02*
X102585218Y-57728278D01*
X102585218Y-57728278D02*
X102369719Y-57943777D01*
X102908467Y-57351154D02*
X103097029Y-57162592D01*
X103474152Y-57378091D02*
X103204778Y-57647465D01*
X103204778Y-57647465D02*
X102639093Y-57081780D01*
X102639093Y-57081780D02*
X102908467Y-56812406D01*
X103608840Y-56650781D02*
X103420278Y-56839343D01*
X103716589Y-57135655D02*
X103150904Y-56569969D01*
X103150904Y-56569969D02*
X103420278Y-56300595D01*
X180050781Y-50959806D02*
X181050628Y-50942354D01*
X181050628Y-50942354D02*
X181054784Y-51180413D01*
X181054784Y-51180413D02*
X181009665Y-51324079D01*
X181009665Y-51324079D02*
X180916103Y-51420965D01*
X180916103Y-51420965D02*
X180821711Y-51470239D01*
X180821711Y-51470239D02*
X180632095Y-51521175D01*
X180632095Y-51521175D02*
X180489259Y-51523668D01*
X180489259Y-51523668D02*
X180297981Y-51479381D01*
X180297981Y-51479381D02*
X180201927Y-51433431D01*
X180201927Y-51433431D02*
X180105041Y-51339870D01*
X180105041Y-51339870D02*
X180054936Y-51197865D01*
X180054936Y-51197865D02*
X180050781Y-50959806D01*
X181066418Y-51846978D02*
X181077222Y-52465931D01*
X181077222Y-52465931D02*
X180690511Y-52139297D01*
X180690511Y-52139297D02*
X180693004Y-52282133D01*
X180693004Y-52282133D02*
X180647054Y-52378187D01*
X180647054Y-52378187D02*
X180600273Y-52426630D01*
X180600273Y-52426630D02*
X180505881Y-52475904D01*
X180505881Y-52475904D02*
X180267822Y-52480060D01*
X180267822Y-52480060D02*
X180171767Y-52434110D01*
X180171767Y-52434110D02*
X180123324Y-52387329D01*
X180123324Y-52387329D02*
X180074050Y-52292937D01*
X180074050Y-52292937D02*
X180069064Y-52007266D01*
X180069064Y-52007266D02*
X180115014Y-51911211D01*
X180115014Y-51911211D02*
X180161794Y-51862768D01*
X180988647Y-52848488D02*
X181037090Y-52895269D01*
X181037090Y-52895269D02*
X181086364Y-52989661D01*
X181086364Y-52989661D02*
X181090519Y-53227720D01*
X181090519Y-53227720D02*
X181044570Y-53323775D01*
X181044570Y-53323775D02*
X180997789Y-53372218D01*
X180997789Y-53372218D02*
X180903397Y-53421492D01*
X180903397Y-53421492D02*
X180808173Y-53423154D01*
X180808173Y-53423154D02*
X180664506Y-53378035D01*
X180664506Y-53378035D02*
X180083192Y-52816666D01*
X180083192Y-52816666D02*
X180093996Y-53435620D01*
X180453847Y-55715890D02*
X181453695Y-55698438D01*
X180463820Y-56287232D02*
X181027682Y-55848753D01*
X181463667Y-56269779D02*
X180882353Y-55708411D01*
X220351599Y-57673396D02*
X219351599Y-57673396D01*
X219351599Y-57673396D02*
X219351599Y-57435301D01*
X219351599Y-57435301D02*
X219399218Y-57292444D01*
X219399218Y-57292444D02*
X219494456Y-57197206D01*
X219494456Y-57197206D02*
X219589694Y-57149587D01*
X219589694Y-57149587D02*
X219780170Y-57101968D01*
X219780170Y-57101968D02*
X219923027Y-57101968D01*
X219923027Y-57101968D02*
X220113503Y-57149587D01*
X220113503Y-57149587D02*
X220208741Y-57197206D01*
X220208741Y-57197206D02*
X220303980Y-57292444D01*
X220303980Y-57292444D02*
X220351599Y-57435301D01*
X220351599Y-57435301D02*
X220351599Y-57673396D01*
X219351599Y-56768634D02*
X219351599Y-56149587D01*
X219351599Y-56149587D02*
X219732551Y-56482920D01*
X219732551Y-56482920D02*
X219732551Y-56340063D01*
X219732551Y-56340063D02*
X219780170Y-56244825D01*
X219780170Y-56244825D02*
X219827789Y-56197206D01*
X219827789Y-56197206D02*
X219923027Y-56149587D01*
X219923027Y-56149587D02*
X220161122Y-56149587D01*
X220161122Y-56149587D02*
X220256360Y-56197206D01*
X220256360Y-56197206D02*
X220303980Y-56244825D01*
X220303980Y-56244825D02*
X220351599Y-56340063D01*
X220351599Y-56340063D02*
X220351599Y-56625777D01*
X220351599Y-56625777D02*
X220303980Y-56721015D01*
X220303980Y-56721015D02*
X220256360Y-56768634D01*
X219684932Y-55292444D02*
X220351599Y-55292444D01*
X219303980Y-55530539D02*
X220018265Y-55768634D01*
X220018265Y-55768634D02*
X220018265Y-55149587D01*
X220671599Y-60531028D02*
X219671599Y-60531028D01*
X220671599Y-59959600D02*
X220100170Y-60388171D01*
X219671599Y-59959600D02*
X220243027Y-60531028D01*
X140550065Y-71344347D02*
X141548694Y-71292011D01*
X141548694Y-71292011D02*
X141561155Y-71529780D01*
X141561155Y-71529780D02*
X141521078Y-71674934D01*
X141521078Y-71674934D02*
X141430955Y-71775026D01*
X141430955Y-71775026D02*
X141338340Y-71827564D01*
X141338340Y-71827564D02*
X141150617Y-71885086D01*
X141150617Y-71885086D02*
X141007955Y-71892563D01*
X141007955Y-71892563D02*
X140815248Y-71854978D01*
X140815248Y-71854978D02*
X140717648Y-71812409D01*
X140717648Y-71812409D02*
X140617556Y-71722285D01*
X140617556Y-71722285D02*
X140562526Y-71582116D01*
X140562526Y-71582116D02*
X140550065Y-71344347D01*
X141596046Y-72195533D02*
X141628445Y-72813733D01*
X141628445Y-72813733D02*
X141230569Y-72500793D01*
X141230569Y-72500793D02*
X141238045Y-72643455D01*
X141238045Y-72643455D02*
X141195476Y-72741055D01*
X141195476Y-72741055D02*
X141150414Y-72791101D01*
X141150414Y-72791101D02*
X141057799Y-72843639D01*
X141057799Y-72843639D02*
X140820030Y-72856100D01*
X140820030Y-72856100D02*
X140722430Y-72813530D01*
X140722430Y-72813530D02*
X140672384Y-72768469D01*
X140672384Y-72768469D02*
X140619846Y-72675853D01*
X140619846Y-72675853D02*
X140604893Y-72390531D01*
X140604893Y-72390531D02*
X140647463Y-72292931D01*
X140647463Y-72292931D02*
X140692524Y-72242885D01*
X141673304Y-73669701D02*
X141663335Y-73479486D01*
X141663335Y-73479486D02*
X141610797Y-73386870D01*
X141610797Y-73386870D02*
X141560751Y-73341809D01*
X141560751Y-73341809D02*
X141413105Y-73254178D01*
X141413105Y-73254178D02*
X141220398Y-73216593D01*
X141220398Y-73216593D02*
X140839968Y-73236530D01*
X140839968Y-73236530D02*
X140747352Y-73289068D01*
X140747352Y-73289068D02*
X140702291Y-73339114D01*
X140702291Y-73339114D02*
X140659721Y-73436714D01*
X140659721Y-73436714D02*
X140669690Y-73626929D01*
X140669690Y-73626929D02*
X140722228Y-73719544D01*
X140722228Y-73719544D02*
X140772274Y-73764606D01*
X140772274Y-73764606D02*
X140869874Y-73807176D01*
X140869874Y-73807176D02*
X141107643Y-73794715D01*
X141107643Y-73794715D02*
X141200258Y-73742176D01*
X141200258Y-73742176D02*
X141245320Y-73692130D01*
X141245320Y-73692130D02*
X141287889Y-73594531D01*
X141287889Y-73594531D02*
X141277920Y-73404316D01*
X141277920Y-73404316D02*
X141225382Y-73311700D01*
X141225382Y-73311700D02*
X141175336Y-73266639D01*
X141175336Y-73266639D02*
X141077737Y-73224069D01*
X141118872Y-76083468D02*
X142117501Y-76031132D01*
X141148778Y-76654114D02*
X141696994Y-76196223D01*
X142147408Y-76601778D02*
X141546856Y-76061038D01*
X181061693Y-107974583D02*
X182061540Y-107957131D01*
X182061540Y-107957131D02*
X182065696Y-108195190D01*
X182065696Y-108195190D02*
X182020577Y-108338856D01*
X182020577Y-108338856D02*
X181927015Y-108435742D01*
X181927015Y-108435742D02*
X181832623Y-108485016D01*
X181832623Y-108485016D02*
X181643007Y-108535952D01*
X181643007Y-108535952D02*
X181500171Y-108538445D01*
X181500171Y-108538445D02*
X181308893Y-108494158D01*
X181308893Y-108494158D02*
X181212839Y-108448208D01*
X181212839Y-108448208D02*
X181115953Y-108354647D01*
X181115953Y-108354647D02*
X181065848Y-108212642D01*
X181065848Y-108212642D02*
X181061693Y-107974583D01*
X182087303Y-109433097D02*
X182078993Y-108956979D01*
X182078993Y-108956979D02*
X181602044Y-108917678D01*
X181602044Y-108917678D02*
X181650486Y-108964458D01*
X181650486Y-108964458D02*
X181699760Y-109058851D01*
X181699760Y-109058851D02*
X181703916Y-109296910D01*
X181703916Y-109296910D02*
X181657966Y-109392964D01*
X181657966Y-109392964D02*
X181611185Y-109441407D01*
X181611185Y-109441407D02*
X181516793Y-109490681D01*
X181516793Y-109490681D02*
X181278734Y-109494837D01*
X181278734Y-109494837D02*
X181182679Y-109448887D01*
X181182679Y-109448887D02*
X181134236Y-109402106D01*
X181134236Y-109402106D02*
X181084962Y-109307714D01*
X181084962Y-109307714D02*
X181080807Y-109069655D01*
X181080807Y-109069655D02*
X181126757Y-108973600D01*
X181126757Y-108973600D02*
X181173537Y-108925157D01*
X182098938Y-110099662D02*
X182100600Y-110194885D01*
X182100600Y-110194885D02*
X182054651Y-110290940D01*
X182054651Y-110290940D02*
X182007870Y-110339383D01*
X182007870Y-110339383D02*
X181913477Y-110388657D01*
X181913477Y-110388657D02*
X181723861Y-110439593D01*
X181723861Y-110439593D02*
X181485802Y-110443748D01*
X181485802Y-110443748D02*
X181294524Y-110399461D01*
X181294524Y-110399461D02*
X181198469Y-110353511D01*
X181198469Y-110353511D02*
X181150027Y-110306730D01*
X181150027Y-110306730D02*
X181100753Y-110212338D01*
X181100753Y-110212338D02*
X181099091Y-110117114D01*
X181099091Y-110117114D02*
X181145040Y-110021060D01*
X181145040Y-110021060D02*
X181191821Y-109972617D01*
X181191821Y-109972617D02*
X181286213Y-109923343D01*
X181286213Y-109923343D02*
X181475830Y-109872407D01*
X181475830Y-109872407D02*
X181713889Y-109868251D01*
X181713889Y-109868251D02*
X181905167Y-109912539D01*
X181905167Y-109912539D02*
X182001221Y-109958489D01*
X182001221Y-109958489D02*
X182049664Y-110005269D01*
X182049664Y-110005269D02*
X182098938Y-110099662D01*
X181464759Y-112730667D02*
X182464607Y-112713215D01*
X181474732Y-113302009D02*
X182038594Y-112863530D01*
X182474579Y-113284556D02*
X181893265Y-112723188D01*
X180396754Y-69960386D02*
X181396601Y-69942934D01*
X181396601Y-69942934D02*
X181400757Y-70180993D01*
X181400757Y-70180993D02*
X181355638Y-70324659D01*
X181355638Y-70324659D02*
X181262076Y-70421545D01*
X181262076Y-70421545D02*
X181167684Y-70470819D01*
X181167684Y-70470819D02*
X180978068Y-70521755D01*
X180978068Y-70521755D02*
X180835232Y-70524248D01*
X180835232Y-70524248D02*
X180643954Y-70479961D01*
X180643954Y-70479961D02*
X180547900Y-70434011D01*
X180547900Y-70434011D02*
X180451014Y-70340450D01*
X180451014Y-70340450D02*
X180400909Y-70198445D01*
X180400909Y-70198445D02*
X180396754Y-69960386D01*
X181412391Y-70847558D02*
X181423195Y-71466511D01*
X181423195Y-71466511D02*
X181036484Y-71139877D01*
X181036484Y-71139877D02*
X181038977Y-71282713D01*
X181038977Y-71282713D02*
X180993027Y-71378767D01*
X180993027Y-71378767D02*
X180946246Y-71427210D01*
X180946246Y-71427210D02*
X180851854Y-71476484D01*
X180851854Y-71476484D02*
X180613795Y-71480640D01*
X180613795Y-71480640D02*
X180517740Y-71434690D01*
X180517740Y-71434690D02*
X180469297Y-71387909D01*
X180469297Y-71387909D02*
X180420023Y-71293517D01*
X180420023Y-71293517D02*
X180415037Y-71007846D01*
X180415037Y-71007846D02*
X180460987Y-70911791D01*
X180460987Y-70911791D02*
X180507767Y-70863348D01*
X181004662Y-72045333D02*
X181050612Y-71949278D01*
X181050612Y-71949278D02*
X181097392Y-71900835D01*
X181097392Y-71900835D02*
X181191785Y-71851561D01*
X181191785Y-71851561D02*
X181239397Y-71850730D01*
X181239397Y-71850730D02*
X181335451Y-71896680D01*
X181335451Y-71896680D02*
X181383894Y-71943460D01*
X181383894Y-71943460D02*
X181433168Y-72037853D01*
X181433168Y-72037853D02*
X181436492Y-72228300D01*
X181436492Y-72228300D02*
X181390543Y-72324355D01*
X181390543Y-72324355D02*
X181343762Y-72372798D01*
X181343762Y-72372798D02*
X181249370Y-72422072D01*
X181249370Y-72422072D02*
X181201758Y-72422903D01*
X181201758Y-72422903D02*
X181105703Y-72376953D01*
X181105703Y-72376953D02*
X181057260Y-72330172D01*
X181057260Y-72330172D02*
X181007986Y-72235780D01*
X181007986Y-72235780D02*
X181004662Y-72045333D01*
X181004662Y-72045333D02*
X180955388Y-71950940D01*
X180955388Y-71950940D02*
X180906945Y-71904159D01*
X180906945Y-71904159D02*
X180810891Y-71858210D01*
X180810891Y-71858210D02*
X180620443Y-71861534D01*
X180620443Y-71861534D02*
X180526051Y-71910808D01*
X180526051Y-71910808D02*
X180479270Y-71959251D01*
X180479270Y-71959251D02*
X180433320Y-72055305D01*
X180433320Y-72055305D02*
X180436645Y-72245753D01*
X180436645Y-72245753D02*
X180485919Y-72340145D01*
X180485919Y-72340145D02*
X180534362Y-72386926D01*
X180534362Y-72386926D02*
X180630416Y-72432875D01*
X180630416Y-72432875D02*
X180820863Y-72429551D01*
X180820863Y-72429551D02*
X180915256Y-72380277D01*
X180915256Y-72380277D02*
X180962037Y-72331834D01*
X180962037Y-72331834D02*
X181007986Y-72235780D01*
X180799820Y-74716470D02*
X181799668Y-74699018D01*
X180809793Y-75287812D02*
X181373655Y-74849333D01*
X181809640Y-75270359D02*
X181228326Y-74708991D01*
X229981219Y-95988394D02*
X228981219Y-95988394D01*
X228981219Y-95988394D02*
X228981219Y-95750299D01*
X228981219Y-95750299D02*
X229028838Y-95607442D01*
X229028838Y-95607442D02*
X229124076Y-95512204D01*
X229124076Y-95512204D02*
X229219314Y-95464585D01*
X229219314Y-95464585D02*
X229409790Y-95416966D01*
X229409790Y-95416966D02*
X229552647Y-95416966D01*
X229552647Y-95416966D02*
X229743123Y-95464585D01*
X229743123Y-95464585D02*
X229838361Y-95512204D01*
X229838361Y-95512204D02*
X229933600Y-95607442D01*
X229933600Y-95607442D02*
X229981219Y-95750299D01*
X229981219Y-95750299D02*
X229981219Y-95988394D01*
X229314552Y-94559823D02*
X229981219Y-94559823D01*
X228933600Y-94797918D02*
X229647885Y-95036013D01*
X229647885Y-95036013D02*
X229647885Y-94416966D01*
X228981219Y-93607442D02*
X228981219Y-93797918D01*
X228981219Y-93797918D02*
X229028838Y-93893156D01*
X229028838Y-93893156D02*
X229076457Y-93940775D01*
X229076457Y-93940775D02*
X229219314Y-94036013D01*
X229219314Y-94036013D02*
X229409790Y-94083632D01*
X229409790Y-94083632D02*
X229790742Y-94083632D01*
X229790742Y-94083632D02*
X229885980Y-94036013D01*
X229885980Y-94036013D02*
X229933600Y-93988394D01*
X229933600Y-93988394D02*
X229981219Y-93893156D01*
X229981219Y-93893156D02*
X229981219Y-93702680D01*
X229981219Y-93702680D02*
X229933600Y-93607442D01*
X229933600Y-93607442D02*
X229885980Y-93559823D01*
X229885980Y-93559823D02*
X229790742Y-93512204D01*
X229790742Y-93512204D02*
X229552647Y-93512204D01*
X229552647Y-93512204D02*
X229457409Y-93559823D01*
X229457409Y-93559823D02*
X229409790Y-93607442D01*
X229409790Y-93607442D02*
X229362171Y-93702680D01*
X229362171Y-93702680D02*
X229362171Y-93893156D01*
X229362171Y-93893156D02*
X229409790Y-93988394D01*
X229409790Y-93988394D02*
X229457409Y-94036013D01*
X229457409Y-94036013D02*
X229552647Y-94083632D01*
X230301219Y-98846026D02*
X229301219Y-98846026D01*
X230301219Y-98274598D02*
X229729790Y-98703169D01*
X229301219Y-98274598D02*
X229872647Y-98846026D01*
X120975910Y-93994499D02*
X121973474Y-93924743D01*
X121973474Y-93924743D02*
X121990083Y-94162258D01*
X121990083Y-94162258D02*
X121952545Y-94308089D01*
X121952545Y-94308089D02*
X121864182Y-94409738D01*
X121864182Y-94409738D02*
X121772498Y-94463885D01*
X121772498Y-94463885D02*
X121585808Y-94524675D01*
X121585808Y-94524675D02*
X121443298Y-94534640D01*
X121443298Y-94534640D02*
X121249964Y-94500424D01*
X121249964Y-94500424D02*
X121151637Y-94459565D01*
X121151637Y-94459565D02*
X121049987Y-94371202D01*
X121049987Y-94371202D02*
X120992519Y-94232015D01*
X120992519Y-94232015D02*
X120975910Y-93994499D01*
X121740605Y-95373086D02*
X121075562Y-95419591D01*
X122104021Y-95108997D02*
X121374866Y-94921308D01*
X121374866Y-94921308D02*
X121418049Y-95538848D01*
X121148640Y-96464658D02*
X121108780Y-95894621D01*
X121128710Y-96179640D02*
X122126274Y-96109883D01*
X122126274Y-96109883D02*
X121977121Y-96024842D01*
X121977121Y-96024842D02*
X121875472Y-95936480D01*
X121875472Y-95936480D02*
X121821325Y-95844795D01*
X121627339Y-98722971D02*
X122624903Y-98653215D01*
X121667200Y-99293008D02*
X122207341Y-98825620D01*
X122664764Y-99223251D02*
X122054866Y-98693076D01*
X116666187Y-136853028D02*
X117656455Y-136713855D01*
X117656455Y-136713855D02*
X117689591Y-136949633D01*
X117689591Y-136949633D02*
X117662318Y-137097727D01*
X117662318Y-137097727D02*
X117581261Y-137205293D01*
X117581261Y-137205293D02*
X117493577Y-137265703D01*
X117493577Y-137265703D02*
X117311582Y-137339368D01*
X117311582Y-137339368D02*
X117170115Y-137359250D01*
X117170115Y-137359250D02*
X116974865Y-137338603D01*
X116974865Y-137338603D02*
X116873927Y-137304702D01*
X116873927Y-137304702D02*
X116766361Y-137223645D01*
X116766361Y-137223645D02*
X116699323Y-137088806D01*
X116699323Y-137088806D02*
X116666187Y-136853028D01*
X117861901Y-138175679D02*
X117795628Y-137704123D01*
X117795628Y-137704123D02*
X117317444Y-137723240D01*
X117317444Y-137723240D02*
X117371227Y-137763768D01*
X117371227Y-137763768D02*
X117431638Y-137851452D01*
X117431638Y-137851452D02*
X117464774Y-138087230D01*
X117464774Y-138087230D02*
X117430873Y-138188169D01*
X117430873Y-138188169D02*
X117390345Y-138241952D01*
X117390345Y-138241952D02*
X117302661Y-138302362D01*
X117302661Y-138302362D02*
X117066883Y-138335498D01*
X117066883Y-138335498D02*
X116965944Y-138301597D01*
X116965944Y-138301597D02*
X116912161Y-138261069D01*
X116912161Y-138261069D02*
X116851751Y-138173385D01*
X116851751Y-138173385D02*
X116818614Y-137937607D01*
X116818614Y-137937607D02*
X116852516Y-137836668D01*
X116852516Y-137836668D02*
X116893044Y-137782886D01*
X117914919Y-138552924D02*
X118001074Y-139165947D01*
X118001074Y-139165947D02*
X117577438Y-138888876D01*
X117577438Y-138888876D02*
X117597320Y-139030343D01*
X117597320Y-139030343D02*
X117563419Y-139131281D01*
X117563419Y-139131281D02*
X117522890Y-139185064D01*
X117522890Y-139185064D02*
X117435207Y-139245474D01*
X117435207Y-139245474D02*
X117199428Y-139278611D01*
X117199428Y-139278611D02*
X117098490Y-139244710D01*
X117098490Y-139244710D02*
X117044707Y-139204182D01*
X117044707Y-139204182D02*
X116984297Y-139116498D01*
X116984297Y-139116498D02*
X116944533Y-138833564D01*
X116944533Y-138833564D02*
X116978434Y-138732625D01*
X116978434Y-138732625D02*
X117018962Y-138678842D01*
X117645871Y-141524541D02*
X118636139Y-141385368D01*
X117725398Y-142090409D02*
X118231620Y-141586481D01*
X118715666Y-141951236D02*
X118070271Y-141464896D01*
X136400719Y-133831775D02*
X137395240Y-133727247D01*
X137395240Y-133727247D02*
X137420128Y-133964038D01*
X137420128Y-133964038D02*
X137387703Y-134111090D01*
X137387703Y-134111090D02*
X137302941Y-134215761D01*
X137302941Y-134215761D02*
X137213203Y-134273075D01*
X137213203Y-134273075D02*
X137028747Y-134340343D01*
X137028747Y-134340343D02*
X136886673Y-134355276D01*
X136886673Y-134355276D02*
X136692263Y-134327828D01*
X136692263Y-134327828D02*
X136592569Y-134290424D01*
X136592569Y-134290424D02*
X136487897Y-134205663D01*
X136487897Y-134205663D02*
X136425606Y-134068566D01*
X136425606Y-134068566D02*
X136400719Y-133831775D01*
X137549544Y-135195351D02*
X137499769Y-134721769D01*
X137499769Y-134721769D02*
X137021210Y-134724186D01*
X137021210Y-134724186D02*
X137073545Y-134766567D01*
X137073545Y-134766567D02*
X137130859Y-134856305D01*
X137130859Y-134856305D02*
X137155746Y-135093096D01*
X137155746Y-135093096D02*
X137118343Y-135192790D01*
X137118343Y-135192790D02*
X137075963Y-135245126D01*
X137075963Y-135245126D02*
X136986224Y-135302439D01*
X136986224Y-135302439D02*
X136749433Y-135327327D01*
X136749433Y-135327327D02*
X136649739Y-135289924D01*
X136649739Y-135289924D02*
X136597403Y-135247543D01*
X136597403Y-135247543D02*
X136540090Y-135157804D01*
X136540090Y-135157804D02*
X136515202Y-134921014D01*
X136515202Y-134921014D02*
X136552605Y-134821320D01*
X136552605Y-134821320D02*
X136594986Y-134768984D01*
X137312610Y-136129999D02*
X136649596Y-136199685D01*
X137666588Y-135853388D02*
X136931328Y-135691260D01*
X136931328Y-135691260D02*
X136996036Y-136306916D01*
X137216771Y-138534632D02*
X138211293Y-138430104D01*
X137276502Y-139102930D02*
X137800002Y-138616976D01*
X138271024Y-138998402D02*
X137642995Y-138489834D01*
X119871265Y-55617608D02*
X120868829Y-55547852D01*
X120868829Y-55547852D02*
X120885438Y-55785367D01*
X120885438Y-55785367D02*
X120847900Y-55931198D01*
X120847900Y-55931198D02*
X120759537Y-56032847D01*
X120759537Y-56032847D02*
X120667853Y-56086994D01*
X120667853Y-56086994D02*
X120481163Y-56147784D01*
X120481163Y-56147784D02*
X120338653Y-56157749D01*
X120338653Y-56157749D02*
X120145319Y-56123533D01*
X120145319Y-56123533D02*
X120046992Y-56082674D01*
X120046992Y-56082674D02*
X119945342Y-55994311D01*
X119945342Y-55994311D02*
X119887874Y-55855124D01*
X119887874Y-55855124D02*
X119871265Y-55617608D01*
X120840258Y-56504556D02*
X120891083Y-56548738D01*
X120891083Y-56548738D02*
X120945229Y-56640422D01*
X120945229Y-56640422D02*
X120961838Y-56877937D01*
X120961838Y-56877937D02*
X120920978Y-56976265D01*
X120920978Y-56976265D02*
X120876797Y-57027090D01*
X120876797Y-57027090D02*
X120785113Y-57081236D01*
X120785113Y-57081236D02*
X120690106Y-57087880D01*
X120690106Y-57087880D02*
X120544276Y-57050342D01*
X120544276Y-57050342D02*
X119934378Y-56520166D01*
X119934378Y-56520166D02*
X119977561Y-57137706D01*
X120010778Y-57612736D02*
X120024065Y-57802749D01*
X120024065Y-57802749D02*
X120078211Y-57894433D01*
X120078211Y-57894433D02*
X120129036Y-57938614D01*
X120129036Y-57938614D02*
X120278189Y-58023655D01*
X120278189Y-58023655D02*
X120471523Y-58057871D01*
X120471523Y-58057871D02*
X120851547Y-58031297D01*
X120851547Y-58031297D02*
X120943232Y-57977151D01*
X120943232Y-57977151D02*
X120987413Y-57926326D01*
X120987413Y-57926326D02*
X121028272Y-57827998D01*
X121028272Y-57827998D02*
X121014986Y-57637986D01*
X121014986Y-57637986D02*
X120960839Y-57546302D01*
X120960839Y-57546302D02*
X120910014Y-57502120D01*
X120910014Y-57502120D02*
X120811686Y-57461261D01*
X120811686Y-57461261D02*
X120574171Y-57477869D01*
X120574171Y-57477869D02*
X120482487Y-57532016D01*
X120482487Y-57532016D02*
X120438305Y-57582841D01*
X120438305Y-57582841D02*
X120397446Y-57681169D01*
X120397446Y-57681169D02*
X120410733Y-57871181D01*
X120410733Y-57871181D02*
X120464879Y-57962865D01*
X120464879Y-57962865D02*
X120515704Y-58007046D01*
X120515704Y-58007046D02*
X120614032Y-58047906D01*
X120522694Y-60346080D02*
X121520258Y-60276324D01*
X120562555Y-60916117D02*
X121102696Y-60448729D01*
X121560119Y-60846360D02*
X120950221Y-60316185D01*
X201345351Y-96108394D02*
X200345351Y-96108394D01*
X200345351Y-96108394D02*
X200345351Y-95870299D01*
X200345351Y-95870299D02*
X200392970Y-95727442D01*
X200392970Y-95727442D02*
X200488208Y-95632204D01*
X200488208Y-95632204D02*
X200583446Y-95584585D01*
X200583446Y-95584585D02*
X200773922Y-95536966D01*
X200773922Y-95536966D02*
X200916779Y-95536966D01*
X200916779Y-95536966D02*
X201107255Y-95584585D01*
X201107255Y-95584585D02*
X201202493Y-95632204D01*
X201202493Y-95632204D02*
X201297732Y-95727442D01*
X201297732Y-95727442D02*
X201345351Y-95870299D01*
X201345351Y-95870299D02*
X201345351Y-96108394D01*
X200678684Y-94679823D02*
X201345351Y-94679823D01*
X200297732Y-94917918D02*
X201012017Y-95156013D01*
X201012017Y-95156013D02*
X201012017Y-94536966D01*
X200345351Y-93679823D02*
X200345351Y-94156013D01*
X200345351Y-94156013D02*
X200821541Y-94203632D01*
X200821541Y-94203632D02*
X200773922Y-94156013D01*
X200773922Y-94156013D02*
X200726303Y-94060775D01*
X200726303Y-94060775D02*
X200726303Y-93822680D01*
X200726303Y-93822680D02*
X200773922Y-93727442D01*
X200773922Y-93727442D02*
X200821541Y-93679823D01*
X200821541Y-93679823D02*
X200916779Y-93632204D01*
X200916779Y-93632204D02*
X201154874Y-93632204D01*
X201154874Y-93632204D02*
X201250112Y-93679823D01*
X201250112Y-93679823D02*
X201297732Y-93727442D01*
X201297732Y-93727442D02*
X201345351Y-93822680D01*
X201345351Y-93822680D02*
X201345351Y-94060775D01*
X201345351Y-94060775D02*
X201297732Y-94156013D01*
X201297732Y-94156013D02*
X201250112Y-94203632D01*
X201665351Y-98966026D02*
X200665351Y-98966026D01*
X201665351Y-98394598D02*
X201093922Y-98823169D01*
X200665351Y-98394598D02*
X201236779Y-98966026D01*
%TO.C,D39*%
D11*
X201890530Y-77174111D02*
X204130530Y-77174111D01*
X201890530Y-77294111D02*
X204130530Y-77294111D01*
X201890530Y-77414111D02*
X204130530Y-77414111D01*
X203010530Y-73124111D02*
X203010530Y-73774111D01*
X203010530Y-78664111D02*
X203010530Y-78014111D01*
X201890530Y-73774111D02*
X204130530Y-73774111D01*
X204130530Y-78014111D01*
X201890530Y-78014111D01*
X201890530Y-73774111D01*
%TO.C,D52*%
X235905677Y-115600205D02*
X238145677Y-115600205D01*
X235905677Y-115720205D02*
X238145677Y-115720205D01*
X235905677Y-115840205D02*
X238145677Y-115840205D01*
X237025677Y-111550205D02*
X237025677Y-112200205D01*
X237025677Y-117090205D02*
X237025677Y-116440205D01*
X235905677Y-112200205D02*
X238145677Y-112200205D01*
X238145677Y-116440205D01*
X235905677Y-116440205D01*
X235905677Y-112200205D01*
%TO.C,D55*%
X157589053Y-133107132D02*
X159825983Y-132989898D01*
X157595333Y-133226970D02*
X159832261Y-133109732D01*
X157601620Y-133346802D02*
X159838548Y-133229567D01*
X158495560Y-129004064D02*
X158529578Y-129653173D01*
X158785502Y-134536472D02*
X158751477Y-133887367D01*
X157633020Y-133945978D02*
X157411113Y-129711787D01*
X159648041Y-129594563D01*
X159869950Y-133828747D01*
X157633020Y-133945978D01*
%TO.C,D49*%
X162814862Y-106218690D02*
X165053497Y-106140514D01*
X162819049Y-106338619D02*
X165057683Y-106260439D01*
X162823244Y-106458543D02*
X165061877Y-106380369D01*
X163792839Y-102132068D02*
X163815523Y-102781672D01*
X163986183Y-107668693D02*
X163963492Y-107019093D01*
X162844182Y-107058176D02*
X162696206Y-102820757D01*
X164934839Y-102742590D01*
X165082817Y-106980002D01*
X162844182Y-107058176D01*
%TO.C,D35*%
X121888656Y-77108041D02*
X124123200Y-76951785D01*
X121897027Y-77227751D02*
X124131568Y-77071491D01*
X121905404Y-77347455D02*
X124139946Y-77191198D01*
X122723417Y-72989775D02*
X122768758Y-73638193D01*
X123109869Y-78516282D02*
X123064520Y-77867870D01*
X121947257Y-77945992D02*
X121651487Y-73716318D01*
X123886028Y-73560072D01*
X124181800Y-77789739D01*
X121947257Y-77945992D01*
%TO.C,D44*%
X182187347Y-91633104D02*
X184427006Y-91594010D01*
X182189441Y-91753088D02*
X184429098Y-91713990D01*
X182191542Y-91873067D02*
X184431199Y-91833972D01*
X183236497Y-87564173D02*
X183247840Y-88214074D01*
X183333184Y-93103329D02*
X183321834Y-92453432D01*
X182202012Y-92472974D02*
X182128012Y-88233618D01*
X184367668Y-88194532D01*
X184441670Y-92433882D01*
X182202012Y-92472974D01*
%TO.C,D48*%
X143425314Y-111830756D02*
X145662244Y-111713522D01*
X143431594Y-111950594D02*
X145668522Y-111833356D01*
X143437881Y-112070426D02*
X145674809Y-111953191D01*
X144331821Y-107727688D02*
X144365839Y-108376797D01*
X144621763Y-113260096D02*
X144587738Y-112610991D01*
X143469281Y-112669602D02*
X143247374Y-108435411D01*
X145484302Y-108318187D01*
X145706211Y-112552371D01*
X143469281Y-112669602D01*
%TO.C,D30*%
X141133428Y-54759076D02*
X143370358Y-54641842D01*
X141139708Y-54878914D02*
X143376636Y-54761676D01*
X141145995Y-54998746D02*
X143382923Y-54881511D01*
X142039935Y-50656008D02*
X142073953Y-51305117D01*
X142329877Y-56188416D02*
X142295852Y-55539311D01*
X141177395Y-55597922D02*
X140955488Y-51363731D01*
X143192416Y-51246507D01*
X143414325Y-55480691D01*
X141177395Y-55597922D01*
%TO.C,D33*%
X201890530Y-57674111D02*
X204130530Y-57674111D01*
X201890530Y-57794111D02*
X204130530Y-57794111D01*
X201890530Y-57914111D02*
X204130530Y-57914111D01*
X203010530Y-53624111D02*
X203010530Y-54274111D01*
X203010530Y-59164111D02*
X203010530Y-58514111D01*
X201890530Y-54274111D02*
X204130530Y-54274111D01*
X204130530Y-58514111D01*
X201890530Y-58514111D01*
X201890530Y-54274111D01*
%TO.C,D31*%
X160781207Y-49461343D02*
X163019842Y-49383167D01*
X160785394Y-49581272D02*
X163024028Y-49503092D01*
X160789589Y-49701196D02*
X163028222Y-49623022D01*
X161759184Y-45374721D02*
X161781868Y-46024325D01*
X161952528Y-50911346D02*
X161929837Y-50261746D01*
X160810527Y-50300829D02*
X160662551Y-46063410D01*
X162901184Y-45985243D01*
X163049162Y-50222655D01*
X160810527Y-50300829D01*
%TO.C,D43*%
X162150027Y-87718692D02*
X164388662Y-87640516D01*
X162154214Y-87838621D02*
X164392848Y-87760441D01*
X162158409Y-87958545D02*
X164397042Y-87880371D01*
X163128004Y-83632070D02*
X163150688Y-84281674D01*
X163321348Y-89168695D02*
X163298657Y-88519095D01*
X162179347Y-88558178D02*
X162031371Y-84320759D01*
X164270004Y-84242592D01*
X164417982Y-88480004D01*
X162179347Y-88558178D01*
%TO.C,D42*%
X142633428Y-92759078D02*
X144870358Y-92641844D01*
X142639708Y-92878916D02*
X144876636Y-92761678D01*
X142645995Y-92998748D02*
X144882923Y-92881513D01*
X143539935Y-88656010D02*
X143573953Y-89305119D01*
X143829877Y-94188418D02*
X143795852Y-93539313D01*
X142677395Y-93597924D02*
X142455488Y-89363733D01*
X144692416Y-89246509D01*
X144914325Y-93480693D01*
X142677395Y-93597924D01*
%TO.C,D51*%
X201890531Y-115484113D02*
X204130531Y-115484113D01*
X201890531Y-115604113D02*
X204130531Y-115604113D01*
X201890531Y-115724113D02*
X204130531Y-115724113D01*
X203010531Y-111434113D02*
X203010531Y-112084113D01*
X203010531Y-116974113D02*
X203010531Y-116324113D01*
X201890531Y-112084113D02*
X204130531Y-112084113D01*
X204130531Y-116324113D01*
X201890531Y-116324113D01*
X201890531Y-112084113D01*
%TO.C,D37*%
X161312249Y-68643297D02*
X163550884Y-68565121D01*
X161316436Y-68763226D02*
X163555070Y-68685046D01*
X161320631Y-68883150D02*
X163559264Y-68804976D01*
X162290226Y-64556675D02*
X162312910Y-65206279D01*
X162483570Y-70093300D02*
X162460879Y-69443700D01*
X161341569Y-69482783D02*
X161193593Y-65245364D01*
X163432226Y-65167197D01*
X163580204Y-69404609D01*
X161341569Y-69482783D01*
%TO.C,D47*%
X123456820Y-115089364D02*
X125691364Y-114933108D01*
X123465191Y-115209074D02*
X125699732Y-115052814D01*
X123473568Y-115328778D02*
X125708110Y-115172521D01*
X124291581Y-110971098D02*
X124336922Y-111619516D01*
X124678033Y-116497605D02*
X124632684Y-115849193D01*
X123515421Y-115927315D02*
X123219651Y-111697641D01*
X125454192Y-111541395D01*
X125749964Y-115771062D01*
X123515421Y-115927315D01*
%TO.C,D40*%
X225783028Y-77364113D02*
X228023028Y-77364113D01*
X225783028Y-77484113D02*
X228023028Y-77484113D01*
X225783028Y-77604113D02*
X228023028Y-77604113D01*
X226903028Y-73314113D02*
X226903028Y-73964113D01*
X226903028Y-78854113D02*
X226903028Y-78204113D01*
X225783028Y-73964113D02*
X228023028Y-73964113D01*
X228023028Y-78204113D01*
X225783028Y-78204113D01*
X225783028Y-73964113D01*
%TO.C,U1*%
X77263352Y-45576530D02*
X77263352Y-45876530D01*
X77263352Y-45576530D02*
X98263352Y-45576530D01*
X77263352Y-47976530D02*
X77263352Y-48376530D01*
X77263352Y-48243530D02*
X80270352Y-48243530D01*
X77263352Y-50576530D02*
X77263352Y-50976530D01*
X77263352Y-53076530D02*
X77263352Y-53476530D01*
X77263352Y-55676530D02*
X77263352Y-56076530D01*
X77263352Y-58176530D02*
X77263352Y-58576530D01*
X77263352Y-60676530D02*
X77263352Y-61076530D01*
X77263352Y-63276530D02*
X77263352Y-63676530D01*
X77263352Y-65776530D02*
X77263352Y-66176530D01*
X77263352Y-68376530D02*
X77263352Y-68776530D01*
X77263352Y-70876530D02*
X77263352Y-71276530D01*
X77263352Y-73376530D02*
X77263352Y-73776530D01*
X77263352Y-75976530D02*
X77263352Y-76376530D01*
X77263352Y-78476530D02*
X77263352Y-78876530D01*
X77263352Y-81076530D02*
X77263352Y-81476530D01*
X77263352Y-83576530D02*
X77263352Y-83976530D01*
X77263352Y-86176530D02*
X77263352Y-86576530D01*
X77263352Y-88676530D02*
X77263352Y-89076530D01*
X77263352Y-91176530D02*
X77263352Y-91576530D01*
X77263352Y-93776530D02*
X77263352Y-94176530D01*
X80270352Y-48243530D02*
X80270352Y-45576530D01*
X84063352Y-96576530D02*
X77263352Y-96576530D01*
X86263352Y-96576530D02*
X86663352Y-96576530D01*
X88863352Y-96576530D02*
X89263352Y-96576530D01*
X98263352Y-45576530D02*
X98263352Y-45876530D01*
X98263352Y-47976530D02*
X98263352Y-48376530D01*
X98263352Y-50576530D02*
X98263352Y-50976530D01*
X98263352Y-53076530D02*
X98263352Y-53476530D01*
X98263352Y-55676530D02*
X98263352Y-56076530D01*
X98263352Y-58176530D02*
X98263352Y-58576530D01*
X98263352Y-60676530D02*
X98263352Y-61076530D01*
X98263352Y-63276530D02*
X98263352Y-63676530D01*
X98263352Y-65776530D02*
X98263352Y-66176530D01*
X98263352Y-68376530D02*
X98263352Y-68776530D01*
X98263352Y-70876530D02*
X98263352Y-71276530D01*
X98263352Y-73376530D02*
X98263352Y-73776530D01*
X98263352Y-75976530D02*
X98263352Y-76376530D01*
X98263352Y-78476530D02*
X98263352Y-78876530D01*
X98263352Y-81076530D02*
X98263352Y-81476530D01*
X98263352Y-83576530D02*
X98263352Y-83976530D01*
X98263352Y-86176530D02*
X98263352Y-86576530D01*
X98263352Y-88676530D02*
X98263352Y-89076530D01*
X98263352Y-91176530D02*
X98263352Y-91576530D01*
X98263352Y-93776530D02*
X98263352Y-94176530D01*
X98263352Y-96576530D02*
X91463352Y-96576530D01*
%TO.C,D32*%
X181548906Y-53428325D02*
X183788565Y-53389231D01*
X181551000Y-53548309D02*
X183790657Y-53509211D01*
X181553101Y-53668288D02*
X183792758Y-53629193D01*
X182598056Y-49359394D02*
X182609399Y-50009295D01*
X182694743Y-54898550D02*
X182683393Y-54248653D01*
X181563571Y-54268195D02*
X181489571Y-50028839D01*
X183729227Y-49989753D01*
X183803229Y-54229103D01*
X181563571Y-54268195D01*
%TO.C,D34*%
X220896778Y-57739113D02*
X223136778Y-57739113D01*
X220896778Y-57859113D02*
X223136778Y-57859113D01*
X220896778Y-57979113D02*
X223136778Y-57979113D01*
X222016778Y-53689113D02*
X222016778Y-54339113D01*
X222016778Y-59229113D02*
X222016778Y-58579113D01*
X220896778Y-54339113D02*
X223136778Y-54339113D01*
X223136778Y-58579113D01*
X220896778Y-58579113D01*
X220896778Y-54339113D01*
%TO.C,D36*%
X142133428Y-73759079D02*
X144370358Y-73641845D01*
X142139708Y-73878917D02*
X144376636Y-73761679D01*
X142145995Y-73998749D02*
X144382923Y-73881514D01*
X143039935Y-69656011D02*
X143073953Y-70305120D01*
X143329877Y-75188419D02*
X143295852Y-74539314D01*
X142177395Y-74597925D02*
X141955488Y-70363734D01*
X144192416Y-70246510D01*
X144414325Y-74480694D01*
X142177395Y-74597925D01*
%TO.C,D50*%
X182559818Y-110443102D02*
X184799477Y-110404008D01*
X182561912Y-110563086D02*
X184801569Y-110523988D01*
X182564013Y-110683065D02*
X184803670Y-110643970D01*
X183608968Y-106374171D02*
X183620311Y-107024072D01*
X183705655Y-111913327D02*
X183694305Y-111263430D01*
X182574483Y-111282972D02*
X182500483Y-107043616D01*
X184740139Y-107004530D01*
X184814141Y-111243880D01*
X182574483Y-111282972D01*
%TO.C,D38*%
X181894879Y-72428905D02*
X184134538Y-72389811D01*
X181896973Y-72548889D02*
X184136630Y-72509791D01*
X181899074Y-72668868D02*
X184138731Y-72629773D01*
X182944029Y-68359974D02*
X182955372Y-69009875D01*
X183040716Y-73899130D02*
X183029366Y-73249233D01*
X181909544Y-73268775D02*
X181835544Y-69029419D01*
X184075200Y-68990333D01*
X184149202Y-73229683D01*
X181909544Y-73268775D01*
%TO.C,D46*%
X230526398Y-96054111D02*
X232766398Y-96054111D01*
X230526398Y-96174111D02*
X232766398Y-96174111D01*
X230526398Y-96294111D02*
X232766398Y-96294111D01*
X231646398Y-92004111D02*
X231646398Y-92654111D01*
X231646398Y-97544111D02*
X231646398Y-96894111D01*
X230526398Y-92654111D02*
X232766398Y-92654111D01*
X232766398Y-96894111D01*
X230526398Y-96894111D01*
X230526398Y-92654111D01*
%TO.C,D41*%
X122601174Y-96381230D02*
X124835718Y-96224974D01*
X122609545Y-96500940D02*
X124844086Y-96344680D01*
X122617922Y-96620644D02*
X124852464Y-96464387D01*
X123435935Y-92262964D02*
X123481276Y-92911382D01*
X123822387Y-97789471D02*
X123777038Y-97141059D01*
X122659775Y-97219181D02*
X122364005Y-92989507D01*
X124598546Y-92833261D01*
X124894318Y-97062928D01*
X122659775Y-97219181D01*
%TO.C,D53*%
X118453982Y-139120572D02*
X120672182Y-138808822D01*
X118470681Y-139239405D02*
X120688880Y-138927653D01*
X118487389Y-139358234D02*
X120705588Y-139046485D01*
X118999433Y-134954109D02*
X119089896Y-135597783D01*
X119770453Y-140440195D02*
X119679984Y-139796525D01*
X118570893Y-139952393D02*
X117980795Y-135753654D01*
X120198994Y-135441915D01*
X120789093Y-139640648D01*
X118570893Y-139952393D01*
%TO.C,D54*%
X138108289Y-136160331D02*
X140336017Y-135926185D01*
X138120831Y-136279675D02*
X140348558Y-136045526D01*
X138133381Y-136399014D02*
X140361109Y-136164868D01*
X138798815Y-132015442D02*
X138866758Y-132661881D01*
X139377904Y-137525094D02*
X139309953Y-136878659D01*
X138196098Y-136995725D02*
X137752894Y-132778950D01*
X139980621Y-132544815D01*
X140423827Y-136761584D01*
X138196098Y-136995725D01*
%TO.C,D29*%
X121496529Y-58004339D02*
X123731073Y-57848083D01*
X121504900Y-58124049D02*
X123739441Y-57967789D01*
X121513277Y-58243753D02*
X123747819Y-58087496D01*
X122331290Y-53886073D02*
X122376631Y-54534491D01*
X122717742Y-59412580D02*
X122672393Y-58764168D01*
X121555130Y-58842290D02*
X121259360Y-54612616D01*
X123493901Y-54456370D01*
X123789673Y-58686037D01*
X121555130Y-58842290D01*
%TO.C,D45*%
X201890530Y-96174111D02*
X204130530Y-96174111D01*
X201890530Y-96294111D02*
X204130530Y-96294111D01*
X201890530Y-96414111D02*
X204130530Y-96414111D01*
X203010530Y-92124111D02*
X203010530Y-92774111D01*
X203010530Y-97664111D02*
X203010530Y-97014111D01*
X201890530Y-92774111D02*
X204130530Y-92774111D01*
X204130530Y-97014111D01*
X201890530Y-97014111D01*
X201890530Y-92774111D01*
%TD*%
M02*
