%TF.GenerationSoftware,KiCad,Pcbnew,10.0.4*%
%TF.CreationDate,2026-09-21T08:03:33-07:00*%
%TF.ProjectId,custom-keyboard,63757374-6f6d-42d6-9b65-79626f617264,rev?*%
%TF.SameCoordinates,Original*%
%TF.FileFunction,Legend,Top*%
%TF.FilePolarity,Positive*%
%FSLAX46Y46*%
G04 Gerber Fmt 4.6, Leading zero omitted, Abs format (unit mm)*
G04 Created by KiCad (PCBNEW 10.0.4) date 2026-09-21 08:03:33*
%MOMM*%
%LPD*%
G01*
G04 APERTURE LIST*
%ADD10C,0.150000*%
%ADD11C,0.120000*%
G04 APERTURE END LIST*
D10*
X227077318Y-105902080D02*
X227791603Y-105902080D01*
X227791603Y-105902080D02*
X227934460Y-105949699D01*
X227934460Y-105949699D02*
X228029699Y-106044937D01*
X228029699Y-106044937D02*
X228077318Y-106187794D01*
X228077318Y-106187794D02*
X228077318Y-106283032D01*
X228077318Y-104902080D02*
X228077318Y-105473508D01*
X228077318Y-105187794D02*
X227077318Y-105187794D01*
X227077318Y-105187794D02*
X227220175Y-105283032D01*
X227220175Y-105283032D02*
X227315413Y-105378270D01*
X227315413Y-105378270D02*
X227363032Y-105473508D01*
X71857004Y-37430419D02*
X71857004Y-36430419D01*
X71857004Y-36906609D02*
X72428432Y-36906609D01*
X72428432Y-37430419D02*
X72428432Y-36430419D01*
X73380813Y-36430419D02*
X72904623Y-36430419D01*
X72904623Y-36430419D02*
X72857004Y-36906609D01*
X72857004Y-36906609D02*
X72904623Y-36858990D01*
X72904623Y-36858990D02*
X72999861Y-36811371D01*
X72999861Y-36811371D02*
X73237956Y-36811371D01*
X73237956Y-36811371D02*
X73333194Y-36858990D01*
X73333194Y-36858990D02*
X73380813Y-36906609D01*
X73380813Y-36906609D02*
X73428432Y-37001847D01*
X73428432Y-37001847D02*
X73428432Y-37239942D01*
X73428432Y-37239942D02*
X73380813Y-37335180D01*
X73380813Y-37335180D02*
X73333194Y-37382800D01*
X73333194Y-37382800D02*
X73237956Y-37430419D01*
X73237956Y-37430419D02*
X72999861Y-37430419D01*
X72999861Y-37430419D02*
X72904623Y-37382800D01*
X72904623Y-37382800D02*
X72857004Y-37335180D01*
X212071509Y-64759148D02*
X212071509Y-65568671D01*
X212071509Y-65568671D02*
X212119128Y-65663909D01*
X212119128Y-65663909D02*
X212166747Y-65711529D01*
X212166747Y-65711529D02*
X212261985Y-65759148D01*
X212261985Y-65759148D02*
X212452461Y-65759148D01*
X212452461Y-65759148D02*
X212547699Y-65711529D01*
X212547699Y-65711529D02*
X212595318Y-65663909D01*
X212595318Y-65663909D02*
X212642937Y-65568671D01*
X212642937Y-65568671D02*
X212642937Y-64759148D01*
X213642937Y-65759148D02*
X213071509Y-65759148D01*
X213357223Y-65759148D02*
X213357223Y-64759148D01*
X213357223Y-64759148D02*
X213261985Y-64902005D01*
X213261985Y-64902005D02*
X213166747Y-64997243D01*
X213166747Y-64997243D02*
X213071509Y-65044862D01*
X198677412Y-77125197D02*
X198596599Y-77152134D01*
X198596599Y-77152134D02*
X198515787Y-77232947D01*
X198515787Y-77232947D02*
X198461912Y-77340696D01*
X198461912Y-77340696D02*
X198461912Y-77448446D01*
X198461912Y-77448446D02*
X198488850Y-77529258D01*
X198488850Y-77529258D02*
X198569662Y-77663945D01*
X198569662Y-77663945D02*
X198650474Y-77744757D01*
X198650474Y-77744757D02*
X198785161Y-77825570D01*
X198785161Y-77825570D02*
X198865974Y-77852507D01*
X198865974Y-77852507D02*
X198973723Y-77852507D01*
X198973723Y-77852507D02*
X199081473Y-77798632D01*
X199081473Y-77798632D02*
X199135348Y-77744757D01*
X199135348Y-77744757D02*
X199189222Y-77637008D01*
X199189222Y-77637008D02*
X199189222Y-77583133D01*
X199189222Y-77583133D02*
X199000661Y-77394571D01*
X199000661Y-77394571D02*
X198892911Y-77502321D01*
X199485534Y-77394571D02*
X198919848Y-76828886D01*
X198919848Y-76828886D02*
X199135348Y-76613386D01*
X199135348Y-76613386D02*
X199216160Y-76586449D01*
X199216160Y-76586449D02*
X199270035Y-76586449D01*
X199270035Y-76586449D02*
X199350847Y-76613386D01*
X199350847Y-76613386D02*
X199431659Y-76694199D01*
X199431659Y-76694199D02*
X199458596Y-76775011D01*
X199458596Y-76775011D02*
X199458596Y-76828886D01*
X199458596Y-76828886D02*
X199431659Y-76909698D01*
X199431659Y-76909698D02*
X199216160Y-77125197D01*
X200347531Y-76532574D02*
X200024282Y-76855823D01*
X200185906Y-76694199D02*
X199620221Y-76128513D01*
X199620221Y-76128513D02*
X199647158Y-76263200D01*
X199647158Y-76263200D02*
X199647158Y-76370950D01*
X199647158Y-76370950D02*
X199620221Y-76451762D01*
X200886279Y-75993826D02*
X200563030Y-76317075D01*
X200724654Y-76155450D02*
X200158969Y-75589765D01*
X200158969Y-75589765D02*
X200185906Y-75724452D01*
X200185906Y-75724452D02*
X200185906Y-75832202D01*
X200185906Y-75832202D02*
X200158969Y-75913014D01*
X198677412Y-79665197D02*
X198596599Y-79692134D01*
X198596599Y-79692134D02*
X198515787Y-79772947D01*
X198515787Y-79772947D02*
X198461912Y-79880696D01*
X198461912Y-79880696D02*
X198461912Y-79988446D01*
X198461912Y-79988446D02*
X198488850Y-80069258D01*
X198488850Y-80069258D02*
X198569662Y-80203945D01*
X198569662Y-80203945D02*
X198650474Y-80284757D01*
X198650474Y-80284757D02*
X198785161Y-80365570D01*
X198785161Y-80365570D02*
X198865974Y-80392507D01*
X198865974Y-80392507D02*
X198973723Y-80392507D01*
X198973723Y-80392507D02*
X199081473Y-80338632D01*
X199081473Y-80338632D02*
X199135348Y-80284757D01*
X199135348Y-80284757D02*
X199189222Y-80177008D01*
X199189222Y-80177008D02*
X199189222Y-80123133D01*
X199189222Y-80123133D02*
X199000661Y-79934571D01*
X199000661Y-79934571D02*
X198892911Y-80042321D01*
X199485534Y-79934571D02*
X198919848Y-79368886D01*
X198919848Y-79368886D02*
X199135348Y-79153386D01*
X199135348Y-79153386D02*
X199216160Y-79126449D01*
X199216160Y-79126449D02*
X199270035Y-79126449D01*
X199270035Y-79126449D02*
X199350847Y-79153386D01*
X199350847Y-79153386D02*
X199431659Y-79234199D01*
X199431659Y-79234199D02*
X199458596Y-79315011D01*
X199458596Y-79315011D02*
X199458596Y-79368886D01*
X199458596Y-79368886D02*
X199431659Y-79449698D01*
X199431659Y-79449698D02*
X199216160Y-79665197D01*
X200347531Y-79072574D02*
X200024282Y-79395823D01*
X200185906Y-79234199D02*
X199620221Y-78668513D01*
X199620221Y-78668513D02*
X199647158Y-78803200D01*
X199647158Y-78803200D02*
X199647158Y-78910950D01*
X199647158Y-78910950D02*
X199620221Y-78991762D01*
X200051219Y-78345264D02*
X200051219Y-78291389D01*
X200051219Y-78291389D02*
X200078157Y-78210577D01*
X200078157Y-78210577D02*
X200212844Y-78075890D01*
X200212844Y-78075890D02*
X200293656Y-78048953D01*
X200293656Y-78048953D02*
X200347531Y-78048953D01*
X200347531Y-78048953D02*
X200428343Y-78075890D01*
X200428343Y-78075890D02*
X200482218Y-78129765D01*
X200482218Y-78129765D02*
X200536093Y-78237515D01*
X200536093Y-78237515D02*
X200536093Y-78884012D01*
X200536093Y-78884012D02*
X200886279Y-78533826D01*
X198777412Y-87285197D02*
X198696599Y-87312134D01*
X198696599Y-87312134D02*
X198615787Y-87392947D01*
X198615787Y-87392947D02*
X198561912Y-87500696D01*
X198561912Y-87500696D02*
X198561912Y-87608446D01*
X198561912Y-87608446D02*
X198588850Y-87689258D01*
X198588850Y-87689258D02*
X198669662Y-87823945D01*
X198669662Y-87823945D02*
X198750474Y-87904757D01*
X198750474Y-87904757D02*
X198885161Y-87985570D01*
X198885161Y-87985570D02*
X198965974Y-88012507D01*
X198965974Y-88012507D02*
X199073723Y-88012507D01*
X199073723Y-88012507D02*
X199181473Y-87958632D01*
X199181473Y-87958632D02*
X199235348Y-87904757D01*
X199235348Y-87904757D02*
X199289222Y-87797008D01*
X199289222Y-87797008D02*
X199289222Y-87743133D01*
X199289222Y-87743133D02*
X199100661Y-87554571D01*
X199100661Y-87554571D02*
X198992911Y-87662321D01*
X199585534Y-87554571D02*
X199019848Y-86988886D01*
X199019848Y-86988886D02*
X199235348Y-86773386D01*
X199235348Y-86773386D02*
X199316160Y-86746449D01*
X199316160Y-86746449D02*
X199370035Y-86746449D01*
X199370035Y-86746449D02*
X199450847Y-86773386D01*
X199450847Y-86773386D02*
X199531659Y-86854199D01*
X199531659Y-86854199D02*
X199558596Y-86935011D01*
X199558596Y-86935011D02*
X199558596Y-86988886D01*
X199558596Y-86988886D02*
X199531659Y-87069698D01*
X199531659Y-87069698D02*
X199316160Y-87285197D01*
X200447531Y-86692574D02*
X200124282Y-87015823D01*
X200285906Y-86854199D02*
X199720221Y-86288513D01*
X199720221Y-86288513D02*
X199747158Y-86423200D01*
X199747158Y-86423200D02*
X199747158Y-86530950D01*
X199747158Y-86530950D02*
X199720221Y-86611762D01*
X200555280Y-85830577D02*
X200932404Y-86207701D01*
X200205094Y-85749765D02*
X200474468Y-86288513D01*
X200474468Y-86288513D02*
X200824654Y-85938327D01*
X198823412Y-74585197D02*
X198742599Y-74612134D01*
X198742599Y-74612134D02*
X198661787Y-74692947D01*
X198661787Y-74692947D02*
X198607912Y-74800696D01*
X198607912Y-74800696D02*
X198607912Y-74908446D01*
X198607912Y-74908446D02*
X198634850Y-74989258D01*
X198634850Y-74989258D02*
X198715662Y-75123945D01*
X198715662Y-75123945D02*
X198796474Y-75204757D01*
X198796474Y-75204757D02*
X198931161Y-75285570D01*
X198931161Y-75285570D02*
X199011974Y-75312507D01*
X199011974Y-75312507D02*
X199119723Y-75312507D01*
X199119723Y-75312507D02*
X199227473Y-75258632D01*
X199227473Y-75258632D02*
X199281348Y-75204757D01*
X199281348Y-75204757D02*
X199335222Y-75097008D01*
X199335222Y-75097008D02*
X199335222Y-75043133D01*
X199335222Y-75043133D02*
X199146661Y-74854571D01*
X199146661Y-74854571D02*
X199038911Y-74962321D01*
X199631534Y-74854571D02*
X199065848Y-74288886D01*
X199065848Y-74288886D02*
X199281348Y-74073386D01*
X199281348Y-74073386D02*
X199362160Y-74046449D01*
X199362160Y-74046449D02*
X199416035Y-74046449D01*
X199416035Y-74046449D02*
X199496847Y-74073386D01*
X199496847Y-74073386D02*
X199577659Y-74154199D01*
X199577659Y-74154199D02*
X199604596Y-74235011D01*
X199604596Y-74235011D02*
X199604596Y-74288886D01*
X199604596Y-74288886D02*
X199577659Y-74369698D01*
X199577659Y-74369698D02*
X199362160Y-74585197D01*
X200493531Y-73992574D02*
X200170282Y-74315823D01*
X200331906Y-74154199D02*
X199766221Y-73588513D01*
X199766221Y-73588513D02*
X199793158Y-73723200D01*
X199793158Y-73723200D02*
X199793158Y-73830950D01*
X199793158Y-73830950D02*
X199766221Y-73911762D01*
X200278032Y-73076702D02*
X200331906Y-73022828D01*
X200331906Y-73022828D02*
X200412719Y-72995890D01*
X200412719Y-72995890D02*
X200466593Y-72995890D01*
X200466593Y-72995890D02*
X200547406Y-73022828D01*
X200547406Y-73022828D02*
X200682093Y-73103640D01*
X200682093Y-73103640D02*
X200816780Y-73238327D01*
X200816780Y-73238327D02*
X200897592Y-73373014D01*
X200897592Y-73373014D02*
X200924529Y-73453826D01*
X200924529Y-73453826D02*
X200924529Y-73507701D01*
X200924529Y-73507701D02*
X200897592Y-73588513D01*
X200897592Y-73588513D02*
X200843717Y-73642388D01*
X200843717Y-73642388D02*
X200762905Y-73669325D01*
X200762905Y-73669325D02*
X200709030Y-73669325D01*
X200709030Y-73669325D02*
X200628218Y-73642388D01*
X200628218Y-73642388D02*
X200493531Y-73561576D01*
X200493531Y-73561576D02*
X200358844Y-73426889D01*
X200358844Y-73426889D02*
X200278032Y-73292202D01*
X200278032Y-73292202D02*
X200251094Y-73211389D01*
X200251094Y-73211389D02*
X200251094Y-73157515D01*
X200251094Y-73157515D02*
X200278032Y-73076702D01*
X198823412Y-82205197D02*
X198742599Y-82232134D01*
X198742599Y-82232134D02*
X198661787Y-82312947D01*
X198661787Y-82312947D02*
X198607912Y-82420696D01*
X198607912Y-82420696D02*
X198607912Y-82528446D01*
X198607912Y-82528446D02*
X198634850Y-82609258D01*
X198634850Y-82609258D02*
X198715662Y-82743945D01*
X198715662Y-82743945D02*
X198796474Y-82824757D01*
X198796474Y-82824757D02*
X198931161Y-82905570D01*
X198931161Y-82905570D02*
X199011974Y-82932507D01*
X199011974Y-82932507D02*
X199119723Y-82932507D01*
X199119723Y-82932507D02*
X199227473Y-82878632D01*
X199227473Y-82878632D02*
X199281348Y-82824757D01*
X199281348Y-82824757D02*
X199335222Y-82717008D01*
X199335222Y-82717008D02*
X199335222Y-82663133D01*
X199335222Y-82663133D02*
X199146661Y-82474571D01*
X199146661Y-82474571D02*
X199038911Y-82582321D01*
X199631534Y-82474571D02*
X199065848Y-81908886D01*
X199065848Y-81908886D02*
X199281348Y-81693386D01*
X199281348Y-81693386D02*
X199362160Y-81666449D01*
X199362160Y-81666449D02*
X199416035Y-81666449D01*
X199416035Y-81666449D02*
X199496847Y-81693386D01*
X199496847Y-81693386D02*
X199577659Y-81774199D01*
X199577659Y-81774199D02*
X199604596Y-81855011D01*
X199604596Y-81855011D02*
X199604596Y-81908886D01*
X199604596Y-81908886D02*
X199577659Y-81989698D01*
X199577659Y-81989698D02*
X199362160Y-82205197D01*
X200493531Y-81612574D02*
X200170282Y-81935823D01*
X200331906Y-81774199D02*
X199766221Y-81208513D01*
X199766221Y-81208513D02*
X199793158Y-81343200D01*
X199793158Y-81343200D02*
X199793158Y-81450950D01*
X199793158Y-81450950D02*
X199766221Y-81531762D01*
X200116407Y-80858327D02*
X200466593Y-80508141D01*
X200466593Y-80508141D02*
X200493531Y-80912202D01*
X200493531Y-80912202D02*
X200574343Y-80831389D01*
X200574343Y-80831389D02*
X200655155Y-80804452D01*
X200655155Y-80804452D02*
X200709030Y-80804452D01*
X200709030Y-80804452D02*
X200789842Y-80831389D01*
X200789842Y-80831389D02*
X200924529Y-80966076D01*
X200924529Y-80966076D02*
X200951467Y-81046889D01*
X200951467Y-81046889D02*
X200951467Y-81100763D01*
X200951467Y-81100763D02*
X200924529Y-81181576D01*
X200924529Y-81181576D02*
X200762905Y-81343200D01*
X200762905Y-81343200D02*
X200682093Y-81370137D01*
X200682093Y-81370137D02*
X200628218Y-81370137D01*
X198823412Y-89825197D02*
X198742599Y-89852134D01*
X198742599Y-89852134D02*
X198661787Y-89932947D01*
X198661787Y-89932947D02*
X198607912Y-90040696D01*
X198607912Y-90040696D02*
X198607912Y-90148446D01*
X198607912Y-90148446D02*
X198634850Y-90229258D01*
X198634850Y-90229258D02*
X198715662Y-90363945D01*
X198715662Y-90363945D02*
X198796474Y-90444757D01*
X198796474Y-90444757D02*
X198931161Y-90525570D01*
X198931161Y-90525570D02*
X199011974Y-90552507D01*
X199011974Y-90552507D02*
X199119723Y-90552507D01*
X199119723Y-90552507D02*
X199227473Y-90498632D01*
X199227473Y-90498632D02*
X199281348Y-90444757D01*
X199281348Y-90444757D02*
X199335222Y-90337008D01*
X199335222Y-90337008D02*
X199335222Y-90283133D01*
X199335222Y-90283133D02*
X199146661Y-90094571D01*
X199146661Y-90094571D02*
X199038911Y-90202321D01*
X199631534Y-90094571D02*
X199065848Y-89528886D01*
X199065848Y-89528886D02*
X199281348Y-89313386D01*
X199281348Y-89313386D02*
X199362160Y-89286449D01*
X199362160Y-89286449D02*
X199416035Y-89286449D01*
X199416035Y-89286449D02*
X199496847Y-89313386D01*
X199496847Y-89313386D02*
X199577659Y-89394199D01*
X199577659Y-89394199D02*
X199604596Y-89475011D01*
X199604596Y-89475011D02*
X199604596Y-89528886D01*
X199604596Y-89528886D02*
X199577659Y-89609698D01*
X199577659Y-89609698D02*
X199362160Y-89825197D01*
X200493531Y-89232574D02*
X200170282Y-89555823D01*
X200331906Y-89394199D02*
X199766221Y-88828513D01*
X199766221Y-88828513D02*
X199793158Y-88963200D01*
X199793158Y-88963200D02*
X199793158Y-89070950D01*
X199793158Y-89070950D02*
X199766221Y-89151762D01*
X200439656Y-88155078D02*
X200170282Y-88424452D01*
X200170282Y-88424452D02*
X200412719Y-88720763D01*
X200412719Y-88720763D02*
X200412719Y-88666889D01*
X200412719Y-88666889D02*
X200439656Y-88586076D01*
X200439656Y-88586076D02*
X200574343Y-88451389D01*
X200574343Y-88451389D02*
X200655155Y-88424452D01*
X200655155Y-88424452D02*
X200709030Y-88424452D01*
X200709030Y-88424452D02*
X200789842Y-88451389D01*
X200789842Y-88451389D02*
X200924529Y-88586076D01*
X200924529Y-88586076D02*
X200951467Y-88666889D01*
X200951467Y-88666889D02*
X200951467Y-88720763D01*
X200951467Y-88720763D02*
X200924529Y-88801576D01*
X200924529Y-88801576D02*
X200789842Y-88936263D01*
X200789842Y-88936263D02*
X200709030Y-88963200D01*
X200709030Y-88963200D02*
X200655155Y-88963200D01*
X199246786Y-43825823D02*
X199165974Y-43852760D01*
X199165974Y-43852760D02*
X199085162Y-43933572D01*
X199085162Y-43933572D02*
X199031287Y-44041322D01*
X199031287Y-44041322D02*
X199031287Y-44149071D01*
X199031287Y-44149071D02*
X199058224Y-44229884D01*
X199058224Y-44229884D02*
X199139037Y-44364571D01*
X199139037Y-44364571D02*
X199219849Y-44445383D01*
X199219849Y-44445383D02*
X199354536Y-44526195D01*
X199354536Y-44526195D02*
X199435348Y-44553132D01*
X199435348Y-44553132D02*
X199543098Y-44553132D01*
X199543098Y-44553132D02*
X199650847Y-44499258D01*
X199650847Y-44499258D02*
X199704722Y-44445383D01*
X199704722Y-44445383D02*
X199758597Y-44337633D01*
X199758597Y-44337633D02*
X199758597Y-44283758D01*
X199758597Y-44283758D02*
X199570035Y-44095197D01*
X199570035Y-44095197D02*
X199462285Y-44202946D01*
X200054908Y-44095197D02*
X199489223Y-43529511D01*
X199489223Y-43529511D02*
X199704722Y-43314012D01*
X199704722Y-43314012D02*
X199785534Y-43287075D01*
X199785534Y-43287075D02*
X199839409Y-43287075D01*
X199839409Y-43287075D02*
X199920221Y-43314012D01*
X199920221Y-43314012D02*
X200001033Y-43394824D01*
X200001033Y-43394824D02*
X200027971Y-43475636D01*
X200027971Y-43475636D02*
X200027971Y-43529511D01*
X200027971Y-43529511D02*
X200001033Y-43610323D01*
X200001033Y-43610323D02*
X199785534Y-43825823D01*
X200916905Y-43233200D02*
X200593656Y-43556449D01*
X200755281Y-43394824D02*
X200189595Y-42829139D01*
X200189595Y-42829139D02*
X200216533Y-42963826D01*
X200216533Y-42963826D02*
X200216533Y-43071575D01*
X200216533Y-43071575D02*
X200189595Y-43152388D01*
X199246786Y-48915823D02*
X199165974Y-48942760D01*
X199165974Y-48942760D02*
X199085162Y-49023572D01*
X199085162Y-49023572D02*
X199031287Y-49131322D01*
X199031287Y-49131322D02*
X199031287Y-49239071D01*
X199031287Y-49239071D02*
X199058224Y-49319884D01*
X199058224Y-49319884D02*
X199139037Y-49454571D01*
X199139037Y-49454571D02*
X199219849Y-49535383D01*
X199219849Y-49535383D02*
X199354536Y-49616195D01*
X199354536Y-49616195D02*
X199435348Y-49643132D01*
X199435348Y-49643132D02*
X199543098Y-49643132D01*
X199543098Y-49643132D02*
X199650847Y-49589258D01*
X199650847Y-49589258D02*
X199704722Y-49535383D01*
X199704722Y-49535383D02*
X199758597Y-49427633D01*
X199758597Y-49427633D02*
X199758597Y-49373758D01*
X199758597Y-49373758D02*
X199570035Y-49185197D01*
X199570035Y-49185197D02*
X199462285Y-49292946D01*
X200054908Y-49185197D02*
X199489223Y-48619511D01*
X199489223Y-48619511D02*
X199704722Y-48404012D01*
X199704722Y-48404012D02*
X199785534Y-48377075D01*
X199785534Y-48377075D02*
X199839409Y-48377075D01*
X199839409Y-48377075D02*
X199920221Y-48404012D01*
X199920221Y-48404012D02*
X200001033Y-48484824D01*
X200001033Y-48484824D02*
X200027971Y-48565636D01*
X200027971Y-48565636D02*
X200027971Y-48619511D01*
X200027971Y-48619511D02*
X200001033Y-48700323D01*
X200001033Y-48700323D02*
X199785534Y-48915823D01*
X200081846Y-48134638D02*
X200081846Y-48080763D01*
X200081846Y-48080763D02*
X200108783Y-47999951D01*
X200108783Y-47999951D02*
X200243470Y-47865264D01*
X200243470Y-47865264D02*
X200324282Y-47838327D01*
X200324282Y-47838327D02*
X200378157Y-47838327D01*
X200378157Y-47838327D02*
X200458969Y-47865264D01*
X200458969Y-47865264D02*
X200512844Y-47919139D01*
X200512844Y-47919139D02*
X200566719Y-48026888D01*
X200566719Y-48026888D02*
X200566719Y-48673386D01*
X200566719Y-48673386D02*
X200916905Y-48323200D01*
X199346786Y-41295823D02*
X199265974Y-41322760D01*
X199265974Y-41322760D02*
X199185162Y-41403572D01*
X199185162Y-41403572D02*
X199131287Y-41511322D01*
X199131287Y-41511322D02*
X199131287Y-41619071D01*
X199131287Y-41619071D02*
X199158224Y-41699884D01*
X199158224Y-41699884D02*
X199239037Y-41834571D01*
X199239037Y-41834571D02*
X199319849Y-41915383D01*
X199319849Y-41915383D02*
X199454536Y-41996195D01*
X199454536Y-41996195D02*
X199535348Y-42023132D01*
X199535348Y-42023132D02*
X199643098Y-42023132D01*
X199643098Y-42023132D02*
X199750847Y-41969258D01*
X199750847Y-41969258D02*
X199804722Y-41915383D01*
X199804722Y-41915383D02*
X199858597Y-41807633D01*
X199858597Y-41807633D02*
X199858597Y-41753758D01*
X199858597Y-41753758D02*
X199670035Y-41565197D01*
X199670035Y-41565197D02*
X199562285Y-41672946D01*
X200154908Y-41565197D02*
X199589223Y-40999511D01*
X199589223Y-40999511D02*
X199804722Y-40784012D01*
X199804722Y-40784012D02*
X199885534Y-40757075D01*
X199885534Y-40757075D02*
X199939409Y-40757075D01*
X199939409Y-40757075D02*
X200020221Y-40784012D01*
X200020221Y-40784012D02*
X200101033Y-40864824D01*
X200101033Y-40864824D02*
X200127971Y-40945636D01*
X200127971Y-40945636D02*
X200127971Y-40999511D01*
X200127971Y-40999511D02*
X200101033Y-41080323D01*
X200101033Y-41080323D02*
X199885534Y-41295823D01*
X200262658Y-40326076D02*
X200316533Y-40272201D01*
X200316533Y-40272201D02*
X200397345Y-40245264D01*
X200397345Y-40245264D02*
X200451220Y-40245264D01*
X200451220Y-40245264D02*
X200532032Y-40272201D01*
X200532032Y-40272201D02*
X200666719Y-40353014D01*
X200666719Y-40353014D02*
X200801406Y-40487701D01*
X200801406Y-40487701D02*
X200882218Y-40622388D01*
X200882218Y-40622388D02*
X200909155Y-40703200D01*
X200909155Y-40703200D02*
X200909155Y-40757075D01*
X200909155Y-40757075D02*
X200882218Y-40837887D01*
X200882218Y-40837887D02*
X200828343Y-40891762D01*
X200828343Y-40891762D02*
X200747531Y-40918699D01*
X200747531Y-40918699D02*
X200693656Y-40918699D01*
X200693656Y-40918699D02*
X200612844Y-40891762D01*
X200612844Y-40891762D02*
X200478157Y-40810949D01*
X200478157Y-40810949D02*
X200343470Y-40676262D01*
X200343470Y-40676262D02*
X200262658Y-40541575D01*
X200262658Y-40541575D02*
X200235720Y-40460763D01*
X200235720Y-40460763D02*
X200235720Y-40406888D01*
X200235720Y-40406888D02*
X200262658Y-40326076D01*
X199319849Y-46402760D02*
X199239037Y-46429697D01*
X199239037Y-46429697D02*
X199158225Y-46510509D01*
X199158225Y-46510509D02*
X199104350Y-46618259D01*
X199104350Y-46618259D02*
X199104350Y-46726009D01*
X199104350Y-46726009D02*
X199131287Y-46806821D01*
X199131287Y-46806821D02*
X199212099Y-46941508D01*
X199212099Y-46941508D02*
X199292912Y-47022320D01*
X199292912Y-47022320D02*
X199427599Y-47103132D01*
X199427599Y-47103132D02*
X199508411Y-47130070D01*
X199508411Y-47130070D02*
X199616160Y-47130070D01*
X199616160Y-47130070D02*
X199723910Y-47076195D01*
X199723910Y-47076195D02*
X199777785Y-47022320D01*
X199777785Y-47022320D02*
X199831660Y-46914570D01*
X199831660Y-46914570D02*
X199831660Y-46860696D01*
X199831660Y-46860696D02*
X199643098Y-46672134D01*
X199643098Y-46672134D02*
X199535348Y-46779883D01*
X200127971Y-46672134D02*
X199562286Y-46106448D01*
X199562286Y-46106448D02*
X200451220Y-46348885D01*
X200451220Y-46348885D02*
X199885534Y-45783200D01*
X200720594Y-46079511D02*
X200154908Y-45513826D01*
X200154908Y-45513826D02*
X200289595Y-45379139D01*
X200289595Y-45379139D02*
X200397345Y-45325264D01*
X200397345Y-45325264D02*
X200505094Y-45325264D01*
X200505094Y-45325264D02*
X200585907Y-45352201D01*
X200585907Y-45352201D02*
X200720594Y-45433014D01*
X200720594Y-45433014D02*
X200801406Y-45513826D01*
X200801406Y-45513826D02*
X200882218Y-45648513D01*
X200882218Y-45648513D02*
X200909155Y-45729325D01*
X200909155Y-45729325D02*
X200909155Y-45837075D01*
X200909155Y-45837075D02*
X200855281Y-45944824D01*
X200855281Y-45944824D02*
X200720594Y-46079511D01*
X199346786Y-51455823D02*
X199265974Y-51482760D01*
X199265974Y-51482760D02*
X199185162Y-51563572D01*
X199185162Y-51563572D02*
X199131287Y-51671322D01*
X199131287Y-51671322D02*
X199131287Y-51779071D01*
X199131287Y-51779071D02*
X199158224Y-51859884D01*
X199158224Y-51859884D02*
X199239037Y-51994571D01*
X199239037Y-51994571D02*
X199319849Y-52075383D01*
X199319849Y-52075383D02*
X199454536Y-52156195D01*
X199454536Y-52156195D02*
X199535348Y-52183132D01*
X199535348Y-52183132D02*
X199643098Y-52183132D01*
X199643098Y-52183132D02*
X199750847Y-52129258D01*
X199750847Y-52129258D02*
X199804722Y-52075383D01*
X199804722Y-52075383D02*
X199858597Y-51967633D01*
X199858597Y-51967633D02*
X199858597Y-51913758D01*
X199858597Y-51913758D02*
X199670035Y-51725197D01*
X199670035Y-51725197D02*
X199562285Y-51832946D01*
X200154908Y-51725197D02*
X199589223Y-51159511D01*
X199589223Y-51159511D02*
X199804722Y-50944012D01*
X199804722Y-50944012D02*
X199885534Y-50917075D01*
X199885534Y-50917075D02*
X199939409Y-50917075D01*
X199939409Y-50917075D02*
X200020221Y-50944012D01*
X200020221Y-50944012D02*
X200101033Y-51024824D01*
X200101033Y-51024824D02*
X200127971Y-51105636D01*
X200127971Y-51105636D02*
X200127971Y-51159511D01*
X200127971Y-51159511D02*
X200101033Y-51240323D01*
X200101033Y-51240323D02*
X199885534Y-51455823D01*
X200101033Y-50647701D02*
X200451220Y-50297514D01*
X200451220Y-50297514D02*
X200478157Y-50701575D01*
X200478157Y-50701575D02*
X200558969Y-50620763D01*
X200558969Y-50620763D02*
X200639781Y-50593826D01*
X200639781Y-50593826D02*
X200693656Y-50593826D01*
X200693656Y-50593826D02*
X200774468Y-50620763D01*
X200774468Y-50620763D02*
X200909155Y-50755450D01*
X200909155Y-50755450D02*
X200936093Y-50836262D01*
X200936093Y-50836262D02*
X200936093Y-50890137D01*
X200936093Y-50890137D02*
X200909155Y-50970949D01*
X200909155Y-50970949D02*
X200747531Y-51132574D01*
X200747531Y-51132574D02*
X200666719Y-51159511D01*
X200666719Y-51159511D02*
X200612844Y-51159511D01*
X199346786Y-53995823D02*
X199265974Y-54022760D01*
X199265974Y-54022760D02*
X199185162Y-54103572D01*
X199185162Y-54103572D02*
X199131287Y-54211322D01*
X199131287Y-54211322D02*
X199131287Y-54319071D01*
X199131287Y-54319071D02*
X199158224Y-54399884D01*
X199158224Y-54399884D02*
X199239037Y-54534571D01*
X199239037Y-54534571D02*
X199319849Y-54615383D01*
X199319849Y-54615383D02*
X199454536Y-54696195D01*
X199454536Y-54696195D02*
X199535348Y-54723132D01*
X199535348Y-54723132D02*
X199643098Y-54723132D01*
X199643098Y-54723132D02*
X199750847Y-54669258D01*
X199750847Y-54669258D02*
X199804722Y-54615383D01*
X199804722Y-54615383D02*
X199858597Y-54507633D01*
X199858597Y-54507633D02*
X199858597Y-54453758D01*
X199858597Y-54453758D02*
X199670035Y-54265197D01*
X199670035Y-54265197D02*
X199562285Y-54372946D01*
X200154908Y-54265197D02*
X199589223Y-53699511D01*
X199589223Y-53699511D02*
X199804722Y-53484012D01*
X199804722Y-53484012D02*
X199885534Y-53457075D01*
X199885534Y-53457075D02*
X199939409Y-53457075D01*
X199939409Y-53457075D02*
X200020221Y-53484012D01*
X200020221Y-53484012D02*
X200101033Y-53564824D01*
X200101033Y-53564824D02*
X200127971Y-53645636D01*
X200127971Y-53645636D02*
X200127971Y-53699511D01*
X200127971Y-53699511D02*
X200101033Y-53780323D01*
X200101033Y-53780323D02*
X199885534Y-53995823D01*
X200585907Y-53079951D02*
X200963030Y-53457075D01*
X200235720Y-52999139D02*
X200505094Y-53537887D01*
X200505094Y-53537887D02*
X200855281Y-53187701D01*
X199346786Y-56535823D02*
X199265974Y-56562760D01*
X199265974Y-56562760D02*
X199185162Y-56643572D01*
X199185162Y-56643572D02*
X199131287Y-56751322D01*
X199131287Y-56751322D02*
X199131287Y-56859071D01*
X199131287Y-56859071D02*
X199158224Y-56939884D01*
X199158224Y-56939884D02*
X199239037Y-57074571D01*
X199239037Y-57074571D02*
X199319849Y-57155383D01*
X199319849Y-57155383D02*
X199454536Y-57236195D01*
X199454536Y-57236195D02*
X199535348Y-57263132D01*
X199535348Y-57263132D02*
X199643098Y-57263132D01*
X199643098Y-57263132D02*
X199750847Y-57209258D01*
X199750847Y-57209258D02*
X199804722Y-57155383D01*
X199804722Y-57155383D02*
X199858597Y-57047633D01*
X199858597Y-57047633D02*
X199858597Y-56993758D01*
X199858597Y-56993758D02*
X199670035Y-56805197D01*
X199670035Y-56805197D02*
X199562285Y-56912946D01*
X200154908Y-56805197D02*
X199589223Y-56239511D01*
X199589223Y-56239511D02*
X199804722Y-56024012D01*
X199804722Y-56024012D02*
X199885534Y-55997075D01*
X199885534Y-55997075D02*
X199939409Y-55997075D01*
X199939409Y-55997075D02*
X200020221Y-56024012D01*
X200020221Y-56024012D02*
X200101033Y-56104824D01*
X200101033Y-56104824D02*
X200127971Y-56185636D01*
X200127971Y-56185636D02*
X200127971Y-56239511D01*
X200127971Y-56239511D02*
X200101033Y-56320323D01*
X200101033Y-56320323D02*
X199885534Y-56535823D01*
X200424282Y-55404452D02*
X200154908Y-55673826D01*
X200154908Y-55673826D02*
X200397345Y-55970137D01*
X200397345Y-55970137D02*
X200397345Y-55916262D01*
X200397345Y-55916262D02*
X200424282Y-55835450D01*
X200424282Y-55835450D02*
X200558969Y-55700763D01*
X200558969Y-55700763D02*
X200639781Y-55673826D01*
X200639781Y-55673826D02*
X200693656Y-55673826D01*
X200693656Y-55673826D02*
X200774468Y-55700763D01*
X200774468Y-55700763D02*
X200909155Y-55835450D01*
X200909155Y-55835450D02*
X200936093Y-55916262D01*
X200936093Y-55916262D02*
X200936093Y-55970137D01*
X200936093Y-55970137D02*
X200909155Y-56050949D01*
X200909155Y-56050949D02*
X200774468Y-56185636D01*
X200774468Y-56185636D02*
X200693656Y-56212574D01*
X200693656Y-56212574D02*
X200639781Y-56212574D01*
X199319849Y-59102760D02*
X199239037Y-59129697D01*
X199239037Y-59129697D02*
X199158225Y-59210509D01*
X199158225Y-59210509D02*
X199104350Y-59318259D01*
X199104350Y-59318259D02*
X199104350Y-59426009D01*
X199104350Y-59426009D02*
X199131287Y-59506821D01*
X199131287Y-59506821D02*
X199212099Y-59641508D01*
X199212099Y-59641508D02*
X199292912Y-59722320D01*
X199292912Y-59722320D02*
X199427599Y-59803132D01*
X199427599Y-59803132D02*
X199508411Y-59830070D01*
X199508411Y-59830070D02*
X199616160Y-59830070D01*
X199616160Y-59830070D02*
X199723910Y-59776195D01*
X199723910Y-59776195D02*
X199777785Y-59722320D01*
X199777785Y-59722320D02*
X199831660Y-59614570D01*
X199831660Y-59614570D02*
X199831660Y-59560696D01*
X199831660Y-59560696D02*
X199643098Y-59372134D01*
X199643098Y-59372134D02*
X199535348Y-59479883D01*
X200127971Y-59372134D02*
X199562286Y-58806448D01*
X199562286Y-58806448D02*
X200451220Y-59048885D01*
X200451220Y-59048885D02*
X199885534Y-58483200D01*
X200720594Y-58779511D02*
X200154908Y-58213826D01*
X200154908Y-58213826D02*
X200289595Y-58079139D01*
X200289595Y-58079139D02*
X200397345Y-58025264D01*
X200397345Y-58025264D02*
X200505094Y-58025264D01*
X200505094Y-58025264D02*
X200585907Y-58052201D01*
X200585907Y-58052201D02*
X200720594Y-58133014D01*
X200720594Y-58133014D02*
X200801406Y-58213826D01*
X200801406Y-58213826D02*
X200882218Y-58348513D01*
X200882218Y-58348513D02*
X200909155Y-58429325D01*
X200909155Y-58429325D02*
X200909155Y-58537075D01*
X200909155Y-58537075D02*
X200855281Y-58644824D01*
X200855281Y-58644824D02*
X200720594Y-58779511D01*
X199346786Y-61615823D02*
X199265974Y-61642760D01*
X199265974Y-61642760D02*
X199185162Y-61723572D01*
X199185162Y-61723572D02*
X199131287Y-61831322D01*
X199131287Y-61831322D02*
X199131287Y-61939071D01*
X199131287Y-61939071D02*
X199158224Y-62019884D01*
X199158224Y-62019884D02*
X199239037Y-62154571D01*
X199239037Y-62154571D02*
X199319849Y-62235383D01*
X199319849Y-62235383D02*
X199454536Y-62316195D01*
X199454536Y-62316195D02*
X199535348Y-62343132D01*
X199535348Y-62343132D02*
X199643098Y-62343132D01*
X199643098Y-62343132D02*
X199750847Y-62289258D01*
X199750847Y-62289258D02*
X199804722Y-62235383D01*
X199804722Y-62235383D02*
X199858597Y-62127633D01*
X199858597Y-62127633D02*
X199858597Y-62073758D01*
X199858597Y-62073758D02*
X199670035Y-61885197D01*
X199670035Y-61885197D02*
X199562285Y-61992946D01*
X200154908Y-61885197D02*
X199589223Y-61319511D01*
X199589223Y-61319511D02*
X199804722Y-61104012D01*
X199804722Y-61104012D02*
X199885534Y-61077075D01*
X199885534Y-61077075D02*
X199939409Y-61077075D01*
X199939409Y-61077075D02*
X200020221Y-61104012D01*
X200020221Y-61104012D02*
X200101033Y-61184824D01*
X200101033Y-61184824D02*
X200127971Y-61265636D01*
X200127971Y-61265636D02*
X200127971Y-61319511D01*
X200127971Y-61319511D02*
X200101033Y-61400323D01*
X200101033Y-61400323D02*
X199885534Y-61615823D01*
X200397345Y-60511389D02*
X200289595Y-60619139D01*
X200289595Y-60619139D02*
X200262658Y-60699951D01*
X200262658Y-60699951D02*
X200262658Y-60753826D01*
X200262658Y-60753826D02*
X200289595Y-60888513D01*
X200289595Y-60888513D02*
X200370407Y-61023200D01*
X200370407Y-61023200D02*
X200585907Y-61238699D01*
X200585907Y-61238699D02*
X200666719Y-61265636D01*
X200666719Y-61265636D02*
X200720594Y-61265636D01*
X200720594Y-61265636D02*
X200801406Y-61238699D01*
X200801406Y-61238699D02*
X200909155Y-61130949D01*
X200909155Y-61130949D02*
X200936093Y-61050137D01*
X200936093Y-61050137D02*
X200936093Y-60996262D01*
X200936093Y-60996262D02*
X200909155Y-60915450D01*
X200909155Y-60915450D02*
X200774468Y-60780763D01*
X200774468Y-60780763D02*
X200693656Y-60753826D01*
X200693656Y-60753826D02*
X200639781Y-60753826D01*
X200639781Y-60753826D02*
X200558969Y-60780763D01*
X200558969Y-60780763D02*
X200451220Y-60888513D01*
X200451220Y-60888513D02*
X200424282Y-60969325D01*
X200424282Y-60969325D02*
X200424282Y-61023200D01*
X200424282Y-61023200D02*
X200451220Y-61104012D01*
X199346786Y-66695823D02*
X199265974Y-66722760D01*
X199265974Y-66722760D02*
X199185162Y-66803572D01*
X199185162Y-66803572D02*
X199131287Y-66911322D01*
X199131287Y-66911322D02*
X199131287Y-67019071D01*
X199131287Y-67019071D02*
X199158224Y-67099884D01*
X199158224Y-67099884D02*
X199239037Y-67234571D01*
X199239037Y-67234571D02*
X199319849Y-67315383D01*
X199319849Y-67315383D02*
X199454536Y-67396195D01*
X199454536Y-67396195D02*
X199535348Y-67423132D01*
X199535348Y-67423132D02*
X199643098Y-67423132D01*
X199643098Y-67423132D02*
X199750847Y-67369258D01*
X199750847Y-67369258D02*
X199804722Y-67315383D01*
X199804722Y-67315383D02*
X199858597Y-67207633D01*
X199858597Y-67207633D02*
X199858597Y-67153758D01*
X199858597Y-67153758D02*
X199670035Y-66965197D01*
X199670035Y-66965197D02*
X199562285Y-67072946D01*
X200154908Y-66965197D02*
X199589223Y-66399511D01*
X199589223Y-66399511D02*
X199804722Y-66184012D01*
X199804722Y-66184012D02*
X199885534Y-66157075D01*
X199885534Y-66157075D02*
X199939409Y-66157075D01*
X199939409Y-66157075D02*
X200020221Y-66184012D01*
X200020221Y-66184012D02*
X200101033Y-66264824D01*
X200101033Y-66264824D02*
X200127971Y-66345636D01*
X200127971Y-66345636D02*
X200127971Y-66399511D01*
X200127971Y-66399511D02*
X200101033Y-66480323D01*
X200101033Y-66480323D02*
X199885534Y-66695823D01*
X200478157Y-65995450D02*
X200397345Y-66022388D01*
X200397345Y-66022388D02*
X200343470Y-66022388D01*
X200343470Y-66022388D02*
X200262658Y-65995450D01*
X200262658Y-65995450D02*
X200235720Y-65968513D01*
X200235720Y-65968513D02*
X200208783Y-65887701D01*
X200208783Y-65887701D02*
X200208783Y-65833826D01*
X200208783Y-65833826D02*
X200235720Y-65753014D01*
X200235720Y-65753014D02*
X200343470Y-65645264D01*
X200343470Y-65645264D02*
X200424282Y-65618327D01*
X200424282Y-65618327D02*
X200478157Y-65618327D01*
X200478157Y-65618327D02*
X200558969Y-65645264D01*
X200558969Y-65645264D02*
X200585907Y-65672201D01*
X200585907Y-65672201D02*
X200612844Y-65753014D01*
X200612844Y-65753014D02*
X200612844Y-65806888D01*
X200612844Y-65806888D02*
X200585907Y-65887701D01*
X200585907Y-65887701D02*
X200478157Y-65995450D01*
X200478157Y-65995450D02*
X200451220Y-66076262D01*
X200451220Y-66076262D02*
X200451220Y-66130137D01*
X200451220Y-66130137D02*
X200478157Y-66210949D01*
X200478157Y-66210949D02*
X200585907Y-66318699D01*
X200585907Y-66318699D02*
X200666719Y-66345636D01*
X200666719Y-66345636D02*
X200720594Y-66345636D01*
X200720594Y-66345636D02*
X200801406Y-66318699D01*
X200801406Y-66318699D02*
X200909155Y-66210949D01*
X200909155Y-66210949D02*
X200936093Y-66130137D01*
X200936093Y-66130137D02*
X200936093Y-66076262D01*
X200936093Y-66076262D02*
X200909155Y-65995450D01*
X200909155Y-65995450D02*
X200801406Y-65887701D01*
X200801406Y-65887701D02*
X200720594Y-65860763D01*
X200720594Y-65860763D02*
X200666719Y-65860763D01*
X200666719Y-65860763D02*
X200585907Y-65887701D01*
X199346786Y-69235823D02*
X199265974Y-69262760D01*
X199265974Y-69262760D02*
X199185162Y-69343572D01*
X199185162Y-69343572D02*
X199131287Y-69451322D01*
X199131287Y-69451322D02*
X199131287Y-69559071D01*
X199131287Y-69559071D02*
X199158224Y-69639884D01*
X199158224Y-69639884D02*
X199239037Y-69774571D01*
X199239037Y-69774571D02*
X199319849Y-69855383D01*
X199319849Y-69855383D02*
X199454536Y-69936195D01*
X199454536Y-69936195D02*
X199535348Y-69963132D01*
X199535348Y-69963132D02*
X199643098Y-69963132D01*
X199643098Y-69963132D02*
X199750847Y-69909258D01*
X199750847Y-69909258D02*
X199804722Y-69855383D01*
X199804722Y-69855383D02*
X199858597Y-69747633D01*
X199858597Y-69747633D02*
X199858597Y-69693758D01*
X199858597Y-69693758D02*
X199670035Y-69505197D01*
X199670035Y-69505197D02*
X199562285Y-69612946D01*
X200154908Y-69505197D02*
X199589223Y-68939511D01*
X199589223Y-68939511D02*
X199804722Y-68724012D01*
X199804722Y-68724012D02*
X199885534Y-68697075D01*
X199885534Y-68697075D02*
X199939409Y-68697075D01*
X199939409Y-68697075D02*
X200020221Y-68724012D01*
X200020221Y-68724012D02*
X200101033Y-68804824D01*
X200101033Y-68804824D02*
X200127971Y-68885636D01*
X200127971Y-68885636D02*
X200127971Y-68939511D01*
X200127971Y-68939511D02*
X200101033Y-69020323D01*
X200101033Y-69020323D02*
X199885534Y-69235823D01*
X200747531Y-68912574D02*
X200855281Y-68804824D01*
X200855281Y-68804824D02*
X200882218Y-68724012D01*
X200882218Y-68724012D02*
X200882218Y-68670137D01*
X200882218Y-68670137D02*
X200855281Y-68535450D01*
X200855281Y-68535450D02*
X200774468Y-68400763D01*
X200774468Y-68400763D02*
X200558969Y-68185264D01*
X200558969Y-68185264D02*
X200478157Y-68158327D01*
X200478157Y-68158327D02*
X200424282Y-68158327D01*
X200424282Y-68158327D02*
X200343470Y-68185264D01*
X200343470Y-68185264D02*
X200235720Y-68293014D01*
X200235720Y-68293014D02*
X200208783Y-68373826D01*
X200208783Y-68373826D02*
X200208783Y-68427701D01*
X200208783Y-68427701D02*
X200235720Y-68508513D01*
X200235720Y-68508513D02*
X200370407Y-68643200D01*
X200370407Y-68643200D02*
X200451220Y-68670137D01*
X200451220Y-68670137D02*
X200505094Y-68670137D01*
X200505094Y-68670137D02*
X200585907Y-68643200D01*
X200585907Y-68643200D02*
X200693656Y-68535450D01*
X200693656Y-68535450D02*
X200720594Y-68454638D01*
X200720594Y-68454638D02*
X200720594Y-68400763D01*
X200720594Y-68400763D02*
X200693656Y-68319951D01*
X199319849Y-71802760D02*
X199239037Y-71829697D01*
X199239037Y-71829697D02*
X199158225Y-71910509D01*
X199158225Y-71910509D02*
X199104350Y-72018259D01*
X199104350Y-72018259D02*
X199104350Y-72126009D01*
X199104350Y-72126009D02*
X199131287Y-72206821D01*
X199131287Y-72206821D02*
X199212099Y-72341508D01*
X199212099Y-72341508D02*
X199292912Y-72422320D01*
X199292912Y-72422320D02*
X199427599Y-72503132D01*
X199427599Y-72503132D02*
X199508411Y-72530070D01*
X199508411Y-72530070D02*
X199616160Y-72530070D01*
X199616160Y-72530070D02*
X199723910Y-72476195D01*
X199723910Y-72476195D02*
X199777785Y-72422320D01*
X199777785Y-72422320D02*
X199831660Y-72314570D01*
X199831660Y-72314570D02*
X199831660Y-72260696D01*
X199831660Y-72260696D02*
X199643098Y-72072134D01*
X199643098Y-72072134D02*
X199535348Y-72179883D01*
X200127971Y-72072134D02*
X199562286Y-71506448D01*
X199562286Y-71506448D02*
X200451220Y-71748885D01*
X200451220Y-71748885D02*
X199885534Y-71183200D01*
X200720594Y-71479511D02*
X200154908Y-70913826D01*
X200154908Y-70913826D02*
X200289595Y-70779139D01*
X200289595Y-70779139D02*
X200397345Y-70725264D01*
X200397345Y-70725264D02*
X200505094Y-70725264D01*
X200505094Y-70725264D02*
X200585907Y-70752201D01*
X200585907Y-70752201D02*
X200720594Y-70833014D01*
X200720594Y-70833014D02*
X200801406Y-70913826D01*
X200801406Y-70913826D02*
X200882218Y-71048513D01*
X200882218Y-71048513D02*
X200909155Y-71129325D01*
X200909155Y-71129325D02*
X200909155Y-71237075D01*
X200909155Y-71237075D02*
X200855281Y-71344824D01*
X200855281Y-71344824D02*
X200720594Y-71479511D01*
X199319849Y-84502760D02*
X199239037Y-84529697D01*
X199239037Y-84529697D02*
X199158225Y-84610509D01*
X199158225Y-84610509D02*
X199104350Y-84718259D01*
X199104350Y-84718259D02*
X199104350Y-84826009D01*
X199104350Y-84826009D02*
X199131287Y-84906821D01*
X199131287Y-84906821D02*
X199212099Y-85041508D01*
X199212099Y-85041508D02*
X199292912Y-85122320D01*
X199292912Y-85122320D02*
X199427599Y-85203132D01*
X199427599Y-85203132D02*
X199508411Y-85230070D01*
X199508411Y-85230070D02*
X199616160Y-85230070D01*
X199616160Y-85230070D02*
X199723910Y-85176195D01*
X199723910Y-85176195D02*
X199777785Y-85122320D01*
X199777785Y-85122320D02*
X199831660Y-85014570D01*
X199831660Y-85014570D02*
X199831660Y-84960696D01*
X199831660Y-84960696D02*
X199643098Y-84772134D01*
X199643098Y-84772134D02*
X199535348Y-84879883D01*
X200127971Y-84772134D02*
X199562286Y-84206448D01*
X199562286Y-84206448D02*
X200451220Y-84448885D01*
X200451220Y-84448885D02*
X199885534Y-83883200D01*
X200720594Y-84179511D02*
X200154908Y-83613826D01*
X200154908Y-83613826D02*
X200289595Y-83479139D01*
X200289595Y-83479139D02*
X200397345Y-83425264D01*
X200397345Y-83425264D02*
X200505094Y-83425264D01*
X200505094Y-83425264D02*
X200585907Y-83452201D01*
X200585907Y-83452201D02*
X200720594Y-83533014D01*
X200720594Y-83533014D02*
X200801406Y-83613826D01*
X200801406Y-83613826D02*
X200882218Y-83748513D01*
X200882218Y-83748513D02*
X200909155Y-83829325D01*
X200909155Y-83829325D02*
X200909155Y-83937075D01*
X200909155Y-83937075D02*
X200855281Y-84044824D01*
X200855281Y-84044824D02*
X200720594Y-84179511D01*
X199446786Y-64125823D02*
X199365974Y-64152760D01*
X199365974Y-64152760D02*
X199285162Y-64233572D01*
X199285162Y-64233572D02*
X199231287Y-64341322D01*
X199231287Y-64341322D02*
X199231287Y-64449071D01*
X199231287Y-64449071D02*
X199258224Y-64529884D01*
X199258224Y-64529884D02*
X199339037Y-64664571D01*
X199339037Y-64664571D02*
X199419849Y-64745383D01*
X199419849Y-64745383D02*
X199554536Y-64826195D01*
X199554536Y-64826195D02*
X199635348Y-64853132D01*
X199635348Y-64853132D02*
X199743098Y-64853132D01*
X199743098Y-64853132D02*
X199850847Y-64799258D01*
X199850847Y-64799258D02*
X199904722Y-64745383D01*
X199904722Y-64745383D02*
X199958597Y-64637633D01*
X199958597Y-64637633D02*
X199958597Y-64583758D01*
X199958597Y-64583758D02*
X199770035Y-64395197D01*
X199770035Y-64395197D02*
X199662285Y-64502946D01*
X200254908Y-64395197D02*
X199689223Y-63829511D01*
X199689223Y-63829511D02*
X199904722Y-63614012D01*
X199904722Y-63614012D02*
X199985534Y-63587075D01*
X199985534Y-63587075D02*
X200039409Y-63587075D01*
X200039409Y-63587075D02*
X200120221Y-63614012D01*
X200120221Y-63614012D02*
X200201033Y-63694824D01*
X200201033Y-63694824D02*
X200227971Y-63775636D01*
X200227971Y-63775636D02*
X200227971Y-63829511D01*
X200227971Y-63829511D02*
X200201033Y-63910323D01*
X200201033Y-63910323D02*
X199985534Y-64125823D01*
X200201033Y-63317701D02*
X200578157Y-62940577D01*
X200578157Y-62940577D02*
X200901406Y-63748699D01*
X205323889Y-91828529D02*
X205438175Y-91866624D01*
X205438175Y-91866624D02*
X205628651Y-91866624D01*
X205628651Y-91866624D02*
X205704842Y-91828529D01*
X205704842Y-91828529D02*
X205742937Y-91790433D01*
X205742937Y-91790433D02*
X205781032Y-91714243D01*
X205781032Y-91714243D02*
X205781032Y-91638052D01*
X205781032Y-91638052D02*
X205742937Y-91561862D01*
X205742937Y-91561862D02*
X205704842Y-91523767D01*
X205704842Y-91523767D02*
X205628651Y-91485671D01*
X205628651Y-91485671D02*
X205476270Y-91447576D01*
X205476270Y-91447576D02*
X205400080Y-91409481D01*
X205400080Y-91409481D02*
X205361985Y-91371386D01*
X205361985Y-91371386D02*
X205323889Y-91295195D01*
X205323889Y-91295195D02*
X205323889Y-91219005D01*
X205323889Y-91219005D02*
X205361985Y-91142814D01*
X205361985Y-91142814D02*
X205400080Y-91104719D01*
X205400080Y-91104719D02*
X205476270Y-91066624D01*
X205476270Y-91066624D02*
X205666747Y-91066624D01*
X205666747Y-91066624D02*
X205781032Y-91104719D01*
X206047699Y-91066624D02*
X206238175Y-91866624D01*
X206238175Y-91866624D02*
X206390556Y-91295195D01*
X206390556Y-91295195D02*
X206542937Y-91866624D01*
X206542937Y-91866624D02*
X206733414Y-91066624D01*
X207495319Y-91790433D02*
X207457223Y-91828529D01*
X207457223Y-91828529D02*
X207342938Y-91866624D01*
X207342938Y-91866624D02*
X207266747Y-91866624D01*
X207266747Y-91866624D02*
X207152461Y-91828529D01*
X207152461Y-91828529D02*
X207076271Y-91752338D01*
X207076271Y-91752338D02*
X207038176Y-91676148D01*
X207038176Y-91676148D02*
X207000080Y-91523767D01*
X207000080Y-91523767D02*
X207000080Y-91409481D01*
X207000080Y-91409481D02*
X207038176Y-91257100D01*
X207038176Y-91257100D02*
X207076271Y-91180909D01*
X207076271Y-91180909D02*
X207152461Y-91104719D01*
X207152461Y-91104719D02*
X207266747Y-91066624D01*
X207266747Y-91066624D02*
X207342938Y-91066624D01*
X207342938Y-91066624D02*
X207457223Y-91104719D01*
X207457223Y-91104719D02*
X207495319Y-91142814D01*
X208219128Y-91866624D02*
X207838176Y-91866624D01*
X207838176Y-91866624D02*
X207838176Y-91066624D01*
X208485795Y-91866624D02*
X208485795Y-91066624D01*
X208942938Y-91866624D02*
X208600080Y-91409481D01*
X208942938Y-91066624D02*
X208485795Y-91523767D01*
X216738175Y-91828529D02*
X216852461Y-91866624D01*
X216852461Y-91866624D02*
X217042937Y-91866624D01*
X217042937Y-91866624D02*
X217119128Y-91828529D01*
X217119128Y-91828529D02*
X217157223Y-91790433D01*
X217157223Y-91790433D02*
X217195318Y-91714243D01*
X217195318Y-91714243D02*
X217195318Y-91638052D01*
X217195318Y-91638052D02*
X217157223Y-91561862D01*
X217157223Y-91561862D02*
X217119128Y-91523767D01*
X217119128Y-91523767D02*
X217042937Y-91485671D01*
X217042937Y-91485671D02*
X216890556Y-91447576D01*
X216890556Y-91447576D02*
X216814366Y-91409481D01*
X216814366Y-91409481D02*
X216776271Y-91371386D01*
X216776271Y-91371386D02*
X216738175Y-91295195D01*
X216738175Y-91295195D02*
X216738175Y-91219005D01*
X216738175Y-91219005D02*
X216776271Y-91142814D01*
X216776271Y-91142814D02*
X216814366Y-91104719D01*
X216814366Y-91104719D02*
X216890556Y-91066624D01*
X216890556Y-91066624D02*
X217081033Y-91066624D01*
X217081033Y-91066624D02*
X217195318Y-91104719D01*
X217461985Y-91066624D02*
X217652461Y-91866624D01*
X217652461Y-91866624D02*
X217804842Y-91295195D01*
X217804842Y-91295195D02*
X217957223Y-91866624D01*
X217957223Y-91866624D02*
X218147700Y-91066624D01*
X218452462Y-91866624D02*
X218452462Y-91066624D01*
X218452462Y-91066624D02*
X218642938Y-91066624D01*
X218642938Y-91066624D02*
X218757224Y-91104719D01*
X218757224Y-91104719D02*
X218833414Y-91180909D01*
X218833414Y-91180909D02*
X218871509Y-91257100D01*
X218871509Y-91257100D02*
X218909605Y-91409481D01*
X218909605Y-91409481D02*
X218909605Y-91523767D01*
X218909605Y-91523767D02*
X218871509Y-91676148D01*
X218871509Y-91676148D02*
X218833414Y-91752338D01*
X218833414Y-91752338D02*
X218757224Y-91828529D01*
X218757224Y-91828529D02*
X218642938Y-91866624D01*
X218642938Y-91866624D02*
X218452462Y-91866624D01*
X219252462Y-91866624D02*
X219252462Y-91066624D01*
X219785795Y-91066624D02*
X219938176Y-91066624D01*
X219938176Y-91066624D02*
X220014366Y-91104719D01*
X220014366Y-91104719D02*
X220090557Y-91180909D01*
X220090557Y-91180909D02*
X220128652Y-91333290D01*
X220128652Y-91333290D02*
X220128652Y-91599957D01*
X220128652Y-91599957D02*
X220090557Y-91752338D01*
X220090557Y-91752338D02*
X220014366Y-91828529D01*
X220014366Y-91828529D02*
X219938176Y-91866624D01*
X219938176Y-91866624D02*
X219785795Y-91866624D01*
X219785795Y-91866624D02*
X219709604Y-91828529D01*
X219709604Y-91828529D02*
X219633414Y-91752338D01*
X219633414Y-91752338D02*
X219595318Y-91599957D01*
X219595318Y-91599957D02*
X219595318Y-91333290D01*
X219595318Y-91333290D02*
X219633414Y-91180909D01*
X219633414Y-91180909D02*
X219709604Y-91104719D01*
X219709604Y-91104719D02*
X219785795Y-91066624D01*
X224919849Y-46402760D02*
X224839037Y-46429697D01*
X224839037Y-46429697D02*
X224758225Y-46510509D01*
X224758225Y-46510509D02*
X224704350Y-46618259D01*
X224704350Y-46618259D02*
X224704350Y-46726009D01*
X224704350Y-46726009D02*
X224731287Y-46806821D01*
X224731287Y-46806821D02*
X224812099Y-46941508D01*
X224812099Y-46941508D02*
X224892912Y-47022320D01*
X224892912Y-47022320D02*
X225027599Y-47103132D01*
X225027599Y-47103132D02*
X225108411Y-47130070D01*
X225108411Y-47130070D02*
X225216160Y-47130070D01*
X225216160Y-47130070D02*
X225323910Y-47076195D01*
X225323910Y-47076195D02*
X225377785Y-47022320D01*
X225377785Y-47022320D02*
X225431660Y-46914570D01*
X225431660Y-46914570D02*
X225431660Y-46860696D01*
X225431660Y-46860696D02*
X225243098Y-46672134D01*
X225243098Y-46672134D02*
X225135348Y-46779883D01*
X225727971Y-46672134D02*
X225162286Y-46106448D01*
X225162286Y-46106448D02*
X226051220Y-46348885D01*
X226051220Y-46348885D02*
X225485534Y-45783200D01*
X226320594Y-46079511D02*
X225754908Y-45513826D01*
X225754908Y-45513826D02*
X225889595Y-45379139D01*
X225889595Y-45379139D02*
X225997345Y-45325264D01*
X225997345Y-45325264D02*
X226105094Y-45325264D01*
X226105094Y-45325264D02*
X226185907Y-45352201D01*
X226185907Y-45352201D02*
X226320594Y-45433014D01*
X226320594Y-45433014D02*
X226401406Y-45513826D01*
X226401406Y-45513826D02*
X226482218Y-45648513D01*
X226482218Y-45648513D02*
X226509155Y-45729325D01*
X226509155Y-45729325D02*
X226509155Y-45837075D01*
X226509155Y-45837075D02*
X226455281Y-45944824D01*
X226455281Y-45944824D02*
X226320594Y-46079511D01*
X224919849Y-71802760D02*
X224839037Y-71829697D01*
X224839037Y-71829697D02*
X224758225Y-71910509D01*
X224758225Y-71910509D02*
X224704350Y-72018259D01*
X224704350Y-72018259D02*
X224704350Y-72126009D01*
X224704350Y-72126009D02*
X224731287Y-72206821D01*
X224731287Y-72206821D02*
X224812099Y-72341508D01*
X224812099Y-72341508D02*
X224892912Y-72422320D01*
X224892912Y-72422320D02*
X225027599Y-72503132D01*
X225027599Y-72503132D02*
X225108411Y-72530070D01*
X225108411Y-72530070D02*
X225216160Y-72530070D01*
X225216160Y-72530070D02*
X225323910Y-72476195D01*
X225323910Y-72476195D02*
X225377785Y-72422320D01*
X225377785Y-72422320D02*
X225431660Y-72314570D01*
X225431660Y-72314570D02*
X225431660Y-72260696D01*
X225431660Y-72260696D02*
X225243098Y-72072134D01*
X225243098Y-72072134D02*
X225135348Y-72179883D01*
X225727971Y-72072134D02*
X225162286Y-71506448D01*
X225162286Y-71506448D02*
X226051220Y-71748885D01*
X226051220Y-71748885D02*
X225485534Y-71183200D01*
X226320594Y-71479511D02*
X225754908Y-70913826D01*
X225754908Y-70913826D02*
X225889595Y-70779139D01*
X225889595Y-70779139D02*
X225997345Y-70725264D01*
X225997345Y-70725264D02*
X226105094Y-70725264D01*
X226105094Y-70725264D02*
X226185907Y-70752201D01*
X226185907Y-70752201D02*
X226320594Y-70833014D01*
X226320594Y-70833014D02*
X226401406Y-70913826D01*
X226401406Y-70913826D02*
X226482218Y-71048513D01*
X226482218Y-71048513D02*
X226509155Y-71129325D01*
X226509155Y-71129325D02*
X226509155Y-71237075D01*
X226509155Y-71237075D02*
X226455281Y-71344824D01*
X226455281Y-71344824D02*
X226320594Y-71479511D01*
X224919849Y-84502760D02*
X224839037Y-84529697D01*
X224839037Y-84529697D02*
X224758225Y-84610509D01*
X224758225Y-84610509D02*
X224704350Y-84718259D01*
X224704350Y-84718259D02*
X224704350Y-84826009D01*
X224704350Y-84826009D02*
X224731287Y-84906821D01*
X224731287Y-84906821D02*
X224812099Y-85041508D01*
X224812099Y-85041508D02*
X224892912Y-85122320D01*
X224892912Y-85122320D02*
X225027599Y-85203132D01*
X225027599Y-85203132D02*
X225108411Y-85230070D01*
X225108411Y-85230070D02*
X225216160Y-85230070D01*
X225216160Y-85230070D02*
X225323910Y-85176195D01*
X225323910Y-85176195D02*
X225377785Y-85122320D01*
X225377785Y-85122320D02*
X225431660Y-85014570D01*
X225431660Y-85014570D02*
X225431660Y-84960696D01*
X225431660Y-84960696D02*
X225243098Y-84772134D01*
X225243098Y-84772134D02*
X225135348Y-84879883D01*
X225727971Y-84772134D02*
X225162286Y-84206448D01*
X225162286Y-84206448D02*
X226051220Y-84448885D01*
X226051220Y-84448885D02*
X225485534Y-83883200D01*
X226320594Y-84179511D02*
X225754908Y-83613826D01*
X225754908Y-83613826D02*
X225889595Y-83479139D01*
X225889595Y-83479139D02*
X225997345Y-83425264D01*
X225997345Y-83425264D02*
X226105094Y-83425264D01*
X226105094Y-83425264D02*
X226185907Y-83452201D01*
X226185907Y-83452201D02*
X226320594Y-83533014D01*
X226320594Y-83533014D02*
X226401406Y-83613826D01*
X226401406Y-83613826D02*
X226482218Y-83748513D01*
X226482218Y-83748513D02*
X226509155Y-83829325D01*
X226509155Y-83829325D02*
X226509155Y-83937075D01*
X226509155Y-83937075D02*
X226455281Y-84044824D01*
X226455281Y-84044824D02*
X226320594Y-84179511D01*
X224723537Y-51795197D02*
X225073723Y-51445011D01*
X225073723Y-51445011D02*
X225100661Y-51849072D01*
X225100661Y-51849072D02*
X225181473Y-51768260D01*
X225181473Y-51768260D02*
X225262285Y-51741322D01*
X225262285Y-51741322D02*
X225316160Y-51741322D01*
X225316160Y-51741322D02*
X225396972Y-51768260D01*
X225396972Y-51768260D02*
X225531659Y-51902947D01*
X225531659Y-51902947D02*
X225558596Y-51983759D01*
X225558596Y-51983759D02*
X225558596Y-52037634D01*
X225558596Y-52037634D02*
X225531659Y-52118446D01*
X225531659Y-52118446D02*
X225370035Y-52280070D01*
X225370035Y-52280070D02*
X225289222Y-52307008D01*
X225289222Y-52307008D02*
X225235348Y-52307008D01*
X225235348Y-51283386D02*
X225989595Y-51660510D01*
X225989595Y-51660510D02*
X225612471Y-50906263D01*
X225747158Y-50771576D02*
X226097344Y-50421390D01*
X226097344Y-50421390D02*
X226124282Y-50825451D01*
X226124282Y-50825451D02*
X226205094Y-50744638D01*
X226205094Y-50744638D02*
X226285906Y-50717701D01*
X226285906Y-50717701D02*
X226339781Y-50717701D01*
X226339781Y-50717701D02*
X226420593Y-50744638D01*
X226420593Y-50744638D02*
X226555280Y-50879325D01*
X226555280Y-50879325D02*
X226582218Y-50960138D01*
X226582218Y-50960138D02*
X226582218Y-51014012D01*
X226582218Y-51014012D02*
X226555280Y-51094825D01*
X226555280Y-51094825D02*
X226393656Y-51256449D01*
X226393656Y-51256449D02*
X226312844Y-51283386D01*
X226312844Y-51283386D02*
X226258969Y-51283386D01*
X225672065Y-67248039D02*
X225214130Y-67167227D01*
X225348817Y-67571288D02*
X224783131Y-67005603D01*
X224783131Y-67005603D02*
X224998630Y-66790104D01*
X224998630Y-66790104D02*
X225079443Y-66763166D01*
X225079443Y-66763166D02*
X225133317Y-66763166D01*
X225133317Y-66763166D02*
X225214130Y-66790104D01*
X225214130Y-66790104D02*
X225294942Y-66870916D01*
X225294942Y-66870916D02*
X225321879Y-66951728D01*
X225321879Y-66951728D02*
X225321879Y-67005603D01*
X225321879Y-67005603D02*
X225294942Y-67086415D01*
X225294942Y-67086415D02*
X225079443Y-67301914D01*
X225348817Y-66439917D02*
X225806752Y-66897853D01*
X225806752Y-66897853D02*
X225887565Y-66924791D01*
X225887565Y-66924791D02*
X225941439Y-66924791D01*
X225941439Y-66924791D02*
X226022252Y-66897853D01*
X226022252Y-66897853D02*
X226130001Y-66790104D01*
X226130001Y-66790104D02*
X226156939Y-66709291D01*
X226156939Y-66709291D02*
X226156939Y-66655417D01*
X226156939Y-66655417D02*
X226130001Y-66574604D01*
X226130001Y-66574604D02*
X225672065Y-66116669D01*
X226507125Y-66412980D02*
X225941439Y-65847295D01*
X225941439Y-65847295D02*
X226830373Y-66089731D01*
X226830373Y-66089731D02*
X226264688Y-65524046D01*
X224931412Y-56551197D02*
X224850599Y-56578134D01*
X224850599Y-56578134D02*
X224769787Y-56658947D01*
X224769787Y-56658947D02*
X224715912Y-56766696D01*
X224715912Y-56766696D02*
X224715912Y-56874446D01*
X224715912Y-56874446D02*
X224742850Y-56955258D01*
X224742850Y-56955258D02*
X224823662Y-57089945D01*
X224823662Y-57089945D02*
X224904474Y-57170757D01*
X224904474Y-57170757D02*
X225039161Y-57251570D01*
X225039161Y-57251570D02*
X225119974Y-57278507D01*
X225119974Y-57278507D02*
X225227723Y-57278507D01*
X225227723Y-57278507D02*
X225335473Y-57224632D01*
X225335473Y-57224632D02*
X225389348Y-57170757D01*
X225389348Y-57170757D02*
X225443222Y-57063008D01*
X225443222Y-57063008D02*
X225443222Y-57009133D01*
X225443222Y-57009133D02*
X225254661Y-56820571D01*
X225254661Y-56820571D02*
X225146911Y-56928321D01*
X225739534Y-56820571D02*
X225173848Y-56254886D01*
X225173848Y-56254886D02*
X225389348Y-56039386D01*
X225389348Y-56039386D02*
X225470160Y-56012449D01*
X225470160Y-56012449D02*
X225524035Y-56012449D01*
X225524035Y-56012449D02*
X225604847Y-56039386D01*
X225604847Y-56039386D02*
X225685659Y-56120199D01*
X225685659Y-56120199D02*
X225712596Y-56201011D01*
X225712596Y-56201011D02*
X225712596Y-56254886D01*
X225712596Y-56254886D02*
X225685659Y-56335698D01*
X225685659Y-56335698D02*
X225470160Y-56551197D01*
X225766471Y-55770012D02*
X225766471Y-55716138D01*
X225766471Y-55716138D02*
X225793409Y-55635325D01*
X225793409Y-55635325D02*
X225928096Y-55500638D01*
X225928096Y-55500638D02*
X226008908Y-55473701D01*
X226008908Y-55473701D02*
X226062783Y-55473701D01*
X226062783Y-55473701D02*
X226143595Y-55500638D01*
X226143595Y-55500638D02*
X226197470Y-55554513D01*
X226197470Y-55554513D02*
X226251344Y-55662263D01*
X226251344Y-55662263D02*
X226251344Y-56308760D01*
X226251344Y-56308760D02*
X226601531Y-55958574D01*
X226601531Y-55312076D02*
X226520719Y-55339014D01*
X226520719Y-55339014D02*
X226466844Y-55339014D01*
X226466844Y-55339014D02*
X226386032Y-55312076D01*
X226386032Y-55312076D02*
X226359094Y-55285139D01*
X226359094Y-55285139D02*
X226332157Y-55204327D01*
X226332157Y-55204327D02*
X226332157Y-55150452D01*
X226332157Y-55150452D02*
X226359094Y-55069640D01*
X226359094Y-55069640D02*
X226466844Y-54961890D01*
X226466844Y-54961890D02*
X226547656Y-54934953D01*
X226547656Y-54934953D02*
X226601531Y-54934953D01*
X226601531Y-54934953D02*
X226682343Y-54961890D01*
X226682343Y-54961890D02*
X226709280Y-54988828D01*
X226709280Y-54988828D02*
X226736218Y-55069640D01*
X226736218Y-55069640D02*
X226736218Y-55123515D01*
X226736218Y-55123515D02*
X226709280Y-55204327D01*
X226709280Y-55204327D02*
X226601531Y-55312076D01*
X226601531Y-55312076D02*
X226574593Y-55392889D01*
X226574593Y-55392889D02*
X226574593Y-55446763D01*
X226574593Y-55446763D02*
X226601531Y-55527576D01*
X226601531Y-55527576D02*
X226709280Y-55635325D01*
X226709280Y-55635325D02*
X226790093Y-55662263D01*
X226790093Y-55662263D02*
X226843967Y-55662263D01*
X226843967Y-55662263D02*
X226924780Y-55635325D01*
X226924780Y-55635325D02*
X227032529Y-55527576D01*
X227032529Y-55527576D02*
X227059467Y-55446763D01*
X227059467Y-55446763D02*
X227059467Y-55392889D01*
X227059467Y-55392889D02*
X227032529Y-55312076D01*
X227032529Y-55312076D02*
X226924780Y-55204327D01*
X226924780Y-55204327D02*
X226843967Y-55177389D01*
X226843967Y-55177389D02*
X226790093Y-55177389D01*
X226790093Y-55177389D02*
X226709280Y-55204327D01*
X224985287Y-60045569D02*
X225254661Y-59776195D01*
X225093037Y-60261068D02*
X224715913Y-59506821D01*
X224715913Y-59506821D02*
X225470160Y-59883944D01*
X225416285Y-58860323D02*
X225335473Y-58887261D01*
X225335473Y-58887261D02*
X225254661Y-58968073D01*
X225254661Y-58968073D02*
X225200786Y-59075823D01*
X225200786Y-59075823D02*
X225200786Y-59183572D01*
X225200786Y-59183572D02*
X225227724Y-59264384D01*
X225227724Y-59264384D02*
X225308536Y-59399071D01*
X225308536Y-59399071D02*
X225389348Y-59479884D01*
X225389348Y-59479884D02*
X225524035Y-59560696D01*
X225524035Y-59560696D02*
X225604847Y-59587633D01*
X225604847Y-59587633D02*
X225712597Y-59587633D01*
X225712597Y-59587633D02*
X225820346Y-59533758D01*
X225820346Y-59533758D02*
X225874221Y-59479884D01*
X225874221Y-59479884D02*
X225928096Y-59372134D01*
X225928096Y-59372134D02*
X225928096Y-59318259D01*
X225928096Y-59318259D02*
X225739534Y-59129697D01*
X225739534Y-59129697D02*
X225631785Y-59237447D01*
X226224407Y-59129697D02*
X225658722Y-58564012D01*
X225658722Y-58564012D02*
X226547656Y-58806449D01*
X226547656Y-58806449D02*
X225981971Y-58240763D01*
X226817030Y-58537075D02*
X226251345Y-57971389D01*
X226251345Y-57971389D02*
X226386032Y-57836702D01*
X226386032Y-57836702D02*
X226493781Y-57782827D01*
X226493781Y-57782827D02*
X226601531Y-57782827D01*
X226601531Y-57782827D02*
X226682343Y-57809765D01*
X226682343Y-57809765D02*
X226817030Y-57890577D01*
X226817030Y-57890577D02*
X226897842Y-57971389D01*
X226897842Y-57971389D02*
X226978655Y-58106076D01*
X226978655Y-58106076D02*
X227005592Y-58186889D01*
X227005592Y-58186889D02*
X227005592Y-58294638D01*
X227005592Y-58294638D02*
X226951717Y-58402388D01*
X226951717Y-58402388D02*
X226817030Y-58537075D01*
X224931412Y-61895197D02*
X224850599Y-61922134D01*
X224850599Y-61922134D02*
X224769787Y-62002947D01*
X224769787Y-62002947D02*
X224715912Y-62110696D01*
X224715912Y-62110696D02*
X224715912Y-62218446D01*
X224715912Y-62218446D02*
X224742850Y-62299258D01*
X224742850Y-62299258D02*
X224823662Y-62433945D01*
X224823662Y-62433945D02*
X224904474Y-62514757D01*
X224904474Y-62514757D02*
X225039161Y-62595570D01*
X225039161Y-62595570D02*
X225119974Y-62622507D01*
X225119974Y-62622507D02*
X225227723Y-62622507D01*
X225227723Y-62622507D02*
X225335473Y-62568632D01*
X225335473Y-62568632D02*
X225389348Y-62514757D01*
X225389348Y-62514757D02*
X225443222Y-62407008D01*
X225443222Y-62407008D02*
X225443222Y-62353133D01*
X225443222Y-62353133D02*
X225254661Y-62164571D01*
X225254661Y-62164571D02*
X225146911Y-62272321D01*
X225739534Y-62164571D02*
X225173848Y-61598886D01*
X225173848Y-61598886D02*
X225389348Y-61383386D01*
X225389348Y-61383386D02*
X225470160Y-61356449D01*
X225470160Y-61356449D02*
X225524035Y-61356449D01*
X225524035Y-61356449D02*
X225604847Y-61383386D01*
X225604847Y-61383386D02*
X225685659Y-61464199D01*
X225685659Y-61464199D02*
X225712596Y-61545011D01*
X225712596Y-61545011D02*
X225712596Y-61598886D01*
X225712596Y-61598886D02*
X225685659Y-61679698D01*
X225685659Y-61679698D02*
X225470160Y-61895197D01*
X225766471Y-61114012D02*
X225766471Y-61060138D01*
X225766471Y-61060138D02*
X225793409Y-60979325D01*
X225793409Y-60979325D02*
X225928096Y-60844638D01*
X225928096Y-60844638D02*
X226008908Y-60817701D01*
X226008908Y-60817701D02*
X226062783Y-60817701D01*
X226062783Y-60817701D02*
X226143595Y-60844638D01*
X226143595Y-60844638D02*
X226197470Y-60898513D01*
X226197470Y-60898513D02*
X226251344Y-61006263D01*
X226251344Y-61006263D02*
X226251344Y-61652760D01*
X226251344Y-61652760D02*
X226601531Y-61302574D01*
X226224407Y-60548327D02*
X226601531Y-60171203D01*
X226601531Y-60171203D02*
X226924780Y-60979325D01*
X224931412Y-64425197D02*
X224850599Y-64452134D01*
X224850599Y-64452134D02*
X224769787Y-64532947D01*
X224769787Y-64532947D02*
X224715912Y-64640696D01*
X224715912Y-64640696D02*
X224715912Y-64748446D01*
X224715912Y-64748446D02*
X224742850Y-64829258D01*
X224742850Y-64829258D02*
X224823662Y-64963945D01*
X224823662Y-64963945D02*
X224904474Y-65044757D01*
X224904474Y-65044757D02*
X225039161Y-65125570D01*
X225039161Y-65125570D02*
X225119974Y-65152507D01*
X225119974Y-65152507D02*
X225227723Y-65152507D01*
X225227723Y-65152507D02*
X225335473Y-65098632D01*
X225335473Y-65098632D02*
X225389348Y-65044757D01*
X225389348Y-65044757D02*
X225443222Y-64937008D01*
X225443222Y-64937008D02*
X225443222Y-64883133D01*
X225443222Y-64883133D02*
X225254661Y-64694571D01*
X225254661Y-64694571D02*
X225146911Y-64802321D01*
X225739534Y-64694571D02*
X225173848Y-64128886D01*
X225173848Y-64128886D02*
X225389348Y-63913386D01*
X225389348Y-63913386D02*
X225470160Y-63886449D01*
X225470160Y-63886449D02*
X225524035Y-63886449D01*
X225524035Y-63886449D02*
X225604847Y-63913386D01*
X225604847Y-63913386D02*
X225685659Y-63994199D01*
X225685659Y-63994199D02*
X225712596Y-64075011D01*
X225712596Y-64075011D02*
X225712596Y-64128886D01*
X225712596Y-64128886D02*
X225685659Y-64209698D01*
X225685659Y-64209698D02*
X225470160Y-64425197D01*
X225766471Y-63644012D02*
X225766471Y-63590138D01*
X225766471Y-63590138D02*
X225793409Y-63509325D01*
X225793409Y-63509325D02*
X225928096Y-63374638D01*
X225928096Y-63374638D02*
X226008908Y-63347701D01*
X226008908Y-63347701D02*
X226062783Y-63347701D01*
X226062783Y-63347701D02*
X226143595Y-63374638D01*
X226143595Y-63374638D02*
X226197470Y-63428513D01*
X226197470Y-63428513D02*
X226251344Y-63536263D01*
X226251344Y-63536263D02*
X226251344Y-64182760D01*
X226251344Y-64182760D02*
X226601531Y-63832574D01*
X226520719Y-62782015D02*
X226412969Y-62889765D01*
X226412969Y-62889765D02*
X226386032Y-62970577D01*
X226386032Y-62970577D02*
X226386032Y-63024452D01*
X226386032Y-63024452D02*
X226412969Y-63159139D01*
X226412969Y-63159139D02*
X226493781Y-63293826D01*
X226493781Y-63293826D02*
X226709280Y-63509325D01*
X226709280Y-63509325D02*
X226790093Y-63536263D01*
X226790093Y-63536263D02*
X226843967Y-63536263D01*
X226843967Y-63536263D02*
X226924780Y-63509325D01*
X226924780Y-63509325D02*
X227032529Y-63401576D01*
X227032529Y-63401576D02*
X227059467Y-63320763D01*
X227059467Y-63320763D02*
X227059467Y-63266889D01*
X227059467Y-63266889D02*
X227032529Y-63186076D01*
X227032529Y-63186076D02*
X226897842Y-63051389D01*
X226897842Y-63051389D02*
X226817030Y-63024452D01*
X226817030Y-63024452D02*
X226763155Y-63024452D01*
X226763155Y-63024452D02*
X226682343Y-63051389D01*
X226682343Y-63051389D02*
X226574593Y-63159139D01*
X226574593Y-63159139D02*
X226547656Y-63239951D01*
X226547656Y-63239951D02*
X226547656Y-63293826D01*
X226547656Y-63293826D02*
X226574593Y-63374638D01*
X224931412Y-69505197D02*
X224850599Y-69532134D01*
X224850599Y-69532134D02*
X224769787Y-69612947D01*
X224769787Y-69612947D02*
X224715912Y-69720696D01*
X224715912Y-69720696D02*
X224715912Y-69828446D01*
X224715912Y-69828446D02*
X224742850Y-69909258D01*
X224742850Y-69909258D02*
X224823662Y-70043945D01*
X224823662Y-70043945D02*
X224904474Y-70124757D01*
X224904474Y-70124757D02*
X225039161Y-70205570D01*
X225039161Y-70205570D02*
X225119974Y-70232507D01*
X225119974Y-70232507D02*
X225227723Y-70232507D01*
X225227723Y-70232507D02*
X225335473Y-70178632D01*
X225335473Y-70178632D02*
X225389348Y-70124757D01*
X225389348Y-70124757D02*
X225443222Y-70017008D01*
X225443222Y-70017008D02*
X225443222Y-69963133D01*
X225443222Y-69963133D02*
X225254661Y-69774571D01*
X225254661Y-69774571D02*
X225146911Y-69882321D01*
X225739534Y-69774571D02*
X225173848Y-69208886D01*
X225173848Y-69208886D02*
X225389348Y-68993386D01*
X225389348Y-68993386D02*
X225470160Y-68966449D01*
X225470160Y-68966449D02*
X225524035Y-68966449D01*
X225524035Y-68966449D02*
X225604847Y-68993386D01*
X225604847Y-68993386D02*
X225685659Y-69074199D01*
X225685659Y-69074199D02*
X225712596Y-69155011D01*
X225712596Y-69155011D02*
X225712596Y-69208886D01*
X225712596Y-69208886D02*
X225685659Y-69289698D01*
X225685659Y-69289698D02*
X225470160Y-69505197D01*
X225766471Y-68724012D02*
X225766471Y-68670138D01*
X225766471Y-68670138D02*
X225793409Y-68589325D01*
X225793409Y-68589325D02*
X225928096Y-68454638D01*
X225928096Y-68454638D02*
X226008908Y-68427701D01*
X226008908Y-68427701D02*
X226062783Y-68427701D01*
X226062783Y-68427701D02*
X226143595Y-68454638D01*
X226143595Y-68454638D02*
X226197470Y-68508513D01*
X226197470Y-68508513D02*
X226251344Y-68616263D01*
X226251344Y-68616263D02*
X226251344Y-69262760D01*
X226251344Y-69262760D02*
X226601531Y-68912574D01*
X226305219Y-68185264D02*
X226305219Y-68131389D01*
X226305219Y-68131389D02*
X226332157Y-68050577D01*
X226332157Y-68050577D02*
X226466844Y-67915890D01*
X226466844Y-67915890D02*
X226547656Y-67888953D01*
X226547656Y-67888953D02*
X226601531Y-67888953D01*
X226601531Y-67888953D02*
X226682343Y-67915890D01*
X226682343Y-67915890D02*
X226736218Y-67969765D01*
X226736218Y-67969765D02*
X226790093Y-68077515D01*
X226790093Y-68077515D02*
X226790093Y-68724012D01*
X226790093Y-68724012D02*
X227140279Y-68373826D01*
X224931412Y-74595197D02*
X224850599Y-74622134D01*
X224850599Y-74622134D02*
X224769787Y-74702947D01*
X224769787Y-74702947D02*
X224715912Y-74810696D01*
X224715912Y-74810696D02*
X224715912Y-74918446D01*
X224715912Y-74918446D02*
X224742850Y-74999258D01*
X224742850Y-74999258D02*
X224823662Y-75133945D01*
X224823662Y-75133945D02*
X224904474Y-75214757D01*
X224904474Y-75214757D02*
X225039161Y-75295570D01*
X225039161Y-75295570D02*
X225119974Y-75322507D01*
X225119974Y-75322507D02*
X225227723Y-75322507D01*
X225227723Y-75322507D02*
X225335473Y-75268632D01*
X225335473Y-75268632D02*
X225389348Y-75214757D01*
X225389348Y-75214757D02*
X225443222Y-75107008D01*
X225443222Y-75107008D02*
X225443222Y-75053133D01*
X225443222Y-75053133D02*
X225254661Y-74864571D01*
X225254661Y-74864571D02*
X225146911Y-74972321D01*
X225739534Y-74864571D02*
X225173848Y-74298886D01*
X225173848Y-74298886D02*
X225389348Y-74083386D01*
X225389348Y-74083386D02*
X225470160Y-74056449D01*
X225470160Y-74056449D02*
X225524035Y-74056449D01*
X225524035Y-74056449D02*
X225604847Y-74083386D01*
X225604847Y-74083386D02*
X225685659Y-74164199D01*
X225685659Y-74164199D02*
X225712596Y-74245011D01*
X225712596Y-74245011D02*
X225712596Y-74298886D01*
X225712596Y-74298886D02*
X225685659Y-74379698D01*
X225685659Y-74379698D02*
X225470160Y-74595197D01*
X225766471Y-73814012D02*
X225766471Y-73760138D01*
X225766471Y-73760138D02*
X225793409Y-73679325D01*
X225793409Y-73679325D02*
X225928096Y-73544638D01*
X225928096Y-73544638D02*
X226008908Y-73517701D01*
X226008908Y-73517701D02*
X226062783Y-73517701D01*
X226062783Y-73517701D02*
X226143595Y-73544638D01*
X226143595Y-73544638D02*
X226197470Y-73598513D01*
X226197470Y-73598513D02*
X226251344Y-73706263D01*
X226251344Y-73706263D02*
X226251344Y-74352760D01*
X226251344Y-74352760D02*
X226601531Y-74002574D01*
X227140279Y-73463826D02*
X226817030Y-73787075D01*
X226978654Y-73625450D02*
X226412969Y-73059765D01*
X226412969Y-73059765D02*
X226439906Y-73194452D01*
X226439906Y-73194452D02*
X226439906Y-73302202D01*
X226439906Y-73302202D02*
X226412969Y-73383014D01*
X224931412Y-77125197D02*
X224850599Y-77152134D01*
X224850599Y-77152134D02*
X224769787Y-77232947D01*
X224769787Y-77232947D02*
X224715912Y-77340696D01*
X224715912Y-77340696D02*
X224715912Y-77448446D01*
X224715912Y-77448446D02*
X224742850Y-77529258D01*
X224742850Y-77529258D02*
X224823662Y-77663945D01*
X224823662Y-77663945D02*
X224904474Y-77744757D01*
X224904474Y-77744757D02*
X225039161Y-77825570D01*
X225039161Y-77825570D02*
X225119974Y-77852507D01*
X225119974Y-77852507D02*
X225227723Y-77852507D01*
X225227723Y-77852507D02*
X225335473Y-77798632D01*
X225335473Y-77798632D02*
X225389348Y-77744757D01*
X225389348Y-77744757D02*
X225443222Y-77637008D01*
X225443222Y-77637008D02*
X225443222Y-77583133D01*
X225443222Y-77583133D02*
X225254661Y-77394571D01*
X225254661Y-77394571D02*
X225146911Y-77502321D01*
X225739534Y-77394571D02*
X225173848Y-76828886D01*
X225173848Y-76828886D02*
X225389348Y-76613386D01*
X225389348Y-76613386D02*
X225470160Y-76586449D01*
X225470160Y-76586449D02*
X225524035Y-76586449D01*
X225524035Y-76586449D02*
X225604847Y-76613386D01*
X225604847Y-76613386D02*
X225685659Y-76694199D01*
X225685659Y-76694199D02*
X225712596Y-76775011D01*
X225712596Y-76775011D02*
X225712596Y-76828886D01*
X225712596Y-76828886D02*
X225685659Y-76909698D01*
X225685659Y-76909698D02*
X225470160Y-77125197D01*
X225766471Y-76344012D02*
X225766471Y-76290138D01*
X225766471Y-76290138D02*
X225793409Y-76209325D01*
X225793409Y-76209325D02*
X225928096Y-76074638D01*
X225928096Y-76074638D02*
X226008908Y-76047701D01*
X226008908Y-76047701D02*
X226062783Y-76047701D01*
X226062783Y-76047701D02*
X226143595Y-76074638D01*
X226143595Y-76074638D02*
X226197470Y-76128513D01*
X226197470Y-76128513D02*
X226251344Y-76236263D01*
X226251344Y-76236263D02*
X226251344Y-76882760D01*
X226251344Y-76882760D02*
X226601531Y-76532574D01*
X226386032Y-75616702D02*
X226439906Y-75562828D01*
X226439906Y-75562828D02*
X226520719Y-75535890D01*
X226520719Y-75535890D02*
X226574593Y-75535890D01*
X226574593Y-75535890D02*
X226655406Y-75562828D01*
X226655406Y-75562828D02*
X226790093Y-75643640D01*
X226790093Y-75643640D02*
X226924780Y-75778327D01*
X226924780Y-75778327D02*
X227005592Y-75913014D01*
X227005592Y-75913014D02*
X227032529Y-75993826D01*
X227032529Y-75993826D02*
X227032529Y-76047701D01*
X227032529Y-76047701D02*
X227005592Y-76128513D01*
X227005592Y-76128513D02*
X226951717Y-76182388D01*
X226951717Y-76182388D02*
X226870905Y-76209325D01*
X226870905Y-76209325D02*
X226817030Y-76209325D01*
X226817030Y-76209325D02*
X226736218Y-76182388D01*
X226736218Y-76182388D02*
X226601531Y-76101576D01*
X226601531Y-76101576D02*
X226466844Y-75966889D01*
X226466844Y-75966889D02*
X226386032Y-75832202D01*
X226386032Y-75832202D02*
X226359094Y-75751389D01*
X226359094Y-75751389D02*
X226359094Y-75697515D01*
X226359094Y-75697515D02*
X226386032Y-75616702D01*
X224931412Y-79665197D02*
X224850599Y-79692134D01*
X224850599Y-79692134D02*
X224769787Y-79772947D01*
X224769787Y-79772947D02*
X224715912Y-79880696D01*
X224715912Y-79880696D02*
X224715912Y-79988446D01*
X224715912Y-79988446D02*
X224742850Y-80069258D01*
X224742850Y-80069258D02*
X224823662Y-80203945D01*
X224823662Y-80203945D02*
X224904474Y-80284757D01*
X224904474Y-80284757D02*
X225039161Y-80365570D01*
X225039161Y-80365570D02*
X225119974Y-80392507D01*
X225119974Y-80392507D02*
X225227723Y-80392507D01*
X225227723Y-80392507D02*
X225335473Y-80338632D01*
X225335473Y-80338632D02*
X225389348Y-80284757D01*
X225389348Y-80284757D02*
X225443222Y-80177008D01*
X225443222Y-80177008D02*
X225443222Y-80123133D01*
X225443222Y-80123133D02*
X225254661Y-79934571D01*
X225254661Y-79934571D02*
X225146911Y-80042321D01*
X225739534Y-79934571D02*
X225173848Y-79368886D01*
X225173848Y-79368886D02*
X225389348Y-79153386D01*
X225389348Y-79153386D02*
X225470160Y-79126449D01*
X225470160Y-79126449D02*
X225524035Y-79126449D01*
X225524035Y-79126449D02*
X225604847Y-79153386D01*
X225604847Y-79153386D02*
X225685659Y-79234199D01*
X225685659Y-79234199D02*
X225712596Y-79315011D01*
X225712596Y-79315011D02*
X225712596Y-79368886D01*
X225712596Y-79368886D02*
X225685659Y-79449698D01*
X225685659Y-79449698D02*
X225470160Y-79665197D01*
X226601531Y-79072574D02*
X226278282Y-79395823D01*
X226439906Y-79234199D02*
X225874221Y-78668513D01*
X225874221Y-78668513D02*
X225901158Y-78803200D01*
X225901158Y-78803200D02*
X225901158Y-78910950D01*
X225901158Y-78910950D02*
X225874221Y-78991762D01*
X226870905Y-78803200D02*
X226978654Y-78695450D01*
X226978654Y-78695450D02*
X227005592Y-78614638D01*
X227005592Y-78614638D02*
X227005592Y-78560763D01*
X227005592Y-78560763D02*
X226978654Y-78426076D01*
X226978654Y-78426076D02*
X226897842Y-78291389D01*
X226897842Y-78291389D02*
X226682343Y-78075890D01*
X226682343Y-78075890D02*
X226601531Y-78048953D01*
X226601531Y-78048953D02*
X226547656Y-78048953D01*
X226547656Y-78048953D02*
X226466844Y-78075890D01*
X226466844Y-78075890D02*
X226359094Y-78183640D01*
X226359094Y-78183640D02*
X226332157Y-78264452D01*
X226332157Y-78264452D02*
X226332157Y-78318327D01*
X226332157Y-78318327D02*
X226359094Y-78399139D01*
X226359094Y-78399139D02*
X226493781Y-78533826D01*
X226493781Y-78533826D02*
X226574593Y-78560763D01*
X226574593Y-78560763D02*
X226628468Y-78560763D01*
X226628468Y-78560763D02*
X226709280Y-78533826D01*
X226709280Y-78533826D02*
X226817030Y-78426076D01*
X226817030Y-78426076D02*
X226843967Y-78345264D01*
X226843967Y-78345264D02*
X226843967Y-78291389D01*
X226843967Y-78291389D02*
X226817030Y-78210577D01*
X224931412Y-82205197D02*
X224850599Y-82232134D01*
X224850599Y-82232134D02*
X224769787Y-82312947D01*
X224769787Y-82312947D02*
X224715912Y-82420696D01*
X224715912Y-82420696D02*
X224715912Y-82528446D01*
X224715912Y-82528446D02*
X224742850Y-82609258D01*
X224742850Y-82609258D02*
X224823662Y-82743945D01*
X224823662Y-82743945D02*
X224904474Y-82824757D01*
X224904474Y-82824757D02*
X225039161Y-82905570D01*
X225039161Y-82905570D02*
X225119974Y-82932507D01*
X225119974Y-82932507D02*
X225227723Y-82932507D01*
X225227723Y-82932507D02*
X225335473Y-82878632D01*
X225335473Y-82878632D02*
X225389348Y-82824757D01*
X225389348Y-82824757D02*
X225443222Y-82717008D01*
X225443222Y-82717008D02*
X225443222Y-82663133D01*
X225443222Y-82663133D02*
X225254661Y-82474571D01*
X225254661Y-82474571D02*
X225146911Y-82582321D01*
X225739534Y-82474571D02*
X225173848Y-81908886D01*
X225173848Y-81908886D02*
X225389348Y-81693386D01*
X225389348Y-81693386D02*
X225470160Y-81666449D01*
X225470160Y-81666449D02*
X225524035Y-81666449D01*
X225524035Y-81666449D02*
X225604847Y-81693386D01*
X225604847Y-81693386D02*
X225685659Y-81774199D01*
X225685659Y-81774199D02*
X225712596Y-81855011D01*
X225712596Y-81855011D02*
X225712596Y-81908886D01*
X225712596Y-81908886D02*
X225685659Y-81989698D01*
X225685659Y-81989698D02*
X225470160Y-82205197D01*
X226601531Y-81612574D02*
X226278282Y-81935823D01*
X226439906Y-81774199D02*
X225874221Y-81208513D01*
X225874221Y-81208513D02*
X225901158Y-81343200D01*
X225901158Y-81343200D02*
X225901158Y-81450950D01*
X225901158Y-81450950D02*
X225874221Y-81531762D01*
X226601531Y-80966076D02*
X226520719Y-80993014D01*
X226520719Y-80993014D02*
X226466844Y-80993014D01*
X226466844Y-80993014D02*
X226386032Y-80966076D01*
X226386032Y-80966076D02*
X226359094Y-80939139D01*
X226359094Y-80939139D02*
X226332157Y-80858327D01*
X226332157Y-80858327D02*
X226332157Y-80804452D01*
X226332157Y-80804452D02*
X226359094Y-80723640D01*
X226359094Y-80723640D02*
X226466844Y-80615890D01*
X226466844Y-80615890D02*
X226547656Y-80588953D01*
X226547656Y-80588953D02*
X226601531Y-80588953D01*
X226601531Y-80588953D02*
X226682343Y-80615890D01*
X226682343Y-80615890D02*
X226709280Y-80642828D01*
X226709280Y-80642828D02*
X226736218Y-80723640D01*
X226736218Y-80723640D02*
X226736218Y-80777515D01*
X226736218Y-80777515D02*
X226709280Y-80858327D01*
X226709280Y-80858327D02*
X226601531Y-80966076D01*
X226601531Y-80966076D02*
X226574593Y-81046889D01*
X226574593Y-81046889D02*
X226574593Y-81100763D01*
X226574593Y-81100763D02*
X226601531Y-81181576D01*
X226601531Y-81181576D02*
X226709280Y-81289325D01*
X226709280Y-81289325D02*
X226790093Y-81316263D01*
X226790093Y-81316263D02*
X226843967Y-81316263D01*
X226843967Y-81316263D02*
X226924780Y-81289325D01*
X226924780Y-81289325D02*
X227032529Y-81181576D01*
X227032529Y-81181576D02*
X227059467Y-81100763D01*
X227059467Y-81100763D02*
X227059467Y-81046889D01*
X227059467Y-81046889D02*
X227032529Y-80966076D01*
X227032529Y-80966076D02*
X226924780Y-80858327D01*
X226924780Y-80858327D02*
X226843967Y-80831389D01*
X226843967Y-80831389D02*
X226790093Y-80831389D01*
X226790093Y-80831389D02*
X226709280Y-80858327D01*
X224931412Y-87285197D02*
X224850599Y-87312134D01*
X224850599Y-87312134D02*
X224769787Y-87392947D01*
X224769787Y-87392947D02*
X224715912Y-87500696D01*
X224715912Y-87500696D02*
X224715912Y-87608446D01*
X224715912Y-87608446D02*
X224742850Y-87689258D01*
X224742850Y-87689258D02*
X224823662Y-87823945D01*
X224823662Y-87823945D02*
X224904474Y-87904757D01*
X224904474Y-87904757D02*
X225039161Y-87985570D01*
X225039161Y-87985570D02*
X225119974Y-88012507D01*
X225119974Y-88012507D02*
X225227723Y-88012507D01*
X225227723Y-88012507D02*
X225335473Y-87958632D01*
X225335473Y-87958632D02*
X225389348Y-87904757D01*
X225389348Y-87904757D02*
X225443222Y-87797008D01*
X225443222Y-87797008D02*
X225443222Y-87743133D01*
X225443222Y-87743133D02*
X225254661Y-87554571D01*
X225254661Y-87554571D02*
X225146911Y-87662321D01*
X225739534Y-87554571D02*
X225173848Y-86988886D01*
X225173848Y-86988886D02*
X225389348Y-86773386D01*
X225389348Y-86773386D02*
X225470160Y-86746449D01*
X225470160Y-86746449D02*
X225524035Y-86746449D01*
X225524035Y-86746449D02*
X225604847Y-86773386D01*
X225604847Y-86773386D02*
X225685659Y-86854199D01*
X225685659Y-86854199D02*
X225712596Y-86935011D01*
X225712596Y-86935011D02*
X225712596Y-86988886D01*
X225712596Y-86988886D02*
X225685659Y-87069698D01*
X225685659Y-87069698D02*
X225470160Y-87285197D01*
X226601531Y-86692574D02*
X226278282Y-87015823D01*
X226439906Y-86854199D02*
X225874221Y-86288513D01*
X225874221Y-86288513D02*
X225901158Y-86423200D01*
X225901158Y-86423200D02*
X225901158Y-86530950D01*
X225901158Y-86530950D02*
X225874221Y-86611762D01*
X226224407Y-85938327D02*
X226601531Y-85561203D01*
X226601531Y-85561203D02*
X226924780Y-86369325D01*
X224931412Y-89825197D02*
X224850599Y-89852134D01*
X224850599Y-89852134D02*
X224769787Y-89932947D01*
X224769787Y-89932947D02*
X224715912Y-90040696D01*
X224715912Y-90040696D02*
X224715912Y-90148446D01*
X224715912Y-90148446D02*
X224742850Y-90229258D01*
X224742850Y-90229258D02*
X224823662Y-90363945D01*
X224823662Y-90363945D02*
X224904474Y-90444757D01*
X224904474Y-90444757D02*
X225039161Y-90525570D01*
X225039161Y-90525570D02*
X225119974Y-90552507D01*
X225119974Y-90552507D02*
X225227723Y-90552507D01*
X225227723Y-90552507D02*
X225335473Y-90498632D01*
X225335473Y-90498632D02*
X225389348Y-90444757D01*
X225389348Y-90444757D02*
X225443222Y-90337008D01*
X225443222Y-90337008D02*
X225443222Y-90283133D01*
X225443222Y-90283133D02*
X225254661Y-90094571D01*
X225254661Y-90094571D02*
X225146911Y-90202321D01*
X225739534Y-90094571D02*
X225173848Y-89528886D01*
X225173848Y-89528886D02*
X225389348Y-89313386D01*
X225389348Y-89313386D02*
X225470160Y-89286449D01*
X225470160Y-89286449D02*
X225524035Y-89286449D01*
X225524035Y-89286449D02*
X225604847Y-89313386D01*
X225604847Y-89313386D02*
X225685659Y-89394199D01*
X225685659Y-89394199D02*
X225712596Y-89475011D01*
X225712596Y-89475011D02*
X225712596Y-89528886D01*
X225712596Y-89528886D02*
X225685659Y-89609698D01*
X225685659Y-89609698D02*
X225470160Y-89825197D01*
X226601531Y-89232574D02*
X226278282Y-89555823D01*
X226439906Y-89394199D02*
X225874221Y-88828513D01*
X225874221Y-88828513D02*
X225901158Y-88963200D01*
X225901158Y-88963200D02*
X225901158Y-89070950D01*
X225901158Y-89070950D02*
X225874221Y-89151762D01*
X226520719Y-88182015D02*
X226412969Y-88289765D01*
X226412969Y-88289765D02*
X226386032Y-88370577D01*
X226386032Y-88370577D02*
X226386032Y-88424452D01*
X226386032Y-88424452D02*
X226412969Y-88559139D01*
X226412969Y-88559139D02*
X226493781Y-88693826D01*
X226493781Y-88693826D02*
X226709280Y-88909325D01*
X226709280Y-88909325D02*
X226790093Y-88936263D01*
X226790093Y-88936263D02*
X226843967Y-88936263D01*
X226843967Y-88936263D02*
X226924780Y-88909325D01*
X226924780Y-88909325D02*
X227032529Y-88801576D01*
X227032529Y-88801576D02*
X227059467Y-88720763D01*
X227059467Y-88720763D02*
X227059467Y-88666889D01*
X227059467Y-88666889D02*
X227032529Y-88586076D01*
X227032529Y-88586076D02*
X226897842Y-88451389D01*
X226897842Y-88451389D02*
X226817030Y-88424452D01*
X226817030Y-88424452D02*
X226763155Y-88424452D01*
X226763155Y-88424452D02*
X226682343Y-88451389D01*
X226682343Y-88451389D02*
X226574593Y-88559139D01*
X226574593Y-88559139D02*
X226547656Y-88639951D01*
X226547656Y-88639951D02*
X226547656Y-88693826D01*
X226547656Y-88693826D02*
X226574593Y-88774638D01*
X224754163Y-44374571D02*
X225508410Y-44751695D01*
X225508410Y-44751695D02*
X225131287Y-43997447D01*
X225831659Y-44374571D02*
X225939409Y-44320696D01*
X225939409Y-44320696D02*
X226074096Y-44186009D01*
X226074096Y-44186009D02*
X226101033Y-44105197D01*
X226101033Y-44105197D02*
X226101033Y-44051322D01*
X226101033Y-44051322D02*
X226074096Y-43970510D01*
X226074096Y-43970510D02*
X226020221Y-43916635D01*
X226020221Y-43916635D02*
X225939409Y-43889698D01*
X225939409Y-43889698D02*
X225885534Y-43889698D01*
X225885534Y-43889698D02*
X225804722Y-43916635D01*
X225804722Y-43916635D02*
X225670035Y-43997447D01*
X225670035Y-43997447D02*
X225589222Y-44024385D01*
X225589222Y-44024385D02*
X225535348Y-44024385D01*
X225535348Y-44024385D02*
X225454535Y-43997447D01*
X225454535Y-43997447D02*
X225400661Y-43943573D01*
X225400661Y-43943573D02*
X225373723Y-43862760D01*
X225373723Y-43862760D02*
X225373723Y-43808886D01*
X225373723Y-43808886D02*
X225400661Y-43728073D01*
X225400661Y-43728073D02*
X225535348Y-43593386D01*
X225535348Y-43593386D02*
X225643097Y-43539512D01*
X226262658Y-43458699D02*
X226532032Y-43728073D01*
X225777784Y-43350950D02*
X226262658Y-43458699D01*
X226262658Y-43458699D02*
X226154908Y-42973826D01*
X226855280Y-43350950D02*
X226963030Y-43297075D01*
X226963030Y-43297075D02*
X227097717Y-43162388D01*
X227097717Y-43162388D02*
X227124654Y-43081576D01*
X227124654Y-43081576D02*
X227124654Y-43027701D01*
X227124654Y-43027701D02*
X227097717Y-42946889D01*
X227097717Y-42946889D02*
X227043842Y-42893014D01*
X227043842Y-42893014D02*
X226963030Y-42866077D01*
X226963030Y-42866077D02*
X226909155Y-42866077D01*
X226909155Y-42866077D02*
X226828343Y-42893014D01*
X226828343Y-42893014D02*
X226693656Y-42973826D01*
X226693656Y-42973826D02*
X226612844Y-43000764D01*
X226612844Y-43000764D02*
X226558969Y-43000764D01*
X226558969Y-43000764D02*
X226478157Y-42973826D01*
X226478157Y-42973826D02*
X226424282Y-42919951D01*
X226424282Y-42919951D02*
X226397344Y-42839139D01*
X226397344Y-42839139D02*
X226397344Y-42785264D01*
X226397344Y-42785264D02*
X226424282Y-42704452D01*
X226424282Y-42704452D02*
X226558969Y-42569765D01*
X226558969Y-42569765D02*
X226666718Y-42515890D01*
X224786820Y-41831914D02*
X225541067Y-42209038D01*
X225541067Y-42209038D02*
X225163943Y-41454791D01*
X225810441Y-41347041D02*
X225918190Y-41293167D01*
X225918190Y-41293167D02*
X225972065Y-41293167D01*
X225972065Y-41293167D02*
X226052877Y-41320104D01*
X226052877Y-41320104D02*
X226133690Y-41400916D01*
X226133690Y-41400916D02*
X226160627Y-41481728D01*
X226160627Y-41481728D02*
X226160627Y-41535603D01*
X226160627Y-41535603D02*
X226133690Y-41616415D01*
X226133690Y-41616415D02*
X225918190Y-41831915D01*
X225918190Y-41831915D02*
X225352505Y-41266229D01*
X225352505Y-41266229D02*
X225541067Y-41077667D01*
X225541067Y-41077667D02*
X225621879Y-41050730D01*
X225621879Y-41050730D02*
X225675754Y-41050730D01*
X225675754Y-41050730D02*
X225756566Y-41077667D01*
X225756566Y-41077667D02*
X225810441Y-41131542D01*
X225810441Y-41131542D02*
X225837378Y-41212354D01*
X225837378Y-41212354D02*
X225837378Y-41266229D01*
X225837378Y-41266229D02*
X225810441Y-41347041D01*
X225810441Y-41347041D02*
X225621879Y-41535603D01*
X225918190Y-40700544D02*
X226376126Y-41158480D01*
X226376126Y-41158480D02*
X226456938Y-41185417D01*
X226456938Y-41185417D02*
X226510813Y-41185417D01*
X226510813Y-41185417D02*
X226591625Y-41158480D01*
X226591625Y-41158480D02*
X226699375Y-41050730D01*
X226699375Y-41050730D02*
X226726312Y-40969918D01*
X226726312Y-40969918D02*
X226726312Y-40916043D01*
X226726312Y-40916043D02*
X226699375Y-40835231D01*
X226699375Y-40835231D02*
X226241439Y-40377295D01*
X227022624Y-40673606D02*
X227130373Y-40619732D01*
X227130373Y-40619732D02*
X227265060Y-40485045D01*
X227265060Y-40485045D02*
X227291998Y-40404232D01*
X227291998Y-40404232D02*
X227291998Y-40350358D01*
X227291998Y-40350358D02*
X227265060Y-40269545D01*
X227265060Y-40269545D02*
X227211185Y-40215671D01*
X227211185Y-40215671D02*
X227130373Y-40188733D01*
X227130373Y-40188733D02*
X227076498Y-40188733D01*
X227076498Y-40188733D02*
X226995686Y-40215671D01*
X226995686Y-40215671D02*
X226860999Y-40296483D01*
X226860999Y-40296483D02*
X226780187Y-40323420D01*
X226780187Y-40323420D02*
X226726312Y-40323420D01*
X226726312Y-40323420D02*
X226645500Y-40296483D01*
X226645500Y-40296483D02*
X226591625Y-40242608D01*
X226591625Y-40242608D02*
X226564688Y-40161796D01*
X226564688Y-40161796D02*
X226564688Y-40107921D01*
X226564688Y-40107921D02*
X226591625Y-40027109D01*
X226591625Y-40027109D02*
X226726312Y-39892422D01*
X226726312Y-39892422D02*
X226834062Y-39838547D01*
X224755821Y-49262913D02*
X225106007Y-48912727D01*
X225106007Y-48912727D02*
X225132945Y-49316788D01*
X225132945Y-49316788D02*
X225213757Y-49235975D01*
X225213757Y-49235975D02*
X225294569Y-49209038D01*
X225294569Y-49209038D02*
X225348444Y-49209038D01*
X225348444Y-49209038D02*
X225429256Y-49235975D01*
X225429256Y-49235975D02*
X225563943Y-49370662D01*
X225563943Y-49370662D02*
X225590881Y-49451475D01*
X225590881Y-49451475D02*
X225590881Y-49505349D01*
X225590881Y-49505349D02*
X225563943Y-49586162D01*
X225563943Y-49586162D02*
X225402319Y-49747786D01*
X225402319Y-49747786D02*
X225321507Y-49774723D01*
X225321507Y-49774723D02*
X225267632Y-49774723D01*
X225267632Y-48751102D02*
X226021879Y-49128226D01*
X226021879Y-49128226D02*
X225644756Y-48373978D01*
X225779442Y-48239292D02*
X226129629Y-47889105D01*
X226129629Y-47889105D02*
X226156566Y-48293166D01*
X226156566Y-48293166D02*
X226237378Y-48212354D01*
X226237378Y-48212354D02*
X226318190Y-48185417D01*
X226318190Y-48185417D02*
X226372065Y-48185417D01*
X226372065Y-48185417D02*
X226452878Y-48212354D01*
X226452878Y-48212354D02*
X226587565Y-48347041D01*
X226587565Y-48347041D02*
X226614502Y-48427853D01*
X226614502Y-48427853D02*
X226614502Y-48481728D01*
X226614502Y-48481728D02*
X226587565Y-48562540D01*
X226587565Y-48562540D02*
X226425940Y-48724165D01*
X226425940Y-48724165D02*
X226345128Y-48751102D01*
X226345128Y-48751102D02*
X226291253Y-48751102D01*
X226856939Y-48400916D02*
X227287937Y-47969917D01*
X227072438Y-47485044D02*
X227261000Y-47296482D01*
X227638123Y-47511981D02*
X227368749Y-47781355D01*
X227368749Y-47781355D02*
X226803064Y-47215670D01*
X226803064Y-47215670D02*
X227072438Y-46946296D01*
X227880560Y-47269544D02*
X227314875Y-46703859D01*
X227314875Y-46703859D02*
X228203809Y-46946296D01*
X228203809Y-46946296D02*
X227638124Y-46380610D01*
X224988478Y-54838378D02*
X225257852Y-54569004D01*
X225096227Y-55053878D02*
X224719104Y-54299630D01*
X224719104Y-54299630D02*
X225473351Y-54676754D01*
X225661913Y-54488192D02*
X225096227Y-53922507D01*
X225096227Y-53922507D02*
X225230914Y-53787820D01*
X225230914Y-53787820D02*
X225338664Y-53733945D01*
X225338664Y-53733945D02*
X225446413Y-53733945D01*
X225446413Y-53733945D02*
X225527226Y-53760882D01*
X225527226Y-53760882D02*
X225661913Y-53841695D01*
X225661913Y-53841695D02*
X225742725Y-53922507D01*
X225742725Y-53922507D02*
X225823537Y-54057194D01*
X225823537Y-54057194D02*
X225850474Y-54138006D01*
X225850474Y-54138006D02*
X225850474Y-54245756D01*
X225850474Y-54245756D02*
X225796600Y-54353505D01*
X225796600Y-54353505D02*
X225661913Y-54488192D01*
X226496972Y-53545383D02*
X226496972Y-53599258D01*
X226496972Y-53599258D02*
X226443097Y-53707008D01*
X226443097Y-53707008D02*
X226389222Y-53760882D01*
X226389222Y-53760882D02*
X226281473Y-53814757D01*
X226281473Y-53814757D02*
X226173723Y-53814757D01*
X226173723Y-53814757D02*
X226092911Y-53787820D01*
X226092911Y-53787820D02*
X225958224Y-53707008D01*
X225958224Y-53707008D02*
X225877412Y-53626195D01*
X225877412Y-53626195D02*
X225796600Y-53491508D01*
X225796600Y-53491508D02*
X225769662Y-53410696D01*
X225769662Y-53410696D02*
X225769662Y-53302947D01*
X225769662Y-53302947D02*
X225823537Y-53195197D01*
X225823537Y-53195197D02*
X225877412Y-53141322D01*
X225877412Y-53141322D02*
X225985161Y-53087447D01*
X225985161Y-53087447D02*
X226039036Y-53087447D01*
X226712471Y-53545383D02*
X227143470Y-53114385D01*
X226577784Y-52440950D02*
X227332032Y-52818073D01*
X227332032Y-52818073D02*
X226954908Y-52063826D01*
X228032404Y-52117701D02*
X227574468Y-52036889D01*
X227709155Y-52440950D02*
X227143470Y-51875264D01*
X227143470Y-51875264D02*
X227358969Y-51659765D01*
X227358969Y-51659765D02*
X227439781Y-51632828D01*
X227439781Y-51632828D02*
X227493656Y-51632828D01*
X227493656Y-51632828D02*
X227574468Y-51659765D01*
X227574468Y-51659765D02*
X227655280Y-51740577D01*
X227655280Y-51740577D02*
X227682218Y-51821390D01*
X227682218Y-51821390D02*
X227682218Y-51875264D01*
X227682218Y-51875264D02*
X227655280Y-51956077D01*
X227655280Y-51956077D02*
X227439781Y-52171576D01*
X227978529Y-51578953D02*
X228167091Y-51390391D01*
X228544214Y-51605890D02*
X228274840Y-51875264D01*
X228274840Y-51875264D02*
X227709155Y-51309579D01*
X227709155Y-51309579D02*
X227978529Y-51040205D01*
X228678902Y-50878580D02*
X228490340Y-51067142D01*
X228786651Y-51363454D02*
X228220966Y-50797768D01*
X228220966Y-50797768D02*
X228490340Y-50528394D01*
X61944345Y-117748569D02*
X61944345Y-116748569D01*
X61944345Y-117224759D02*
X62515773Y-117224759D01*
X62515773Y-117748569D02*
X62515773Y-116748569D01*
X63420535Y-117081902D02*
X63420535Y-117748569D01*
X63182440Y-116700950D02*
X62944345Y-117415235D01*
X62944345Y-117415235D02*
X63563392Y-117415235D01*
X188203299Y-33191736D02*
X188203299Y-32191736D01*
X188203299Y-32667926D02*
X188774727Y-32667926D01*
X188774727Y-33191736D02*
X188774727Y-32191736D01*
X189774727Y-33191736D02*
X189203299Y-33191736D01*
X189489013Y-33191736D02*
X189489013Y-32191736D01*
X189489013Y-32191736D02*
X189393775Y-32334593D01*
X189393775Y-32334593D02*
X189298537Y-32429831D01*
X189298537Y-32429831D02*
X189203299Y-32477450D01*
X219106845Y-120129819D02*
X219106845Y-119129819D01*
X219106845Y-119606009D02*
X219678273Y-119606009D01*
X219678273Y-120129819D02*
X219678273Y-119129819D01*
X220106845Y-119225057D02*
X220154464Y-119177438D01*
X220154464Y-119177438D02*
X220249702Y-119129819D01*
X220249702Y-119129819D02*
X220487797Y-119129819D01*
X220487797Y-119129819D02*
X220583035Y-119177438D01*
X220583035Y-119177438D02*
X220630654Y-119225057D01*
X220630654Y-119225057D02*
X220678273Y-119320295D01*
X220678273Y-119320295D02*
X220678273Y-119415533D01*
X220678273Y-119415533D02*
X220630654Y-119558390D01*
X220630654Y-119558390D02*
X220059226Y-120129819D01*
X220059226Y-120129819D02*
X220678273Y-120129819D01*
X133094495Y-127201877D02*
X133094495Y-126201877D01*
X133094495Y-126678067D02*
X133665923Y-126678067D01*
X133665923Y-127201877D02*
X133665923Y-126201877D01*
X134046876Y-126201877D02*
X134665923Y-126201877D01*
X134665923Y-126201877D02*
X134332590Y-126582829D01*
X134332590Y-126582829D02*
X134475447Y-126582829D01*
X134475447Y-126582829D02*
X134570685Y-126630448D01*
X134570685Y-126630448D02*
X134618304Y-126678067D01*
X134618304Y-126678067D02*
X134665923Y-126773305D01*
X134665923Y-126773305D02*
X134665923Y-127011400D01*
X134665923Y-127011400D02*
X134618304Y-127106638D01*
X134618304Y-127106638D02*
X134570685Y-127154258D01*
X134570685Y-127154258D02*
X134475447Y-127201877D01*
X134475447Y-127201877D02*
X134189733Y-127201877D01*
X134189733Y-127201877D02*
X134094495Y-127154258D01*
X134094495Y-127154258D02*
X134046876Y-127106638D01*
%TO.C,J1*%
D11*
X210262502Y-97203747D02*
X215822502Y-97203747D01*
X210262502Y-97248747D02*
X210262502Y-113933747D01*
X210262502Y-113933747D02*
X215822502Y-113933747D01*
X218322502Y-96508747D02*
X219322502Y-96508747D01*
X218822502Y-97008747D02*
X218322502Y-96508747D01*
X219322502Y-96508747D02*
X218822502Y-97008747D01*
X226232502Y-97203747D02*
X218622502Y-97203747D01*
X226232502Y-97248747D02*
X226232502Y-113888747D01*
X226232502Y-113933747D02*
X218622502Y-113933747D01*
%TO.C,U1*%
X202333414Y-39804329D02*
X202333414Y-40104329D01*
X202333414Y-39804329D02*
X223333414Y-39804329D01*
X202333414Y-42204329D02*
X202333414Y-42604329D01*
X202333414Y-42471329D02*
X205340414Y-42471329D01*
X202333414Y-44804329D02*
X202333414Y-45204329D01*
X202333414Y-47304329D02*
X202333414Y-47704329D01*
X202333414Y-49904329D02*
X202333414Y-50304329D01*
X202333414Y-52404329D02*
X202333414Y-52804329D01*
X202333414Y-54904329D02*
X202333414Y-55304329D01*
X202333414Y-57504329D02*
X202333414Y-57904329D01*
X202333414Y-60004329D02*
X202333414Y-60404329D01*
X202333414Y-62604329D02*
X202333414Y-63004329D01*
X202333414Y-65104329D02*
X202333414Y-65504329D01*
X202333414Y-67604329D02*
X202333414Y-68004329D01*
X202333414Y-70204329D02*
X202333414Y-70604329D01*
X202333414Y-72704329D02*
X202333414Y-73104329D01*
X202333414Y-75304329D02*
X202333414Y-75704329D01*
X202333414Y-77804329D02*
X202333414Y-78204329D01*
X202333414Y-80404329D02*
X202333414Y-80804329D01*
X202333414Y-82904329D02*
X202333414Y-83304329D01*
X202333414Y-85404329D02*
X202333414Y-85804329D01*
X202333414Y-88004329D02*
X202333414Y-88404329D01*
X205340414Y-42471329D02*
X205340414Y-39804329D01*
X209133414Y-90804329D02*
X202333414Y-90804329D01*
X211333414Y-90804329D02*
X211733414Y-90804329D01*
X213933414Y-90804329D02*
X214333414Y-90804329D01*
X223333414Y-39804329D02*
X223333414Y-40104329D01*
X223333414Y-42204329D02*
X223333414Y-42604329D01*
X223333414Y-44804329D02*
X223333414Y-45204329D01*
X223333414Y-47304329D02*
X223333414Y-47704329D01*
X223333414Y-49904329D02*
X223333414Y-50304329D01*
X223333414Y-52404329D02*
X223333414Y-52804329D01*
X223333414Y-54904329D02*
X223333414Y-55304329D01*
X223333414Y-57504329D02*
X223333414Y-57904329D01*
X223333414Y-60004329D02*
X223333414Y-60404329D01*
X223333414Y-62604329D02*
X223333414Y-63004329D01*
X223333414Y-65104329D02*
X223333414Y-65504329D01*
X223333414Y-67604329D02*
X223333414Y-68004329D01*
X223333414Y-70204329D02*
X223333414Y-70604329D01*
X223333414Y-72704329D02*
X223333414Y-73104329D01*
X223333414Y-75304329D02*
X223333414Y-75704329D01*
X223333414Y-77804329D02*
X223333414Y-78204329D01*
X223333414Y-80404329D02*
X223333414Y-80804329D01*
X223333414Y-82904329D02*
X223333414Y-83304329D01*
X223333414Y-85404329D02*
X223333414Y-85804329D01*
X223333414Y-88004329D02*
X223333414Y-88404329D01*
X223333414Y-90804329D02*
X216533414Y-90804329D01*
%TD*%
M02*
