M48
; DRILL file KiCad 10.0.4 date 2026-09-21T08:03:38
; FORMAT={-:-/ absolute / metric / decimal}
; #@! TF.CreationDate,2026-09-21T08:03:38-07:00
; #@! TF.GenerationSoftware,Kicad,Pcbnew,10.0.4
; #@! TF.FileFunction,Plated,1,2,PTH
FMAT,2
METRIC
; #@! TA.AperFunction,Plated,PTH,ViaDrill
T1C0.300
; #@! TA.AperFunction,Plated,PTH,ComponentDrill
T2C0.800
; #@! TA.AperFunction,Plated,PTH,ComponentDrill
T3C0.890
; #@! TA.AperFunction,Plated,PTH,ComponentDrill
T4C1.020
; #@! TA.AperFunction,Plated,PTH,ComponentDrill
T5C1.524
; #@! TA.AperFunction,Plated,PTH,ComponentDrill
T6C1.570
%
G90
G05
T1
X200.277Y-46.927
X201.388Y-59.527
X206.549Y-47.383
X208.93Y-57.702
X217.662Y-73.577
X224.012Y-72.227
X224.012Y-105.327
T2
X95.457Y-45.535
X95.457Y-53.155
X95.457Y-64.585
X95.457Y-72.205
X95.457Y-83.635
X95.457Y-91.255
X95.457Y-102.685
X95.457Y-110.305
X114.151Y-83.557
X114.151Y-91.177
X114.151Y-102.747
X114.151Y-110.367
X114.507Y-45.535
X114.507Y-53.155
X114.651Y-64.557
X114.651Y-72.177
X134.166Y-106.179
X134.299Y-98.56
X134.453Y-87.362
X134.586Y-79.743
X134.748Y-68.275
X134.881Y-60.656
X135.018Y-48.986
X135.151Y-41.367
X153.737Y-101.879
X154.003Y-94.264
X154.362Y-82.879
X154.628Y-75.264
X155.044Y-63.341
X155.31Y-55.725
X155.702Y-44.625
X155.968Y-37.009
X156.993Y-130.034
X157.392Y-122.424
X173.027Y-107.602
X173.426Y-99.993
X173.837Y-88.452
X174.236Y-80.843
X174.492Y-69.952
X174.891Y-62.342
X175.518Y-50.452
X175.917Y-42.843
X176.475Y-132.53
X177.006Y-124.928
X192.871Y-111.553
X193.402Y-103.952
X193.582Y-92.816
X194.113Y-85.214
X194.488Y-73.208
X195.02Y-65.607
X195.291Y-53.819
X195.822Y-46.218
X195.912Y-136.494
X196.84Y-128.93
X215.156Y-141.32
X216.479Y-133.816
T3
X216.343Y-103.025
X216.343Y-105.057
X216.343Y-107.089
X216.343Y-109.121
X218.123Y-102.009
X218.123Y-104.041
X218.123Y-106.073
X218.123Y-108.105
T4
X203.943Y-41.174
X203.943Y-43.714
X203.943Y-46.254
X203.943Y-48.794
X203.943Y-51.334
X203.943Y-53.874
X203.943Y-56.414
X203.943Y-58.954
X203.943Y-61.494
X203.943Y-64.034
X203.943Y-66.574
X203.943Y-69.114
X203.943Y-71.654
X203.943Y-74.194
X203.943Y-76.734
X203.943Y-79.274
X203.943Y-81.814
X203.943Y-84.354
X203.943Y-86.894
X203.943Y-89.434
X210.293Y-89.204
X212.833Y-89.204
X215.373Y-89.204
X221.723Y-41.174
X221.723Y-43.714
X221.723Y-46.254
X221.723Y-48.794
X221.723Y-51.334
X221.723Y-53.874
X221.723Y-56.414
X221.723Y-58.954
X221.723Y-61.494
X221.723Y-64.034
X221.723Y-66.574
X221.723Y-69.114
X221.723Y-71.654
X221.723Y-74.194
X221.723Y-76.734
X221.723Y-79.274
X221.723Y-81.814
X221.723Y-84.354
X221.723Y-86.894
X221.723Y-89.434
T5
X75.01Y-104.228
X77.391Y-85.178
X79.773Y-66.128
X81.36Y-101.688
X82.154Y-47.078
X83.741Y-82.638
X86.123Y-63.588
X88.504Y-44.538
X101.204Y-47.078
X101.204Y-66.128
X101.204Y-85.178
X101.204Y-104.228
X107.554Y-44.538
X107.554Y-63.588
X107.554Y-82.638
X107.554Y-101.688
X120.889Y-99.596
X121.22Y-80.55
X121.554Y-61.503
X121.886Y-42.483
X127.282Y-97.167
X127.614Y-78.121
X127.947Y-59.075
X128.28Y-40.054
X140.615Y-95.105
X141.282Y-76.068
X141.946Y-57.03
X142.616Y-37.992
X144.004Y-122.801
X147.05Y-92.788
X147.716Y-73.751
X148.381Y-54.713
X149.051Y-35.675
X150.478Y-120.597
X160.086Y-100.487
X160.875Y-81.462
X161.561Y-62.439
X162.559Y-43.414
X163.56Y-125.261
X166.56Y-98.283
X167.35Y-79.258
X168.035Y-60.234
X169.033Y-41.21
X170.072Y-123.17
X179.966Y-104.453
X180.76Y-85.363
X181.55Y-66.313
X182.353Y-47.219
X183.404Y-128.727
X186.477Y-102.362
X187.272Y-83.272
X188.062Y-64.222
X188.865Y-45.128
X190.016Y-126.979
X203.183Y-132.568
X209.878Y-131.169
T6
X217.233Y-97.439
X217.233Y-113.699
M30
