%TF.GenerationSoftware,KiCad,Pcbnew,10.0.4*%
%TF.CreationDate,2026-09-21T08:03:33-07:00*%
%TF.ProjectId,custom-keyboard,63757374-6f6d-42d6-9b65-79626f617264,rev?*%
%TF.SameCoordinates,Original*%
%TF.FileFunction,Soldermask,Bot*%
%TF.FilePolarity,Negative*%
%FSLAX46Y46*%
G04 Gerber Fmt 4.6, Leading zero omitted, Abs format (unit mm)*
G04 Created by KiCad (PCBNEW 10.0.4) date 2026-09-21 08:03:33*
%MOMM*%
%LPD*%
G01*
G04 APERTURE LIST*
G04 Aperture macros list*
%AMRoundRect*
0 Rectangle with rounded corners*
0 $1 Rounding radius*
0 $2 $3 $4 $5 $6 $7 $8 $9 X,Y pos of 4 corners*
0 Add a 4 corners polygon primitive as box body*
4,1,4,$2,$3,$4,$5,$6,$7,$8,$9,$2,$3,0*
0 Add four circle primitives for the rounded corners*
1,1,$1+$1,$2,$3*
1,1,$1+$1,$4,$5*
1,1,$1+$1,$6,$7*
1,1,$1+$1,$8,$9*
0 Add four rect primitives between the rounded corners*
20,1,$1+$1,$2,$3,$4,$5,0*
20,1,$1+$1,$4,$5,$6,$7,0*
20,1,$1+$1,$6,$7,$8,$9,0*
20,1,$1+$1,$8,$9,$2,$3,0*%
G04 Aperture macros list end*
%ADD10C,1.750000*%
%ADD11C,3.987800*%
%ADD12C,2.300000*%
%ADD13C,3.250000*%
%ADD14R,1.500000X1.500000*%
%ADD15C,1.500000*%
%ADD16C,3.200000*%
%ADD17O,1.800000X1.800000*%
%ADD18O,1.500000X1.500000*%
%ADD19O,1.700000X1.700000*%
%ADD20R,1.700000X1.700000*%
%ADD21RoundRect,0.250000X0.550000X-0.550000X0.550000X0.550000X-0.550000X0.550000X-0.550000X-0.550000X0*%
%ADD22C,1.600000*%
%ADD23RoundRect,0.250000X0.510294X-0.587026X0.587026X0.510294X-0.510294X0.587026X-0.587026X-0.510294X0*%
%ADD24RoundRect,0.250000X0.540317X-0.559515X0.559515X0.540317X-0.540317X0.559515X-0.559515X-0.540317X0*%
%ADD25RoundRect,0.250000X0.520461X-0.578031X0.578031X0.520461X-0.520461X0.578031X-0.578031X-0.520461X0*%
%ADD26RoundRect,0.250000X0.530470X-0.568860X0.568860X0.530470X-0.530470X0.568860X-0.568860X-0.530470X0*%
%ADD27RoundRect,0.250000X0.478872X-0.612929X0.612929X0.478872X-0.478872X0.612929X-0.612929X-0.478872X0*%
%ADD28RoundRect,0.250000X0.446138X-0.637151X0.637151X0.446138X-0.446138X0.637151X-0.637151X-0.446138X0*%
G04 APERTURE END LIST*
D10*
%TO.C,SW7*%
X78502644Y-68667560D03*
D11*
X83582644Y-68667560D03*
D10*
X88662644Y-68667560D03*
D12*
X79772644Y-66127560D03*
X86122644Y-63587560D03*
%TD*%
D10*
%TO.C,SW8*%
X99933894Y-68667560D03*
D11*
X105013894Y-68667560D03*
D10*
X110093894Y-68667560D03*
D12*
X101203894Y-66127560D03*
X107553894Y-63587560D03*
%TD*%
D10*
%TO.C,SW20*%
X99933894Y-106767560D03*
D11*
X105013894Y-106767560D03*
D10*
X110093894Y-106767560D03*
D12*
X101203894Y-104227560D03*
X107553894Y-101687560D03*
%TD*%
D13*
%TO.C,J1*%
X220662502Y-99218747D03*
X220662502Y-111918747D03*
D14*
X218122502Y-102008747D03*
D15*
X216342502Y-103024747D03*
X218122502Y-104040747D03*
X216342502Y-105056747D03*
X218122502Y-106072747D03*
X216342502Y-107088747D03*
X218122502Y-108104747D03*
X216342502Y-109120747D03*
D12*
X217232502Y-97438747D03*
X217232502Y-113698747D03*
%TD*%
D16*
%TO.C,H5*%
X72618909Y-41125600D03*
%TD*%
D10*
%TO.C,SW24*%
X178521634Y-106897819D03*
D11*
X183589259Y-107252182D03*
D10*
X188656884Y-107606545D03*
D12*
X179965721Y-104452597D03*
X186477435Y-102361738D03*
%TD*%
D10*
%TO.C,SW3*%
X120572165Y-44999963D03*
D11*
X125651391Y-45088621D03*
D10*
X130730617Y-45177279D03*
D12*
X121886300Y-42482514D03*
X128279662Y-40053724D03*
%TD*%
D10*
%TO.C,SW9*%
X120239925Y-64020882D03*
D11*
X125319151Y-64109540D03*
D10*
X130398377Y-64198198D03*
D12*
X121554060Y-61503433D03*
X127947422Y-59074643D03*
%TD*%
D10*
%TO.C,SW19*%
X73740144Y-106767560D03*
D11*
X78820144Y-106767560D03*
D10*
X83900144Y-106767560D03*
D12*
X75010144Y-104227560D03*
X81360144Y-101687560D03*
%TD*%
D17*
%TO.C,U1*%
X210108414Y-41304329D03*
D18*
X210408414Y-44334329D03*
X215258414Y-44334329D03*
D17*
X215558414Y-41304329D03*
D19*
X203943414Y-41174329D03*
X203943414Y-43714329D03*
D20*
X203943414Y-46254329D03*
D19*
X203943414Y-48794329D03*
X203943414Y-51334329D03*
X203943414Y-53874329D03*
X203943414Y-56414329D03*
D20*
X203943414Y-58954329D03*
D19*
X203943414Y-61494329D03*
X203943414Y-64034329D03*
X203943414Y-66574329D03*
X203943414Y-69114329D03*
D20*
X203943414Y-71654329D03*
D19*
X203943414Y-74194329D03*
X203943414Y-76734329D03*
X203943414Y-79274329D03*
X203943414Y-81814329D03*
D20*
X203943414Y-84354329D03*
D19*
X203943414Y-86894329D03*
X203943414Y-89434329D03*
X221723414Y-89434329D03*
X221723414Y-86894329D03*
D20*
X221723414Y-84354329D03*
D19*
X221723414Y-81814329D03*
X221723414Y-79274329D03*
X221723414Y-76734329D03*
X221723414Y-74194329D03*
D20*
X221723414Y-71654329D03*
D19*
X221723414Y-69114329D03*
X221723414Y-66574329D03*
X221723414Y-64034329D03*
X221723414Y-61494329D03*
D20*
X221723414Y-58954329D03*
D19*
X221723414Y-56414329D03*
X221723414Y-53874329D03*
X221723414Y-51334329D03*
X221723414Y-48794329D03*
D20*
X221723414Y-46254329D03*
D19*
X221723414Y-43714329D03*
X221723414Y-41174329D03*
X210293414Y-89204329D03*
D20*
X212833414Y-89204329D03*
D19*
X215373414Y-89204329D03*
%TD*%
D10*
%TO.C,SW26*%
X162116191Y-127706525D03*
D11*
X167183816Y-128060888D03*
D10*
X172251441Y-128415251D03*
D12*
X163560278Y-125261303D03*
X170071992Y-123170444D03*
%TD*%
D10*
%TO.C,SW14*%
X99933894Y-87717560D03*
D11*
X105013894Y-87717560D03*
D10*
X110093894Y-87717560D03*
D12*
X101203894Y-85177560D03*
X107553894Y-82637560D03*
%TD*%
D10*
%TO.C,SW22*%
X139257614Y-97599344D03*
D11*
X144334519Y-97776633D03*
D10*
X149411424Y-97953922D03*
D12*
X140615485Y-95105213D03*
X147050261Y-92788372D03*
%TD*%
D10*
%TO.C,SW4*%
X141258060Y-40485659D03*
D11*
X146334965Y-40662948D03*
D10*
X151411870Y-40840237D03*
D12*
X142615931Y-37991528D03*
X149050707Y-35674687D03*
%TD*%
D16*
%TO.C,H4*%
X62706250Y-121443750D03*
%TD*%
D10*
%TO.C,SW21*%
X119575000Y-102113684D03*
D11*
X124654226Y-102202342D03*
D10*
X129733452Y-102291000D03*
D12*
X120889135Y-99596235D03*
X127282497Y-97167445D03*
%TD*%
D10*
%TO.C,SW5*%
X161157624Y-45884537D03*
D11*
X166230662Y-46150404D03*
D10*
X171303700Y-46416271D03*
D12*
X162558817Y-43414485D03*
X169033048Y-41210299D03*
%TD*%
D16*
%TO.C,H1*%
X188965204Y-36886917D03*
%TD*%
D10*
%TO.C,SW2*%
X99933894Y-49617560D03*
D11*
X105013894Y-49617560D03*
D10*
X110093894Y-49617560D03*
D12*
X101203894Y-47077560D03*
X107553894Y-44537560D03*
%TD*%
D10*
%TO.C,SW17*%
X159474161Y-83932322D03*
D11*
X164547199Y-84198189D03*
D10*
X169620237Y-84464056D03*
D12*
X160875354Y-81462270D03*
X167349585Y-79258084D03*
%TD*%
D16*
%TO.C,H2*%
X219868750Y-123825000D03*
%TD*%
D10*
%TO.C,SW10*%
X140588601Y-59523973D03*
D11*
X145665506Y-59701262D03*
D10*
X150742411Y-59878551D03*
D12*
X141946472Y-57029842D03*
X148381248Y-54713001D03*
%TD*%
D10*
%TO.C,SW25*%
X142602556Y-125271078D03*
D11*
X147675594Y-125536945D03*
D10*
X152748632Y-125802812D03*
D12*
X144003749Y-122801026D03*
X150477980Y-120596840D03*
%TD*%
D10*
%TO.C,SW11*%
X160159369Y-64908555D03*
D11*
X165232407Y-65174422D03*
D10*
X170305445Y-65440289D03*
D12*
X161560562Y-62438503D03*
X168034793Y-60234317D03*
%TD*%
D10*
%TO.C,SW12*%
X180106386Y-68758533D03*
D11*
X185174011Y-69112896D03*
D10*
X190241636Y-69467259D03*
D12*
X181550473Y-66313311D03*
X188062187Y-64222452D03*
%TD*%
D10*
%TO.C,SW1*%
X80883894Y-49617560D03*
D11*
X85963894Y-49617560D03*
D10*
X91043894Y-49617560D03*
D12*
X82153894Y-47077560D03*
X88503894Y-44537560D03*
%TD*%
D10*
%TO.C,SW23*%
X158684490Y-102957073D03*
D11*
X163757528Y-103222940D03*
D10*
X168830566Y-103488807D03*
D12*
X160085683Y-100487021D03*
X166559914Y-98282835D03*
%TD*%
D10*
%TO.C,SW13*%
X76121394Y-87717560D03*
D11*
X81201394Y-87717560D03*
D10*
X86281394Y-87717560D03*
D12*
X77391394Y-85177560D03*
X83741394Y-82637560D03*
%TD*%
D10*
%TO.C,SW16*%
X139923764Y-78562367D03*
D11*
X145000669Y-78739656D03*
D10*
X150077574Y-78916945D03*
D12*
X141281635Y-76068236D03*
X147716411Y-73751395D03*
%TD*%
D10*
%TO.C,SW18*%
X179316214Y-87808533D03*
D11*
X184383839Y-88162896D03*
D10*
X189451464Y-88517259D03*
D12*
X180760301Y-85363311D03*
X187272015Y-83272452D03*
%TD*%
D10*
%TO.C,SW28*%
X201491599Y-134849117D03*
D11*
X206494422Y-135731250D03*
D10*
X211497245Y-136613383D03*
D12*
X203183371Y-132568239D03*
X209877966Y-131169493D03*
%TD*%
D10*
%TO.C,SW6*%
X180909073Y-49664082D03*
D11*
X185976698Y-50018445D03*
D10*
X191044323Y-50372808D03*
D12*
X182353160Y-47218860D03*
X188864874Y-45128001D03*
%TD*%
D16*
%TO.C,H3*%
X133856400Y-130897058D03*
%TD*%
D10*
%TO.C,SW27*%
X181833948Y-131092987D03*
D11*
X186876082Y-131712083D03*
D10*
X191918216Y-132331179D03*
D12*
X183404029Y-128726694D03*
X190016245Y-126979497D03*
%TD*%
D10*
%TO.C,SW15*%
X119906066Y-83067272D03*
D11*
X124985292Y-83155930D03*
D10*
X130064518Y-83244588D03*
D12*
X121220201Y-80549823D03*
X127613563Y-78121033D03*
%TD*%
D21*
%TO.C,D1*%
X95456911Y-53154641D03*
D22*
X95456911Y-45534641D03*
%TD*%
D23*
%TO.C,D26*%
X176474706Y-132529872D03*
D22*
X177006250Y-124928434D03*
%TD*%
D24*
%TO.C,D9*%
X134747895Y-68274729D03*
D22*
X134880882Y-60655890D03*
%TD*%
D23*
%TO.C,D6*%
X195290925Y-53819162D03*
D22*
X195822469Y-46217724D03*
%TD*%
D21*
%TO.C,D19*%
X95456913Y-110304641D03*
D22*
X95456913Y-102684641D03*
%TD*%
D25*
%TO.C,D5*%
X175518242Y-50452373D03*
D22*
X175917042Y-42842816D03*
%TD*%
D25*
%TO.C,D11*%
X174492074Y-69951688D03*
D22*
X174890874Y-62342131D03*
%TD*%
D23*
%TO.C,D18*%
X193581673Y-92815840D03*
D22*
X194113217Y-85214402D03*
%TD*%
D21*
%TO.C,D2*%
X114506910Y-53154641D03*
D22*
X114506910Y-45534641D03*
%TD*%
D26*
%TO.C,D22*%
X153737079Y-101878879D03*
D22*
X154003013Y-94263521D03*
%TD*%
D25*
%TO.C,D17*%
X173837279Y-88452438D03*
D22*
X174236079Y-80842881D03*
%TD*%
D23*
%TO.C,D12*%
X194488238Y-73208443D03*
D22*
X195019782Y-65607005D03*
%TD*%
D25*
%TO.C,D25*%
X156993024Y-130033633D03*
D22*
X157391824Y-122424076D03*
%TD*%
D26*
%TO.C,D10*%
X155044200Y-63340789D03*
D22*
X155310134Y-55725431D03*
%TD*%
D21*
%TO.C,D14*%
X114150661Y-91177139D03*
D22*
X114150661Y-83557139D03*
%TD*%
D21*
%TO.C,D7*%
X95456911Y-72204641D03*
D22*
X95456911Y-64584641D03*
%TD*%
D21*
%TO.C,D8*%
X114650661Y-72177139D03*
D22*
X114650661Y-64557139D03*
%TD*%
D24*
%TO.C,D3*%
X135017673Y-48985980D03*
D22*
X135150660Y-41367141D03*
%TD*%
D23*
%TO.C,D24*%
X192870660Y-111553246D03*
D22*
X193402204Y-103951808D03*
%TD*%
D24*
%TO.C,D15*%
X134453329Y-87361811D03*
D22*
X134586316Y-79742972D03*
%TD*%
D27*
%TO.C,D27*%
X195911758Y-136493682D03*
D22*
X196840402Y-128930480D03*
%TD*%
D26*
%TO.C,D4*%
X155702407Y-44624714D03*
D22*
X155968341Y-37009356D03*
%TD*%
D28*
%TO.C,D28*%
X215155505Y-141320139D03*
D22*
X216478704Y-133815904D03*
%TD*%
D24*
%TO.C,D21*%
X134166271Y-106178954D03*
D22*
X134299258Y-98560115D03*
%TD*%
D26*
%TO.C,D16*%
X154361914Y-82878879D03*
D22*
X154627848Y-75263521D03*
%TD*%
D21*
%TO.C,D20*%
X114150663Y-110367141D03*
D22*
X114150663Y-102747141D03*
%TD*%
D25*
%TO.C,D23*%
X173026714Y-107602343D03*
D22*
X173425514Y-99992786D03*
%TD*%
D21*
%TO.C,D13*%
X95456913Y-91254641D03*
D22*
X95456913Y-83634641D03*
%TD*%
M02*
