%TF.GenerationSoftware,KiCad,Pcbnew,10.0.4*%
%TF.CreationDate,2026-09-21T08:03:33-07:00*%
%TF.ProjectId,custom-keyboard,63757374-6f6d-42d6-9b65-79626f617264,rev?*%
%TF.SameCoordinates,Original*%
%TF.FileFunction,Profile,NP*%
%FSLAX46Y46*%
G04 Gerber Fmt 4.6, Leading zero omitted, Abs format (unit mm)*
G04 Created by KiCad (PCBNEW 10.0.4) date 2026-09-21 08:03:33*
%MOMM*%
%LPD*%
G01*
G04 APERTURE LIST*
%TA.AperFunction,Profile*%
%ADD10C,0.050000*%
%TD*%
G04 APERTURE END LIST*
D10*
X57821316Y-94860179D02*
G75*
G02*
X58075316Y-94606216I253984J-21D01*
G01*
X57821316Y-126138564D02*
X57821316Y-94860179D01*
X58075316Y-94606179D02*
X63067316Y-94606179D01*
X58123270Y-126438558D02*
G75*
G02*
X57821235Y-126138564I-2070J299958D01*
G01*
X63321316Y-75360179D02*
G75*
G02*
X63575316Y-75106216I253984J-21D01*
G01*
X63321316Y-94352179D02*
G75*
G02*
X63067316Y-94606216I-254016J-21D01*
G01*
X63321316Y-94352179D02*
X63321316Y-75360179D01*
X67567316Y-75106179D02*
X63575316Y-75106179D01*
X67821316Y-74852179D02*
G75*
G02*
X67567316Y-75106216I-254016J-21D01*
G01*
X67821316Y-74852179D02*
X68323732Y-36902208D01*
X68323732Y-36902208D02*
G75*
G02*
X68623706Y-36606205I299968J-3992D01*
G01*
X68623706Y-36606179D02*
X112567316Y-36606179D01*
X112821316Y-33366017D02*
G75*
G02*
X113081087Y-33112082I253984J17D01*
G01*
X112821316Y-36352179D02*
G75*
G02*
X112567316Y-36606216I-254016J-21D01*
G01*
X112821316Y-36352179D02*
X112821316Y-33366017D01*
X113081087Y-33112083D02*
X134586206Y-33600836D01*
X128539983Y-137171313D02*
X129421405Y-126300449D01*
X128825682Y-137495262D02*
G75*
G02*
X128539932Y-137171309I13218J299662D01*
G01*
X129120433Y-125976210D02*
X58123270Y-126438558D01*
X129120433Y-125976210D02*
G75*
G02*
X129421415Y-126300450I1967J-299990D01*
G01*
X134844716Y-33372175D02*
G75*
G02*
X134586205Y-33600901I-252716J25175D01*
G01*
X134844716Y-33372175D02*
X135297939Y-28839951D01*
X135297939Y-28839951D02*
G75*
G02*
X135556199Y-28611229I252861J-25349D01*
G01*
X135556198Y-28611285D02*
X158072836Y-29100777D01*
X153578594Y-138595391D02*
X128825682Y-137495262D01*
X153578594Y-138595391D02*
G75*
G02*
X153821356Y-138849141I-11194J-253709D01*
G01*
X153821316Y-138849141D02*
X153821316Y-139871441D01*
X154055326Y-140124653D02*
G75*
G02*
X153821353Y-139871441I20074J253253D01*
G01*
X158072836Y-29100777D02*
G75*
G02*
X158321381Y-29354717I-5436J-253923D01*
G01*
X158321316Y-29354717D02*
X158341795Y-30544636D01*
X158626770Y-30839099D02*
G75*
G02*
X158341773Y-30544636I14930J299599D01*
G01*
X158626770Y-30839099D02*
X195552299Y-32531343D01*
X172587306Y-141587705D02*
X154055326Y-140124653D01*
X172587306Y-141587705D02*
G75*
G02*
X172821376Y-141840917I-19906J-253195D01*
G01*
X172821316Y-142882664D02*
X172821316Y-141840917D01*
X173043016Y-143134602D02*
G75*
G02*
X172821338Y-142882664I32284J251902D01*
G01*
X195552299Y-32531343D02*
G75*
G02*
X195838013Y-32814348I-13699J-299557D01*
G01*
X195838101Y-32814343D02*
X196117589Y-37831819D01*
X196409435Y-38115036D02*
G75*
G02*
X196117630Y-37831817I7765J299936D01*
G01*
X196409435Y-38115036D02*
X226488337Y-38886290D01*
X214930816Y-148846494D02*
X173043016Y-143134602D01*
X215235575Y-148691319D02*
G75*
G02*
X214930812Y-148846521I-264275J142119D01*
G01*
X222810349Y-130114157D02*
X215235575Y-148691319D01*
X222827157Y-130057540D02*
G75*
G02*
X222810342Y-130114154I-294757J56740D01*
G01*
X222827157Y-130057540D02*
X227012500Y-115887500D01*
X226488337Y-38886290D02*
G75*
G02*
X226780606Y-39184784I-7737J-299910D01*
G01*
X226821316Y-47854995D02*
X226780643Y-39184784D01*
X226821316Y-47854995D02*
X226821316Y-74854297D01*
X226821319Y-74855692D02*
G75*
G02*
X226821316Y-74854297I485481J1692D01*
G01*
X226821319Y-74855692D02*
X227012119Y-115887500D01*
M02*
