%TF.GenerationSoftware,KiCad,Pcbnew,10.0.4*%
%TF.CreationDate,2026-07-21T16:04:12-07:00*%
%TF.ProjectId,custom-keyboard,63757374-6f6d-42d6-9b65-79626f617264,rev?*%
%TF.SameCoordinates,Original*%
%TF.FileFunction,Legend,Top*%
%TF.FilePolarity,Positive*%
%FSLAX46Y46*%
G04 Gerber Fmt 4.6, Leading zero omitted, Abs format (unit mm)*
G04 Created by KiCad (PCBNEW 10.0.4) date 2026-07-21 16:04:12*
%MOMM*%
%LPD*%
G01*
G04 APERTURE LIST*
%ADD10C,0.150000*%
%ADD11C,0.120000*%
G04 APERTURE END LIST*
D10*
X218313095Y-93142319D02*
X218313095Y-92142319D01*
X218313095Y-92618509D02*
X218884523Y-92618509D01*
X218884523Y-93142319D02*
X218884523Y-92142319D01*
X219884523Y-93142319D02*
X219313095Y-93142319D01*
X219598809Y-93142319D02*
X219598809Y-92142319D01*
X219598809Y-92142319D02*
X219503571Y-92285176D01*
X219503571Y-92285176D02*
X219408333Y-92380414D01*
X219408333Y-92380414D02*
X219313095Y-92428033D01*
X131000595Y-126479819D02*
X131000595Y-125479819D01*
X131000595Y-125956009D02*
X131572023Y-125956009D01*
X131572023Y-126479819D02*
X131572023Y-125479819D01*
X131952976Y-125479819D02*
X132572023Y-125479819D01*
X132572023Y-125479819D02*
X132238690Y-125860771D01*
X132238690Y-125860771D02*
X132381547Y-125860771D01*
X132381547Y-125860771D02*
X132476785Y-125908390D01*
X132476785Y-125908390D02*
X132524404Y-125956009D01*
X132524404Y-125956009D02*
X132572023Y-126051247D01*
X132572023Y-126051247D02*
X132572023Y-126289342D01*
X132572023Y-126289342D02*
X132524404Y-126384580D01*
X132524404Y-126384580D02*
X132476785Y-126432200D01*
X132476785Y-126432200D02*
X132381547Y-126479819D01*
X132381547Y-126479819D02*
X132095833Y-126479819D01*
X132095833Y-126479819D02*
X132000595Y-126432200D01*
X132000595Y-126432200D02*
X131952976Y-126384580D01*
X220694345Y-128067319D02*
X220694345Y-127067319D01*
X220694345Y-127543509D02*
X221265773Y-127543509D01*
X221265773Y-128067319D02*
X221265773Y-127067319D01*
X221694345Y-127162557D02*
X221741964Y-127114938D01*
X221741964Y-127114938D02*
X221837202Y-127067319D01*
X221837202Y-127067319D02*
X222075297Y-127067319D01*
X222075297Y-127067319D02*
X222170535Y-127114938D01*
X222170535Y-127114938D02*
X222218154Y-127162557D01*
X222218154Y-127162557D02*
X222265773Y-127257795D01*
X222265773Y-127257795D02*
X222265773Y-127353033D01*
X222265773Y-127353033D02*
X222218154Y-127495890D01*
X222218154Y-127495890D02*
X221646726Y-128067319D01*
X221646726Y-128067319D02*
X222265773Y-128067319D01*
X188150595Y-32817319D02*
X188150595Y-31817319D01*
X188150595Y-32293509D02*
X188722023Y-32293509D01*
X188722023Y-32817319D02*
X188722023Y-31817319D01*
X189626785Y-31817319D02*
X189436309Y-31817319D01*
X189436309Y-31817319D02*
X189341071Y-31864938D01*
X189341071Y-31864938D02*
X189293452Y-31912557D01*
X189293452Y-31912557D02*
X189198214Y-32055414D01*
X189198214Y-32055414D02*
X189150595Y-32245890D01*
X189150595Y-32245890D02*
X189150595Y-32626842D01*
X189150595Y-32626842D02*
X189198214Y-32722080D01*
X189198214Y-32722080D02*
X189245833Y-32769700D01*
X189245833Y-32769700D02*
X189341071Y-32817319D01*
X189341071Y-32817319D02*
X189531547Y-32817319D01*
X189531547Y-32817319D02*
X189626785Y-32769700D01*
X189626785Y-32769700D02*
X189674404Y-32722080D01*
X189674404Y-32722080D02*
X189722023Y-32626842D01*
X189722023Y-32626842D02*
X189722023Y-32388747D01*
X189722023Y-32388747D02*
X189674404Y-32293509D01*
X189674404Y-32293509D02*
X189626785Y-32245890D01*
X189626785Y-32245890D02*
X189531547Y-32198271D01*
X189531547Y-32198271D02*
X189341071Y-32198271D01*
X189341071Y-32198271D02*
X189245833Y-32245890D01*
X189245833Y-32245890D02*
X189198214Y-32293509D01*
X189198214Y-32293509D02*
X189150595Y-32388747D01*
X63214462Y-116478613D02*
X63214462Y-115478613D01*
X63214462Y-115954803D02*
X63785890Y-115954803D01*
X63785890Y-116478613D02*
X63785890Y-115478613D01*
X64690652Y-115811946D02*
X64690652Y-116478613D01*
X64452557Y-115430994D02*
X64214462Y-116145279D01*
X64214462Y-116145279D02*
X64833509Y-116145279D01*
X71972068Y-37222608D02*
X71972068Y-36222608D01*
X71972068Y-36698798D02*
X72543496Y-36698798D01*
X72543496Y-37222608D02*
X72543496Y-36222608D01*
X73495877Y-36222608D02*
X73019687Y-36222608D01*
X73019687Y-36222608D02*
X72972068Y-36698798D01*
X72972068Y-36698798D02*
X73019687Y-36651179D01*
X73019687Y-36651179D02*
X73114925Y-36603560D01*
X73114925Y-36603560D02*
X73353020Y-36603560D01*
X73353020Y-36603560D02*
X73448258Y-36651179D01*
X73448258Y-36651179D02*
X73495877Y-36698798D01*
X73495877Y-36698798D02*
X73543496Y-36794036D01*
X73543496Y-36794036D02*
X73543496Y-37032131D01*
X73543496Y-37032131D02*
X73495877Y-37127369D01*
X73495877Y-37127369D02*
X73448258Y-37174989D01*
X73448258Y-37174989D02*
X73353020Y-37222608D01*
X73353020Y-37222608D02*
X73114925Y-37222608D01*
X73114925Y-37222608D02*
X73019687Y-37174989D01*
X73019687Y-37174989D02*
X72972068Y-37127369D01*
X211978485Y-64141354D02*
X211978485Y-64950877D01*
X211978485Y-64950877D02*
X212026104Y-65046115D01*
X212026104Y-65046115D02*
X212073723Y-65093735D01*
X212073723Y-65093735D02*
X212168961Y-65141354D01*
X212168961Y-65141354D02*
X212359437Y-65141354D01*
X212359437Y-65141354D02*
X212454675Y-65093735D01*
X212454675Y-65093735D02*
X212502294Y-65046115D01*
X212502294Y-65046115D02*
X212549913Y-64950877D01*
X212549913Y-64950877D02*
X212549913Y-64141354D01*
X212978485Y-64236592D02*
X213026104Y-64188973D01*
X213026104Y-64188973D02*
X213121342Y-64141354D01*
X213121342Y-64141354D02*
X213359437Y-64141354D01*
X213359437Y-64141354D02*
X213454675Y-64188973D01*
X213454675Y-64188973D02*
X213502294Y-64236592D01*
X213502294Y-64236592D02*
X213549913Y-64331830D01*
X213549913Y-64331830D02*
X213549913Y-64427068D01*
X213549913Y-64427068D02*
X213502294Y-64569925D01*
X213502294Y-64569925D02*
X212930866Y-65141354D01*
X212930866Y-65141354D02*
X213549913Y-65141354D01*
X198584388Y-76507403D02*
X198503575Y-76534340D01*
X198503575Y-76534340D02*
X198422763Y-76615153D01*
X198422763Y-76615153D02*
X198368888Y-76722902D01*
X198368888Y-76722902D02*
X198368888Y-76830652D01*
X198368888Y-76830652D02*
X198395826Y-76911464D01*
X198395826Y-76911464D02*
X198476638Y-77046151D01*
X198476638Y-77046151D02*
X198557450Y-77126963D01*
X198557450Y-77126963D02*
X198692137Y-77207776D01*
X198692137Y-77207776D02*
X198772950Y-77234713D01*
X198772950Y-77234713D02*
X198880699Y-77234713D01*
X198880699Y-77234713D02*
X198988449Y-77180838D01*
X198988449Y-77180838D02*
X199042324Y-77126963D01*
X199042324Y-77126963D02*
X199096198Y-77019214D01*
X199096198Y-77019214D02*
X199096198Y-76965339D01*
X199096198Y-76965339D02*
X198907637Y-76776777D01*
X198907637Y-76776777D02*
X198799887Y-76884527D01*
X199392510Y-76776777D02*
X198826824Y-76211092D01*
X198826824Y-76211092D02*
X199042324Y-75995592D01*
X199042324Y-75995592D02*
X199123136Y-75968655D01*
X199123136Y-75968655D02*
X199177011Y-75968655D01*
X199177011Y-75968655D02*
X199257823Y-75995592D01*
X199257823Y-75995592D02*
X199338635Y-76076405D01*
X199338635Y-76076405D02*
X199365572Y-76157217D01*
X199365572Y-76157217D02*
X199365572Y-76211092D01*
X199365572Y-76211092D02*
X199338635Y-76291904D01*
X199338635Y-76291904D02*
X199123136Y-76507403D01*
X200254507Y-75914780D02*
X199931258Y-76238029D01*
X200092882Y-76076405D02*
X199527197Y-75510719D01*
X199527197Y-75510719D02*
X199554134Y-75645406D01*
X199554134Y-75645406D02*
X199554134Y-75753156D01*
X199554134Y-75753156D02*
X199527197Y-75833968D01*
X200793255Y-75376032D02*
X200470006Y-75699281D01*
X200631630Y-75537656D02*
X200065945Y-74971971D01*
X200065945Y-74971971D02*
X200092882Y-75106658D01*
X200092882Y-75106658D02*
X200092882Y-75214408D01*
X200092882Y-75214408D02*
X200065945Y-75295220D01*
X198584388Y-79047403D02*
X198503575Y-79074340D01*
X198503575Y-79074340D02*
X198422763Y-79155153D01*
X198422763Y-79155153D02*
X198368888Y-79262902D01*
X198368888Y-79262902D02*
X198368888Y-79370652D01*
X198368888Y-79370652D02*
X198395826Y-79451464D01*
X198395826Y-79451464D02*
X198476638Y-79586151D01*
X198476638Y-79586151D02*
X198557450Y-79666963D01*
X198557450Y-79666963D02*
X198692137Y-79747776D01*
X198692137Y-79747776D02*
X198772950Y-79774713D01*
X198772950Y-79774713D02*
X198880699Y-79774713D01*
X198880699Y-79774713D02*
X198988449Y-79720838D01*
X198988449Y-79720838D02*
X199042324Y-79666963D01*
X199042324Y-79666963D02*
X199096198Y-79559214D01*
X199096198Y-79559214D02*
X199096198Y-79505339D01*
X199096198Y-79505339D02*
X198907637Y-79316777D01*
X198907637Y-79316777D02*
X198799887Y-79424527D01*
X199392510Y-79316777D02*
X198826824Y-78751092D01*
X198826824Y-78751092D02*
X199042324Y-78535592D01*
X199042324Y-78535592D02*
X199123136Y-78508655D01*
X199123136Y-78508655D02*
X199177011Y-78508655D01*
X199177011Y-78508655D02*
X199257823Y-78535592D01*
X199257823Y-78535592D02*
X199338635Y-78616405D01*
X199338635Y-78616405D02*
X199365572Y-78697217D01*
X199365572Y-78697217D02*
X199365572Y-78751092D01*
X199365572Y-78751092D02*
X199338635Y-78831904D01*
X199338635Y-78831904D02*
X199123136Y-79047403D01*
X200254507Y-78454780D02*
X199931258Y-78778029D01*
X200092882Y-78616405D02*
X199527197Y-78050719D01*
X199527197Y-78050719D02*
X199554134Y-78185406D01*
X199554134Y-78185406D02*
X199554134Y-78293156D01*
X199554134Y-78293156D02*
X199527197Y-78373968D01*
X199958195Y-77727470D02*
X199958195Y-77673595D01*
X199958195Y-77673595D02*
X199985133Y-77592783D01*
X199985133Y-77592783D02*
X200119820Y-77458096D01*
X200119820Y-77458096D02*
X200200632Y-77431159D01*
X200200632Y-77431159D02*
X200254507Y-77431159D01*
X200254507Y-77431159D02*
X200335319Y-77458096D01*
X200335319Y-77458096D02*
X200389194Y-77511971D01*
X200389194Y-77511971D02*
X200443069Y-77619721D01*
X200443069Y-77619721D02*
X200443069Y-78266218D01*
X200443069Y-78266218D02*
X200793255Y-77916032D01*
X198684388Y-86667403D02*
X198603575Y-86694340D01*
X198603575Y-86694340D02*
X198522763Y-86775153D01*
X198522763Y-86775153D02*
X198468888Y-86882902D01*
X198468888Y-86882902D02*
X198468888Y-86990652D01*
X198468888Y-86990652D02*
X198495826Y-87071464D01*
X198495826Y-87071464D02*
X198576638Y-87206151D01*
X198576638Y-87206151D02*
X198657450Y-87286963D01*
X198657450Y-87286963D02*
X198792137Y-87367776D01*
X198792137Y-87367776D02*
X198872950Y-87394713D01*
X198872950Y-87394713D02*
X198980699Y-87394713D01*
X198980699Y-87394713D02*
X199088449Y-87340838D01*
X199088449Y-87340838D02*
X199142324Y-87286963D01*
X199142324Y-87286963D02*
X199196198Y-87179214D01*
X199196198Y-87179214D02*
X199196198Y-87125339D01*
X199196198Y-87125339D02*
X199007637Y-86936777D01*
X199007637Y-86936777D02*
X198899887Y-87044527D01*
X199492510Y-86936777D02*
X198926824Y-86371092D01*
X198926824Y-86371092D02*
X199142324Y-86155592D01*
X199142324Y-86155592D02*
X199223136Y-86128655D01*
X199223136Y-86128655D02*
X199277011Y-86128655D01*
X199277011Y-86128655D02*
X199357823Y-86155592D01*
X199357823Y-86155592D02*
X199438635Y-86236405D01*
X199438635Y-86236405D02*
X199465572Y-86317217D01*
X199465572Y-86317217D02*
X199465572Y-86371092D01*
X199465572Y-86371092D02*
X199438635Y-86451904D01*
X199438635Y-86451904D02*
X199223136Y-86667403D01*
X200354507Y-86074780D02*
X200031258Y-86398029D01*
X200192882Y-86236405D02*
X199627197Y-85670719D01*
X199627197Y-85670719D02*
X199654134Y-85805406D01*
X199654134Y-85805406D02*
X199654134Y-85913156D01*
X199654134Y-85913156D02*
X199627197Y-85993968D01*
X200462256Y-85212783D02*
X200839380Y-85589907D01*
X200112070Y-85131971D02*
X200381444Y-85670719D01*
X200381444Y-85670719D02*
X200731630Y-85320533D01*
X198730388Y-73967403D02*
X198649575Y-73994340D01*
X198649575Y-73994340D02*
X198568763Y-74075153D01*
X198568763Y-74075153D02*
X198514888Y-74182902D01*
X198514888Y-74182902D02*
X198514888Y-74290652D01*
X198514888Y-74290652D02*
X198541826Y-74371464D01*
X198541826Y-74371464D02*
X198622638Y-74506151D01*
X198622638Y-74506151D02*
X198703450Y-74586963D01*
X198703450Y-74586963D02*
X198838137Y-74667776D01*
X198838137Y-74667776D02*
X198918950Y-74694713D01*
X198918950Y-74694713D02*
X199026699Y-74694713D01*
X199026699Y-74694713D02*
X199134449Y-74640838D01*
X199134449Y-74640838D02*
X199188324Y-74586963D01*
X199188324Y-74586963D02*
X199242198Y-74479214D01*
X199242198Y-74479214D02*
X199242198Y-74425339D01*
X199242198Y-74425339D02*
X199053637Y-74236777D01*
X199053637Y-74236777D02*
X198945887Y-74344527D01*
X199538510Y-74236777D02*
X198972824Y-73671092D01*
X198972824Y-73671092D02*
X199188324Y-73455592D01*
X199188324Y-73455592D02*
X199269136Y-73428655D01*
X199269136Y-73428655D02*
X199323011Y-73428655D01*
X199323011Y-73428655D02*
X199403823Y-73455592D01*
X199403823Y-73455592D02*
X199484635Y-73536405D01*
X199484635Y-73536405D02*
X199511572Y-73617217D01*
X199511572Y-73617217D02*
X199511572Y-73671092D01*
X199511572Y-73671092D02*
X199484635Y-73751904D01*
X199484635Y-73751904D02*
X199269136Y-73967403D01*
X200400507Y-73374780D02*
X200077258Y-73698029D01*
X200238882Y-73536405D02*
X199673197Y-72970719D01*
X199673197Y-72970719D02*
X199700134Y-73105406D01*
X199700134Y-73105406D02*
X199700134Y-73213156D01*
X199700134Y-73213156D02*
X199673197Y-73293968D01*
X200185008Y-72458908D02*
X200238882Y-72405034D01*
X200238882Y-72405034D02*
X200319695Y-72378096D01*
X200319695Y-72378096D02*
X200373569Y-72378096D01*
X200373569Y-72378096D02*
X200454382Y-72405034D01*
X200454382Y-72405034D02*
X200589069Y-72485846D01*
X200589069Y-72485846D02*
X200723756Y-72620533D01*
X200723756Y-72620533D02*
X200804568Y-72755220D01*
X200804568Y-72755220D02*
X200831505Y-72836032D01*
X200831505Y-72836032D02*
X200831505Y-72889907D01*
X200831505Y-72889907D02*
X200804568Y-72970719D01*
X200804568Y-72970719D02*
X200750693Y-73024594D01*
X200750693Y-73024594D02*
X200669881Y-73051531D01*
X200669881Y-73051531D02*
X200616006Y-73051531D01*
X200616006Y-73051531D02*
X200535194Y-73024594D01*
X200535194Y-73024594D02*
X200400507Y-72943782D01*
X200400507Y-72943782D02*
X200265820Y-72809095D01*
X200265820Y-72809095D02*
X200185008Y-72674408D01*
X200185008Y-72674408D02*
X200158070Y-72593595D01*
X200158070Y-72593595D02*
X200158070Y-72539721D01*
X200158070Y-72539721D02*
X200185008Y-72458908D01*
X198730388Y-81587403D02*
X198649575Y-81614340D01*
X198649575Y-81614340D02*
X198568763Y-81695153D01*
X198568763Y-81695153D02*
X198514888Y-81802902D01*
X198514888Y-81802902D02*
X198514888Y-81910652D01*
X198514888Y-81910652D02*
X198541826Y-81991464D01*
X198541826Y-81991464D02*
X198622638Y-82126151D01*
X198622638Y-82126151D02*
X198703450Y-82206963D01*
X198703450Y-82206963D02*
X198838137Y-82287776D01*
X198838137Y-82287776D02*
X198918950Y-82314713D01*
X198918950Y-82314713D02*
X199026699Y-82314713D01*
X199026699Y-82314713D02*
X199134449Y-82260838D01*
X199134449Y-82260838D02*
X199188324Y-82206963D01*
X199188324Y-82206963D02*
X199242198Y-82099214D01*
X199242198Y-82099214D02*
X199242198Y-82045339D01*
X199242198Y-82045339D02*
X199053637Y-81856777D01*
X199053637Y-81856777D02*
X198945887Y-81964527D01*
X199538510Y-81856777D02*
X198972824Y-81291092D01*
X198972824Y-81291092D02*
X199188324Y-81075592D01*
X199188324Y-81075592D02*
X199269136Y-81048655D01*
X199269136Y-81048655D02*
X199323011Y-81048655D01*
X199323011Y-81048655D02*
X199403823Y-81075592D01*
X199403823Y-81075592D02*
X199484635Y-81156405D01*
X199484635Y-81156405D02*
X199511572Y-81237217D01*
X199511572Y-81237217D02*
X199511572Y-81291092D01*
X199511572Y-81291092D02*
X199484635Y-81371904D01*
X199484635Y-81371904D02*
X199269136Y-81587403D01*
X200400507Y-80994780D02*
X200077258Y-81318029D01*
X200238882Y-81156405D02*
X199673197Y-80590719D01*
X199673197Y-80590719D02*
X199700134Y-80725406D01*
X199700134Y-80725406D02*
X199700134Y-80833156D01*
X199700134Y-80833156D02*
X199673197Y-80913968D01*
X200023383Y-80240533D02*
X200373569Y-79890347D01*
X200373569Y-79890347D02*
X200400507Y-80294408D01*
X200400507Y-80294408D02*
X200481319Y-80213595D01*
X200481319Y-80213595D02*
X200562131Y-80186658D01*
X200562131Y-80186658D02*
X200616006Y-80186658D01*
X200616006Y-80186658D02*
X200696818Y-80213595D01*
X200696818Y-80213595D02*
X200831505Y-80348282D01*
X200831505Y-80348282D02*
X200858443Y-80429095D01*
X200858443Y-80429095D02*
X200858443Y-80482969D01*
X200858443Y-80482969D02*
X200831505Y-80563782D01*
X200831505Y-80563782D02*
X200669881Y-80725406D01*
X200669881Y-80725406D02*
X200589069Y-80752343D01*
X200589069Y-80752343D02*
X200535194Y-80752343D01*
X198730388Y-89207403D02*
X198649575Y-89234340D01*
X198649575Y-89234340D02*
X198568763Y-89315153D01*
X198568763Y-89315153D02*
X198514888Y-89422902D01*
X198514888Y-89422902D02*
X198514888Y-89530652D01*
X198514888Y-89530652D02*
X198541826Y-89611464D01*
X198541826Y-89611464D02*
X198622638Y-89746151D01*
X198622638Y-89746151D02*
X198703450Y-89826963D01*
X198703450Y-89826963D02*
X198838137Y-89907776D01*
X198838137Y-89907776D02*
X198918950Y-89934713D01*
X198918950Y-89934713D02*
X199026699Y-89934713D01*
X199026699Y-89934713D02*
X199134449Y-89880838D01*
X199134449Y-89880838D02*
X199188324Y-89826963D01*
X199188324Y-89826963D02*
X199242198Y-89719214D01*
X199242198Y-89719214D02*
X199242198Y-89665339D01*
X199242198Y-89665339D02*
X199053637Y-89476777D01*
X199053637Y-89476777D02*
X198945887Y-89584527D01*
X199538510Y-89476777D02*
X198972824Y-88911092D01*
X198972824Y-88911092D02*
X199188324Y-88695592D01*
X199188324Y-88695592D02*
X199269136Y-88668655D01*
X199269136Y-88668655D02*
X199323011Y-88668655D01*
X199323011Y-88668655D02*
X199403823Y-88695592D01*
X199403823Y-88695592D02*
X199484635Y-88776405D01*
X199484635Y-88776405D02*
X199511572Y-88857217D01*
X199511572Y-88857217D02*
X199511572Y-88911092D01*
X199511572Y-88911092D02*
X199484635Y-88991904D01*
X199484635Y-88991904D02*
X199269136Y-89207403D01*
X200400507Y-88614780D02*
X200077258Y-88938029D01*
X200238882Y-88776405D02*
X199673197Y-88210719D01*
X199673197Y-88210719D02*
X199700134Y-88345406D01*
X199700134Y-88345406D02*
X199700134Y-88453156D01*
X199700134Y-88453156D02*
X199673197Y-88533968D01*
X200346632Y-87537284D02*
X200077258Y-87806658D01*
X200077258Y-87806658D02*
X200319695Y-88102969D01*
X200319695Y-88102969D02*
X200319695Y-88049095D01*
X200319695Y-88049095D02*
X200346632Y-87968282D01*
X200346632Y-87968282D02*
X200481319Y-87833595D01*
X200481319Y-87833595D02*
X200562131Y-87806658D01*
X200562131Y-87806658D02*
X200616006Y-87806658D01*
X200616006Y-87806658D02*
X200696818Y-87833595D01*
X200696818Y-87833595D02*
X200831505Y-87968282D01*
X200831505Y-87968282D02*
X200858443Y-88049095D01*
X200858443Y-88049095D02*
X200858443Y-88102969D01*
X200858443Y-88102969D02*
X200831505Y-88183782D01*
X200831505Y-88183782D02*
X200696818Y-88318469D01*
X200696818Y-88318469D02*
X200616006Y-88345406D01*
X200616006Y-88345406D02*
X200562131Y-88345406D01*
X199153762Y-43208029D02*
X199072950Y-43234966D01*
X199072950Y-43234966D02*
X198992138Y-43315778D01*
X198992138Y-43315778D02*
X198938263Y-43423528D01*
X198938263Y-43423528D02*
X198938263Y-43531277D01*
X198938263Y-43531277D02*
X198965200Y-43612090D01*
X198965200Y-43612090D02*
X199046013Y-43746777D01*
X199046013Y-43746777D02*
X199126825Y-43827589D01*
X199126825Y-43827589D02*
X199261512Y-43908401D01*
X199261512Y-43908401D02*
X199342324Y-43935338D01*
X199342324Y-43935338D02*
X199450074Y-43935338D01*
X199450074Y-43935338D02*
X199557823Y-43881464D01*
X199557823Y-43881464D02*
X199611698Y-43827589D01*
X199611698Y-43827589D02*
X199665573Y-43719839D01*
X199665573Y-43719839D02*
X199665573Y-43665964D01*
X199665573Y-43665964D02*
X199477011Y-43477403D01*
X199477011Y-43477403D02*
X199369261Y-43585152D01*
X199961884Y-43477403D02*
X199396199Y-42911717D01*
X199396199Y-42911717D02*
X199611698Y-42696218D01*
X199611698Y-42696218D02*
X199692510Y-42669281D01*
X199692510Y-42669281D02*
X199746385Y-42669281D01*
X199746385Y-42669281D02*
X199827197Y-42696218D01*
X199827197Y-42696218D02*
X199908009Y-42777030D01*
X199908009Y-42777030D02*
X199934947Y-42857842D01*
X199934947Y-42857842D02*
X199934947Y-42911717D01*
X199934947Y-42911717D02*
X199908009Y-42992529D01*
X199908009Y-42992529D02*
X199692510Y-43208029D01*
X200823881Y-42615406D02*
X200500632Y-42938655D01*
X200662257Y-42777030D02*
X200096571Y-42211345D01*
X200096571Y-42211345D02*
X200123509Y-42346032D01*
X200123509Y-42346032D02*
X200123509Y-42453781D01*
X200123509Y-42453781D02*
X200096571Y-42534594D01*
X199153762Y-48298029D02*
X199072950Y-48324966D01*
X199072950Y-48324966D02*
X198992138Y-48405778D01*
X198992138Y-48405778D02*
X198938263Y-48513528D01*
X198938263Y-48513528D02*
X198938263Y-48621277D01*
X198938263Y-48621277D02*
X198965200Y-48702090D01*
X198965200Y-48702090D02*
X199046013Y-48836777D01*
X199046013Y-48836777D02*
X199126825Y-48917589D01*
X199126825Y-48917589D02*
X199261512Y-48998401D01*
X199261512Y-48998401D02*
X199342324Y-49025338D01*
X199342324Y-49025338D02*
X199450074Y-49025338D01*
X199450074Y-49025338D02*
X199557823Y-48971464D01*
X199557823Y-48971464D02*
X199611698Y-48917589D01*
X199611698Y-48917589D02*
X199665573Y-48809839D01*
X199665573Y-48809839D02*
X199665573Y-48755964D01*
X199665573Y-48755964D02*
X199477011Y-48567403D01*
X199477011Y-48567403D02*
X199369261Y-48675152D01*
X199961884Y-48567403D02*
X199396199Y-48001717D01*
X199396199Y-48001717D02*
X199611698Y-47786218D01*
X199611698Y-47786218D02*
X199692510Y-47759281D01*
X199692510Y-47759281D02*
X199746385Y-47759281D01*
X199746385Y-47759281D02*
X199827197Y-47786218D01*
X199827197Y-47786218D02*
X199908009Y-47867030D01*
X199908009Y-47867030D02*
X199934947Y-47947842D01*
X199934947Y-47947842D02*
X199934947Y-48001717D01*
X199934947Y-48001717D02*
X199908009Y-48082529D01*
X199908009Y-48082529D02*
X199692510Y-48298029D01*
X199988822Y-47516844D02*
X199988822Y-47462969D01*
X199988822Y-47462969D02*
X200015759Y-47382157D01*
X200015759Y-47382157D02*
X200150446Y-47247470D01*
X200150446Y-47247470D02*
X200231258Y-47220533D01*
X200231258Y-47220533D02*
X200285133Y-47220533D01*
X200285133Y-47220533D02*
X200365945Y-47247470D01*
X200365945Y-47247470D02*
X200419820Y-47301345D01*
X200419820Y-47301345D02*
X200473695Y-47409094D01*
X200473695Y-47409094D02*
X200473695Y-48055592D01*
X200473695Y-48055592D02*
X200823881Y-47705406D01*
X199253762Y-40678029D02*
X199172950Y-40704966D01*
X199172950Y-40704966D02*
X199092138Y-40785778D01*
X199092138Y-40785778D02*
X199038263Y-40893528D01*
X199038263Y-40893528D02*
X199038263Y-41001277D01*
X199038263Y-41001277D02*
X199065200Y-41082090D01*
X199065200Y-41082090D02*
X199146013Y-41216777D01*
X199146013Y-41216777D02*
X199226825Y-41297589D01*
X199226825Y-41297589D02*
X199361512Y-41378401D01*
X199361512Y-41378401D02*
X199442324Y-41405338D01*
X199442324Y-41405338D02*
X199550074Y-41405338D01*
X199550074Y-41405338D02*
X199657823Y-41351464D01*
X199657823Y-41351464D02*
X199711698Y-41297589D01*
X199711698Y-41297589D02*
X199765573Y-41189839D01*
X199765573Y-41189839D02*
X199765573Y-41135964D01*
X199765573Y-41135964D02*
X199577011Y-40947403D01*
X199577011Y-40947403D02*
X199469261Y-41055152D01*
X200061884Y-40947403D02*
X199496199Y-40381717D01*
X199496199Y-40381717D02*
X199711698Y-40166218D01*
X199711698Y-40166218D02*
X199792510Y-40139281D01*
X199792510Y-40139281D02*
X199846385Y-40139281D01*
X199846385Y-40139281D02*
X199927197Y-40166218D01*
X199927197Y-40166218D02*
X200008009Y-40247030D01*
X200008009Y-40247030D02*
X200034947Y-40327842D01*
X200034947Y-40327842D02*
X200034947Y-40381717D01*
X200034947Y-40381717D02*
X200008009Y-40462529D01*
X200008009Y-40462529D02*
X199792510Y-40678029D01*
X200169634Y-39708282D02*
X200223509Y-39654407D01*
X200223509Y-39654407D02*
X200304321Y-39627470D01*
X200304321Y-39627470D02*
X200358196Y-39627470D01*
X200358196Y-39627470D02*
X200439008Y-39654407D01*
X200439008Y-39654407D02*
X200573695Y-39735220D01*
X200573695Y-39735220D02*
X200708382Y-39869907D01*
X200708382Y-39869907D02*
X200789194Y-40004594D01*
X200789194Y-40004594D02*
X200816131Y-40085406D01*
X200816131Y-40085406D02*
X200816131Y-40139281D01*
X200816131Y-40139281D02*
X200789194Y-40220093D01*
X200789194Y-40220093D02*
X200735319Y-40273968D01*
X200735319Y-40273968D02*
X200654507Y-40300905D01*
X200654507Y-40300905D02*
X200600632Y-40300905D01*
X200600632Y-40300905D02*
X200519820Y-40273968D01*
X200519820Y-40273968D02*
X200385133Y-40193155D01*
X200385133Y-40193155D02*
X200250446Y-40058468D01*
X200250446Y-40058468D02*
X200169634Y-39923781D01*
X200169634Y-39923781D02*
X200142696Y-39842969D01*
X200142696Y-39842969D02*
X200142696Y-39789094D01*
X200142696Y-39789094D02*
X200169634Y-39708282D01*
X199226825Y-45784966D02*
X199146013Y-45811903D01*
X199146013Y-45811903D02*
X199065201Y-45892715D01*
X199065201Y-45892715D02*
X199011326Y-46000465D01*
X199011326Y-46000465D02*
X199011326Y-46108215D01*
X199011326Y-46108215D02*
X199038263Y-46189027D01*
X199038263Y-46189027D02*
X199119075Y-46323714D01*
X199119075Y-46323714D02*
X199199888Y-46404526D01*
X199199888Y-46404526D02*
X199334575Y-46485338D01*
X199334575Y-46485338D02*
X199415387Y-46512276D01*
X199415387Y-46512276D02*
X199523136Y-46512276D01*
X199523136Y-46512276D02*
X199630886Y-46458401D01*
X199630886Y-46458401D02*
X199684761Y-46404526D01*
X199684761Y-46404526D02*
X199738636Y-46296776D01*
X199738636Y-46296776D02*
X199738636Y-46242902D01*
X199738636Y-46242902D02*
X199550074Y-46054340D01*
X199550074Y-46054340D02*
X199442324Y-46162089D01*
X200034947Y-46054340D02*
X199469262Y-45488654D01*
X199469262Y-45488654D02*
X200358196Y-45731091D01*
X200358196Y-45731091D02*
X199792510Y-45165406D01*
X200627570Y-45461717D02*
X200061884Y-44896032D01*
X200061884Y-44896032D02*
X200196571Y-44761345D01*
X200196571Y-44761345D02*
X200304321Y-44707470D01*
X200304321Y-44707470D02*
X200412070Y-44707470D01*
X200412070Y-44707470D02*
X200492883Y-44734407D01*
X200492883Y-44734407D02*
X200627570Y-44815220D01*
X200627570Y-44815220D02*
X200708382Y-44896032D01*
X200708382Y-44896032D02*
X200789194Y-45030719D01*
X200789194Y-45030719D02*
X200816131Y-45111531D01*
X200816131Y-45111531D02*
X200816131Y-45219281D01*
X200816131Y-45219281D02*
X200762257Y-45327030D01*
X200762257Y-45327030D02*
X200627570Y-45461717D01*
X199253762Y-50838029D02*
X199172950Y-50864966D01*
X199172950Y-50864966D02*
X199092138Y-50945778D01*
X199092138Y-50945778D02*
X199038263Y-51053528D01*
X199038263Y-51053528D02*
X199038263Y-51161277D01*
X199038263Y-51161277D02*
X199065200Y-51242090D01*
X199065200Y-51242090D02*
X199146013Y-51376777D01*
X199146013Y-51376777D02*
X199226825Y-51457589D01*
X199226825Y-51457589D02*
X199361512Y-51538401D01*
X199361512Y-51538401D02*
X199442324Y-51565338D01*
X199442324Y-51565338D02*
X199550074Y-51565338D01*
X199550074Y-51565338D02*
X199657823Y-51511464D01*
X199657823Y-51511464D02*
X199711698Y-51457589D01*
X199711698Y-51457589D02*
X199765573Y-51349839D01*
X199765573Y-51349839D02*
X199765573Y-51295964D01*
X199765573Y-51295964D02*
X199577011Y-51107403D01*
X199577011Y-51107403D02*
X199469261Y-51215152D01*
X200061884Y-51107403D02*
X199496199Y-50541717D01*
X199496199Y-50541717D02*
X199711698Y-50326218D01*
X199711698Y-50326218D02*
X199792510Y-50299281D01*
X199792510Y-50299281D02*
X199846385Y-50299281D01*
X199846385Y-50299281D02*
X199927197Y-50326218D01*
X199927197Y-50326218D02*
X200008009Y-50407030D01*
X200008009Y-50407030D02*
X200034947Y-50487842D01*
X200034947Y-50487842D02*
X200034947Y-50541717D01*
X200034947Y-50541717D02*
X200008009Y-50622529D01*
X200008009Y-50622529D02*
X199792510Y-50838029D01*
X200008009Y-50029907D02*
X200358196Y-49679720D01*
X200358196Y-49679720D02*
X200385133Y-50083781D01*
X200385133Y-50083781D02*
X200465945Y-50002969D01*
X200465945Y-50002969D02*
X200546757Y-49976032D01*
X200546757Y-49976032D02*
X200600632Y-49976032D01*
X200600632Y-49976032D02*
X200681444Y-50002969D01*
X200681444Y-50002969D02*
X200816131Y-50137656D01*
X200816131Y-50137656D02*
X200843069Y-50218468D01*
X200843069Y-50218468D02*
X200843069Y-50272343D01*
X200843069Y-50272343D02*
X200816131Y-50353155D01*
X200816131Y-50353155D02*
X200654507Y-50514780D01*
X200654507Y-50514780D02*
X200573695Y-50541717D01*
X200573695Y-50541717D02*
X200519820Y-50541717D01*
X199253762Y-53378029D02*
X199172950Y-53404966D01*
X199172950Y-53404966D02*
X199092138Y-53485778D01*
X199092138Y-53485778D02*
X199038263Y-53593528D01*
X199038263Y-53593528D02*
X199038263Y-53701277D01*
X199038263Y-53701277D02*
X199065200Y-53782090D01*
X199065200Y-53782090D02*
X199146013Y-53916777D01*
X199146013Y-53916777D02*
X199226825Y-53997589D01*
X199226825Y-53997589D02*
X199361512Y-54078401D01*
X199361512Y-54078401D02*
X199442324Y-54105338D01*
X199442324Y-54105338D02*
X199550074Y-54105338D01*
X199550074Y-54105338D02*
X199657823Y-54051464D01*
X199657823Y-54051464D02*
X199711698Y-53997589D01*
X199711698Y-53997589D02*
X199765573Y-53889839D01*
X199765573Y-53889839D02*
X199765573Y-53835964D01*
X199765573Y-53835964D02*
X199577011Y-53647403D01*
X199577011Y-53647403D02*
X199469261Y-53755152D01*
X200061884Y-53647403D02*
X199496199Y-53081717D01*
X199496199Y-53081717D02*
X199711698Y-52866218D01*
X199711698Y-52866218D02*
X199792510Y-52839281D01*
X199792510Y-52839281D02*
X199846385Y-52839281D01*
X199846385Y-52839281D02*
X199927197Y-52866218D01*
X199927197Y-52866218D02*
X200008009Y-52947030D01*
X200008009Y-52947030D02*
X200034947Y-53027842D01*
X200034947Y-53027842D02*
X200034947Y-53081717D01*
X200034947Y-53081717D02*
X200008009Y-53162529D01*
X200008009Y-53162529D02*
X199792510Y-53378029D01*
X200492883Y-52462157D02*
X200870006Y-52839281D01*
X200142696Y-52381345D02*
X200412070Y-52920093D01*
X200412070Y-52920093D02*
X200762257Y-52569907D01*
X199253762Y-55918029D02*
X199172950Y-55944966D01*
X199172950Y-55944966D02*
X199092138Y-56025778D01*
X199092138Y-56025778D02*
X199038263Y-56133528D01*
X199038263Y-56133528D02*
X199038263Y-56241277D01*
X199038263Y-56241277D02*
X199065200Y-56322090D01*
X199065200Y-56322090D02*
X199146013Y-56456777D01*
X199146013Y-56456777D02*
X199226825Y-56537589D01*
X199226825Y-56537589D02*
X199361512Y-56618401D01*
X199361512Y-56618401D02*
X199442324Y-56645338D01*
X199442324Y-56645338D02*
X199550074Y-56645338D01*
X199550074Y-56645338D02*
X199657823Y-56591464D01*
X199657823Y-56591464D02*
X199711698Y-56537589D01*
X199711698Y-56537589D02*
X199765573Y-56429839D01*
X199765573Y-56429839D02*
X199765573Y-56375964D01*
X199765573Y-56375964D02*
X199577011Y-56187403D01*
X199577011Y-56187403D02*
X199469261Y-56295152D01*
X200061884Y-56187403D02*
X199496199Y-55621717D01*
X199496199Y-55621717D02*
X199711698Y-55406218D01*
X199711698Y-55406218D02*
X199792510Y-55379281D01*
X199792510Y-55379281D02*
X199846385Y-55379281D01*
X199846385Y-55379281D02*
X199927197Y-55406218D01*
X199927197Y-55406218D02*
X200008009Y-55487030D01*
X200008009Y-55487030D02*
X200034947Y-55567842D01*
X200034947Y-55567842D02*
X200034947Y-55621717D01*
X200034947Y-55621717D02*
X200008009Y-55702529D01*
X200008009Y-55702529D02*
X199792510Y-55918029D01*
X200331258Y-54786658D02*
X200061884Y-55056032D01*
X200061884Y-55056032D02*
X200304321Y-55352343D01*
X200304321Y-55352343D02*
X200304321Y-55298468D01*
X200304321Y-55298468D02*
X200331258Y-55217656D01*
X200331258Y-55217656D02*
X200465945Y-55082969D01*
X200465945Y-55082969D02*
X200546757Y-55056032D01*
X200546757Y-55056032D02*
X200600632Y-55056032D01*
X200600632Y-55056032D02*
X200681444Y-55082969D01*
X200681444Y-55082969D02*
X200816131Y-55217656D01*
X200816131Y-55217656D02*
X200843069Y-55298468D01*
X200843069Y-55298468D02*
X200843069Y-55352343D01*
X200843069Y-55352343D02*
X200816131Y-55433155D01*
X200816131Y-55433155D02*
X200681444Y-55567842D01*
X200681444Y-55567842D02*
X200600632Y-55594780D01*
X200600632Y-55594780D02*
X200546757Y-55594780D01*
X199226825Y-58484966D02*
X199146013Y-58511903D01*
X199146013Y-58511903D02*
X199065201Y-58592715D01*
X199065201Y-58592715D02*
X199011326Y-58700465D01*
X199011326Y-58700465D02*
X199011326Y-58808215D01*
X199011326Y-58808215D02*
X199038263Y-58889027D01*
X199038263Y-58889027D02*
X199119075Y-59023714D01*
X199119075Y-59023714D02*
X199199888Y-59104526D01*
X199199888Y-59104526D02*
X199334575Y-59185338D01*
X199334575Y-59185338D02*
X199415387Y-59212276D01*
X199415387Y-59212276D02*
X199523136Y-59212276D01*
X199523136Y-59212276D02*
X199630886Y-59158401D01*
X199630886Y-59158401D02*
X199684761Y-59104526D01*
X199684761Y-59104526D02*
X199738636Y-58996776D01*
X199738636Y-58996776D02*
X199738636Y-58942902D01*
X199738636Y-58942902D02*
X199550074Y-58754340D01*
X199550074Y-58754340D02*
X199442324Y-58862089D01*
X200034947Y-58754340D02*
X199469262Y-58188654D01*
X199469262Y-58188654D02*
X200358196Y-58431091D01*
X200358196Y-58431091D02*
X199792510Y-57865406D01*
X200627570Y-58161717D02*
X200061884Y-57596032D01*
X200061884Y-57596032D02*
X200196571Y-57461345D01*
X200196571Y-57461345D02*
X200304321Y-57407470D01*
X200304321Y-57407470D02*
X200412070Y-57407470D01*
X200412070Y-57407470D02*
X200492883Y-57434407D01*
X200492883Y-57434407D02*
X200627570Y-57515220D01*
X200627570Y-57515220D02*
X200708382Y-57596032D01*
X200708382Y-57596032D02*
X200789194Y-57730719D01*
X200789194Y-57730719D02*
X200816131Y-57811531D01*
X200816131Y-57811531D02*
X200816131Y-57919281D01*
X200816131Y-57919281D02*
X200762257Y-58027030D01*
X200762257Y-58027030D02*
X200627570Y-58161717D01*
X199253762Y-60998029D02*
X199172950Y-61024966D01*
X199172950Y-61024966D02*
X199092138Y-61105778D01*
X199092138Y-61105778D02*
X199038263Y-61213528D01*
X199038263Y-61213528D02*
X199038263Y-61321277D01*
X199038263Y-61321277D02*
X199065200Y-61402090D01*
X199065200Y-61402090D02*
X199146013Y-61536777D01*
X199146013Y-61536777D02*
X199226825Y-61617589D01*
X199226825Y-61617589D02*
X199361512Y-61698401D01*
X199361512Y-61698401D02*
X199442324Y-61725338D01*
X199442324Y-61725338D02*
X199550074Y-61725338D01*
X199550074Y-61725338D02*
X199657823Y-61671464D01*
X199657823Y-61671464D02*
X199711698Y-61617589D01*
X199711698Y-61617589D02*
X199765573Y-61509839D01*
X199765573Y-61509839D02*
X199765573Y-61455964D01*
X199765573Y-61455964D02*
X199577011Y-61267403D01*
X199577011Y-61267403D02*
X199469261Y-61375152D01*
X200061884Y-61267403D02*
X199496199Y-60701717D01*
X199496199Y-60701717D02*
X199711698Y-60486218D01*
X199711698Y-60486218D02*
X199792510Y-60459281D01*
X199792510Y-60459281D02*
X199846385Y-60459281D01*
X199846385Y-60459281D02*
X199927197Y-60486218D01*
X199927197Y-60486218D02*
X200008009Y-60567030D01*
X200008009Y-60567030D02*
X200034947Y-60647842D01*
X200034947Y-60647842D02*
X200034947Y-60701717D01*
X200034947Y-60701717D02*
X200008009Y-60782529D01*
X200008009Y-60782529D02*
X199792510Y-60998029D01*
X200304321Y-59893595D02*
X200196571Y-60001345D01*
X200196571Y-60001345D02*
X200169634Y-60082157D01*
X200169634Y-60082157D02*
X200169634Y-60136032D01*
X200169634Y-60136032D02*
X200196571Y-60270719D01*
X200196571Y-60270719D02*
X200277383Y-60405406D01*
X200277383Y-60405406D02*
X200492883Y-60620905D01*
X200492883Y-60620905D02*
X200573695Y-60647842D01*
X200573695Y-60647842D02*
X200627570Y-60647842D01*
X200627570Y-60647842D02*
X200708382Y-60620905D01*
X200708382Y-60620905D02*
X200816131Y-60513155D01*
X200816131Y-60513155D02*
X200843069Y-60432343D01*
X200843069Y-60432343D02*
X200843069Y-60378468D01*
X200843069Y-60378468D02*
X200816131Y-60297656D01*
X200816131Y-60297656D02*
X200681444Y-60162969D01*
X200681444Y-60162969D02*
X200600632Y-60136032D01*
X200600632Y-60136032D02*
X200546757Y-60136032D01*
X200546757Y-60136032D02*
X200465945Y-60162969D01*
X200465945Y-60162969D02*
X200358196Y-60270719D01*
X200358196Y-60270719D02*
X200331258Y-60351531D01*
X200331258Y-60351531D02*
X200331258Y-60405406D01*
X200331258Y-60405406D02*
X200358196Y-60486218D01*
X199253762Y-66078029D02*
X199172950Y-66104966D01*
X199172950Y-66104966D02*
X199092138Y-66185778D01*
X199092138Y-66185778D02*
X199038263Y-66293528D01*
X199038263Y-66293528D02*
X199038263Y-66401277D01*
X199038263Y-66401277D02*
X199065200Y-66482090D01*
X199065200Y-66482090D02*
X199146013Y-66616777D01*
X199146013Y-66616777D02*
X199226825Y-66697589D01*
X199226825Y-66697589D02*
X199361512Y-66778401D01*
X199361512Y-66778401D02*
X199442324Y-66805338D01*
X199442324Y-66805338D02*
X199550074Y-66805338D01*
X199550074Y-66805338D02*
X199657823Y-66751464D01*
X199657823Y-66751464D02*
X199711698Y-66697589D01*
X199711698Y-66697589D02*
X199765573Y-66589839D01*
X199765573Y-66589839D02*
X199765573Y-66535964D01*
X199765573Y-66535964D02*
X199577011Y-66347403D01*
X199577011Y-66347403D02*
X199469261Y-66455152D01*
X200061884Y-66347403D02*
X199496199Y-65781717D01*
X199496199Y-65781717D02*
X199711698Y-65566218D01*
X199711698Y-65566218D02*
X199792510Y-65539281D01*
X199792510Y-65539281D02*
X199846385Y-65539281D01*
X199846385Y-65539281D02*
X199927197Y-65566218D01*
X199927197Y-65566218D02*
X200008009Y-65647030D01*
X200008009Y-65647030D02*
X200034947Y-65727842D01*
X200034947Y-65727842D02*
X200034947Y-65781717D01*
X200034947Y-65781717D02*
X200008009Y-65862529D01*
X200008009Y-65862529D02*
X199792510Y-66078029D01*
X200385133Y-65377656D02*
X200304321Y-65404594D01*
X200304321Y-65404594D02*
X200250446Y-65404594D01*
X200250446Y-65404594D02*
X200169634Y-65377656D01*
X200169634Y-65377656D02*
X200142696Y-65350719D01*
X200142696Y-65350719D02*
X200115759Y-65269907D01*
X200115759Y-65269907D02*
X200115759Y-65216032D01*
X200115759Y-65216032D02*
X200142696Y-65135220D01*
X200142696Y-65135220D02*
X200250446Y-65027470D01*
X200250446Y-65027470D02*
X200331258Y-65000533D01*
X200331258Y-65000533D02*
X200385133Y-65000533D01*
X200385133Y-65000533D02*
X200465945Y-65027470D01*
X200465945Y-65027470D02*
X200492883Y-65054407D01*
X200492883Y-65054407D02*
X200519820Y-65135220D01*
X200519820Y-65135220D02*
X200519820Y-65189094D01*
X200519820Y-65189094D02*
X200492883Y-65269907D01*
X200492883Y-65269907D02*
X200385133Y-65377656D01*
X200385133Y-65377656D02*
X200358196Y-65458468D01*
X200358196Y-65458468D02*
X200358196Y-65512343D01*
X200358196Y-65512343D02*
X200385133Y-65593155D01*
X200385133Y-65593155D02*
X200492883Y-65700905D01*
X200492883Y-65700905D02*
X200573695Y-65727842D01*
X200573695Y-65727842D02*
X200627570Y-65727842D01*
X200627570Y-65727842D02*
X200708382Y-65700905D01*
X200708382Y-65700905D02*
X200816131Y-65593155D01*
X200816131Y-65593155D02*
X200843069Y-65512343D01*
X200843069Y-65512343D02*
X200843069Y-65458468D01*
X200843069Y-65458468D02*
X200816131Y-65377656D01*
X200816131Y-65377656D02*
X200708382Y-65269907D01*
X200708382Y-65269907D02*
X200627570Y-65242969D01*
X200627570Y-65242969D02*
X200573695Y-65242969D01*
X200573695Y-65242969D02*
X200492883Y-65269907D01*
X199253762Y-68618029D02*
X199172950Y-68644966D01*
X199172950Y-68644966D02*
X199092138Y-68725778D01*
X199092138Y-68725778D02*
X199038263Y-68833528D01*
X199038263Y-68833528D02*
X199038263Y-68941277D01*
X199038263Y-68941277D02*
X199065200Y-69022090D01*
X199065200Y-69022090D02*
X199146013Y-69156777D01*
X199146013Y-69156777D02*
X199226825Y-69237589D01*
X199226825Y-69237589D02*
X199361512Y-69318401D01*
X199361512Y-69318401D02*
X199442324Y-69345338D01*
X199442324Y-69345338D02*
X199550074Y-69345338D01*
X199550074Y-69345338D02*
X199657823Y-69291464D01*
X199657823Y-69291464D02*
X199711698Y-69237589D01*
X199711698Y-69237589D02*
X199765573Y-69129839D01*
X199765573Y-69129839D02*
X199765573Y-69075964D01*
X199765573Y-69075964D02*
X199577011Y-68887403D01*
X199577011Y-68887403D02*
X199469261Y-68995152D01*
X200061884Y-68887403D02*
X199496199Y-68321717D01*
X199496199Y-68321717D02*
X199711698Y-68106218D01*
X199711698Y-68106218D02*
X199792510Y-68079281D01*
X199792510Y-68079281D02*
X199846385Y-68079281D01*
X199846385Y-68079281D02*
X199927197Y-68106218D01*
X199927197Y-68106218D02*
X200008009Y-68187030D01*
X200008009Y-68187030D02*
X200034947Y-68267842D01*
X200034947Y-68267842D02*
X200034947Y-68321717D01*
X200034947Y-68321717D02*
X200008009Y-68402529D01*
X200008009Y-68402529D02*
X199792510Y-68618029D01*
X200654507Y-68294780D02*
X200762257Y-68187030D01*
X200762257Y-68187030D02*
X200789194Y-68106218D01*
X200789194Y-68106218D02*
X200789194Y-68052343D01*
X200789194Y-68052343D02*
X200762257Y-67917656D01*
X200762257Y-67917656D02*
X200681444Y-67782969D01*
X200681444Y-67782969D02*
X200465945Y-67567470D01*
X200465945Y-67567470D02*
X200385133Y-67540533D01*
X200385133Y-67540533D02*
X200331258Y-67540533D01*
X200331258Y-67540533D02*
X200250446Y-67567470D01*
X200250446Y-67567470D02*
X200142696Y-67675220D01*
X200142696Y-67675220D02*
X200115759Y-67756032D01*
X200115759Y-67756032D02*
X200115759Y-67809907D01*
X200115759Y-67809907D02*
X200142696Y-67890719D01*
X200142696Y-67890719D02*
X200277383Y-68025406D01*
X200277383Y-68025406D02*
X200358196Y-68052343D01*
X200358196Y-68052343D02*
X200412070Y-68052343D01*
X200412070Y-68052343D02*
X200492883Y-68025406D01*
X200492883Y-68025406D02*
X200600632Y-67917656D01*
X200600632Y-67917656D02*
X200627570Y-67836844D01*
X200627570Y-67836844D02*
X200627570Y-67782969D01*
X200627570Y-67782969D02*
X200600632Y-67702157D01*
X199226825Y-71184966D02*
X199146013Y-71211903D01*
X199146013Y-71211903D02*
X199065201Y-71292715D01*
X199065201Y-71292715D02*
X199011326Y-71400465D01*
X199011326Y-71400465D02*
X199011326Y-71508215D01*
X199011326Y-71508215D02*
X199038263Y-71589027D01*
X199038263Y-71589027D02*
X199119075Y-71723714D01*
X199119075Y-71723714D02*
X199199888Y-71804526D01*
X199199888Y-71804526D02*
X199334575Y-71885338D01*
X199334575Y-71885338D02*
X199415387Y-71912276D01*
X199415387Y-71912276D02*
X199523136Y-71912276D01*
X199523136Y-71912276D02*
X199630886Y-71858401D01*
X199630886Y-71858401D02*
X199684761Y-71804526D01*
X199684761Y-71804526D02*
X199738636Y-71696776D01*
X199738636Y-71696776D02*
X199738636Y-71642902D01*
X199738636Y-71642902D02*
X199550074Y-71454340D01*
X199550074Y-71454340D02*
X199442324Y-71562089D01*
X200034947Y-71454340D02*
X199469262Y-70888654D01*
X199469262Y-70888654D02*
X200358196Y-71131091D01*
X200358196Y-71131091D02*
X199792510Y-70565406D01*
X200627570Y-70861717D02*
X200061884Y-70296032D01*
X200061884Y-70296032D02*
X200196571Y-70161345D01*
X200196571Y-70161345D02*
X200304321Y-70107470D01*
X200304321Y-70107470D02*
X200412070Y-70107470D01*
X200412070Y-70107470D02*
X200492883Y-70134407D01*
X200492883Y-70134407D02*
X200627570Y-70215220D01*
X200627570Y-70215220D02*
X200708382Y-70296032D01*
X200708382Y-70296032D02*
X200789194Y-70430719D01*
X200789194Y-70430719D02*
X200816131Y-70511531D01*
X200816131Y-70511531D02*
X200816131Y-70619281D01*
X200816131Y-70619281D02*
X200762257Y-70727030D01*
X200762257Y-70727030D02*
X200627570Y-70861717D01*
X199226825Y-83884966D02*
X199146013Y-83911903D01*
X199146013Y-83911903D02*
X199065201Y-83992715D01*
X199065201Y-83992715D02*
X199011326Y-84100465D01*
X199011326Y-84100465D02*
X199011326Y-84208215D01*
X199011326Y-84208215D02*
X199038263Y-84289027D01*
X199038263Y-84289027D02*
X199119075Y-84423714D01*
X199119075Y-84423714D02*
X199199888Y-84504526D01*
X199199888Y-84504526D02*
X199334575Y-84585338D01*
X199334575Y-84585338D02*
X199415387Y-84612276D01*
X199415387Y-84612276D02*
X199523136Y-84612276D01*
X199523136Y-84612276D02*
X199630886Y-84558401D01*
X199630886Y-84558401D02*
X199684761Y-84504526D01*
X199684761Y-84504526D02*
X199738636Y-84396776D01*
X199738636Y-84396776D02*
X199738636Y-84342902D01*
X199738636Y-84342902D02*
X199550074Y-84154340D01*
X199550074Y-84154340D02*
X199442324Y-84262089D01*
X200034947Y-84154340D02*
X199469262Y-83588654D01*
X199469262Y-83588654D02*
X200358196Y-83831091D01*
X200358196Y-83831091D02*
X199792510Y-83265406D01*
X200627570Y-83561717D02*
X200061884Y-82996032D01*
X200061884Y-82996032D02*
X200196571Y-82861345D01*
X200196571Y-82861345D02*
X200304321Y-82807470D01*
X200304321Y-82807470D02*
X200412070Y-82807470D01*
X200412070Y-82807470D02*
X200492883Y-82834407D01*
X200492883Y-82834407D02*
X200627570Y-82915220D01*
X200627570Y-82915220D02*
X200708382Y-82996032D01*
X200708382Y-82996032D02*
X200789194Y-83130719D01*
X200789194Y-83130719D02*
X200816131Y-83211531D01*
X200816131Y-83211531D02*
X200816131Y-83319281D01*
X200816131Y-83319281D02*
X200762257Y-83427030D01*
X200762257Y-83427030D02*
X200627570Y-83561717D01*
X199353762Y-63508029D02*
X199272950Y-63534966D01*
X199272950Y-63534966D02*
X199192138Y-63615778D01*
X199192138Y-63615778D02*
X199138263Y-63723528D01*
X199138263Y-63723528D02*
X199138263Y-63831277D01*
X199138263Y-63831277D02*
X199165200Y-63912090D01*
X199165200Y-63912090D02*
X199246013Y-64046777D01*
X199246013Y-64046777D02*
X199326825Y-64127589D01*
X199326825Y-64127589D02*
X199461512Y-64208401D01*
X199461512Y-64208401D02*
X199542324Y-64235338D01*
X199542324Y-64235338D02*
X199650074Y-64235338D01*
X199650074Y-64235338D02*
X199757823Y-64181464D01*
X199757823Y-64181464D02*
X199811698Y-64127589D01*
X199811698Y-64127589D02*
X199865573Y-64019839D01*
X199865573Y-64019839D02*
X199865573Y-63965964D01*
X199865573Y-63965964D02*
X199677011Y-63777403D01*
X199677011Y-63777403D02*
X199569261Y-63885152D01*
X200161884Y-63777403D02*
X199596199Y-63211717D01*
X199596199Y-63211717D02*
X199811698Y-62996218D01*
X199811698Y-62996218D02*
X199892510Y-62969281D01*
X199892510Y-62969281D02*
X199946385Y-62969281D01*
X199946385Y-62969281D02*
X200027197Y-62996218D01*
X200027197Y-62996218D02*
X200108009Y-63077030D01*
X200108009Y-63077030D02*
X200134947Y-63157842D01*
X200134947Y-63157842D02*
X200134947Y-63211717D01*
X200134947Y-63211717D02*
X200108009Y-63292529D01*
X200108009Y-63292529D02*
X199892510Y-63508029D01*
X200108009Y-62699907D02*
X200485133Y-62322783D01*
X200485133Y-62322783D02*
X200808382Y-63130905D01*
X205230865Y-91210735D02*
X205345151Y-91248830D01*
X205345151Y-91248830D02*
X205535627Y-91248830D01*
X205535627Y-91248830D02*
X205611818Y-91210735D01*
X205611818Y-91210735D02*
X205649913Y-91172639D01*
X205649913Y-91172639D02*
X205688008Y-91096449D01*
X205688008Y-91096449D02*
X205688008Y-91020258D01*
X205688008Y-91020258D02*
X205649913Y-90944068D01*
X205649913Y-90944068D02*
X205611818Y-90905973D01*
X205611818Y-90905973D02*
X205535627Y-90867877D01*
X205535627Y-90867877D02*
X205383246Y-90829782D01*
X205383246Y-90829782D02*
X205307056Y-90791687D01*
X205307056Y-90791687D02*
X205268961Y-90753592D01*
X205268961Y-90753592D02*
X205230865Y-90677401D01*
X205230865Y-90677401D02*
X205230865Y-90601211D01*
X205230865Y-90601211D02*
X205268961Y-90525020D01*
X205268961Y-90525020D02*
X205307056Y-90486925D01*
X205307056Y-90486925D02*
X205383246Y-90448830D01*
X205383246Y-90448830D02*
X205573723Y-90448830D01*
X205573723Y-90448830D02*
X205688008Y-90486925D01*
X205954675Y-90448830D02*
X206145151Y-91248830D01*
X206145151Y-91248830D02*
X206297532Y-90677401D01*
X206297532Y-90677401D02*
X206449913Y-91248830D01*
X206449913Y-91248830D02*
X206640390Y-90448830D01*
X207402295Y-91172639D02*
X207364199Y-91210735D01*
X207364199Y-91210735D02*
X207249914Y-91248830D01*
X207249914Y-91248830D02*
X207173723Y-91248830D01*
X207173723Y-91248830D02*
X207059437Y-91210735D01*
X207059437Y-91210735D02*
X206983247Y-91134544D01*
X206983247Y-91134544D02*
X206945152Y-91058354D01*
X206945152Y-91058354D02*
X206907056Y-90905973D01*
X206907056Y-90905973D02*
X206907056Y-90791687D01*
X206907056Y-90791687D02*
X206945152Y-90639306D01*
X206945152Y-90639306D02*
X206983247Y-90563115D01*
X206983247Y-90563115D02*
X207059437Y-90486925D01*
X207059437Y-90486925D02*
X207173723Y-90448830D01*
X207173723Y-90448830D02*
X207249914Y-90448830D01*
X207249914Y-90448830D02*
X207364199Y-90486925D01*
X207364199Y-90486925D02*
X207402295Y-90525020D01*
X208126104Y-91248830D02*
X207745152Y-91248830D01*
X207745152Y-91248830D02*
X207745152Y-90448830D01*
X208392771Y-91248830D02*
X208392771Y-90448830D01*
X208849914Y-91248830D02*
X208507056Y-90791687D01*
X208849914Y-90448830D02*
X208392771Y-90905973D01*
X216645151Y-91210735D02*
X216759437Y-91248830D01*
X216759437Y-91248830D02*
X216949913Y-91248830D01*
X216949913Y-91248830D02*
X217026104Y-91210735D01*
X217026104Y-91210735D02*
X217064199Y-91172639D01*
X217064199Y-91172639D02*
X217102294Y-91096449D01*
X217102294Y-91096449D02*
X217102294Y-91020258D01*
X217102294Y-91020258D02*
X217064199Y-90944068D01*
X217064199Y-90944068D02*
X217026104Y-90905973D01*
X217026104Y-90905973D02*
X216949913Y-90867877D01*
X216949913Y-90867877D02*
X216797532Y-90829782D01*
X216797532Y-90829782D02*
X216721342Y-90791687D01*
X216721342Y-90791687D02*
X216683247Y-90753592D01*
X216683247Y-90753592D02*
X216645151Y-90677401D01*
X216645151Y-90677401D02*
X216645151Y-90601211D01*
X216645151Y-90601211D02*
X216683247Y-90525020D01*
X216683247Y-90525020D02*
X216721342Y-90486925D01*
X216721342Y-90486925D02*
X216797532Y-90448830D01*
X216797532Y-90448830D02*
X216988009Y-90448830D01*
X216988009Y-90448830D02*
X217102294Y-90486925D01*
X217368961Y-90448830D02*
X217559437Y-91248830D01*
X217559437Y-91248830D02*
X217711818Y-90677401D01*
X217711818Y-90677401D02*
X217864199Y-91248830D01*
X217864199Y-91248830D02*
X218054676Y-90448830D01*
X218359438Y-91248830D02*
X218359438Y-90448830D01*
X218359438Y-90448830D02*
X218549914Y-90448830D01*
X218549914Y-90448830D02*
X218664200Y-90486925D01*
X218664200Y-90486925D02*
X218740390Y-90563115D01*
X218740390Y-90563115D02*
X218778485Y-90639306D01*
X218778485Y-90639306D02*
X218816581Y-90791687D01*
X218816581Y-90791687D02*
X218816581Y-90905973D01*
X218816581Y-90905973D02*
X218778485Y-91058354D01*
X218778485Y-91058354D02*
X218740390Y-91134544D01*
X218740390Y-91134544D02*
X218664200Y-91210735D01*
X218664200Y-91210735D02*
X218549914Y-91248830D01*
X218549914Y-91248830D02*
X218359438Y-91248830D01*
X219159438Y-91248830D02*
X219159438Y-90448830D01*
X219692771Y-90448830D02*
X219845152Y-90448830D01*
X219845152Y-90448830D02*
X219921342Y-90486925D01*
X219921342Y-90486925D02*
X219997533Y-90563115D01*
X219997533Y-90563115D02*
X220035628Y-90715496D01*
X220035628Y-90715496D02*
X220035628Y-90982163D01*
X220035628Y-90982163D02*
X219997533Y-91134544D01*
X219997533Y-91134544D02*
X219921342Y-91210735D01*
X219921342Y-91210735D02*
X219845152Y-91248830D01*
X219845152Y-91248830D02*
X219692771Y-91248830D01*
X219692771Y-91248830D02*
X219616580Y-91210735D01*
X219616580Y-91210735D02*
X219540390Y-91134544D01*
X219540390Y-91134544D02*
X219502294Y-90982163D01*
X219502294Y-90982163D02*
X219502294Y-90715496D01*
X219502294Y-90715496D02*
X219540390Y-90563115D01*
X219540390Y-90563115D02*
X219616580Y-90486925D01*
X219616580Y-90486925D02*
X219692771Y-90448830D01*
X224826825Y-45784966D02*
X224746013Y-45811903D01*
X224746013Y-45811903D02*
X224665201Y-45892715D01*
X224665201Y-45892715D02*
X224611326Y-46000465D01*
X224611326Y-46000465D02*
X224611326Y-46108215D01*
X224611326Y-46108215D02*
X224638263Y-46189027D01*
X224638263Y-46189027D02*
X224719075Y-46323714D01*
X224719075Y-46323714D02*
X224799888Y-46404526D01*
X224799888Y-46404526D02*
X224934575Y-46485338D01*
X224934575Y-46485338D02*
X225015387Y-46512276D01*
X225015387Y-46512276D02*
X225123136Y-46512276D01*
X225123136Y-46512276D02*
X225230886Y-46458401D01*
X225230886Y-46458401D02*
X225284761Y-46404526D01*
X225284761Y-46404526D02*
X225338636Y-46296776D01*
X225338636Y-46296776D02*
X225338636Y-46242902D01*
X225338636Y-46242902D02*
X225150074Y-46054340D01*
X225150074Y-46054340D02*
X225042324Y-46162089D01*
X225634947Y-46054340D02*
X225069262Y-45488654D01*
X225069262Y-45488654D02*
X225958196Y-45731091D01*
X225958196Y-45731091D02*
X225392510Y-45165406D01*
X226227570Y-45461717D02*
X225661884Y-44896032D01*
X225661884Y-44896032D02*
X225796571Y-44761345D01*
X225796571Y-44761345D02*
X225904321Y-44707470D01*
X225904321Y-44707470D02*
X226012070Y-44707470D01*
X226012070Y-44707470D02*
X226092883Y-44734407D01*
X226092883Y-44734407D02*
X226227570Y-44815220D01*
X226227570Y-44815220D02*
X226308382Y-44896032D01*
X226308382Y-44896032D02*
X226389194Y-45030719D01*
X226389194Y-45030719D02*
X226416131Y-45111531D01*
X226416131Y-45111531D02*
X226416131Y-45219281D01*
X226416131Y-45219281D02*
X226362257Y-45327030D01*
X226362257Y-45327030D02*
X226227570Y-45461717D01*
X224826825Y-71184966D02*
X224746013Y-71211903D01*
X224746013Y-71211903D02*
X224665201Y-71292715D01*
X224665201Y-71292715D02*
X224611326Y-71400465D01*
X224611326Y-71400465D02*
X224611326Y-71508215D01*
X224611326Y-71508215D02*
X224638263Y-71589027D01*
X224638263Y-71589027D02*
X224719075Y-71723714D01*
X224719075Y-71723714D02*
X224799888Y-71804526D01*
X224799888Y-71804526D02*
X224934575Y-71885338D01*
X224934575Y-71885338D02*
X225015387Y-71912276D01*
X225015387Y-71912276D02*
X225123136Y-71912276D01*
X225123136Y-71912276D02*
X225230886Y-71858401D01*
X225230886Y-71858401D02*
X225284761Y-71804526D01*
X225284761Y-71804526D02*
X225338636Y-71696776D01*
X225338636Y-71696776D02*
X225338636Y-71642902D01*
X225338636Y-71642902D02*
X225150074Y-71454340D01*
X225150074Y-71454340D02*
X225042324Y-71562089D01*
X225634947Y-71454340D02*
X225069262Y-70888654D01*
X225069262Y-70888654D02*
X225958196Y-71131091D01*
X225958196Y-71131091D02*
X225392510Y-70565406D01*
X226227570Y-70861717D02*
X225661884Y-70296032D01*
X225661884Y-70296032D02*
X225796571Y-70161345D01*
X225796571Y-70161345D02*
X225904321Y-70107470D01*
X225904321Y-70107470D02*
X226012070Y-70107470D01*
X226012070Y-70107470D02*
X226092883Y-70134407D01*
X226092883Y-70134407D02*
X226227570Y-70215220D01*
X226227570Y-70215220D02*
X226308382Y-70296032D01*
X226308382Y-70296032D02*
X226389194Y-70430719D01*
X226389194Y-70430719D02*
X226416131Y-70511531D01*
X226416131Y-70511531D02*
X226416131Y-70619281D01*
X226416131Y-70619281D02*
X226362257Y-70727030D01*
X226362257Y-70727030D02*
X226227570Y-70861717D01*
X224826825Y-83884966D02*
X224746013Y-83911903D01*
X224746013Y-83911903D02*
X224665201Y-83992715D01*
X224665201Y-83992715D02*
X224611326Y-84100465D01*
X224611326Y-84100465D02*
X224611326Y-84208215D01*
X224611326Y-84208215D02*
X224638263Y-84289027D01*
X224638263Y-84289027D02*
X224719075Y-84423714D01*
X224719075Y-84423714D02*
X224799888Y-84504526D01*
X224799888Y-84504526D02*
X224934575Y-84585338D01*
X224934575Y-84585338D02*
X225015387Y-84612276D01*
X225015387Y-84612276D02*
X225123136Y-84612276D01*
X225123136Y-84612276D02*
X225230886Y-84558401D01*
X225230886Y-84558401D02*
X225284761Y-84504526D01*
X225284761Y-84504526D02*
X225338636Y-84396776D01*
X225338636Y-84396776D02*
X225338636Y-84342902D01*
X225338636Y-84342902D02*
X225150074Y-84154340D01*
X225150074Y-84154340D02*
X225042324Y-84262089D01*
X225634947Y-84154340D02*
X225069262Y-83588654D01*
X225069262Y-83588654D02*
X225958196Y-83831091D01*
X225958196Y-83831091D02*
X225392510Y-83265406D01*
X226227570Y-83561717D02*
X225661884Y-82996032D01*
X225661884Y-82996032D02*
X225796571Y-82861345D01*
X225796571Y-82861345D02*
X225904321Y-82807470D01*
X225904321Y-82807470D02*
X226012070Y-82807470D01*
X226012070Y-82807470D02*
X226092883Y-82834407D01*
X226092883Y-82834407D02*
X226227570Y-82915220D01*
X226227570Y-82915220D02*
X226308382Y-82996032D01*
X226308382Y-82996032D02*
X226389194Y-83130719D01*
X226389194Y-83130719D02*
X226416131Y-83211531D01*
X226416131Y-83211531D02*
X226416131Y-83319281D01*
X226416131Y-83319281D02*
X226362257Y-83427030D01*
X226362257Y-83427030D02*
X226227570Y-83561717D01*
X224630513Y-51177403D02*
X224980699Y-50827217D01*
X224980699Y-50827217D02*
X225007637Y-51231278D01*
X225007637Y-51231278D02*
X225088449Y-51150466D01*
X225088449Y-51150466D02*
X225169261Y-51123528D01*
X225169261Y-51123528D02*
X225223136Y-51123528D01*
X225223136Y-51123528D02*
X225303948Y-51150466D01*
X225303948Y-51150466D02*
X225438635Y-51285153D01*
X225438635Y-51285153D02*
X225465572Y-51365965D01*
X225465572Y-51365965D02*
X225465572Y-51419840D01*
X225465572Y-51419840D02*
X225438635Y-51500652D01*
X225438635Y-51500652D02*
X225277011Y-51662276D01*
X225277011Y-51662276D02*
X225196198Y-51689214D01*
X225196198Y-51689214D02*
X225142324Y-51689214D01*
X225142324Y-50665592D02*
X225896571Y-51042716D01*
X225896571Y-51042716D02*
X225519447Y-50288469D01*
X225654134Y-50153782D02*
X226004320Y-49803596D01*
X226004320Y-49803596D02*
X226031258Y-50207657D01*
X226031258Y-50207657D02*
X226112070Y-50126844D01*
X226112070Y-50126844D02*
X226192882Y-50099907D01*
X226192882Y-50099907D02*
X226246757Y-50099907D01*
X226246757Y-50099907D02*
X226327569Y-50126844D01*
X226327569Y-50126844D02*
X226462256Y-50261531D01*
X226462256Y-50261531D02*
X226489194Y-50342344D01*
X226489194Y-50342344D02*
X226489194Y-50396218D01*
X226489194Y-50396218D02*
X226462256Y-50477031D01*
X226462256Y-50477031D02*
X226300632Y-50638655D01*
X226300632Y-50638655D02*
X226219820Y-50665592D01*
X226219820Y-50665592D02*
X226165945Y-50665592D01*
X225579041Y-66630245D02*
X225121106Y-66549433D01*
X225255793Y-66953494D02*
X224690107Y-66387809D01*
X224690107Y-66387809D02*
X224905606Y-66172310D01*
X224905606Y-66172310D02*
X224986419Y-66145372D01*
X224986419Y-66145372D02*
X225040293Y-66145372D01*
X225040293Y-66145372D02*
X225121106Y-66172310D01*
X225121106Y-66172310D02*
X225201918Y-66253122D01*
X225201918Y-66253122D02*
X225228855Y-66333934D01*
X225228855Y-66333934D02*
X225228855Y-66387809D01*
X225228855Y-66387809D02*
X225201918Y-66468621D01*
X225201918Y-66468621D02*
X224986419Y-66684120D01*
X225255793Y-65822123D02*
X225713728Y-66280059D01*
X225713728Y-66280059D02*
X225794541Y-66306997D01*
X225794541Y-66306997D02*
X225848415Y-66306997D01*
X225848415Y-66306997D02*
X225929228Y-66280059D01*
X225929228Y-66280059D02*
X226036977Y-66172310D01*
X226036977Y-66172310D02*
X226063915Y-66091497D01*
X226063915Y-66091497D02*
X226063915Y-66037623D01*
X226063915Y-66037623D02*
X226036977Y-65956810D01*
X226036977Y-65956810D02*
X225579041Y-65498875D01*
X226414101Y-65795186D02*
X225848415Y-65229501D01*
X225848415Y-65229501D02*
X226737349Y-65471937D01*
X226737349Y-65471937D02*
X226171664Y-64906252D01*
X224838388Y-55933403D02*
X224757575Y-55960340D01*
X224757575Y-55960340D02*
X224676763Y-56041153D01*
X224676763Y-56041153D02*
X224622888Y-56148902D01*
X224622888Y-56148902D02*
X224622888Y-56256652D01*
X224622888Y-56256652D02*
X224649826Y-56337464D01*
X224649826Y-56337464D02*
X224730638Y-56472151D01*
X224730638Y-56472151D02*
X224811450Y-56552963D01*
X224811450Y-56552963D02*
X224946137Y-56633776D01*
X224946137Y-56633776D02*
X225026950Y-56660713D01*
X225026950Y-56660713D02*
X225134699Y-56660713D01*
X225134699Y-56660713D02*
X225242449Y-56606838D01*
X225242449Y-56606838D02*
X225296324Y-56552963D01*
X225296324Y-56552963D02*
X225350198Y-56445214D01*
X225350198Y-56445214D02*
X225350198Y-56391339D01*
X225350198Y-56391339D02*
X225161637Y-56202777D01*
X225161637Y-56202777D02*
X225053887Y-56310527D01*
X225646510Y-56202777D02*
X225080824Y-55637092D01*
X225080824Y-55637092D02*
X225296324Y-55421592D01*
X225296324Y-55421592D02*
X225377136Y-55394655D01*
X225377136Y-55394655D02*
X225431011Y-55394655D01*
X225431011Y-55394655D02*
X225511823Y-55421592D01*
X225511823Y-55421592D02*
X225592635Y-55502405D01*
X225592635Y-55502405D02*
X225619572Y-55583217D01*
X225619572Y-55583217D02*
X225619572Y-55637092D01*
X225619572Y-55637092D02*
X225592635Y-55717904D01*
X225592635Y-55717904D02*
X225377136Y-55933403D01*
X225673447Y-55152218D02*
X225673447Y-55098344D01*
X225673447Y-55098344D02*
X225700385Y-55017531D01*
X225700385Y-55017531D02*
X225835072Y-54882844D01*
X225835072Y-54882844D02*
X225915884Y-54855907D01*
X225915884Y-54855907D02*
X225969759Y-54855907D01*
X225969759Y-54855907D02*
X226050571Y-54882844D01*
X226050571Y-54882844D02*
X226104446Y-54936719D01*
X226104446Y-54936719D02*
X226158320Y-55044469D01*
X226158320Y-55044469D02*
X226158320Y-55690966D01*
X226158320Y-55690966D02*
X226508507Y-55340780D01*
X226508507Y-54694282D02*
X226427695Y-54721220D01*
X226427695Y-54721220D02*
X226373820Y-54721220D01*
X226373820Y-54721220D02*
X226293008Y-54694282D01*
X226293008Y-54694282D02*
X226266070Y-54667345D01*
X226266070Y-54667345D02*
X226239133Y-54586533D01*
X226239133Y-54586533D02*
X226239133Y-54532658D01*
X226239133Y-54532658D02*
X226266070Y-54451846D01*
X226266070Y-54451846D02*
X226373820Y-54344096D01*
X226373820Y-54344096D02*
X226454632Y-54317159D01*
X226454632Y-54317159D02*
X226508507Y-54317159D01*
X226508507Y-54317159D02*
X226589319Y-54344096D01*
X226589319Y-54344096D02*
X226616256Y-54371034D01*
X226616256Y-54371034D02*
X226643194Y-54451846D01*
X226643194Y-54451846D02*
X226643194Y-54505721D01*
X226643194Y-54505721D02*
X226616256Y-54586533D01*
X226616256Y-54586533D02*
X226508507Y-54694282D01*
X226508507Y-54694282D02*
X226481569Y-54775095D01*
X226481569Y-54775095D02*
X226481569Y-54828969D01*
X226481569Y-54828969D02*
X226508507Y-54909782D01*
X226508507Y-54909782D02*
X226616256Y-55017531D01*
X226616256Y-55017531D02*
X226697069Y-55044469D01*
X226697069Y-55044469D02*
X226750943Y-55044469D01*
X226750943Y-55044469D02*
X226831756Y-55017531D01*
X226831756Y-55017531D02*
X226939505Y-54909782D01*
X226939505Y-54909782D02*
X226966443Y-54828969D01*
X226966443Y-54828969D02*
X226966443Y-54775095D01*
X226966443Y-54775095D02*
X226939505Y-54694282D01*
X226939505Y-54694282D02*
X226831756Y-54586533D01*
X226831756Y-54586533D02*
X226750943Y-54559595D01*
X226750943Y-54559595D02*
X226697069Y-54559595D01*
X226697069Y-54559595D02*
X226616256Y-54586533D01*
X224892263Y-59427775D02*
X225161637Y-59158401D01*
X225000013Y-59643274D02*
X224622889Y-58889027D01*
X224622889Y-58889027D02*
X225377136Y-59266150D01*
X225323261Y-58242529D02*
X225242449Y-58269467D01*
X225242449Y-58269467D02*
X225161637Y-58350279D01*
X225161637Y-58350279D02*
X225107762Y-58458029D01*
X225107762Y-58458029D02*
X225107762Y-58565778D01*
X225107762Y-58565778D02*
X225134700Y-58646590D01*
X225134700Y-58646590D02*
X225215512Y-58781277D01*
X225215512Y-58781277D02*
X225296324Y-58862090D01*
X225296324Y-58862090D02*
X225431011Y-58942902D01*
X225431011Y-58942902D02*
X225511823Y-58969839D01*
X225511823Y-58969839D02*
X225619573Y-58969839D01*
X225619573Y-58969839D02*
X225727322Y-58915964D01*
X225727322Y-58915964D02*
X225781197Y-58862090D01*
X225781197Y-58862090D02*
X225835072Y-58754340D01*
X225835072Y-58754340D02*
X225835072Y-58700465D01*
X225835072Y-58700465D02*
X225646510Y-58511903D01*
X225646510Y-58511903D02*
X225538761Y-58619653D01*
X226131383Y-58511903D02*
X225565698Y-57946218D01*
X225565698Y-57946218D02*
X226454632Y-58188655D01*
X226454632Y-58188655D02*
X225888947Y-57622969D01*
X226724006Y-57919281D02*
X226158321Y-57353595D01*
X226158321Y-57353595D02*
X226293008Y-57218908D01*
X226293008Y-57218908D02*
X226400757Y-57165033D01*
X226400757Y-57165033D02*
X226508507Y-57165033D01*
X226508507Y-57165033D02*
X226589319Y-57191971D01*
X226589319Y-57191971D02*
X226724006Y-57272783D01*
X226724006Y-57272783D02*
X226804818Y-57353595D01*
X226804818Y-57353595D02*
X226885631Y-57488282D01*
X226885631Y-57488282D02*
X226912568Y-57569095D01*
X226912568Y-57569095D02*
X226912568Y-57676844D01*
X226912568Y-57676844D02*
X226858693Y-57784594D01*
X226858693Y-57784594D02*
X226724006Y-57919281D01*
X224838388Y-61277403D02*
X224757575Y-61304340D01*
X224757575Y-61304340D02*
X224676763Y-61385153D01*
X224676763Y-61385153D02*
X224622888Y-61492902D01*
X224622888Y-61492902D02*
X224622888Y-61600652D01*
X224622888Y-61600652D02*
X224649826Y-61681464D01*
X224649826Y-61681464D02*
X224730638Y-61816151D01*
X224730638Y-61816151D02*
X224811450Y-61896963D01*
X224811450Y-61896963D02*
X224946137Y-61977776D01*
X224946137Y-61977776D02*
X225026950Y-62004713D01*
X225026950Y-62004713D02*
X225134699Y-62004713D01*
X225134699Y-62004713D02*
X225242449Y-61950838D01*
X225242449Y-61950838D02*
X225296324Y-61896963D01*
X225296324Y-61896963D02*
X225350198Y-61789214D01*
X225350198Y-61789214D02*
X225350198Y-61735339D01*
X225350198Y-61735339D02*
X225161637Y-61546777D01*
X225161637Y-61546777D02*
X225053887Y-61654527D01*
X225646510Y-61546777D02*
X225080824Y-60981092D01*
X225080824Y-60981092D02*
X225296324Y-60765592D01*
X225296324Y-60765592D02*
X225377136Y-60738655D01*
X225377136Y-60738655D02*
X225431011Y-60738655D01*
X225431011Y-60738655D02*
X225511823Y-60765592D01*
X225511823Y-60765592D02*
X225592635Y-60846405D01*
X225592635Y-60846405D02*
X225619572Y-60927217D01*
X225619572Y-60927217D02*
X225619572Y-60981092D01*
X225619572Y-60981092D02*
X225592635Y-61061904D01*
X225592635Y-61061904D02*
X225377136Y-61277403D01*
X225673447Y-60496218D02*
X225673447Y-60442344D01*
X225673447Y-60442344D02*
X225700385Y-60361531D01*
X225700385Y-60361531D02*
X225835072Y-60226844D01*
X225835072Y-60226844D02*
X225915884Y-60199907D01*
X225915884Y-60199907D02*
X225969759Y-60199907D01*
X225969759Y-60199907D02*
X226050571Y-60226844D01*
X226050571Y-60226844D02*
X226104446Y-60280719D01*
X226104446Y-60280719D02*
X226158320Y-60388469D01*
X226158320Y-60388469D02*
X226158320Y-61034966D01*
X226158320Y-61034966D02*
X226508507Y-60684780D01*
X226131383Y-59930533D02*
X226508507Y-59553409D01*
X226508507Y-59553409D02*
X226831756Y-60361531D01*
X224838388Y-63807403D02*
X224757575Y-63834340D01*
X224757575Y-63834340D02*
X224676763Y-63915153D01*
X224676763Y-63915153D02*
X224622888Y-64022902D01*
X224622888Y-64022902D02*
X224622888Y-64130652D01*
X224622888Y-64130652D02*
X224649826Y-64211464D01*
X224649826Y-64211464D02*
X224730638Y-64346151D01*
X224730638Y-64346151D02*
X224811450Y-64426963D01*
X224811450Y-64426963D02*
X224946137Y-64507776D01*
X224946137Y-64507776D02*
X225026950Y-64534713D01*
X225026950Y-64534713D02*
X225134699Y-64534713D01*
X225134699Y-64534713D02*
X225242449Y-64480838D01*
X225242449Y-64480838D02*
X225296324Y-64426963D01*
X225296324Y-64426963D02*
X225350198Y-64319214D01*
X225350198Y-64319214D02*
X225350198Y-64265339D01*
X225350198Y-64265339D02*
X225161637Y-64076777D01*
X225161637Y-64076777D02*
X225053887Y-64184527D01*
X225646510Y-64076777D02*
X225080824Y-63511092D01*
X225080824Y-63511092D02*
X225296324Y-63295592D01*
X225296324Y-63295592D02*
X225377136Y-63268655D01*
X225377136Y-63268655D02*
X225431011Y-63268655D01*
X225431011Y-63268655D02*
X225511823Y-63295592D01*
X225511823Y-63295592D02*
X225592635Y-63376405D01*
X225592635Y-63376405D02*
X225619572Y-63457217D01*
X225619572Y-63457217D02*
X225619572Y-63511092D01*
X225619572Y-63511092D02*
X225592635Y-63591904D01*
X225592635Y-63591904D02*
X225377136Y-63807403D01*
X225673447Y-63026218D02*
X225673447Y-62972344D01*
X225673447Y-62972344D02*
X225700385Y-62891531D01*
X225700385Y-62891531D02*
X225835072Y-62756844D01*
X225835072Y-62756844D02*
X225915884Y-62729907D01*
X225915884Y-62729907D02*
X225969759Y-62729907D01*
X225969759Y-62729907D02*
X226050571Y-62756844D01*
X226050571Y-62756844D02*
X226104446Y-62810719D01*
X226104446Y-62810719D02*
X226158320Y-62918469D01*
X226158320Y-62918469D02*
X226158320Y-63564966D01*
X226158320Y-63564966D02*
X226508507Y-63214780D01*
X226427695Y-62164221D02*
X226319945Y-62271971D01*
X226319945Y-62271971D02*
X226293008Y-62352783D01*
X226293008Y-62352783D02*
X226293008Y-62406658D01*
X226293008Y-62406658D02*
X226319945Y-62541345D01*
X226319945Y-62541345D02*
X226400757Y-62676032D01*
X226400757Y-62676032D02*
X226616256Y-62891531D01*
X226616256Y-62891531D02*
X226697069Y-62918469D01*
X226697069Y-62918469D02*
X226750943Y-62918469D01*
X226750943Y-62918469D02*
X226831756Y-62891531D01*
X226831756Y-62891531D02*
X226939505Y-62783782D01*
X226939505Y-62783782D02*
X226966443Y-62702969D01*
X226966443Y-62702969D02*
X226966443Y-62649095D01*
X226966443Y-62649095D02*
X226939505Y-62568282D01*
X226939505Y-62568282D02*
X226804818Y-62433595D01*
X226804818Y-62433595D02*
X226724006Y-62406658D01*
X226724006Y-62406658D02*
X226670131Y-62406658D01*
X226670131Y-62406658D02*
X226589319Y-62433595D01*
X226589319Y-62433595D02*
X226481569Y-62541345D01*
X226481569Y-62541345D02*
X226454632Y-62622157D01*
X226454632Y-62622157D02*
X226454632Y-62676032D01*
X226454632Y-62676032D02*
X226481569Y-62756844D01*
X224643138Y-68887403D02*
X224562325Y-68914340D01*
X224562325Y-68914340D02*
X224481513Y-68995153D01*
X224481513Y-68995153D02*
X224427638Y-69102902D01*
X224427638Y-69102902D02*
X224427638Y-69210652D01*
X224427638Y-69210652D02*
X224454576Y-69291464D01*
X224454576Y-69291464D02*
X224535388Y-69426151D01*
X224535388Y-69426151D02*
X224616200Y-69506963D01*
X224616200Y-69506963D02*
X224750887Y-69587776D01*
X224750887Y-69587776D02*
X224831700Y-69614713D01*
X224831700Y-69614713D02*
X224939449Y-69614713D01*
X224939449Y-69614713D02*
X225047199Y-69560838D01*
X225047199Y-69560838D02*
X225101074Y-69506963D01*
X225101074Y-69506963D02*
X225154948Y-69399214D01*
X225154948Y-69399214D02*
X225154948Y-69345339D01*
X225154948Y-69345339D02*
X224966387Y-69156777D01*
X224966387Y-69156777D02*
X224858637Y-69264527D01*
X225451260Y-69156777D02*
X224885574Y-68591092D01*
X224885574Y-68591092D02*
X225101074Y-68375592D01*
X225101074Y-68375592D02*
X225181886Y-68348655D01*
X225181886Y-68348655D02*
X225235761Y-68348655D01*
X225235761Y-68348655D02*
X225316573Y-68375592D01*
X225316573Y-68375592D02*
X225397385Y-68456405D01*
X225397385Y-68456405D02*
X225424322Y-68537217D01*
X225424322Y-68537217D02*
X225424322Y-68591092D01*
X225424322Y-68591092D02*
X225397385Y-68671904D01*
X225397385Y-68671904D02*
X225181886Y-68887403D01*
X225478197Y-68106218D02*
X225478197Y-68052344D01*
X225478197Y-68052344D02*
X225505135Y-67971531D01*
X225505135Y-67971531D02*
X225639822Y-67836844D01*
X225639822Y-67836844D02*
X225720634Y-67809907D01*
X225720634Y-67809907D02*
X225774509Y-67809907D01*
X225774509Y-67809907D02*
X225855321Y-67836844D01*
X225855321Y-67836844D02*
X225909196Y-67890719D01*
X225909196Y-67890719D02*
X225963070Y-67998469D01*
X225963070Y-67998469D02*
X225963070Y-68644966D01*
X225963070Y-68644966D02*
X226313257Y-68294780D01*
X226016945Y-67567470D02*
X226016945Y-67513595D01*
X226016945Y-67513595D02*
X226043883Y-67432783D01*
X226043883Y-67432783D02*
X226178570Y-67298096D01*
X226178570Y-67298096D02*
X226259382Y-67271159D01*
X226259382Y-67271159D02*
X226313257Y-67271159D01*
X226313257Y-67271159D02*
X226394069Y-67298096D01*
X226394069Y-67298096D02*
X226447944Y-67351971D01*
X226447944Y-67351971D02*
X226501819Y-67459721D01*
X226501819Y-67459721D02*
X226501819Y-68106218D01*
X226501819Y-68106218D02*
X226852005Y-67756032D01*
X224643138Y-73967403D02*
X224562325Y-73994340D01*
X224562325Y-73994340D02*
X224481513Y-74075153D01*
X224481513Y-74075153D02*
X224427638Y-74182902D01*
X224427638Y-74182902D02*
X224427638Y-74290652D01*
X224427638Y-74290652D02*
X224454576Y-74371464D01*
X224454576Y-74371464D02*
X224535388Y-74506151D01*
X224535388Y-74506151D02*
X224616200Y-74586963D01*
X224616200Y-74586963D02*
X224750887Y-74667776D01*
X224750887Y-74667776D02*
X224831700Y-74694713D01*
X224831700Y-74694713D02*
X224939449Y-74694713D01*
X224939449Y-74694713D02*
X225047199Y-74640838D01*
X225047199Y-74640838D02*
X225101074Y-74586963D01*
X225101074Y-74586963D02*
X225154948Y-74479214D01*
X225154948Y-74479214D02*
X225154948Y-74425339D01*
X225154948Y-74425339D02*
X224966387Y-74236777D01*
X224966387Y-74236777D02*
X224858637Y-74344527D01*
X225451260Y-74236777D02*
X224885574Y-73671092D01*
X224885574Y-73671092D02*
X225101074Y-73455592D01*
X225101074Y-73455592D02*
X225181886Y-73428655D01*
X225181886Y-73428655D02*
X225235761Y-73428655D01*
X225235761Y-73428655D02*
X225316573Y-73455592D01*
X225316573Y-73455592D02*
X225397385Y-73536405D01*
X225397385Y-73536405D02*
X225424322Y-73617217D01*
X225424322Y-73617217D02*
X225424322Y-73671092D01*
X225424322Y-73671092D02*
X225397385Y-73751904D01*
X225397385Y-73751904D02*
X225181886Y-73967403D01*
X225478197Y-73186218D02*
X225478197Y-73132344D01*
X225478197Y-73132344D02*
X225505135Y-73051531D01*
X225505135Y-73051531D02*
X225639822Y-72916844D01*
X225639822Y-72916844D02*
X225720634Y-72889907D01*
X225720634Y-72889907D02*
X225774509Y-72889907D01*
X225774509Y-72889907D02*
X225855321Y-72916844D01*
X225855321Y-72916844D02*
X225909196Y-72970719D01*
X225909196Y-72970719D02*
X225963070Y-73078469D01*
X225963070Y-73078469D02*
X225963070Y-73724966D01*
X225963070Y-73724966D02*
X226313257Y-73374780D01*
X226852005Y-72836032D02*
X226528756Y-73159281D01*
X226690380Y-72997656D02*
X226124695Y-72431971D01*
X226124695Y-72431971D02*
X226151632Y-72566658D01*
X226151632Y-72566658D02*
X226151632Y-72674408D01*
X226151632Y-72674408D02*
X226124695Y-72755220D01*
X224838388Y-76507403D02*
X224757575Y-76534340D01*
X224757575Y-76534340D02*
X224676763Y-76615153D01*
X224676763Y-76615153D02*
X224622888Y-76722902D01*
X224622888Y-76722902D02*
X224622888Y-76830652D01*
X224622888Y-76830652D02*
X224649826Y-76911464D01*
X224649826Y-76911464D02*
X224730638Y-77046151D01*
X224730638Y-77046151D02*
X224811450Y-77126963D01*
X224811450Y-77126963D02*
X224946137Y-77207776D01*
X224946137Y-77207776D02*
X225026950Y-77234713D01*
X225026950Y-77234713D02*
X225134699Y-77234713D01*
X225134699Y-77234713D02*
X225242449Y-77180838D01*
X225242449Y-77180838D02*
X225296324Y-77126963D01*
X225296324Y-77126963D02*
X225350198Y-77019214D01*
X225350198Y-77019214D02*
X225350198Y-76965339D01*
X225350198Y-76965339D02*
X225161637Y-76776777D01*
X225161637Y-76776777D02*
X225053887Y-76884527D01*
X225646510Y-76776777D02*
X225080824Y-76211092D01*
X225080824Y-76211092D02*
X225296324Y-75995592D01*
X225296324Y-75995592D02*
X225377136Y-75968655D01*
X225377136Y-75968655D02*
X225431011Y-75968655D01*
X225431011Y-75968655D02*
X225511823Y-75995592D01*
X225511823Y-75995592D02*
X225592635Y-76076405D01*
X225592635Y-76076405D02*
X225619572Y-76157217D01*
X225619572Y-76157217D02*
X225619572Y-76211092D01*
X225619572Y-76211092D02*
X225592635Y-76291904D01*
X225592635Y-76291904D02*
X225377136Y-76507403D01*
X225673447Y-75726218D02*
X225673447Y-75672344D01*
X225673447Y-75672344D02*
X225700385Y-75591531D01*
X225700385Y-75591531D02*
X225835072Y-75456844D01*
X225835072Y-75456844D02*
X225915884Y-75429907D01*
X225915884Y-75429907D02*
X225969759Y-75429907D01*
X225969759Y-75429907D02*
X226050571Y-75456844D01*
X226050571Y-75456844D02*
X226104446Y-75510719D01*
X226104446Y-75510719D02*
X226158320Y-75618469D01*
X226158320Y-75618469D02*
X226158320Y-76264966D01*
X226158320Y-76264966D02*
X226508507Y-75914780D01*
X226293008Y-74998908D02*
X226346882Y-74945034D01*
X226346882Y-74945034D02*
X226427695Y-74918096D01*
X226427695Y-74918096D02*
X226481569Y-74918096D01*
X226481569Y-74918096D02*
X226562382Y-74945034D01*
X226562382Y-74945034D02*
X226697069Y-75025846D01*
X226697069Y-75025846D02*
X226831756Y-75160533D01*
X226831756Y-75160533D02*
X226912568Y-75295220D01*
X226912568Y-75295220D02*
X226939505Y-75376032D01*
X226939505Y-75376032D02*
X226939505Y-75429907D01*
X226939505Y-75429907D02*
X226912568Y-75510719D01*
X226912568Y-75510719D02*
X226858693Y-75564594D01*
X226858693Y-75564594D02*
X226777881Y-75591531D01*
X226777881Y-75591531D02*
X226724006Y-75591531D01*
X226724006Y-75591531D02*
X226643194Y-75564594D01*
X226643194Y-75564594D02*
X226508507Y-75483782D01*
X226508507Y-75483782D02*
X226373820Y-75349095D01*
X226373820Y-75349095D02*
X226293008Y-75214408D01*
X226293008Y-75214408D02*
X226266070Y-75133595D01*
X226266070Y-75133595D02*
X226266070Y-75079721D01*
X226266070Y-75079721D02*
X226293008Y-74998908D01*
X224838388Y-79047403D02*
X224757575Y-79074340D01*
X224757575Y-79074340D02*
X224676763Y-79155153D01*
X224676763Y-79155153D02*
X224622888Y-79262902D01*
X224622888Y-79262902D02*
X224622888Y-79370652D01*
X224622888Y-79370652D02*
X224649826Y-79451464D01*
X224649826Y-79451464D02*
X224730638Y-79586151D01*
X224730638Y-79586151D02*
X224811450Y-79666963D01*
X224811450Y-79666963D02*
X224946137Y-79747776D01*
X224946137Y-79747776D02*
X225026950Y-79774713D01*
X225026950Y-79774713D02*
X225134699Y-79774713D01*
X225134699Y-79774713D02*
X225242449Y-79720838D01*
X225242449Y-79720838D02*
X225296324Y-79666963D01*
X225296324Y-79666963D02*
X225350198Y-79559214D01*
X225350198Y-79559214D02*
X225350198Y-79505339D01*
X225350198Y-79505339D02*
X225161637Y-79316777D01*
X225161637Y-79316777D02*
X225053887Y-79424527D01*
X225646510Y-79316777D02*
X225080824Y-78751092D01*
X225080824Y-78751092D02*
X225296324Y-78535592D01*
X225296324Y-78535592D02*
X225377136Y-78508655D01*
X225377136Y-78508655D02*
X225431011Y-78508655D01*
X225431011Y-78508655D02*
X225511823Y-78535592D01*
X225511823Y-78535592D02*
X225592635Y-78616405D01*
X225592635Y-78616405D02*
X225619572Y-78697217D01*
X225619572Y-78697217D02*
X225619572Y-78751092D01*
X225619572Y-78751092D02*
X225592635Y-78831904D01*
X225592635Y-78831904D02*
X225377136Y-79047403D01*
X226508507Y-78454780D02*
X226185258Y-78778029D01*
X226346882Y-78616405D02*
X225781197Y-78050719D01*
X225781197Y-78050719D02*
X225808134Y-78185406D01*
X225808134Y-78185406D02*
X225808134Y-78293156D01*
X225808134Y-78293156D02*
X225781197Y-78373968D01*
X226777881Y-78185406D02*
X226885630Y-78077656D01*
X226885630Y-78077656D02*
X226912568Y-77996844D01*
X226912568Y-77996844D02*
X226912568Y-77942969D01*
X226912568Y-77942969D02*
X226885630Y-77808282D01*
X226885630Y-77808282D02*
X226804818Y-77673595D01*
X226804818Y-77673595D02*
X226589319Y-77458096D01*
X226589319Y-77458096D02*
X226508507Y-77431159D01*
X226508507Y-77431159D02*
X226454632Y-77431159D01*
X226454632Y-77431159D02*
X226373820Y-77458096D01*
X226373820Y-77458096D02*
X226266070Y-77565846D01*
X226266070Y-77565846D02*
X226239133Y-77646658D01*
X226239133Y-77646658D02*
X226239133Y-77700533D01*
X226239133Y-77700533D02*
X226266070Y-77781345D01*
X226266070Y-77781345D02*
X226400757Y-77916032D01*
X226400757Y-77916032D02*
X226481569Y-77942969D01*
X226481569Y-77942969D02*
X226535444Y-77942969D01*
X226535444Y-77942969D02*
X226616256Y-77916032D01*
X226616256Y-77916032D02*
X226724006Y-77808282D01*
X226724006Y-77808282D02*
X226750943Y-77727470D01*
X226750943Y-77727470D02*
X226750943Y-77673595D01*
X226750943Y-77673595D02*
X226724006Y-77592783D01*
X224838388Y-81587403D02*
X224757575Y-81614340D01*
X224757575Y-81614340D02*
X224676763Y-81695153D01*
X224676763Y-81695153D02*
X224622888Y-81802902D01*
X224622888Y-81802902D02*
X224622888Y-81910652D01*
X224622888Y-81910652D02*
X224649826Y-81991464D01*
X224649826Y-81991464D02*
X224730638Y-82126151D01*
X224730638Y-82126151D02*
X224811450Y-82206963D01*
X224811450Y-82206963D02*
X224946137Y-82287776D01*
X224946137Y-82287776D02*
X225026950Y-82314713D01*
X225026950Y-82314713D02*
X225134699Y-82314713D01*
X225134699Y-82314713D02*
X225242449Y-82260838D01*
X225242449Y-82260838D02*
X225296324Y-82206963D01*
X225296324Y-82206963D02*
X225350198Y-82099214D01*
X225350198Y-82099214D02*
X225350198Y-82045339D01*
X225350198Y-82045339D02*
X225161637Y-81856777D01*
X225161637Y-81856777D02*
X225053887Y-81964527D01*
X225646510Y-81856777D02*
X225080824Y-81291092D01*
X225080824Y-81291092D02*
X225296324Y-81075592D01*
X225296324Y-81075592D02*
X225377136Y-81048655D01*
X225377136Y-81048655D02*
X225431011Y-81048655D01*
X225431011Y-81048655D02*
X225511823Y-81075592D01*
X225511823Y-81075592D02*
X225592635Y-81156405D01*
X225592635Y-81156405D02*
X225619572Y-81237217D01*
X225619572Y-81237217D02*
X225619572Y-81291092D01*
X225619572Y-81291092D02*
X225592635Y-81371904D01*
X225592635Y-81371904D02*
X225377136Y-81587403D01*
X226508507Y-80994780D02*
X226185258Y-81318029D01*
X226346882Y-81156405D02*
X225781197Y-80590719D01*
X225781197Y-80590719D02*
X225808134Y-80725406D01*
X225808134Y-80725406D02*
X225808134Y-80833156D01*
X225808134Y-80833156D02*
X225781197Y-80913968D01*
X226508507Y-80348282D02*
X226427695Y-80375220D01*
X226427695Y-80375220D02*
X226373820Y-80375220D01*
X226373820Y-80375220D02*
X226293008Y-80348282D01*
X226293008Y-80348282D02*
X226266070Y-80321345D01*
X226266070Y-80321345D02*
X226239133Y-80240533D01*
X226239133Y-80240533D02*
X226239133Y-80186658D01*
X226239133Y-80186658D02*
X226266070Y-80105846D01*
X226266070Y-80105846D02*
X226373820Y-79998096D01*
X226373820Y-79998096D02*
X226454632Y-79971159D01*
X226454632Y-79971159D02*
X226508507Y-79971159D01*
X226508507Y-79971159D02*
X226589319Y-79998096D01*
X226589319Y-79998096D02*
X226616256Y-80025034D01*
X226616256Y-80025034D02*
X226643194Y-80105846D01*
X226643194Y-80105846D02*
X226643194Y-80159721D01*
X226643194Y-80159721D02*
X226616256Y-80240533D01*
X226616256Y-80240533D02*
X226508507Y-80348282D01*
X226508507Y-80348282D02*
X226481569Y-80429095D01*
X226481569Y-80429095D02*
X226481569Y-80482969D01*
X226481569Y-80482969D02*
X226508507Y-80563782D01*
X226508507Y-80563782D02*
X226616256Y-80671531D01*
X226616256Y-80671531D02*
X226697069Y-80698469D01*
X226697069Y-80698469D02*
X226750943Y-80698469D01*
X226750943Y-80698469D02*
X226831756Y-80671531D01*
X226831756Y-80671531D02*
X226939505Y-80563782D01*
X226939505Y-80563782D02*
X226966443Y-80482969D01*
X226966443Y-80482969D02*
X226966443Y-80429095D01*
X226966443Y-80429095D02*
X226939505Y-80348282D01*
X226939505Y-80348282D02*
X226831756Y-80240533D01*
X226831756Y-80240533D02*
X226750943Y-80213595D01*
X226750943Y-80213595D02*
X226697069Y-80213595D01*
X226697069Y-80213595D02*
X226616256Y-80240533D01*
X224838388Y-86667403D02*
X224757575Y-86694340D01*
X224757575Y-86694340D02*
X224676763Y-86775153D01*
X224676763Y-86775153D02*
X224622888Y-86882902D01*
X224622888Y-86882902D02*
X224622888Y-86990652D01*
X224622888Y-86990652D02*
X224649826Y-87071464D01*
X224649826Y-87071464D02*
X224730638Y-87206151D01*
X224730638Y-87206151D02*
X224811450Y-87286963D01*
X224811450Y-87286963D02*
X224946137Y-87367776D01*
X224946137Y-87367776D02*
X225026950Y-87394713D01*
X225026950Y-87394713D02*
X225134699Y-87394713D01*
X225134699Y-87394713D02*
X225242449Y-87340838D01*
X225242449Y-87340838D02*
X225296324Y-87286963D01*
X225296324Y-87286963D02*
X225350198Y-87179214D01*
X225350198Y-87179214D02*
X225350198Y-87125339D01*
X225350198Y-87125339D02*
X225161637Y-86936777D01*
X225161637Y-86936777D02*
X225053887Y-87044527D01*
X225646510Y-86936777D02*
X225080824Y-86371092D01*
X225080824Y-86371092D02*
X225296324Y-86155592D01*
X225296324Y-86155592D02*
X225377136Y-86128655D01*
X225377136Y-86128655D02*
X225431011Y-86128655D01*
X225431011Y-86128655D02*
X225511823Y-86155592D01*
X225511823Y-86155592D02*
X225592635Y-86236405D01*
X225592635Y-86236405D02*
X225619572Y-86317217D01*
X225619572Y-86317217D02*
X225619572Y-86371092D01*
X225619572Y-86371092D02*
X225592635Y-86451904D01*
X225592635Y-86451904D02*
X225377136Y-86667403D01*
X226508507Y-86074780D02*
X226185258Y-86398029D01*
X226346882Y-86236405D02*
X225781197Y-85670719D01*
X225781197Y-85670719D02*
X225808134Y-85805406D01*
X225808134Y-85805406D02*
X225808134Y-85913156D01*
X225808134Y-85913156D02*
X225781197Y-85993968D01*
X226131383Y-85320533D02*
X226508507Y-84943409D01*
X226508507Y-84943409D02*
X226831756Y-85751531D01*
X224838388Y-89207403D02*
X224757575Y-89234340D01*
X224757575Y-89234340D02*
X224676763Y-89315153D01*
X224676763Y-89315153D02*
X224622888Y-89422902D01*
X224622888Y-89422902D02*
X224622888Y-89530652D01*
X224622888Y-89530652D02*
X224649826Y-89611464D01*
X224649826Y-89611464D02*
X224730638Y-89746151D01*
X224730638Y-89746151D02*
X224811450Y-89826963D01*
X224811450Y-89826963D02*
X224946137Y-89907776D01*
X224946137Y-89907776D02*
X225026950Y-89934713D01*
X225026950Y-89934713D02*
X225134699Y-89934713D01*
X225134699Y-89934713D02*
X225242449Y-89880838D01*
X225242449Y-89880838D02*
X225296324Y-89826963D01*
X225296324Y-89826963D02*
X225350198Y-89719214D01*
X225350198Y-89719214D02*
X225350198Y-89665339D01*
X225350198Y-89665339D02*
X225161637Y-89476777D01*
X225161637Y-89476777D02*
X225053887Y-89584527D01*
X225646510Y-89476777D02*
X225080824Y-88911092D01*
X225080824Y-88911092D02*
X225296324Y-88695592D01*
X225296324Y-88695592D02*
X225377136Y-88668655D01*
X225377136Y-88668655D02*
X225431011Y-88668655D01*
X225431011Y-88668655D02*
X225511823Y-88695592D01*
X225511823Y-88695592D02*
X225592635Y-88776405D01*
X225592635Y-88776405D02*
X225619572Y-88857217D01*
X225619572Y-88857217D02*
X225619572Y-88911092D01*
X225619572Y-88911092D02*
X225592635Y-88991904D01*
X225592635Y-88991904D02*
X225377136Y-89207403D01*
X226508507Y-88614780D02*
X226185258Y-88938029D01*
X226346882Y-88776405D02*
X225781197Y-88210719D01*
X225781197Y-88210719D02*
X225808134Y-88345406D01*
X225808134Y-88345406D02*
X225808134Y-88453156D01*
X225808134Y-88453156D02*
X225781197Y-88533968D01*
X226427695Y-87564221D02*
X226319945Y-87671971D01*
X226319945Y-87671971D02*
X226293008Y-87752783D01*
X226293008Y-87752783D02*
X226293008Y-87806658D01*
X226293008Y-87806658D02*
X226319945Y-87941345D01*
X226319945Y-87941345D02*
X226400757Y-88076032D01*
X226400757Y-88076032D02*
X226616256Y-88291531D01*
X226616256Y-88291531D02*
X226697069Y-88318469D01*
X226697069Y-88318469D02*
X226750943Y-88318469D01*
X226750943Y-88318469D02*
X226831756Y-88291531D01*
X226831756Y-88291531D02*
X226939505Y-88183782D01*
X226939505Y-88183782D02*
X226966443Y-88102969D01*
X226966443Y-88102969D02*
X226966443Y-88049095D01*
X226966443Y-88049095D02*
X226939505Y-87968282D01*
X226939505Y-87968282D02*
X226804818Y-87833595D01*
X226804818Y-87833595D02*
X226724006Y-87806658D01*
X226724006Y-87806658D02*
X226670131Y-87806658D01*
X226670131Y-87806658D02*
X226589319Y-87833595D01*
X226589319Y-87833595D02*
X226481569Y-87941345D01*
X226481569Y-87941345D02*
X226454632Y-88022157D01*
X226454632Y-88022157D02*
X226454632Y-88076032D01*
X226454632Y-88076032D02*
X226481569Y-88156844D01*
X224319889Y-44074277D02*
X225074136Y-44451401D01*
X225074136Y-44451401D02*
X224697013Y-43697153D01*
X225397385Y-44074277D02*
X225505135Y-44020402D01*
X225505135Y-44020402D02*
X225639822Y-43885715D01*
X225639822Y-43885715D02*
X225666759Y-43804903D01*
X225666759Y-43804903D02*
X225666759Y-43751028D01*
X225666759Y-43751028D02*
X225639822Y-43670216D01*
X225639822Y-43670216D02*
X225585947Y-43616341D01*
X225585947Y-43616341D02*
X225505135Y-43589404D01*
X225505135Y-43589404D02*
X225451260Y-43589404D01*
X225451260Y-43589404D02*
X225370448Y-43616341D01*
X225370448Y-43616341D02*
X225235761Y-43697153D01*
X225235761Y-43697153D02*
X225154948Y-43724091D01*
X225154948Y-43724091D02*
X225101074Y-43724091D01*
X225101074Y-43724091D02*
X225020261Y-43697153D01*
X225020261Y-43697153D02*
X224966387Y-43643279D01*
X224966387Y-43643279D02*
X224939449Y-43562466D01*
X224939449Y-43562466D02*
X224939449Y-43508592D01*
X224939449Y-43508592D02*
X224966387Y-43427779D01*
X224966387Y-43427779D02*
X225101074Y-43293092D01*
X225101074Y-43293092D02*
X225208823Y-43239218D01*
X225828384Y-43158405D02*
X226097758Y-43427779D01*
X225343510Y-43050656D02*
X225828384Y-43158405D01*
X225828384Y-43158405D02*
X225720634Y-42673532D01*
X226421006Y-43050656D02*
X226528756Y-42996781D01*
X226528756Y-42996781D02*
X226663443Y-42862094D01*
X226663443Y-42862094D02*
X226690380Y-42781282D01*
X226690380Y-42781282D02*
X226690380Y-42727407D01*
X226690380Y-42727407D02*
X226663443Y-42646595D01*
X226663443Y-42646595D02*
X226609568Y-42592720D01*
X226609568Y-42592720D02*
X226528756Y-42565783D01*
X226528756Y-42565783D02*
X226474881Y-42565783D01*
X226474881Y-42565783D02*
X226394069Y-42592720D01*
X226394069Y-42592720D02*
X226259382Y-42673532D01*
X226259382Y-42673532D02*
X226178570Y-42700470D01*
X226178570Y-42700470D02*
X226124695Y-42700470D01*
X226124695Y-42700470D02*
X226043883Y-42673532D01*
X226043883Y-42673532D02*
X225990008Y-42619657D01*
X225990008Y-42619657D02*
X225963070Y-42538845D01*
X225963070Y-42538845D02*
X225963070Y-42484970D01*
X225963070Y-42484970D02*
X225990008Y-42404158D01*
X225990008Y-42404158D02*
X226124695Y-42269471D01*
X226124695Y-42269471D02*
X226232444Y-42215596D01*
X224252546Y-41760370D02*
X225006793Y-42137494D01*
X225006793Y-42137494D02*
X224629669Y-41383247D01*
X225276167Y-41275497D02*
X225383916Y-41221623D01*
X225383916Y-41221623D02*
X225437791Y-41221623D01*
X225437791Y-41221623D02*
X225518603Y-41248560D01*
X225518603Y-41248560D02*
X225599416Y-41329372D01*
X225599416Y-41329372D02*
X225626353Y-41410184D01*
X225626353Y-41410184D02*
X225626353Y-41464059D01*
X225626353Y-41464059D02*
X225599416Y-41544871D01*
X225599416Y-41544871D02*
X225383916Y-41760371D01*
X225383916Y-41760371D02*
X224818231Y-41194685D01*
X224818231Y-41194685D02*
X225006793Y-41006123D01*
X225006793Y-41006123D02*
X225087605Y-40979186D01*
X225087605Y-40979186D02*
X225141480Y-40979186D01*
X225141480Y-40979186D02*
X225222292Y-41006123D01*
X225222292Y-41006123D02*
X225276167Y-41059998D01*
X225276167Y-41059998D02*
X225303104Y-41140810D01*
X225303104Y-41140810D02*
X225303104Y-41194685D01*
X225303104Y-41194685D02*
X225276167Y-41275497D01*
X225276167Y-41275497D02*
X225087605Y-41464059D01*
X225383916Y-40629000D02*
X225841852Y-41086936D01*
X225841852Y-41086936D02*
X225922664Y-41113873D01*
X225922664Y-41113873D02*
X225976539Y-41113873D01*
X225976539Y-41113873D02*
X226057351Y-41086936D01*
X226057351Y-41086936D02*
X226165101Y-40979186D01*
X226165101Y-40979186D02*
X226192038Y-40898374D01*
X226192038Y-40898374D02*
X226192038Y-40844499D01*
X226192038Y-40844499D02*
X226165101Y-40763687D01*
X226165101Y-40763687D02*
X225707165Y-40305751D01*
X226488350Y-40602062D02*
X226596099Y-40548188D01*
X226596099Y-40548188D02*
X226730786Y-40413501D01*
X226730786Y-40413501D02*
X226757724Y-40332688D01*
X226757724Y-40332688D02*
X226757724Y-40278814D01*
X226757724Y-40278814D02*
X226730786Y-40198001D01*
X226730786Y-40198001D02*
X226676911Y-40144127D01*
X226676911Y-40144127D02*
X226596099Y-40117189D01*
X226596099Y-40117189D02*
X226542224Y-40117189D01*
X226542224Y-40117189D02*
X226461412Y-40144127D01*
X226461412Y-40144127D02*
X226326725Y-40224939D01*
X226326725Y-40224939D02*
X226245913Y-40251876D01*
X226245913Y-40251876D02*
X226192038Y-40251876D01*
X226192038Y-40251876D02*
X226111226Y-40224939D01*
X226111226Y-40224939D02*
X226057351Y-40171064D01*
X226057351Y-40171064D02*
X226030414Y-40090252D01*
X226030414Y-40090252D02*
X226030414Y-40036377D01*
X226030414Y-40036377D02*
X226057351Y-39955565D01*
X226057351Y-39955565D02*
X226192038Y-39820878D01*
X226192038Y-39820878D02*
X226299788Y-39767003D01*
X224442074Y-49445247D02*
X224792260Y-49095061D01*
X224792260Y-49095061D02*
X224819198Y-49499122D01*
X224819198Y-49499122D02*
X224900010Y-49418309D01*
X224900010Y-49418309D02*
X224980822Y-49391372D01*
X224980822Y-49391372D02*
X225034697Y-49391372D01*
X225034697Y-49391372D02*
X225115509Y-49418309D01*
X225115509Y-49418309D02*
X225250196Y-49552996D01*
X225250196Y-49552996D02*
X225277134Y-49633809D01*
X225277134Y-49633809D02*
X225277134Y-49687683D01*
X225277134Y-49687683D02*
X225250196Y-49768496D01*
X225250196Y-49768496D02*
X225088572Y-49930120D01*
X225088572Y-49930120D02*
X225007760Y-49957057D01*
X225007760Y-49957057D02*
X224953885Y-49957057D01*
X224953885Y-48933436D02*
X225708132Y-49310560D01*
X225708132Y-49310560D02*
X225331009Y-48556312D01*
X225465695Y-48421626D02*
X225815882Y-48071439D01*
X225815882Y-48071439D02*
X225842819Y-48475500D01*
X225842819Y-48475500D02*
X225923631Y-48394688D01*
X225923631Y-48394688D02*
X226004443Y-48367751D01*
X226004443Y-48367751D02*
X226058318Y-48367751D01*
X226058318Y-48367751D02*
X226139131Y-48394688D01*
X226139131Y-48394688D02*
X226273818Y-48529375D01*
X226273818Y-48529375D02*
X226300755Y-48610187D01*
X226300755Y-48610187D02*
X226300755Y-48664062D01*
X226300755Y-48664062D02*
X226273818Y-48744874D01*
X226273818Y-48744874D02*
X226112193Y-48906499D01*
X226112193Y-48906499D02*
X226031381Y-48933436D01*
X226031381Y-48933436D02*
X225977506Y-48933436D01*
X226543192Y-48583250D02*
X226974190Y-48152251D01*
X226758691Y-47667378D02*
X226947253Y-47478816D01*
X227324376Y-47694315D02*
X227055002Y-47963689D01*
X227055002Y-47963689D02*
X226489317Y-47398004D01*
X226489317Y-47398004D02*
X226758691Y-47128630D01*
X227566813Y-47451878D02*
X227001128Y-46886193D01*
X227001128Y-46886193D02*
X227890062Y-47128630D01*
X227890062Y-47128630D02*
X227324377Y-46562944D01*
X224836923Y-54832593D02*
X225106297Y-54563219D01*
X224944672Y-55048093D02*
X224567549Y-54293845D01*
X224567549Y-54293845D02*
X225321796Y-54670969D01*
X225510358Y-54482407D02*
X224944672Y-53916722D01*
X224944672Y-53916722D02*
X225079359Y-53782035D01*
X225079359Y-53782035D02*
X225187109Y-53728160D01*
X225187109Y-53728160D02*
X225294858Y-53728160D01*
X225294858Y-53728160D02*
X225375671Y-53755097D01*
X225375671Y-53755097D02*
X225510358Y-53835910D01*
X225510358Y-53835910D02*
X225591170Y-53916722D01*
X225591170Y-53916722D02*
X225671982Y-54051409D01*
X225671982Y-54051409D02*
X225698919Y-54132221D01*
X225698919Y-54132221D02*
X225698919Y-54239971D01*
X225698919Y-54239971D02*
X225645045Y-54347720D01*
X225645045Y-54347720D02*
X225510358Y-54482407D01*
X226345417Y-53539598D02*
X226345417Y-53593473D01*
X226345417Y-53593473D02*
X226291542Y-53701223D01*
X226291542Y-53701223D02*
X226237667Y-53755097D01*
X226237667Y-53755097D02*
X226129918Y-53808972D01*
X226129918Y-53808972D02*
X226022168Y-53808972D01*
X226022168Y-53808972D02*
X225941356Y-53782035D01*
X225941356Y-53782035D02*
X225806669Y-53701223D01*
X225806669Y-53701223D02*
X225725857Y-53620410D01*
X225725857Y-53620410D02*
X225645045Y-53485723D01*
X225645045Y-53485723D02*
X225618107Y-53404911D01*
X225618107Y-53404911D02*
X225618107Y-53297162D01*
X225618107Y-53297162D02*
X225671982Y-53189412D01*
X225671982Y-53189412D02*
X225725857Y-53135537D01*
X225725857Y-53135537D02*
X225833606Y-53081662D01*
X225833606Y-53081662D02*
X225887481Y-53081662D01*
X226560916Y-53539598D02*
X226991915Y-53108600D01*
X226426229Y-52435165D02*
X227180477Y-52812288D01*
X227180477Y-52812288D02*
X226803353Y-52058041D01*
X227880849Y-52111916D02*
X227422913Y-52031104D01*
X227557600Y-52435165D02*
X226991915Y-51869479D01*
X226991915Y-51869479D02*
X227207414Y-51653980D01*
X227207414Y-51653980D02*
X227288226Y-51627043D01*
X227288226Y-51627043D02*
X227342101Y-51627043D01*
X227342101Y-51627043D02*
X227422913Y-51653980D01*
X227422913Y-51653980D02*
X227503725Y-51734792D01*
X227503725Y-51734792D02*
X227530663Y-51815605D01*
X227530663Y-51815605D02*
X227530663Y-51869479D01*
X227530663Y-51869479D02*
X227503725Y-51950292D01*
X227503725Y-51950292D02*
X227288226Y-52165791D01*
X227826974Y-51573168D02*
X228015536Y-51384606D01*
X228392659Y-51600105D02*
X228123285Y-51869479D01*
X228123285Y-51869479D02*
X227557600Y-51303794D01*
X227557600Y-51303794D02*
X227826974Y-51034420D01*
X228527347Y-50872795D02*
X228338785Y-51061357D01*
X228635096Y-51357669D02*
X228069411Y-50791983D01*
X228069411Y-50791983D02*
X228338785Y-50522609D01*
%TO.C,U2*%
D11*
X202240390Y-39186535D02*
X202240390Y-39486535D01*
X202240390Y-39186535D02*
X223240390Y-39186535D01*
X202240390Y-41586535D02*
X202240390Y-41986535D01*
X202240390Y-41853535D02*
X205247390Y-41853535D01*
X202240390Y-44186535D02*
X202240390Y-44586535D01*
X202240390Y-46686535D02*
X202240390Y-47086535D01*
X202240390Y-49286535D02*
X202240390Y-49686535D01*
X202240390Y-51786535D02*
X202240390Y-52186535D01*
X202240390Y-54286535D02*
X202240390Y-54686535D01*
X202240390Y-56886535D02*
X202240390Y-57286535D01*
X202240390Y-59386535D02*
X202240390Y-59786535D01*
X202240390Y-61986535D02*
X202240390Y-62386535D01*
X202240390Y-64486535D02*
X202240390Y-64886535D01*
X202240390Y-66986535D02*
X202240390Y-67386535D01*
X202240390Y-69586535D02*
X202240390Y-69986535D01*
X202240390Y-72086535D02*
X202240390Y-72486535D01*
X202240390Y-74686535D02*
X202240390Y-75086535D01*
X202240390Y-77186535D02*
X202240390Y-77586535D01*
X202240390Y-79786535D02*
X202240390Y-80186535D01*
X202240390Y-82286535D02*
X202240390Y-82686535D01*
X202240390Y-84786535D02*
X202240390Y-85186535D01*
X202240390Y-87386535D02*
X202240390Y-87786535D01*
X205247390Y-41853535D02*
X205247390Y-39186535D01*
X209040390Y-90186535D02*
X202240390Y-90186535D01*
X211240390Y-90186535D02*
X211640390Y-90186535D01*
X213840390Y-90186535D02*
X214240390Y-90186535D01*
X223240390Y-39186535D02*
X223240390Y-39486535D01*
X223240390Y-41586535D02*
X223240390Y-41986535D01*
X223240390Y-44186535D02*
X223240390Y-44586535D01*
X223240390Y-46686535D02*
X223240390Y-47086535D01*
X223240390Y-49286535D02*
X223240390Y-49686535D01*
X223240390Y-51786535D02*
X223240390Y-52186535D01*
X223240390Y-54286535D02*
X223240390Y-54686535D01*
X223240390Y-56886535D02*
X223240390Y-57286535D01*
X223240390Y-59386535D02*
X223240390Y-59786535D01*
X223240390Y-61986535D02*
X223240390Y-62386535D01*
X223240390Y-64486535D02*
X223240390Y-64886535D01*
X223240390Y-66986535D02*
X223240390Y-67386535D01*
X223240390Y-69586535D02*
X223240390Y-69986535D01*
X223240390Y-72086535D02*
X223240390Y-72486535D01*
X223240390Y-74686535D02*
X223240390Y-75086535D01*
X223240390Y-77186535D02*
X223240390Y-77586535D01*
X223240390Y-79786535D02*
X223240390Y-80186535D01*
X223240390Y-82286535D02*
X223240390Y-82686535D01*
X223240390Y-84786535D02*
X223240390Y-85186535D01*
X223240390Y-87386535D02*
X223240390Y-87786535D01*
X223240390Y-90186535D02*
X216440390Y-90186535D01*
%TD*%
M02*
