%TF.GenerationSoftware,KiCad,Pcbnew,10.0.4*%
%TF.CreationDate,2026-07-21T16:04:12-07:00*%
%TF.ProjectId,custom-keyboard,63757374-6f6d-42d6-9b65-79626f617264,rev?*%
%TF.SameCoordinates,Original*%
%TF.FileFunction,Soldermask,Bot*%
%TF.FilePolarity,Negative*%
%FSLAX46Y46*%
G04 Gerber Fmt 4.6, Leading zero omitted, Abs format (unit mm)*
G04 Created by KiCad (PCBNEW 10.0.4) date 2026-07-21 16:04:12*
%MOMM*%
%LPD*%
G01*
G04 APERTURE LIST*
G04 Aperture macros list*
%AMRoundRect*
0 Rectangle with rounded corners*
0 $1 Rounding radius*
0 $2 $3 $4 $5 $6 $7 $8 $9 X,Y pos of 4 corners*
0 Add a 4 corners polygon primitive as box body*
4,1,4,$2,$3,$4,$5,$6,$7,$8,$9,$2,$3,0*
0 Add four circle primitives for the rounded corners*
1,1,$1+$1,$2,$3*
1,1,$1+$1,$4,$5*
1,1,$1+$1,$6,$7*
1,1,$1+$1,$8,$9*
0 Add four rect primitives between the rounded corners*
20,1,$1+$1,$2,$3,$4,$5,0*
20,1,$1+$1,$4,$5,$6,$7,0*
20,1,$1+$1,$6,$7,$8,$9,0*
20,1,$1+$1,$8,$9,$2,$3,0*%
G04 Aperture macros list end*
%ADD10C,3.200000*%
%ADD11C,1.750000*%
%ADD12C,3.987800*%
%ADD13C,2.300000*%
%ADD14RoundRect,0.250000X0.550000X-0.550000X0.550000X0.550000X-0.550000X0.550000X-0.550000X-0.550000X0*%
%ADD15C,1.600000*%
%ADD16RoundRect,0.250000X0.540317X-0.559515X0.559515X0.540317X-0.540317X0.559515X-0.559515X-0.540317X0*%
%ADD17RoundRect,0.250000X0.530470X-0.568860X0.568860X0.530470X-0.530470X0.568860X-0.568860X-0.530470X0*%
%ADD18RoundRect,0.250000X0.520461X-0.578031X0.578031X0.520461X-0.520461X0.578031X-0.578031X-0.520461X0*%
%ADD19RoundRect,0.250000X0.510294X-0.587026X0.587026X0.510294X-0.510294X0.587026X-0.587026X-0.510294X0*%
%ADD20RoundRect,0.250000X0.478872X-0.612929X0.612929X0.478872X-0.478872X0.612929X-0.612929X-0.478872X0*%
%ADD21RoundRect,0.250000X0.446138X-0.637151X0.637151X0.446138X-0.446138X0.637151X-0.637151X-0.446138X0*%
%ADD22O,1.800000X1.800000*%
%ADD23O,1.500000X1.500000*%
%ADD24O,1.700000X1.700000*%
%ADD25R,1.700000X1.700000*%
G04 APERTURE END LIST*
D10*
%TO.C,H1*%
X219075000Y-96837500D03*
%TD*%
D11*
%TO.C,SW27*%
X180127026Y-131092988D03*
D12*
X185169160Y-131712083D03*
D11*
X190211294Y-132331178D03*
D13*
X181697106Y-128726694D03*
X188309324Y-126979497D03*
%TD*%
D11*
%TO.C,SW28*%
X199868146Y-135570534D03*
D12*
X204870969Y-136452666D03*
D11*
X209873792Y-137334798D03*
D13*
X201559917Y-133289655D03*
X208254514Y-131890909D03*
%TD*%
D11*
%TO.C,SW25*%
X140895634Y-125271079D03*
D12*
X145968672Y-125536945D03*
D11*
X151041710Y-125802811D03*
D13*
X142296826Y-122801026D03*
X148771058Y-120596840D03*
%TD*%
D11*
%TO.C,SW26*%
X160409269Y-127706526D03*
D12*
X165476894Y-128060888D03*
D11*
X170544519Y-128415250D03*
D13*
X161853356Y-125261303D03*
X168365070Y-123170444D03*
%TD*%
D10*
%TO.C,H3*%
X131762500Y-130175000D03*
%TD*%
%TO.C,H2*%
X221456250Y-131762500D03*
%TD*%
%TO.C,H6*%
X188912500Y-36512500D03*
%TD*%
%TO.C,H4*%
X63976367Y-120173794D03*
%TD*%
%TO.C,H5*%
X72733973Y-40917789D03*
%TD*%
D14*
%TO.C,D1*%
X95456911Y-53154641D03*
D15*
X95456911Y-45534641D03*
%TD*%
D14*
%TO.C,D2*%
X114506910Y-53154641D03*
D15*
X114506910Y-45534641D03*
%TD*%
D16*
%TO.C,D3*%
X135017673Y-48985980D03*
D15*
X135150663Y-41367141D03*
%TD*%
D17*
%TO.C,D4*%
X155702407Y-44624714D03*
D15*
X155968344Y-37009356D03*
%TD*%
D18*
%TO.C,D5*%
X175518242Y-50452373D03*
D15*
X175917045Y-42842816D03*
%TD*%
D19*
%TO.C,D6*%
X195290925Y-53819162D03*
D15*
X195822472Y-46217724D03*
%TD*%
D14*
%TO.C,D7*%
X95456911Y-72204641D03*
D15*
X95456911Y-64584641D03*
%TD*%
D14*
%TO.C,D8*%
X114650661Y-72177139D03*
D15*
X114650661Y-64557139D03*
%TD*%
D16*
%TO.C,D9*%
X134747895Y-68274729D03*
D15*
X134880885Y-60655890D03*
%TD*%
D17*
%TO.C,D10*%
X155044200Y-63340789D03*
D15*
X155310137Y-55725431D03*
%TD*%
D18*
%TO.C,D11*%
X174492074Y-69951688D03*
D15*
X174890877Y-62342131D03*
%TD*%
D19*
%TO.C,D12*%
X194488238Y-73208443D03*
D15*
X195019785Y-65607005D03*
%TD*%
D14*
%TO.C,D13*%
X95456913Y-91254641D03*
D15*
X95456913Y-83634641D03*
%TD*%
D14*
%TO.C,D14*%
X114150661Y-91177139D03*
D15*
X114150661Y-83557139D03*
%TD*%
D16*
%TO.C,D15*%
X134453329Y-87361811D03*
D15*
X134586319Y-79742972D03*
%TD*%
D17*
%TO.C,D16*%
X154361914Y-82878879D03*
D15*
X154627851Y-75263521D03*
%TD*%
D18*
%TO.C,D17*%
X173837279Y-88452438D03*
D15*
X174236082Y-80842881D03*
%TD*%
D19*
%TO.C,D18*%
X193581673Y-92815840D03*
D15*
X194113220Y-85214402D03*
%TD*%
D14*
%TO.C,D19*%
X95456913Y-110304641D03*
D15*
X95456913Y-102684641D03*
%TD*%
D14*
%TO.C,D20*%
X114150663Y-110367141D03*
D15*
X114150663Y-102747141D03*
%TD*%
D16*
%TO.C,D21*%
X134166271Y-106178954D03*
D15*
X134299261Y-98560115D03*
%TD*%
D17*
%TO.C,D22*%
X153737079Y-101878879D03*
D15*
X154003016Y-94263521D03*
%TD*%
D18*
%TO.C,D23*%
X173026714Y-107602343D03*
D15*
X173425517Y-99992786D03*
%TD*%
D19*
%TO.C,D24*%
X192870660Y-111553246D03*
D15*
X193402207Y-103951808D03*
%TD*%
D18*
%TO.C,D25*%
X155286102Y-130033633D03*
D15*
X155684905Y-122424076D03*
%TD*%
D19*
%TO.C,D26*%
X174767784Y-132529872D03*
D15*
X175299331Y-124928434D03*
%TD*%
D20*
%TO.C,D27*%
X194204836Y-136493682D03*
D15*
X195133482Y-128930481D03*
%TD*%
D21*
%TO.C,D28*%
X213532052Y-142041555D03*
D15*
X214855253Y-134537321D03*
%TD*%
D11*
%TO.C,SW1*%
X80883894Y-49617560D03*
D12*
X85963894Y-49617560D03*
D11*
X91043894Y-49617560D03*
D13*
X82153894Y-47077560D03*
X88503894Y-44537560D03*
%TD*%
D11*
%TO.C,SW2*%
X99933894Y-49617560D03*
D12*
X105013894Y-49617560D03*
D11*
X110093894Y-49617560D03*
D13*
X101203894Y-47077560D03*
X107553894Y-44537560D03*
%TD*%
D11*
%TO.C,SW3*%
X120572165Y-44999963D03*
D12*
X125651391Y-45088621D03*
D11*
X130730617Y-45177279D03*
D13*
X121886300Y-42482514D03*
X128279662Y-40053724D03*
%TD*%
D11*
%TO.C,SW4*%
X141258060Y-40485659D03*
D12*
X146334965Y-40662948D03*
D11*
X151411870Y-40840237D03*
D13*
X142615930Y-37991528D03*
X149050707Y-35674687D03*
%TD*%
D11*
%TO.C,SW5*%
X161157624Y-45884538D03*
D12*
X166230662Y-46150404D03*
D11*
X171303700Y-46416270D03*
D13*
X162558816Y-43414485D03*
X169033048Y-41210299D03*
%TD*%
D11*
%TO.C,SW6*%
X180909073Y-49664083D03*
D12*
X185976698Y-50018445D03*
D11*
X191044323Y-50372807D03*
D13*
X182353160Y-47218860D03*
X188864874Y-45128001D03*
%TD*%
D11*
%TO.C,SW7*%
X78502644Y-68667560D03*
D12*
X83582644Y-68667560D03*
D11*
X88662644Y-68667560D03*
D13*
X79772644Y-66127560D03*
X86122644Y-63587560D03*
%TD*%
D11*
%TO.C,SW8*%
X99933894Y-68667560D03*
D12*
X105013894Y-68667560D03*
D11*
X110093894Y-68667560D03*
D13*
X101203894Y-66127560D03*
X107553894Y-63587560D03*
%TD*%
D11*
%TO.C,SW9*%
X120239925Y-64020882D03*
D12*
X125319151Y-64109540D03*
D11*
X130398377Y-64198198D03*
D13*
X121554060Y-61503433D03*
X127947422Y-59074643D03*
%TD*%
D11*
%TO.C,SW10*%
X140588601Y-59523973D03*
D12*
X145665506Y-59701262D03*
D11*
X150742411Y-59878551D03*
D13*
X141946471Y-57029842D03*
X148381248Y-54713001D03*
%TD*%
D11*
%TO.C,SW11*%
X160159369Y-64908556D03*
D12*
X165232407Y-65174422D03*
D11*
X170305445Y-65440288D03*
D13*
X161560561Y-62438503D03*
X168034793Y-60234317D03*
%TD*%
D11*
%TO.C,SW12*%
X180106386Y-68758534D03*
D12*
X185174011Y-69112896D03*
D11*
X190241636Y-69467258D03*
D13*
X181550473Y-66313311D03*
X188062187Y-64222452D03*
%TD*%
D11*
%TO.C,SW13*%
X76121394Y-87717560D03*
D12*
X81201394Y-87717560D03*
D11*
X86281394Y-87717560D03*
D13*
X77391394Y-85177560D03*
X83741394Y-82637560D03*
%TD*%
D11*
%TO.C,SW14*%
X99933894Y-87717560D03*
D12*
X105013894Y-87717560D03*
D11*
X110093894Y-87717560D03*
D13*
X101203894Y-85177560D03*
X107553894Y-82637560D03*
%TD*%
D11*
%TO.C,SW15*%
X119906066Y-83067272D03*
D12*
X124985292Y-83155930D03*
D11*
X130064518Y-83244588D03*
D13*
X121220201Y-80549823D03*
X127613563Y-78121033D03*
%TD*%
D11*
%TO.C,SW16*%
X139923764Y-78562367D03*
D12*
X145000669Y-78739656D03*
D11*
X150077574Y-78916945D03*
D13*
X141281634Y-76068236D03*
X147716411Y-73751395D03*
%TD*%
D11*
%TO.C,SW17*%
X159474161Y-83932323D03*
D12*
X164547199Y-84198189D03*
D11*
X169620237Y-84464055D03*
D13*
X160875353Y-81462270D03*
X167349585Y-79258084D03*
%TD*%
D11*
%TO.C,SW18*%
X179316214Y-87808534D03*
D12*
X184383839Y-88162896D03*
D11*
X189451464Y-88517258D03*
D13*
X180760301Y-85363311D03*
X187272015Y-83272452D03*
%TD*%
D11*
%TO.C,SW19*%
X73740144Y-106767560D03*
D12*
X78820144Y-106767560D03*
D11*
X83900144Y-106767560D03*
D13*
X75010144Y-104227560D03*
X81360144Y-101687560D03*
%TD*%
D11*
%TO.C,SW20*%
X99933894Y-106767560D03*
D12*
X105013894Y-106767560D03*
D11*
X110093894Y-106767560D03*
D13*
X101203894Y-104227560D03*
X107553894Y-101687560D03*
%TD*%
D11*
%TO.C,SW21*%
X119575000Y-102113684D03*
D12*
X124654226Y-102202342D03*
D11*
X129733452Y-102291000D03*
D13*
X120889135Y-99596235D03*
X127282497Y-97167445D03*
%TD*%
D11*
%TO.C,SW22*%
X139257614Y-97599344D03*
D12*
X144334519Y-97776633D03*
D11*
X149411424Y-97953922D03*
D13*
X140615484Y-95105213D03*
X147050261Y-92788372D03*
%TD*%
D11*
%TO.C,SW23*%
X158684490Y-102957074D03*
D12*
X163757528Y-103222940D03*
D11*
X168830566Y-103488806D03*
D13*
X160085682Y-100487021D03*
X166559914Y-98282835D03*
%TD*%
D11*
%TO.C,SW24*%
X178521634Y-106897820D03*
D12*
X183589259Y-107252182D03*
D11*
X188656884Y-107606544D03*
D13*
X179965721Y-104452597D03*
X186477435Y-102361738D03*
%TD*%
D22*
%TO.C,U2*%
X210015390Y-40686535D03*
D23*
X210315390Y-43716535D03*
X215165390Y-43716535D03*
D22*
X215465390Y-40686535D03*
D24*
X203850390Y-40556535D03*
X203850390Y-43096535D03*
D25*
X203850390Y-45636535D03*
D24*
X203850390Y-48176535D03*
X203850390Y-50716535D03*
X203850390Y-53256535D03*
X203850390Y-55796535D03*
D25*
X203850390Y-58336535D03*
D24*
X203850390Y-60876535D03*
X203850390Y-63416535D03*
X203850390Y-65956535D03*
X203850390Y-68496535D03*
D25*
X203850390Y-71036535D03*
D24*
X203850390Y-73576535D03*
X203850390Y-76116535D03*
X203850390Y-78656535D03*
X203850390Y-81196535D03*
D25*
X203850390Y-83736535D03*
D24*
X203850390Y-86276535D03*
X203850390Y-88816535D03*
X221630390Y-88816535D03*
X221630390Y-86276535D03*
D25*
X221630390Y-83736535D03*
D24*
X221630390Y-81196535D03*
X221630390Y-78656535D03*
X221630390Y-76116535D03*
X221630390Y-73576535D03*
D25*
X221630390Y-71036535D03*
D24*
X221630390Y-68496535D03*
X221630390Y-65956535D03*
X221630390Y-63416535D03*
X221630390Y-60876535D03*
D25*
X221630390Y-58336535D03*
D24*
X221630390Y-55796535D03*
X221630390Y-53256535D03*
X221630390Y-50716535D03*
X221630390Y-48176535D03*
D25*
X221630390Y-45636535D03*
D24*
X221630390Y-43096535D03*
X221630390Y-40556535D03*
X210200390Y-88586535D03*
D25*
X212740390Y-88586535D03*
D24*
X215280390Y-88586535D03*
%TD*%
M02*
