M48
; DRILL file KiCad 10.0.4 date 2026-07-21T16:04:16
; FORMAT={-:-/ absolute / metric / decimal}
; #@! TF.CreationDate,2026-07-21T16:04:16-07:00
; #@! TF.GenerationSoftware,Kicad,Pcbnew,10.0.4
; #@! TF.FileFunction,NonPlated,1,2,NPTH
FMAT,2
METRIC
; #@! TA.AperFunction,NonPlated,NPTH,ComponentDrill
T1C1.500
; #@! TA.AperFunction,NonPlated,NPTH,ComponentDrill
T2C1.750
; #@! TA.AperFunction,NonPlated,NPTH,ComponentDrill
T3C1.800
; #@! TA.AperFunction,NonPlated,NPTH,ComponentDrill
T4C3.200
; #@! TA.AperFunction,NonPlated,NPTH,ComponentDrill
T5C3.988
%
G90
G05
T1
X210.315Y-43.717
X215.165Y-43.717
T2
X73.74Y-106.768
X76.121Y-87.718
X78.503Y-68.668
X80.884Y-49.618
X83.9Y-106.768
X86.281Y-87.718
X88.663Y-68.668
X91.044Y-49.618
X99.934Y-49.618
X99.934Y-68.668
X99.934Y-87.718
X99.934Y-106.768
X110.094Y-49.618
X110.094Y-68.668
X110.094Y-87.718
X110.094Y-106.768
X119.575Y-102.114
X119.906Y-83.067
X120.24Y-64.021
X120.572Y-45.0
X129.733Y-102.291
X130.065Y-83.245
X130.398Y-64.198
X130.731Y-45.177
X139.258Y-97.599
X139.924Y-78.562
X140.589Y-59.524
X140.896Y-125.271
X141.258Y-40.486
X149.411Y-97.954
X150.078Y-78.917
X150.742Y-59.879
X151.042Y-125.803
X151.412Y-40.84
X158.684Y-102.957
X159.474Y-83.932
X160.159Y-64.909
X160.409Y-127.707
X161.158Y-45.885
X168.831Y-103.489
X169.62Y-84.464
X170.305Y-65.44
X170.545Y-128.415
X171.304Y-46.416
X178.522Y-106.898
X179.316Y-87.809
X180.106Y-68.759
X180.127Y-131.093
X180.909Y-49.664
X188.657Y-107.607
X189.451Y-88.517
X190.211Y-132.331
X190.242Y-69.467
X191.044Y-50.373
X199.868Y-135.571
X209.874Y-137.335
T3
X210.015Y-40.687
X215.465Y-40.687
T4
X63.976Y-120.174
X72.734Y-40.918
X131.762Y-130.175
X188.912Y-36.512
X219.075Y-96.837
X221.456Y-131.762
T5
X78.82Y-106.768
X81.201Y-87.718
X83.583Y-68.668
X85.964Y-49.618
X105.014Y-49.618
X105.014Y-68.668
X105.014Y-87.718
X105.014Y-106.768
X124.654Y-102.202
X124.985Y-83.156
X125.319Y-64.11
X125.651Y-45.089
X144.335Y-97.777
X145.001Y-78.74
X145.666Y-59.701
X145.969Y-125.537
X146.335Y-40.663
X163.758Y-103.223
X164.547Y-84.198
X165.232Y-65.174
X165.477Y-128.061
X166.231Y-46.15
X183.589Y-107.252
X184.384Y-88.163
X185.169Y-131.712
X185.174Y-69.113
X185.977Y-50.018
X204.871Y-136.453
M30
