M48
; DRILL file KiCad 10.0.4 date 2026-07-21T16:04:16
; FORMAT={-:-/ absolute / metric / decimal}
; #@! TF.CreationDate,2026-07-21T16:04:16-07:00
; #@! TF.GenerationSoftware,Kicad,Pcbnew,10.0.4
; #@! TF.FileFunction,Plated,1,2,PTH
FMAT,2
METRIC
; #@! TA.AperFunction,Plated,PTH,ViaDrill
T1C0.300
; #@! TA.AperFunction,Plated,PTH,ComponentDrill
T2C0.800
; #@! TA.AperFunction,Plated,PTH,ComponentDrill
T3C1.020
; #@! TA.AperFunction,Plated,PTH,ComponentDrill
T4C1.524
%
G90
G05
T1
X200.277Y-46.927
X201.388Y-59.527
X206.549Y-47.383
X208.93Y-57.702
X217.662Y-73.577
X224.012Y-72.227
X224.012Y-105.327
T2
X95.457Y-45.535
X95.457Y-53.155
X95.457Y-64.585
X95.457Y-72.205
X95.457Y-83.635
X95.457Y-91.255
X95.457Y-102.685
X95.457Y-110.305
X114.151Y-83.557
X114.151Y-91.177
X114.151Y-102.747
X114.151Y-110.367
X114.507Y-45.535
X114.507Y-53.155
X114.651Y-64.557
X114.651Y-72.177
X134.166Y-106.179
X134.299Y-98.56
X134.453Y-87.362
X134.586Y-79.743
X134.748Y-68.275
X134.881Y-60.656
X135.018Y-48.986
X135.151Y-41.367
X153.737Y-101.879
X154.003Y-94.264
X154.362Y-82.879
X154.628Y-75.264
X155.044Y-63.341
X155.286Y-130.034
X155.31Y-55.725
X155.685Y-122.424
X155.702Y-44.625
X155.968Y-37.009
X173.027Y-107.602
X173.426Y-99.993
X173.837Y-88.452
X174.236Y-80.843
X174.492Y-69.952
X174.768Y-132.53
X174.891Y-62.342
X175.299Y-124.928
X175.518Y-50.452
X175.917Y-42.843
X192.871Y-111.553
X193.402Y-103.952
X193.582Y-92.816
X194.113Y-85.214
X194.205Y-136.494
X194.488Y-73.208
X195.02Y-65.607
X195.133Y-128.93
X195.291Y-53.819
X195.822Y-46.218
X213.532Y-142.042
X214.855Y-134.537
T3
X203.85Y-40.557
X203.85Y-43.097
X203.85Y-45.637
X203.85Y-48.177
X203.85Y-50.717
X203.85Y-53.257
X203.85Y-55.797
X203.85Y-58.337
X203.85Y-60.877
X203.85Y-63.417
X203.85Y-65.957
X203.85Y-68.497
X203.85Y-71.037
X203.85Y-73.577
X203.85Y-76.117
X203.85Y-78.657
X203.85Y-81.197
X203.85Y-83.737
X203.85Y-86.277
X203.85Y-88.817
X210.2Y-88.587
X212.74Y-88.587
X215.28Y-88.587
X221.63Y-40.557
X221.63Y-43.097
X221.63Y-45.637
X221.63Y-48.177
X221.63Y-50.717
X221.63Y-53.257
X221.63Y-55.797
X221.63Y-58.337
X221.63Y-60.877
X221.63Y-63.417
X221.63Y-65.957
X221.63Y-68.497
X221.63Y-71.037
X221.63Y-73.577
X221.63Y-76.117
X221.63Y-78.657
X221.63Y-81.197
X221.63Y-83.737
X221.63Y-86.277
X221.63Y-88.817
T4
X75.01Y-104.228
X77.391Y-85.178
X79.773Y-66.128
X81.36Y-101.688
X82.154Y-47.078
X83.741Y-82.638
X86.123Y-63.588
X88.504Y-44.538
X101.204Y-47.078
X101.204Y-66.128
X101.204Y-85.178
X101.204Y-104.228
X107.554Y-44.538
X107.554Y-63.588
X107.554Y-82.638
X107.554Y-101.688
X120.889Y-99.596
X121.22Y-80.55
X121.554Y-61.503
X121.886Y-42.483
X127.282Y-97.167
X127.614Y-78.121
X127.947Y-59.075
X128.28Y-40.054
X140.615Y-95.105
X141.282Y-76.068
X141.946Y-57.03
X142.297Y-122.801
X142.616Y-37.992
X147.05Y-92.788
X147.716Y-73.751
X148.381Y-54.713
X148.771Y-120.597
X149.051Y-35.675
X160.086Y-100.487
X160.875Y-81.462
X161.561Y-62.439
X161.853Y-125.261
X162.559Y-43.414
X166.56Y-98.283
X167.35Y-79.258
X168.035Y-60.234
X168.365Y-123.17
X169.033Y-41.21
X179.966Y-104.453
X180.76Y-85.363
X181.55Y-66.313
X181.697Y-128.727
X182.353Y-47.219
X186.477Y-102.362
X187.272Y-83.272
X188.062Y-64.222
X188.309Y-126.979
X188.865Y-45.128
X201.56Y-133.29
X208.255Y-131.891
M30
