%TF.GenerationSoftware,KiCad,Pcbnew,10.0.4*%
%TF.CreationDate,2026-07-21T16:04:12-07:00*%
%TF.ProjectId,custom-keyboard,63757374-6f6d-42d6-9b65-79626f617264,rev?*%
%TF.SameCoordinates,Original*%
%TF.FileFunction,Profile,NP*%
%FSLAX46Y46*%
G04 Gerber Fmt 4.6, Leading zero omitted, Abs format (unit mm)*
G04 Created by KiCad (PCBNEW 10.0.4) date 2026-07-21 16:04:12*
%MOMM*%
%LPD*%
G01*
G04 APERTURE LIST*
%TA.AperFunction,Profile*%
%ADD10C,0.050000*%
%TD*%
G04 APERTURE END LIST*
D10*
X227012639Y-132491111D02*
G75*
G02*
X226985374Y-132615472I-300039J611D01*
G01*
X219001554Y-150034676D02*
G75*
G02*
X218682366Y-150206108I-272754J124976D01*
G01*
X158863519Y-30173550D02*
G75*
G02*
X158575030Y-29873770I11481J299750D01*
G01*
X200324905Y-38100095D02*
G75*
G02*
X200025005Y-37800095I95J299995D01*
G01*
X199736481Y-31738950D02*
G75*
G02*
X200024970Y-32038730I-11481J-299750D01*
G01*
X126083490Y-125166612D02*
G75*
G02*
X126384728Y-125490677I2210J-299988D01*
G01*
X58238545Y-125657145D02*
G75*
G02*
X57936450Y-125355831I-2145J299945D01*
G01*
X125809239Y-136536897D02*
G75*
G02*
X125521554Y-136213038I11361J299797D01*
G01*
X68075000Y-35913684D02*
G75*
G02*
X68375000Y-35613700I300000J-16D01*
G01*
X57936379Y-125355831D02*
X58075000Y-93867684D01*
X126083490Y-125166612D02*
X58238545Y-125657145D01*
X58329000Y-93613684D02*
X63321000Y-93613684D01*
X63575000Y-74367684D02*
G75*
G02*
X63829000Y-74113684I254000J0D01*
G01*
X63575000Y-93359684D02*
G75*
G02*
X63321000Y-93613684I-254000J0D01*
G01*
X63575000Y-93359684D02*
X63575000Y-74367684D01*
X67821000Y-74113684D02*
X63829000Y-74113684D01*
X68075000Y-73859684D02*
G75*
G02*
X67821000Y-74113684I-254000J0D01*
G01*
X68075000Y-73859684D02*
X68075000Y-35913684D01*
X68375000Y-35613684D02*
X112821000Y-35613684D01*
X113075000Y-32373522D02*
G75*
G02*
X113334771Y-32119589I253999J0D01*
G01*
X113075000Y-35359684D02*
G75*
G02*
X112821000Y-35613684I-254000J0D01*
G01*
X113075000Y-35359684D02*
X113075000Y-32373522D01*
X113334771Y-32119588D02*
X134839890Y-32608341D01*
X125521611Y-136213043D02*
X126384692Y-125490674D01*
X135098400Y-32379680D02*
G75*
G02*
X134839890Y-32608341I-252741J25275D01*
G01*
X135098400Y-32379680D02*
X135551623Y-27847456D01*
X135551623Y-27847456D02*
G75*
G02*
X135809882Y-27618791I252738J-25273D01*
G01*
X135809882Y-27618790D02*
X158326520Y-28108282D01*
X153832278Y-137602896D02*
X125809239Y-136536897D01*
X153832278Y-137602896D02*
G75*
G02*
X154075000Y-137856646I-11276J-253748D01*
G01*
X154075000Y-137856646D02*
X154075000Y-138878946D01*
X154309010Y-139132158D02*
G75*
G02*
X154075000Y-138878946I19989J253211D01*
G01*
X158326520Y-28108282D02*
G75*
G02*
X158575000Y-28362222I-5520J-253940D01*
G01*
X158575000Y-28362222D02*
X158575000Y-29873770D01*
X158863519Y-30173550D02*
X199736481Y-31738950D01*
X172840990Y-140595210D02*
X154309010Y-139132158D01*
X172840990Y-140595210D02*
G75*
G02*
X173075000Y-140848422I-20009J-253230D01*
G01*
X173075000Y-141890169D02*
X173075000Y-140848422D01*
X173296700Y-142142107D02*
G75*
G02*
X173075000Y-141890169I32330J251964D01*
G01*
X200025000Y-32038730D02*
X200025000Y-37800095D01*
X200324905Y-38100095D02*
X226823605Y-38108514D01*
X192353300Y-144585261D02*
X173296700Y-142142107D01*
X192353300Y-144585261D02*
G75*
G02*
X192575021Y-144837199I-32260J-251924D01*
G01*
X192575000Y-145896140D02*
X192575000Y-144837199D01*
X192789958Y-146147122D02*
G75*
G02*
X192574993Y-145896140I38982J250937D01*
G01*
X218682374Y-150206060D02*
X192789958Y-146147122D01*
X226985360Y-132615465D02*
X219001554Y-150034676D01*
X226823605Y-38108514D02*
G75*
G02*
X227075024Y-38362500I-2565J-253971D01*
G01*
X227075000Y-38362500D02*
X227075000Y-46862500D01*
X227075000Y-46862500D02*
X227075000Y-73818750D01*
X227075000Y-73818750D02*
X227075000Y-103362500D01*
X227075000Y-103362500D02*
X227012639Y-132491111D01*
X58075000Y-93867684D02*
G75*
G02*
X58329000Y-93613684I254000J0D01*
G01*
M02*
