%TF.GenerationSoftware,KiCad,Pcbnew,10.0.4*%
%TF.CreationDate,2026-07-21T16:04:12-07:00*%
%TF.ProjectId,custom-keyboard,63757374-6f6d-42d6-9b65-79626f617264,rev?*%
%TF.SameCoordinates,Original*%
%TF.FileFunction,Legend,Bot*%
%TF.FilePolarity,Positive*%
%FSLAX46Y46*%
G04 Gerber Fmt 4.6, Leading zero omitted, Abs format (unit mm)*
G04 Created by KiCad (PCBNEW 10.0.4) date 2026-07-21 16:04:12*
%MOMM*%
%LPD*%
G01*
G04 APERTURE LIST*
%ADD10C,0.150000*%
%ADD11C,0.120000*%
G04 APERTURE END LIST*
D10*
X98031728Y-48606544D02*
X97031728Y-48606544D01*
X97031728Y-48606544D02*
X97031728Y-48844639D01*
X97031728Y-48844639D02*
X97079347Y-48987496D01*
X97079347Y-48987496D02*
X97174585Y-49082734D01*
X97174585Y-49082734D02*
X97269823Y-49130353D01*
X97269823Y-49130353D02*
X97460299Y-49177972D01*
X97460299Y-49177972D02*
X97603156Y-49177972D01*
X97603156Y-49177972D02*
X97793632Y-49130353D01*
X97793632Y-49130353D02*
X97888870Y-49082734D01*
X97888870Y-49082734D02*
X97984109Y-48987496D01*
X97984109Y-48987496D02*
X98031728Y-48844639D01*
X98031728Y-48844639D02*
X98031728Y-48606544D01*
X98031728Y-50130353D02*
X98031728Y-49558925D01*
X98031728Y-49844639D02*
X97031728Y-49844639D01*
X97031728Y-49844639D02*
X97174585Y-49749401D01*
X97174585Y-49749401D02*
X97269823Y-49654163D01*
X97269823Y-49654163D02*
X97317442Y-49558925D01*
X97711728Y-52892747D02*
X96711728Y-52892747D01*
X97711728Y-53464175D02*
X97140299Y-53035604D01*
X96711728Y-53464175D02*
X97283156Y-52892747D01*
X117081727Y-48606544D02*
X116081727Y-48606544D01*
X116081727Y-48606544D02*
X116081727Y-48844639D01*
X116081727Y-48844639D02*
X116129346Y-48987496D01*
X116129346Y-48987496D02*
X116224584Y-49082734D01*
X116224584Y-49082734D02*
X116319822Y-49130353D01*
X116319822Y-49130353D02*
X116510298Y-49177972D01*
X116510298Y-49177972D02*
X116653155Y-49177972D01*
X116653155Y-49177972D02*
X116843631Y-49130353D01*
X116843631Y-49130353D02*
X116938869Y-49082734D01*
X116938869Y-49082734D02*
X117034108Y-48987496D01*
X117034108Y-48987496D02*
X117081727Y-48844639D01*
X117081727Y-48844639D02*
X117081727Y-48606544D01*
X116176965Y-49558925D02*
X116129346Y-49606544D01*
X116129346Y-49606544D02*
X116081727Y-49701782D01*
X116081727Y-49701782D02*
X116081727Y-49939877D01*
X116081727Y-49939877D02*
X116129346Y-50035115D01*
X116129346Y-50035115D02*
X116176965Y-50082734D01*
X116176965Y-50082734D02*
X116272203Y-50130353D01*
X116272203Y-50130353D02*
X116367441Y-50130353D01*
X116367441Y-50130353D02*
X116510298Y-50082734D01*
X116510298Y-50082734D02*
X117081727Y-49511306D01*
X117081727Y-49511306D02*
X117081727Y-50130353D01*
X116761727Y-52892747D02*
X115761727Y-52892747D01*
X116761727Y-53464175D02*
X116190298Y-53035604D01*
X115761727Y-53464175D02*
X116333155Y-52892747D01*
X137671473Y-44483512D02*
X136671625Y-44466059D01*
X136671625Y-44466059D02*
X136667470Y-44704118D01*
X136667470Y-44704118D02*
X136712588Y-44847785D01*
X136712588Y-44847785D02*
X136806150Y-44944671D01*
X136806150Y-44944671D02*
X136900542Y-44993945D01*
X136900542Y-44993945D02*
X137090158Y-45044881D01*
X137090158Y-45044881D02*
X137232994Y-45047374D01*
X137232994Y-45047374D02*
X137424272Y-45003086D01*
X137424272Y-45003086D02*
X137520327Y-44957137D01*
X137520327Y-44957137D02*
X137617212Y-44863575D01*
X137617212Y-44863575D02*
X137667317Y-44721571D01*
X137667317Y-44721571D02*
X137671473Y-44483512D01*
X136655835Y-45370684D02*
X136645031Y-45989637D01*
X136645031Y-45989637D02*
X137031743Y-45663003D01*
X137031743Y-45663003D02*
X137029250Y-45805838D01*
X137029250Y-45805838D02*
X137075199Y-45901893D01*
X137075199Y-45901893D02*
X137121980Y-45950336D01*
X137121980Y-45950336D02*
X137216373Y-45999610D01*
X137216373Y-45999610D02*
X137454431Y-46003765D01*
X137454431Y-46003765D02*
X137550486Y-45957815D01*
X137550486Y-45957815D02*
X137598929Y-45911035D01*
X137598929Y-45911035D02*
X137648203Y-45816642D01*
X137648203Y-45816642D02*
X137653189Y-45530971D01*
X137653189Y-45530971D02*
X137607240Y-45434917D01*
X137607240Y-45434917D02*
X137560459Y-45386474D01*
X137276717Y-48763477D02*
X136276869Y-48746025D01*
X137266744Y-49334819D02*
X136702882Y-48896340D01*
X136266897Y-49317366D02*
X136848211Y-48755998D01*
X158434382Y-40169246D02*
X157434991Y-40134347D01*
X157434991Y-40134347D02*
X157426681Y-40372297D01*
X157426681Y-40372297D02*
X157469286Y-40516729D01*
X157469286Y-40516729D02*
X157561142Y-40615233D01*
X157561142Y-40615233D02*
X157654660Y-40666147D01*
X157654660Y-40666147D02*
X157843359Y-40720384D01*
X157843359Y-40720384D02*
X157986129Y-40725370D01*
X157986129Y-40725370D02*
X158178151Y-40684427D01*
X158178151Y-40684427D02*
X158274993Y-40640161D01*
X158274993Y-40640161D02*
X158373497Y-40548305D01*
X158373497Y-40548305D02*
X158426072Y-40407197D01*
X158426072Y-40407197D02*
X158434382Y-40169246D01*
X157718265Y-41573681D02*
X158384525Y-41596948D01*
X157345854Y-41322436D02*
X158068014Y-41109414D01*
X158068014Y-41109414D02*
X158046409Y-41728084D01*
X157964990Y-44441671D02*
X156965599Y-44406772D01*
X157945047Y-45012752D02*
X157388924Y-44564499D01*
X156945656Y-44977852D02*
X157536679Y-44426714D01*
X178327559Y-46045264D02*
X177328930Y-45992928D01*
X177328930Y-45992928D02*
X177316469Y-46230697D01*
X177316469Y-46230697D02*
X177356546Y-46375850D01*
X177356546Y-46375850D02*
X177446669Y-46475942D01*
X177446669Y-46475942D02*
X177539284Y-46528480D01*
X177539284Y-46528480D02*
X177727007Y-46586003D01*
X177727007Y-46586003D02*
X177869669Y-46593479D01*
X177869669Y-46593479D02*
X178062376Y-46555894D01*
X178062376Y-46555894D02*
X178159976Y-46513325D01*
X178159976Y-46513325D02*
X178260068Y-46423202D01*
X178260068Y-46423202D02*
X178315098Y-46283033D01*
X178315098Y-46283033D02*
X178327559Y-46045264D01*
X177251672Y-47467095D02*
X177276594Y-46991557D01*
X177276594Y-46991557D02*
X177754624Y-46968925D01*
X177754624Y-46968925D02*
X177704578Y-47013987D01*
X177704578Y-47013987D02*
X177652040Y-47106602D01*
X177652040Y-47106602D02*
X177639579Y-47344371D01*
X177639579Y-47344371D02*
X177682148Y-47441971D01*
X177682148Y-47441971D02*
X177727210Y-47492017D01*
X177727210Y-47492017D02*
X177819825Y-47544555D01*
X177819825Y-47544555D02*
X178057594Y-47557016D01*
X178057594Y-47557016D02*
X178155194Y-47514447D01*
X178155194Y-47514447D02*
X178205240Y-47469385D01*
X178205240Y-47469385D02*
X178257778Y-47376770D01*
X178257778Y-47376770D02*
X178270239Y-47139001D01*
X178270239Y-47139001D02*
X178227669Y-47041401D01*
X178227669Y-47041401D02*
X178182608Y-46991355D01*
X177783674Y-50308846D02*
X176785045Y-50256510D01*
X177753768Y-50879492D02*
X177205552Y-50421601D01*
X176755138Y-50827156D02*
X177355690Y-50286416D01*
X198176729Y-49461753D02*
X197179164Y-49391997D01*
X197179164Y-49391997D02*
X197162556Y-49629512D01*
X197162556Y-49629512D02*
X197200094Y-49775343D01*
X197200094Y-49775343D02*
X197288456Y-49876993D01*
X197288456Y-49876993D02*
X197380141Y-49931139D01*
X197380141Y-49931139D02*
X197566831Y-49991929D01*
X197566831Y-49991929D02*
X197709340Y-50001894D01*
X197709340Y-50001894D02*
X197902674Y-49967678D01*
X197902674Y-49967678D02*
X198001002Y-49926819D01*
X198001002Y-49926819D02*
X198102652Y-49838456D01*
X198102652Y-49838456D02*
X198160120Y-49699269D01*
X198160120Y-49699269D02*
X198176729Y-49461753D01*
X197079512Y-50817088D02*
X197092799Y-50627076D01*
X197092799Y-50627076D02*
X197146946Y-50535392D01*
X197146946Y-50535392D02*
X197197771Y-50491210D01*
X197197771Y-50491210D02*
X197346923Y-50406170D01*
X197346923Y-50406170D02*
X197540257Y-50371953D01*
X197540257Y-50371953D02*
X197920282Y-50398527D01*
X197920282Y-50398527D02*
X198011966Y-50452674D01*
X198011966Y-50452674D02*
X198056147Y-50503499D01*
X198056147Y-50503499D02*
X198097007Y-50601826D01*
X198097007Y-50601826D02*
X198083720Y-50791839D01*
X198083720Y-50791839D02*
X198029573Y-50883523D01*
X198029573Y-50883523D02*
X197978749Y-50927704D01*
X197978749Y-50927704D02*
X197880421Y-50968564D01*
X197880421Y-50968564D02*
X197642905Y-50951955D01*
X197642905Y-50951955D02*
X197551221Y-50897809D01*
X197551221Y-50897809D02*
X197507040Y-50846984D01*
X197507040Y-50846984D02*
X197466180Y-50748656D01*
X197466180Y-50748656D02*
X197479467Y-50558644D01*
X197479467Y-50558644D02*
X197533614Y-50466960D01*
X197533614Y-50466960D02*
X197584438Y-50422778D01*
X197584438Y-50422778D02*
X197682766Y-50381919D01*
X197558517Y-53715194D02*
X196560953Y-53645438D01*
X197518656Y-54285231D02*
X196978515Y-53817843D01*
X196521092Y-54215474D02*
X197130990Y-53685299D01*
X98031728Y-67656544D02*
X97031728Y-67656544D01*
X97031728Y-67656544D02*
X97031728Y-67894639D01*
X97031728Y-67894639D02*
X97079347Y-68037496D01*
X97079347Y-68037496D02*
X97174585Y-68132734D01*
X97174585Y-68132734D02*
X97269823Y-68180353D01*
X97269823Y-68180353D02*
X97460299Y-68227972D01*
X97460299Y-68227972D02*
X97603156Y-68227972D01*
X97603156Y-68227972D02*
X97793632Y-68180353D01*
X97793632Y-68180353D02*
X97888870Y-68132734D01*
X97888870Y-68132734D02*
X97984109Y-68037496D01*
X97984109Y-68037496D02*
X98031728Y-67894639D01*
X98031728Y-67894639D02*
X98031728Y-67656544D01*
X97031728Y-68561306D02*
X97031728Y-69227972D01*
X97031728Y-69227972D02*
X98031728Y-68799401D01*
X97711728Y-71942747D02*
X96711728Y-71942747D01*
X97711728Y-72514175D02*
X97140299Y-72085604D01*
X96711728Y-72514175D02*
X97283156Y-71942747D01*
X117225478Y-67629042D02*
X116225478Y-67629042D01*
X116225478Y-67629042D02*
X116225478Y-67867137D01*
X116225478Y-67867137D02*
X116273097Y-68009994D01*
X116273097Y-68009994D02*
X116368335Y-68105232D01*
X116368335Y-68105232D02*
X116463573Y-68152851D01*
X116463573Y-68152851D02*
X116654049Y-68200470D01*
X116654049Y-68200470D02*
X116796906Y-68200470D01*
X116796906Y-68200470D02*
X116987382Y-68152851D01*
X116987382Y-68152851D02*
X117082620Y-68105232D01*
X117082620Y-68105232D02*
X117177859Y-68009994D01*
X117177859Y-68009994D02*
X117225478Y-67867137D01*
X117225478Y-67867137D02*
X117225478Y-67629042D01*
X116654049Y-68771899D02*
X116606430Y-68676661D01*
X116606430Y-68676661D02*
X116558811Y-68629042D01*
X116558811Y-68629042D02*
X116463573Y-68581423D01*
X116463573Y-68581423D02*
X116415954Y-68581423D01*
X116415954Y-68581423D02*
X116320716Y-68629042D01*
X116320716Y-68629042D02*
X116273097Y-68676661D01*
X116273097Y-68676661D02*
X116225478Y-68771899D01*
X116225478Y-68771899D02*
X116225478Y-68962375D01*
X116225478Y-68962375D02*
X116273097Y-69057613D01*
X116273097Y-69057613D02*
X116320716Y-69105232D01*
X116320716Y-69105232D02*
X116415954Y-69152851D01*
X116415954Y-69152851D02*
X116463573Y-69152851D01*
X116463573Y-69152851D02*
X116558811Y-69105232D01*
X116558811Y-69105232D02*
X116606430Y-69057613D01*
X116606430Y-69057613D02*
X116654049Y-68962375D01*
X116654049Y-68962375D02*
X116654049Y-68771899D01*
X116654049Y-68771899D02*
X116701668Y-68676661D01*
X116701668Y-68676661D02*
X116749287Y-68629042D01*
X116749287Y-68629042D02*
X116844525Y-68581423D01*
X116844525Y-68581423D02*
X117035001Y-68581423D01*
X117035001Y-68581423D02*
X117130239Y-68629042D01*
X117130239Y-68629042D02*
X117177859Y-68676661D01*
X117177859Y-68676661D02*
X117225478Y-68771899D01*
X117225478Y-68771899D02*
X117225478Y-68962375D01*
X117225478Y-68962375D02*
X117177859Y-69057613D01*
X117177859Y-69057613D02*
X117130239Y-69105232D01*
X117130239Y-69105232D02*
X117035001Y-69152851D01*
X117035001Y-69152851D02*
X116844525Y-69152851D01*
X116844525Y-69152851D02*
X116749287Y-69105232D01*
X116749287Y-69105232D02*
X116701668Y-69057613D01*
X116701668Y-69057613D02*
X116654049Y-68962375D01*
X116905478Y-71915245D02*
X115905478Y-71915245D01*
X116905478Y-72486673D02*
X116334049Y-72058102D01*
X115905478Y-72486673D02*
X116476906Y-71915245D01*
X137401695Y-63772261D02*
X136401847Y-63754808D01*
X136401847Y-63754808D02*
X136397692Y-63992867D01*
X136397692Y-63992867D02*
X136442810Y-64136534D01*
X136442810Y-64136534D02*
X136536372Y-64233420D01*
X136536372Y-64233420D02*
X136630764Y-64282694D01*
X136630764Y-64282694D02*
X136820380Y-64333630D01*
X136820380Y-64333630D02*
X136963216Y-64336123D01*
X136963216Y-64336123D02*
X137154494Y-64291835D01*
X137154494Y-64291835D02*
X137250549Y-64245886D01*
X137250549Y-64245886D02*
X137347434Y-64152324D01*
X137347434Y-64152324D02*
X137397539Y-64010320D01*
X137397539Y-64010320D02*
X137401695Y-63772261D01*
X137383411Y-64819720D02*
X137380087Y-65010168D01*
X137380087Y-65010168D02*
X137330813Y-65104560D01*
X137330813Y-65104560D02*
X137282370Y-65151341D01*
X137282370Y-65151341D02*
X137137873Y-65244071D01*
X137137873Y-65244071D02*
X136946595Y-65288359D01*
X136946595Y-65288359D02*
X136565700Y-65281710D01*
X136565700Y-65281710D02*
X136471308Y-65232436D01*
X136471308Y-65232436D02*
X136424527Y-65183993D01*
X136424527Y-65183993D02*
X136378577Y-65087939D01*
X136378577Y-65087939D02*
X136381902Y-64897492D01*
X136381902Y-64897492D02*
X136431175Y-64803099D01*
X136431175Y-64803099D02*
X136479618Y-64756318D01*
X136479618Y-64756318D02*
X136575673Y-64710369D01*
X136575673Y-64710369D02*
X136813732Y-64714524D01*
X136813732Y-64714524D02*
X136908124Y-64763798D01*
X136908124Y-64763798D02*
X136954905Y-64812241D01*
X136954905Y-64812241D02*
X137000855Y-64908295D01*
X137000855Y-64908295D02*
X136997531Y-65098743D01*
X136997531Y-65098743D02*
X136948257Y-65193135D01*
X136948257Y-65193135D02*
X136899814Y-65239916D01*
X136899814Y-65239916D02*
X136803759Y-65285865D01*
X137006939Y-68052226D02*
X136007091Y-68034774D01*
X136996966Y-68623568D02*
X136433104Y-68185089D01*
X135997119Y-68606115D02*
X136578433Y-68044747D01*
X157792793Y-58409420D02*
X156793403Y-58374521D01*
X156793403Y-58374521D02*
X156785093Y-58612471D01*
X156785093Y-58612471D02*
X156827698Y-58756903D01*
X156827698Y-58756903D02*
X156919554Y-58855407D01*
X156919554Y-58855407D02*
X157013072Y-58906321D01*
X157013072Y-58906321D02*
X157201770Y-58960558D01*
X157201770Y-58960558D02*
X157344541Y-58965544D01*
X157344541Y-58965544D02*
X157536563Y-58924601D01*
X157536563Y-58924601D02*
X157633405Y-58880335D01*
X157633405Y-58880335D02*
X157731908Y-58788479D01*
X157731908Y-58788479D02*
X157784484Y-58647371D01*
X157784484Y-58647371D02*
X157792793Y-58409420D01*
X157739613Y-59932302D02*
X157759556Y-59361221D01*
X157749585Y-59646761D02*
X156750194Y-59611862D01*
X156750194Y-59611862D02*
X156896288Y-59521667D01*
X156896288Y-59521667D02*
X156994791Y-59429811D01*
X156994791Y-59429811D02*
X157045705Y-59336293D01*
X156718618Y-60516073D02*
X156715294Y-60611253D01*
X156715294Y-60611253D02*
X156759560Y-60708095D01*
X156759560Y-60708095D02*
X156805489Y-60757347D01*
X156805489Y-60757347D02*
X156899007Y-60808260D01*
X156899007Y-60808260D02*
X157087705Y-60862498D01*
X157087705Y-60862498D02*
X157325655Y-60870807D01*
X157325655Y-60870807D02*
X157517677Y-60829865D01*
X157517677Y-60829865D02*
X157614519Y-60785599D01*
X157614519Y-60785599D02*
X157663771Y-60739671D01*
X157663771Y-60739671D02*
X157714685Y-60646152D01*
X157714685Y-60646152D02*
X157718009Y-60550972D01*
X157718009Y-60550972D02*
X157673743Y-60454130D01*
X157673743Y-60454130D02*
X157627814Y-60404878D01*
X157627814Y-60404878D02*
X157534296Y-60353965D01*
X157534296Y-60353965D02*
X157345598Y-60299727D01*
X157345598Y-60299727D02*
X157107648Y-60291418D01*
X157107648Y-60291418D02*
X156915626Y-60332360D01*
X156915626Y-60332360D02*
X156818784Y-60376626D01*
X156818784Y-60376626D02*
X156769532Y-60422555D01*
X156769532Y-60422555D02*
X156718618Y-60516073D01*
X157306783Y-63157746D02*
X156307392Y-63122847D01*
X157286840Y-63728827D02*
X156730717Y-63280574D01*
X156287449Y-63693927D02*
X156878472Y-63142789D01*
X177326313Y-65069040D02*
X176327684Y-65016704D01*
X176327684Y-65016704D02*
X176315223Y-65254473D01*
X176315223Y-65254473D02*
X176355300Y-65399627D01*
X176355300Y-65399627D02*
X176445423Y-65499719D01*
X176445423Y-65499719D02*
X176538038Y-65552257D01*
X176538038Y-65552257D02*
X176725761Y-65609779D01*
X176725761Y-65609779D02*
X176868423Y-65617256D01*
X176868423Y-65617256D02*
X177061130Y-65579671D01*
X177061130Y-65579671D02*
X177158730Y-65537102D01*
X177158730Y-65537102D02*
X177258822Y-65446978D01*
X177258822Y-65446978D02*
X177313852Y-65306809D01*
X177313852Y-65306809D02*
X177326313Y-65069040D01*
X177246563Y-66590761D02*
X177276469Y-66020116D01*
X177261516Y-66305439D02*
X176262887Y-66253103D01*
X176262887Y-66253103D02*
X176410532Y-66165472D01*
X176410532Y-66165472D02*
X176510624Y-66075349D01*
X176510624Y-66075349D02*
X176563162Y-65982733D01*
X177196719Y-67541837D02*
X177226626Y-66971192D01*
X177211672Y-67256515D02*
X176213043Y-67204179D01*
X176213043Y-67204179D02*
X176360689Y-67116548D01*
X176360689Y-67116548D02*
X176460781Y-67026424D01*
X176460781Y-67026424D02*
X176513319Y-66933809D01*
X176757506Y-69808161D02*
X175758877Y-69755825D01*
X176727600Y-70378807D02*
X176179384Y-69920916D01*
X175728970Y-70326471D02*
X176329522Y-69785731D01*
X197407259Y-68376003D02*
X196409695Y-68306247D01*
X196409695Y-68306247D02*
X196393086Y-68543762D01*
X196393086Y-68543762D02*
X196430624Y-68689593D01*
X196430624Y-68689593D02*
X196518987Y-68791242D01*
X196518987Y-68791242D02*
X196610671Y-68845389D01*
X196610671Y-68845389D02*
X196797361Y-68906179D01*
X196797361Y-68906179D02*
X196939871Y-68916144D01*
X196939871Y-68916144D02*
X197133205Y-68881928D01*
X197133205Y-68881928D02*
X197231532Y-68841069D01*
X197231532Y-68841069D02*
X197333182Y-68752706D01*
X197333182Y-68752706D02*
X197390650Y-68613519D01*
X197390650Y-68613519D02*
X197407259Y-68376003D01*
X197300963Y-69896101D02*
X197340824Y-69326064D01*
X197320894Y-69611083D02*
X196323330Y-69541326D01*
X196323330Y-69541326D02*
X196472482Y-69456285D01*
X196472482Y-69456285D02*
X196574132Y-69367923D01*
X196574132Y-69367923D02*
X196628278Y-69276238D01*
X196371831Y-70213012D02*
X196321007Y-70257194D01*
X196321007Y-70257194D02*
X196266860Y-70348878D01*
X196266860Y-70348878D02*
X196250252Y-70586393D01*
X196250252Y-70586393D02*
X196291111Y-70684721D01*
X196291111Y-70684721D02*
X196335292Y-70735546D01*
X196335292Y-70735546D02*
X196426977Y-70789692D01*
X196426977Y-70789692D02*
X196521983Y-70796336D01*
X196521983Y-70796336D02*
X196667814Y-70758798D01*
X196667814Y-70758798D02*
X197277711Y-70228622D01*
X197277711Y-70228622D02*
X197234529Y-70846162D01*
X196755830Y-73104475D02*
X195758266Y-73034719D01*
X196715969Y-73674512D02*
X196175828Y-73207124D01*
X195718405Y-73604755D02*
X196328303Y-73074580D01*
X98031730Y-86230353D02*
X97031730Y-86230353D01*
X97031730Y-86230353D02*
X97031730Y-86468448D01*
X97031730Y-86468448D02*
X97079349Y-86611305D01*
X97079349Y-86611305D02*
X97174587Y-86706543D01*
X97174587Y-86706543D02*
X97269825Y-86754162D01*
X97269825Y-86754162D02*
X97460301Y-86801781D01*
X97460301Y-86801781D02*
X97603158Y-86801781D01*
X97603158Y-86801781D02*
X97793634Y-86754162D01*
X97793634Y-86754162D02*
X97888872Y-86706543D01*
X97888872Y-86706543D02*
X97984111Y-86611305D01*
X97984111Y-86611305D02*
X98031730Y-86468448D01*
X98031730Y-86468448D02*
X98031730Y-86230353D01*
X98031730Y-87754162D02*
X98031730Y-87182734D01*
X98031730Y-87468448D02*
X97031730Y-87468448D01*
X97031730Y-87468448D02*
X97174587Y-87373210D01*
X97174587Y-87373210D02*
X97269825Y-87277972D01*
X97269825Y-87277972D02*
X97317444Y-87182734D01*
X97031730Y-88087496D02*
X97031730Y-88706543D01*
X97031730Y-88706543D02*
X97412682Y-88373210D01*
X97412682Y-88373210D02*
X97412682Y-88516067D01*
X97412682Y-88516067D02*
X97460301Y-88611305D01*
X97460301Y-88611305D02*
X97507920Y-88658924D01*
X97507920Y-88658924D02*
X97603158Y-88706543D01*
X97603158Y-88706543D02*
X97841253Y-88706543D01*
X97841253Y-88706543D02*
X97936491Y-88658924D01*
X97936491Y-88658924D02*
X97984111Y-88611305D01*
X97984111Y-88611305D02*
X98031730Y-88516067D01*
X98031730Y-88516067D02*
X98031730Y-88230353D01*
X98031730Y-88230353D02*
X97984111Y-88135115D01*
X97984111Y-88135115D02*
X97936491Y-88087496D01*
X97711730Y-90992747D02*
X96711730Y-90992747D01*
X97711730Y-91564175D02*
X97140301Y-91135604D01*
X96711730Y-91564175D02*
X97283158Y-90992747D01*
X116725478Y-86152851D02*
X115725478Y-86152851D01*
X115725478Y-86152851D02*
X115725478Y-86390946D01*
X115725478Y-86390946D02*
X115773097Y-86533803D01*
X115773097Y-86533803D02*
X115868335Y-86629041D01*
X115868335Y-86629041D02*
X115963573Y-86676660D01*
X115963573Y-86676660D02*
X116154049Y-86724279D01*
X116154049Y-86724279D02*
X116296906Y-86724279D01*
X116296906Y-86724279D02*
X116487382Y-86676660D01*
X116487382Y-86676660D02*
X116582620Y-86629041D01*
X116582620Y-86629041D02*
X116677859Y-86533803D01*
X116677859Y-86533803D02*
X116725478Y-86390946D01*
X116725478Y-86390946D02*
X116725478Y-86152851D01*
X116725478Y-87676660D02*
X116725478Y-87105232D01*
X116725478Y-87390946D02*
X115725478Y-87390946D01*
X115725478Y-87390946D02*
X115868335Y-87295708D01*
X115868335Y-87295708D02*
X115963573Y-87200470D01*
X115963573Y-87200470D02*
X116011192Y-87105232D01*
X116058811Y-88533803D02*
X116725478Y-88533803D01*
X115677859Y-88295708D02*
X116392144Y-88057613D01*
X116392144Y-88057613D02*
X116392144Y-88676660D01*
X116405478Y-90915245D02*
X115405478Y-90915245D01*
X116405478Y-91486673D02*
X115834049Y-91058102D01*
X115405478Y-91486673D02*
X115976906Y-90915245D01*
X137115439Y-82383224D02*
X136115592Y-82365772D01*
X136115592Y-82365772D02*
X136111436Y-82603831D01*
X136111436Y-82603831D02*
X136156555Y-82747497D01*
X136156555Y-82747497D02*
X136250117Y-82844383D01*
X136250117Y-82844383D02*
X136344509Y-82893657D01*
X136344509Y-82893657D02*
X136534125Y-82944593D01*
X136534125Y-82944593D02*
X136676961Y-82947086D01*
X136676961Y-82947086D02*
X136868239Y-82902799D01*
X136868239Y-82902799D02*
X136964293Y-82856849D01*
X136964293Y-82856849D02*
X137061179Y-82763288D01*
X137061179Y-82763288D02*
X137111284Y-82621283D01*
X137111284Y-82621283D02*
X137115439Y-82383224D01*
X137088845Y-83906802D02*
X137098818Y-83335460D01*
X137093832Y-83621131D02*
X136093984Y-83603679D01*
X136093984Y-83603679D02*
X136238482Y-83510948D01*
X136238482Y-83510948D02*
X136335367Y-83417387D01*
X136335367Y-83417387D02*
X136384641Y-83322994D01*
X136073207Y-84793974D02*
X136081518Y-84317856D01*
X136081518Y-84317856D02*
X136558467Y-84278554D01*
X136558467Y-84278554D02*
X136510024Y-84325335D01*
X136510024Y-84325335D02*
X136460750Y-84419728D01*
X136460750Y-84419728D02*
X136456595Y-84657787D01*
X136456595Y-84657787D02*
X136502545Y-84753841D01*
X136502545Y-84753841D02*
X136549325Y-84802284D01*
X136549325Y-84802284D02*
X136643718Y-84851558D01*
X136643718Y-84851558D02*
X136881777Y-84855713D01*
X136881777Y-84855713D02*
X136977831Y-84809764D01*
X136977831Y-84809764D02*
X137026274Y-84762983D01*
X137026274Y-84762983D02*
X137075548Y-84668591D01*
X137075548Y-84668591D02*
X137079704Y-84430532D01*
X137079704Y-84430532D02*
X137033754Y-84334477D01*
X137033754Y-84334477D02*
X136986973Y-84286034D01*
X136712373Y-87139308D02*
X135712525Y-87121856D01*
X136702400Y-87710650D02*
X136138538Y-87272171D01*
X135702553Y-87693197D02*
X136283867Y-87131829D01*
X157110507Y-77947510D02*
X156111117Y-77912611D01*
X156111117Y-77912611D02*
X156102807Y-78150561D01*
X156102807Y-78150561D02*
X156145412Y-78294993D01*
X156145412Y-78294993D02*
X156237268Y-78393497D01*
X156237268Y-78393497D02*
X156330786Y-78444411D01*
X156330786Y-78444411D02*
X156519484Y-78498648D01*
X156519484Y-78498648D02*
X156662255Y-78503634D01*
X156662255Y-78503634D02*
X156854277Y-78462691D01*
X156854277Y-78462691D02*
X156951119Y-78418425D01*
X156951119Y-78418425D02*
X157049622Y-78326569D01*
X157049622Y-78326569D02*
X157102198Y-78185461D01*
X157102198Y-78185461D02*
X157110507Y-77947510D01*
X157057327Y-79470392D02*
X157077270Y-78899311D01*
X157067299Y-79184851D02*
X156067908Y-79149952D01*
X156067908Y-79149952D02*
X156214002Y-79059757D01*
X156214002Y-79059757D02*
X156312505Y-78967901D01*
X156312505Y-78967901D02*
X156363419Y-78874383D01*
X156028023Y-80292113D02*
X156034670Y-80101753D01*
X156034670Y-80101753D02*
X156085584Y-80008235D01*
X156085584Y-80008235D02*
X156134836Y-79962306D01*
X156134836Y-79962306D02*
X156280930Y-79872112D01*
X156280930Y-79872112D02*
X156472952Y-79831169D01*
X156472952Y-79831169D02*
X156853672Y-79844465D01*
X156853672Y-79844465D02*
X156947190Y-79895378D01*
X156947190Y-79895378D02*
X156993118Y-79944630D01*
X156993118Y-79944630D02*
X157037385Y-80041472D01*
X157037385Y-80041472D02*
X157030737Y-80231832D01*
X157030737Y-80231832D02*
X156979823Y-80325351D01*
X156979823Y-80325351D02*
X156930571Y-80371279D01*
X156930571Y-80371279D02*
X156833729Y-80415545D01*
X156833729Y-80415545D02*
X156595779Y-80407236D01*
X156595779Y-80407236D02*
X156502261Y-80356322D01*
X156502261Y-80356322D02*
X156456333Y-80307070D01*
X156456333Y-80307070D02*
X156412067Y-80210228D01*
X156412067Y-80210228D02*
X156418714Y-80019868D01*
X156418714Y-80019868D02*
X156469628Y-79926350D01*
X156469628Y-79926350D02*
X156518880Y-79880421D01*
X156518880Y-79880421D02*
X156615722Y-79836155D01*
X156624497Y-82695836D02*
X155625106Y-82660937D01*
X156604554Y-83266917D02*
X156048431Y-82818664D01*
X155605163Y-83232017D02*
X156196186Y-82680879D01*
X176671518Y-83569790D02*
X175672889Y-83517454D01*
X175672889Y-83517454D02*
X175660428Y-83755223D01*
X175660428Y-83755223D02*
X175700505Y-83900377D01*
X175700505Y-83900377D02*
X175790628Y-84000469D01*
X175790628Y-84000469D02*
X175883243Y-84053007D01*
X175883243Y-84053007D02*
X176070966Y-84110529D01*
X176070966Y-84110529D02*
X176213628Y-84118006D01*
X176213628Y-84118006D02*
X176406335Y-84080421D01*
X176406335Y-84080421D02*
X176503935Y-84037852D01*
X176503935Y-84037852D02*
X176604027Y-83947728D01*
X176604027Y-83947728D02*
X176659057Y-83807559D01*
X176659057Y-83807559D02*
X176671518Y-83569790D01*
X176591768Y-85091511D02*
X176621674Y-84520866D01*
X176606721Y-84806189D02*
X175608092Y-84753853D01*
X175608092Y-84753853D02*
X175755737Y-84666222D01*
X175755737Y-84666222D02*
X175855829Y-84576099D01*
X175855829Y-84576099D02*
X175908367Y-84483483D01*
X175575693Y-85372052D02*
X175540803Y-86037805D01*
X175540803Y-86037805D02*
X176561862Y-85662157D01*
X176102711Y-88308911D02*
X175104082Y-88256575D01*
X176072805Y-88879557D02*
X175524589Y-88421666D01*
X175074175Y-88827221D02*
X175674727Y-88286481D01*
X196500694Y-87983400D02*
X195503130Y-87913644D01*
X195503130Y-87913644D02*
X195486521Y-88151159D01*
X195486521Y-88151159D02*
X195524059Y-88296990D01*
X195524059Y-88296990D02*
X195612422Y-88398639D01*
X195612422Y-88398639D02*
X195704106Y-88452786D01*
X195704106Y-88452786D02*
X195890796Y-88513576D01*
X195890796Y-88513576D02*
X196033306Y-88523541D01*
X196033306Y-88523541D02*
X196226640Y-88489325D01*
X196226640Y-88489325D02*
X196324967Y-88448466D01*
X196324967Y-88448466D02*
X196426617Y-88360103D01*
X196426617Y-88360103D02*
X196484085Y-88220916D01*
X196484085Y-88220916D02*
X196500694Y-87983400D01*
X196394398Y-89503498D02*
X196434259Y-88933461D01*
X196414329Y-89218480D02*
X195416765Y-89148723D01*
X195416765Y-89148723D02*
X195565917Y-89063682D01*
X195565917Y-89063682D02*
X195667567Y-88975320D01*
X195667567Y-88975320D02*
X195721713Y-88883635D01*
X195784501Y-90033674D02*
X195743641Y-89935346D01*
X195743641Y-89935346D02*
X195699460Y-89884521D01*
X195699460Y-89884521D02*
X195607776Y-89830375D01*
X195607776Y-89830375D02*
X195560273Y-89827053D01*
X195560273Y-89827053D02*
X195461945Y-89867912D01*
X195461945Y-89867912D02*
X195411120Y-89912094D01*
X195411120Y-89912094D02*
X195356973Y-90003778D01*
X195356973Y-90003778D02*
X195343687Y-90193790D01*
X195343687Y-90193790D02*
X195384546Y-90292118D01*
X195384546Y-90292118D02*
X195428727Y-90342943D01*
X195428727Y-90342943D02*
X195520412Y-90397089D01*
X195520412Y-90397089D02*
X195567915Y-90400411D01*
X195567915Y-90400411D02*
X195666243Y-90359552D01*
X195666243Y-90359552D02*
X195717067Y-90315370D01*
X195717067Y-90315370D02*
X195771214Y-90223686D01*
X195771214Y-90223686D02*
X195784501Y-90033674D01*
X195784501Y-90033674D02*
X195838647Y-89941989D01*
X195838647Y-89941989D02*
X195889472Y-89897808D01*
X195889472Y-89897808D02*
X195987800Y-89856948D01*
X195987800Y-89856948D02*
X196177812Y-89870235D01*
X196177812Y-89870235D02*
X196269497Y-89924382D01*
X196269497Y-89924382D02*
X196313678Y-89975207D01*
X196313678Y-89975207D02*
X196354537Y-90073534D01*
X196354537Y-90073534D02*
X196341251Y-90263547D01*
X196341251Y-90263547D02*
X196287104Y-90355231D01*
X196287104Y-90355231D02*
X196236279Y-90399412D01*
X196236279Y-90399412D02*
X196137951Y-90440272D01*
X196137951Y-90440272D02*
X195947939Y-90426985D01*
X195947939Y-90426985D02*
X195856255Y-90372838D01*
X195856255Y-90372838D02*
X195812074Y-90322014D01*
X195812074Y-90322014D02*
X195771214Y-90223686D01*
X195849265Y-92711872D02*
X194851701Y-92642116D01*
X195809404Y-93281909D02*
X195269263Y-92814521D01*
X194811840Y-93212152D02*
X195421738Y-92681977D01*
X98031730Y-105280353D02*
X97031730Y-105280353D01*
X97031730Y-105280353D02*
X97031730Y-105518448D01*
X97031730Y-105518448D02*
X97079349Y-105661305D01*
X97079349Y-105661305D02*
X97174587Y-105756543D01*
X97174587Y-105756543D02*
X97269825Y-105804162D01*
X97269825Y-105804162D02*
X97460301Y-105851781D01*
X97460301Y-105851781D02*
X97603158Y-105851781D01*
X97603158Y-105851781D02*
X97793634Y-105804162D01*
X97793634Y-105804162D02*
X97888872Y-105756543D01*
X97888872Y-105756543D02*
X97984111Y-105661305D01*
X97984111Y-105661305D02*
X98031730Y-105518448D01*
X98031730Y-105518448D02*
X98031730Y-105280353D01*
X98031730Y-106804162D02*
X98031730Y-106232734D01*
X98031730Y-106518448D02*
X97031730Y-106518448D01*
X97031730Y-106518448D02*
X97174587Y-106423210D01*
X97174587Y-106423210D02*
X97269825Y-106327972D01*
X97269825Y-106327972D02*
X97317444Y-106232734D01*
X98031730Y-107280353D02*
X98031730Y-107470829D01*
X98031730Y-107470829D02*
X97984111Y-107566067D01*
X97984111Y-107566067D02*
X97936491Y-107613686D01*
X97936491Y-107613686D02*
X97793634Y-107708924D01*
X97793634Y-107708924D02*
X97603158Y-107756543D01*
X97603158Y-107756543D02*
X97222206Y-107756543D01*
X97222206Y-107756543D02*
X97126968Y-107708924D01*
X97126968Y-107708924D02*
X97079349Y-107661305D01*
X97079349Y-107661305D02*
X97031730Y-107566067D01*
X97031730Y-107566067D02*
X97031730Y-107375591D01*
X97031730Y-107375591D02*
X97079349Y-107280353D01*
X97079349Y-107280353D02*
X97126968Y-107232734D01*
X97126968Y-107232734D02*
X97222206Y-107185115D01*
X97222206Y-107185115D02*
X97460301Y-107185115D01*
X97460301Y-107185115D02*
X97555539Y-107232734D01*
X97555539Y-107232734D02*
X97603158Y-107280353D01*
X97603158Y-107280353D02*
X97650777Y-107375591D01*
X97650777Y-107375591D02*
X97650777Y-107566067D01*
X97650777Y-107566067D02*
X97603158Y-107661305D01*
X97603158Y-107661305D02*
X97555539Y-107708924D01*
X97555539Y-107708924D02*
X97460301Y-107756543D01*
X97711730Y-110042747D02*
X96711730Y-110042747D01*
X97711730Y-110614175D02*
X97140301Y-110185604D01*
X96711730Y-110614175D02*
X97283158Y-110042747D01*
X116725480Y-105342853D02*
X115725480Y-105342853D01*
X115725480Y-105342853D02*
X115725480Y-105580948D01*
X115725480Y-105580948D02*
X115773099Y-105723805D01*
X115773099Y-105723805D02*
X115868337Y-105819043D01*
X115868337Y-105819043D02*
X115963575Y-105866662D01*
X115963575Y-105866662D02*
X116154051Y-105914281D01*
X116154051Y-105914281D02*
X116296908Y-105914281D01*
X116296908Y-105914281D02*
X116487384Y-105866662D01*
X116487384Y-105866662D02*
X116582622Y-105819043D01*
X116582622Y-105819043D02*
X116677861Y-105723805D01*
X116677861Y-105723805D02*
X116725480Y-105580948D01*
X116725480Y-105580948D02*
X116725480Y-105342853D01*
X115820718Y-106295234D02*
X115773099Y-106342853D01*
X115773099Y-106342853D02*
X115725480Y-106438091D01*
X115725480Y-106438091D02*
X115725480Y-106676186D01*
X115725480Y-106676186D02*
X115773099Y-106771424D01*
X115773099Y-106771424D02*
X115820718Y-106819043D01*
X115820718Y-106819043D02*
X115915956Y-106866662D01*
X115915956Y-106866662D02*
X116011194Y-106866662D01*
X116011194Y-106866662D02*
X116154051Y-106819043D01*
X116154051Y-106819043D02*
X116725480Y-106247615D01*
X116725480Y-106247615D02*
X116725480Y-106866662D01*
X115725480Y-107485710D02*
X115725480Y-107580948D01*
X115725480Y-107580948D02*
X115773099Y-107676186D01*
X115773099Y-107676186D02*
X115820718Y-107723805D01*
X115820718Y-107723805D02*
X115915956Y-107771424D01*
X115915956Y-107771424D02*
X116106432Y-107819043D01*
X116106432Y-107819043D02*
X116344527Y-107819043D01*
X116344527Y-107819043D02*
X116535003Y-107771424D01*
X116535003Y-107771424D02*
X116630241Y-107723805D01*
X116630241Y-107723805D02*
X116677861Y-107676186D01*
X116677861Y-107676186D02*
X116725480Y-107580948D01*
X116725480Y-107580948D02*
X116725480Y-107485710D01*
X116725480Y-107485710D02*
X116677861Y-107390472D01*
X116677861Y-107390472D02*
X116630241Y-107342853D01*
X116630241Y-107342853D02*
X116535003Y-107295234D01*
X116535003Y-107295234D02*
X116344527Y-107247615D01*
X116344527Y-107247615D02*
X116106432Y-107247615D01*
X116106432Y-107247615D02*
X115915956Y-107295234D01*
X115915956Y-107295234D02*
X115820718Y-107342853D01*
X115820718Y-107342853D02*
X115773099Y-107390472D01*
X115773099Y-107390472D02*
X115725480Y-107485710D01*
X116405480Y-110105247D02*
X115405480Y-110105247D01*
X116405480Y-110676675D02*
X115834051Y-110248104D01*
X115405480Y-110676675D02*
X115976908Y-110105247D01*
X136828381Y-101200367D02*
X135828534Y-101182915D01*
X135828534Y-101182915D02*
X135824378Y-101420974D01*
X135824378Y-101420974D02*
X135869497Y-101564640D01*
X135869497Y-101564640D02*
X135963059Y-101661526D01*
X135963059Y-101661526D02*
X136057451Y-101710800D01*
X136057451Y-101710800D02*
X136247067Y-101761736D01*
X136247067Y-101761736D02*
X136389903Y-101764229D01*
X136389903Y-101764229D02*
X136581181Y-101719942D01*
X136581181Y-101719942D02*
X136677235Y-101673992D01*
X136677235Y-101673992D02*
X136774121Y-101580431D01*
X136774121Y-101580431D02*
X136824226Y-101438426D01*
X136824226Y-101438426D02*
X136828381Y-101200367D01*
X135907136Y-102136813D02*
X135858693Y-102183594D01*
X135858693Y-102183594D02*
X135809419Y-102277986D01*
X135809419Y-102277986D02*
X135805264Y-102516045D01*
X135805264Y-102516045D02*
X135851214Y-102612100D01*
X135851214Y-102612100D02*
X135897994Y-102660543D01*
X135897994Y-102660543D02*
X135992387Y-102709817D01*
X135992387Y-102709817D02*
X136087610Y-102711479D01*
X136087610Y-102711479D02*
X136231277Y-102666360D01*
X136231277Y-102666360D02*
X136812591Y-102104991D01*
X136812591Y-102104991D02*
X136801787Y-102723945D01*
X136785166Y-103676181D02*
X136795139Y-103104839D01*
X136790152Y-103390510D02*
X135790305Y-103373058D01*
X135790305Y-103373058D02*
X135934802Y-103280327D01*
X135934802Y-103280327D02*
X136031688Y-103186766D01*
X136031688Y-103186766D02*
X136080962Y-103092373D01*
X136425315Y-105956451D02*
X135425467Y-105938999D01*
X136415342Y-106527793D02*
X135851480Y-106089314D01*
X135415495Y-106510340D02*
X135996809Y-105948972D01*
X156485672Y-96947510D02*
X155486282Y-96912611D01*
X155486282Y-96912611D02*
X155477972Y-97150561D01*
X155477972Y-97150561D02*
X155520577Y-97294993D01*
X155520577Y-97294993D02*
X155612433Y-97393497D01*
X155612433Y-97393497D02*
X155705951Y-97444411D01*
X155705951Y-97444411D02*
X155894649Y-97498648D01*
X155894649Y-97498648D02*
X156037420Y-97503634D01*
X156037420Y-97503634D02*
X156229442Y-97462691D01*
X156229442Y-97462691D02*
X156326284Y-97418425D01*
X156326284Y-97418425D02*
X156424787Y-97326569D01*
X156424787Y-97326569D02*
X156477363Y-97185461D01*
X156477363Y-97185461D02*
X156485672Y-96947510D01*
X155548224Y-97867735D02*
X155498972Y-97913664D01*
X155498972Y-97913664D02*
X155448058Y-98007182D01*
X155448058Y-98007182D02*
X155439749Y-98245132D01*
X155439749Y-98245132D02*
X155484015Y-98341974D01*
X155484015Y-98341974D02*
X155529943Y-98391226D01*
X155529943Y-98391226D02*
X155623462Y-98442140D01*
X155623462Y-98442140D02*
X155718642Y-98445463D01*
X155718642Y-98445463D02*
X155863074Y-98402859D01*
X155863074Y-98402859D02*
X156454097Y-97851721D01*
X156454097Y-97851721D02*
X156432492Y-98470392D01*
X155514986Y-98819536D02*
X155465735Y-98865464D01*
X155465735Y-98865464D02*
X155414821Y-98958983D01*
X155414821Y-98958983D02*
X155406511Y-99196933D01*
X155406511Y-99196933D02*
X155450778Y-99293775D01*
X155450778Y-99293775D02*
X155496706Y-99343027D01*
X155496706Y-99343027D02*
X155590224Y-99393941D01*
X155590224Y-99393941D02*
X155685404Y-99397264D01*
X155685404Y-99397264D02*
X155829836Y-99354660D01*
X155829836Y-99354660D02*
X156420859Y-98803522D01*
X156420859Y-98803522D02*
X156399255Y-99422192D01*
X155999662Y-101695836D02*
X155000271Y-101660937D01*
X155979719Y-102266917D02*
X155423596Y-101818664D01*
X154980328Y-102232017D02*
X155571351Y-101680879D01*
X175860953Y-102719695D02*
X174862324Y-102667359D01*
X174862324Y-102667359D02*
X174849863Y-102905128D01*
X174849863Y-102905128D02*
X174889940Y-103050282D01*
X174889940Y-103050282D02*
X174980063Y-103150374D01*
X174980063Y-103150374D02*
X175072678Y-103202912D01*
X175072678Y-103202912D02*
X175260401Y-103260434D01*
X175260401Y-103260434D02*
X175403063Y-103267911D01*
X175403063Y-103267911D02*
X175595770Y-103230326D01*
X175595770Y-103230326D02*
X175693370Y-103187757D01*
X175693370Y-103187757D02*
X175793462Y-103097633D01*
X175793462Y-103097633D02*
X175848492Y-102957464D01*
X175848492Y-102957464D02*
X175860953Y-102719695D01*
X174907587Y-103623419D02*
X174857541Y-103668481D01*
X174857541Y-103668481D02*
X174805003Y-103761096D01*
X174805003Y-103761096D02*
X174792542Y-103998865D01*
X174792542Y-103998865D02*
X174835112Y-104096465D01*
X174835112Y-104096465D02*
X174880173Y-104146511D01*
X174880173Y-104146511D02*
X174972789Y-104199049D01*
X174972789Y-104199049D02*
X175067896Y-104204034D01*
X175067896Y-104204034D02*
X175213050Y-104163956D01*
X175213050Y-104163956D02*
X175813601Y-103623217D01*
X175813601Y-103623217D02*
X175781203Y-104241416D01*
X174765128Y-104521957D02*
X174732730Y-105140156D01*
X174732730Y-105140156D02*
X175130605Y-104827217D01*
X175130605Y-104827217D02*
X175123129Y-104969879D01*
X175123129Y-104969879D02*
X175165698Y-105067478D01*
X175165698Y-105067478D02*
X175210760Y-105117524D01*
X175210760Y-105117524D02*
X175303375Y-105170063D01*
X175303375Y-105170063D02*
X175541144Y-105182524D01*
X175541144Y-105182524D02*
X175638744Y-105139954D01*
X175638744Y-105139954D02*
X175688790Y-105094892D01*
X175688790Y-105094892D02*
X175741328Y-105002277D01*
X175741328Y-105002277D02*
X175756281Y-104716954D01*
X175756281Y-104716954D02*
X175713712Y-104619355D01*
X175713712Y-104619355D02*
X175668650Y-104569309D01*
X175292146Y-107458816D02*
X174293517Y-107406480D01*
X175262240Y-108029462D02*
X174714024Y-107571571D01*
X174263610Y-107977126D02*
X174864162Y-107436386D01*
X195789681Y-106720806D02*
X194792117Y-106651050D01*
X194792117Y-106651050D02*
X194775508Y-106888565D01*
X194775508Y-106888565D02*
X194813046Y-107034396D01*
X194813046Y-107034396D02*
X194901409Y-107136045D01*
X194901409Y-107136045D02*
X194993093Y-107190192D01*
X194993093Y-107190192D02*
X195179783Y-107250982D01*
X195179783Y-107250982D02*
X195322293Y-107260947D01*
X195322293Y-107260947D02*
X195515627Y-107226731D01*
X195515627Y-107226731D02*
X195613954Y-107185872D01*
X195613954Y-107185872D02*
X195715604Y-107097509D01*
X195715604Y-107097509D02*
X195773072Y-106958322D01*
X195773072Y-106958322D02*
X195789681Y-106720806D01*
X194820688Y-107607754D02*
X194769863Y-107651936D01*
X194769863Y-107651936D02*
X194715717Y-107743620D01*
X194715717Y-107743620D02*
X194699108Y-107981135D01*
X194699108Y-107981135D02*
X194739968Y-108079463D01*
X194739968Y-108079463D02*
X194784149Y-108130288D01*
X194784149Y-108130288D02*
X194875833Y-108184434D01*
X194875833Y-108184434D02*
X194970840Y-108191078D01*
X194970840Y-108191078D02*
X195116670Y-108153540D01*
X195116670Y-108153540D02*
X195726568Y-107623364D01*
X195726568Y-107623364D02*
X195683385Y-108240904D01*
X194958551Y-109049454D02*
X195623594Y-109095959D01*
X194595136Y-108785365D02*
X195324290Y-108597676D01*
X195324290Y-108597676D02*
X195281108Y-109215216D01*
X195138252Y-111449278D02*
X194140688Y-111379522D01*
X195098391Y-112019315D02*
X194558250Y-111551927D01*
X194100827Y-111949558D02*
X194710725Y-111419383D01*
X158120341Y-125150985D02*
X157121712Y-125098649D01*
X157121712Y-125098649D02*
X157109251Y-125336418D01*
X157109251Y-125336418D02*
X157149328Y-125481572D01*
X157149328Y-125481572D02*
X157239451Y-125581664D01*
X157239451Y-125581664D02*
X157332066Y-125634202D01*
X157332066Y-125634202D02*
X157519789Y-125691724D01*
X157519789Y-125691724D02*
X157662451Y-125699201D01*
X157662451Y-125699201D02*
X157855158Y-125661616D01*
X157855158Y-125661616D02*
X157952758Y-125619047D01*
X157952758Y-125619047D02*
X158052850Y-125528923D01*
X158052850Y-125528923D02*
X158107880Y-125388754D01*
X158107880Y-125388754D02*
X158120341Y-125150985D01*
X157166975Y-126054709D02*
X157116929Y-126099771D01*
X157116929Y-126099771D02*
X157064391Y-126192386D01*
X157064391Y-126192386D02*
X157051930Y-126430155D01*
X157051930Y-126430155D02*
X157094500Y-126527755D01*
X157094500Y-126527755D02*
X157139561Y-126577801D01*
X157139561Y-126577801D02*
X157232177Y-126630339D01*
X157232177Y-126630339D02*
X157327284Y-126635324D01*
X157327284Y-126635324D02*
X157472438Y-126595246D01*
X157472438Y-126595246D02*
X158072989Y-126054507D01*
X158072989Y-126054507D02*
X158040591Y-126672706D01*
X156994610Y-127523893D02*
X157019532Y-127048355D01*
X157019532Y-127048355D02*
X157497562Y-127025723D01*
X157497562Y-127025723D02*
X157447516Y-127070784D01*
X157447516Y-127070784D02*
X157394978Y-127163400D01*
X157394978Y-127163400D02*
X157382517Y-127401169D01*
X157382517Y-127401169D02*
X157425086Y-127498768D01*
X157425086Y-127498768D02*
X157470148Y-127548814D01*
X157470148Y-127548814D02*
X157562763Y-127601353D01*
X157562763Y-127601353D02*
X157800532Y-127613814D01*
X157800532Y-127613814D02*
X157898132Y-127571244D01*
X157898132Y-127571244D02*
X157948178Y-127526182D01*
X157948178Y-127526182D02*
X158000716Y-127433567D01*
X158000716Y-127433567D02*
X158013177Y-127195798D01*
X158013177Y-127195798D02*
X157970608Y-127098198D01*
X157970608Y-127098198D02*
X157925546Y-127048152D01*
X157551534Y-129890106D02*
X156552905Y-129837770D01*
X157521628Y-130460752D02*
X156973412Y-130002861D01*
X156522998Y-130408416D02*
X157123550Y-129867676D01*
X177686805Y-127697432D02*
X176689241Y-127627676D01*
X176689241Y-127627676D02*
X176672632Y-127865191D01*
X176672632Y-127865191D02*
X176710170Y-128011022D01*
X176710170Y-128011022D02*
X176798533Y-128112671D01*
X176798533Y-128112671D02*
X176890217Y-128166818D01*
X176890217Y-128166818D02*
X177076907Y-128227608D01*
X177076907Y-128227608D02*
X177219417Y-128237573D01*
X177219417Y-128237573D02*
X177412751Y-128203357D01*
X177412751Y-128203357D02*
X177511078Y-128162498D01*
X177511078Y-128162498D02*
X177612728Y-128074135D01*
X177612728Y-128074135D02*
X177670196Y-127934948D01*
X177670196Y-127934948D02*
X177686805Y-127697432D01*
X176717812Y-128584380D02*
X176666987Y-128628562D01*
X176666987Y-128628562D02*
X176612841Y-128720246D01*
X176612841Y-128720246D02*
X176596232Y-128957761D01*
X176596232Y-128957761D02*
X176637092Y-129056089D01*
X176637092Y-129056089D02*
X176681273Y-129106914D01*
X176681273Y-129106914D02*
X176772957Y-129161060D01*
X176772957Y-129161060D02*
X176867964Y-129167704D01*
X176867964Y-129167704D02*
X177013794Y-129130166D01*
X177013794Y-129130166D02*
X177623692Y-128599990D01*
X177623692Y-128599990D02*
X177580509Y-129217530D01*
X176523154Y-130002828D02*
X176536441Y-129812816D01*
X176536441Y-129812816D02*
X176590587Y-129721132D01*
X176590587Y-129721132D02*
X176641412Y-129676950D01*
X176641412Y-129676950D02*
X176790565Y-129591910D01*
X176790565Y-129591910D02*
X176983899Y-129557693D01*
X176983899Y-129557693D02*
X177363923Y-129584267D01*
X177363923Y-129584267D02*
X177455608Y-129638414D01*
X177455608Y-129638414D02*
X177499789Y-129689239D01*
X177499789Y-129689239D02*
X177540648Y-129787566D01*
X177540648Y-129787566D02*
X177527362Y-129977579D01*
X177527362Y-129977579D02*
X177473215Y-130069263D01*
X177473215Y-130069263D02*
X177422390Y-130113444D01*
X177422390Y-130113444D02*
X177324062Y-130154304D01*
X177324062Y-130154304D02*
X177086547Y-130137695D01*
X177086547Y-130137695D02*
X176994863Y-130083549D01*
X176994863Y-130083549D02*
X176950681Y-130032724D01*
X176950681Y-130032724D02*
X176909822Y-129934396D01*
X176909822Y-129934396D02*
X176923109Y-129744384D01*
X176923109Y-129744384D02*
X176977255Y-129652700D01*
X176977255Y-129652700D02*
X177028080Y-129608518D01*
X177028080Y-129608518D02*
X177126408Y-129567659D01*
X177035376Y-132425904D02*
X176037812Y-132356148D01*
X176995515Y-132995941D02*
X176455374Y-132528553D01*
X175997951Y-132926184D02*
X176607849Y-132396009D01*
X197372767Y-131820635D02*
X196380220Y-131698766D01*
X196380220Y-131698766D02*
X196351204Y-131935087D01*
X196351204Y-131935087D02*
X196381058Y-132082682D01*
X196381058Y-132082682D02*
X196463980Y-132188817D01*
X196463980Y-132188817D02*
X196552705Y-132247688D01*
X196552705Y-132247688D02*
X196735958Y-132318165D01*
X196735958Y-132318165D02*
X196877750Y-132335575D01*
X196877750Y-132335575D02*
X197072610Y-132311524D01*
X197072610Y-132311524D02*
X197172941Y-132275866D01*
X197172941Y-132275866D02*
X197279076Y-132192945D01*
X197279076Y-132192945D02*
X197343750Y-132056956D01*
X197343750Y-132056956D02*
X197372767Y-131820635D01*
X196358683Y-132655655D02*
X196305615Y-132697115D01*
X196305615Y-132697115D02*
X196246745Y-132785840D01*
X196246745Y-132785840D02*
X196217728Y-133022161D01*
X196217728Y-133022161D02*
X196253385Y-133122492D01*
X196253385Y-133122492D02*
X196294846Y-133175560D01*
X196294846Y-133175560D02*
X196383571Y-133234430D01*
X196383571Y-133234430D02*
X196478099Y-133246037D01*
X196478099Y-133246037D02*
X196625695Y-133216183D01*
X196625695Y-133216183D02*
X197262504Y-132718653D01*
X197262504Y-132718653D02*
X197187061Y-133333087D01*
X196153892Y-133542066D02*
X196072645Y-134203763D01*
X196072645Y-134203763D02*
X197117421Y-133900256D01*
X196474762Y-136508534D02*
X195482215Y-136386665D01*
X196405122Y-137075704D02*
X195890182Y-136580687D01*
X195412576Y-136953834D02*
X196049385Y-136456305D01*
X216940209Y-137540709D02*
X215955402Y-137367061D01*
X215955402Y-137367061D02*
X215914057Y-137601539D01*
X215914057Y-137601539D02*
X215936146Y-137750495D01*
X215936146Y-137750495D02*
X216013399Y-137860824D01*
X216013399Y-137860824D02*
X216098921Y-137924257D01*
X216098921Y-137924257D02*
X216278235Y-138004229D01*
X216278235Y-138004229D02*
X216418921Y-138029036D01*
X216418921Y-138029036D02*
X216614773Y-138015216D01*
X216614773Y-138015216D02*
X216716833Y-137984858D01*
X216716833Y-137984858D02*
X216827162Y-137907605D01*
X216827162Y-137907605D02*
X216898865Y-137775187D01*
X216898865Y-137775187D02*
X216940209Y-137540709D01*
X215883814Y-138321511D02*
X215828649Y-138360138D01*
X215828649Y-138360138D02*
X215765215Y-138445660D01*
X215765215Y-138445660D02*
X215723871Y-138680138D01*
X215723871Y-138680138D02*
X215754228Y-138782198D01*
X215754228Y-138782198D02*
X215792855Y-138837363D01*
X215792855Y-138837363D02*
X215878377Y-138900796D01*
X215878377Y-138900796D02*
X215972168Y-138917334D01*
X215972168Y-138917334D02*
X216121124Y-138895245D01*
X216121124Y-138895245D02*
X216783099Y-138431726D01*
X216783099Y-138431726D02*
X216675603Y-139041368D01*
X216013628Y-139504888D02*
X215983270Y-139402828D01*
X215983270Y-139402828D02*
X215944643Y-139347663D01*
X215944643Y-139347663D02*
X215859121Y-139284230D01*
X215859121Y-139284230D02*
X215812226Y-139275961D01*
X215812226Y-139275961D02*
X215710165Y-139306319D01*
X215710165Y-139306319D02*
X215655001Y-139344945D01*
X215655001Y-139344945D02*
X215591567Y-139430468D01*
X215591567Y-139430468D02*
X215558491Y-139618050D01*
X215558491Y-139618050D02*
X215588849Y-139720110D01*
X215588849Y-139720110D02*
X215627476Y-139775275D01*
X215627476Y-139775275D02*
X215712998Y-139838708D01*
X215712998Y-139838708D02*
X215759894Y-139846977D01*
X215759894Y-139846977D02*
X215861954Y-139816620D01*
X215861954Y-139816620D02*
X215917118Y-139777993D01*
X215917118Y-139777993D02*
X215980552Y-139692471D01*
X215980552Y-139692471D02*
X216013628Y-139504888D01*
X216013628Y-139504888D02*
X216077061Y-139419366D01*
X216077061Y-139419366D02*
X216132226Y-139380739D01*
X216132226Y-139380739D02*
X216234286Y-139350382D01*
X216234286Y-139350382D02*
X216421868Y-139383457D01*
X216421868Y-139383457D02*
X216507391Y-139446891D01*
X216507391Y-139446891D02*
X216546017Y-139502056D01*
X216546017Y-139502056D02*
X216576375Y-139604116D01*
X216576375Y-139604116D02*
X216543299Y-139791698D01*
X216543299Y-139791698D02*
X216479866Y-139877220D01*
X216479866Y-139877220D02*
X216424701Y-139915847D01*
X216424701Y-139915847D02*
X216322641Y-139946205D01*
X216322641Y-139946205D02*
X216135059Y-139913129D01*
X216135059Y-139913129D02*
X216049536Y-139849695D01*
X216049536Y-139849695D02*
X216010910Y-139794531D01*
X216010910Y-139794531D02*
X215980552Y-139692471D01*
X215798089Y-142175186D02*
X214813281Y-142001538D01*
X215698862Y-142737933D02*
X215210535Y-142216645D01*
X214714054Y-142564285D02*
X215376029Y-142100766D01*
%TO.C,D1*%
D11*
X95456911Y-46574641D02*
X95456911Y-47224641D01*
X95456911Y-52114641D02*
X95456911Y-51464641D01*
X96576911Y-50624641D02*
X94336911Y-50624641D01*
X96576911Y-50744641D02*
X94336911Y-50744641D01*
X96576911Y-50864641D02*
X94336911Y-50864641D01*
X94336911Y-47224641D02*
X96576911Y-47224641D01*
X96576911Y-51464641D01*
X94336911Y-51464641D01*
X94336911Y-47224641D01*
%TO.C,D2*%
X114506910Y-46574641D02*
X114506910Y-47224641D01*
X114506910Y-52114641D02*
X114506910Y-51464641D01*
X115626910Y-50624641D02*
X113386910Y-50624641D01*
X115626910Y-50744641D02*
X113386910Y-50744641D01*
X115626910Y-50864641D02*
X113386910Y-50864641D01*
X113386910Y-47224641D02*
X115626910Y-47224641D01*
X115626910Y-51464641D01*
X113386910Y-51464641D01*
X113386910Y-47224641D01*
%TO.C,D3*%
X135035822Y-47946137D02*
X135047172Y-47296240D01*
X135132509Y-42406981D02*
X135121166Y-43056882D01*
X136177464Y-46715875D02*
X133937807Y-46676780D01*
X136179565Y-46595896D02*
X133939908Y-46556798D01*
X136181659Y-46475912D02*
X133942000Y-46436818D01*
X136240994Y-43076426D02*
X136166994Y-47315782D01*
X133927336Y-47276690D01*
X134001338Y-43037340D01*
X136240994Y-43076426D01*
%TO.C,D4*%
X155738701Y-43585346D02*
X155761392Y-42935746D01*
X155932045Y-38048721D02*
X155909361Y-38698325D01*
X156901640Y-42375196D02*
X154663007Y-42297022D01*
X156905835Y-42255272D02*
X154667201Y-42177092D01*
X156910022Y-42135343D02*
X154671387Y-42057167D01*
X157028678Y-38737410D02*
X156880702Y-42974829D01*
X154642067Y-42896655D01*
X154790045Y-38659243D01*
X157028678Y-38737410D01*
%TO.C,D5*%
X175572670Y-49413797D02*
X175606695Y-48764692D01*
X175862612Y-43881389D02*
X175828594Y-44530498D01*
X176756552Y-48224127D02*
X174519624Y-48106892D01*
X176762839Y-48104295D02*
X174525911Y-47987057D01*
X176769119Y-47984457D02*
X174532189Y-47867223D01*
X176947059Y-44589112D02*
X176725152Y-48823303D01*
X174488222Y-48706072D01*
X174710131Y-44471888D01*
X176947059Y-44589112D01*
%TO.C,D6*%
X195363470Y-52781694D02*
X195408819Y-52133282D01*
X195749922Y-47255187D02*
X195704581Y-47903605D01*
X196567935Y-51612867D02*
X194333393Y-51456610D01*
X196576312Y-51493163D02*
X194341771Y-51336903D01*
X196584683Y-51373453D02*
X194350139Y-51217197D01*
X196821852Y-47981730D02*
X196526082Y-52211404D01*
X194291539Y-52055151D01*
X194587311Y-47825484D01*
X196821852Y-47981730D01*
%TO.C,D7*%
X95456911Y-65624641D02*
X95456911Y-66274641D01*
X95456911Y-71164641D02*
X95456911Y-70514641D01*
X96576911Y-69674641D02*
X94336911Y-69674641D01*
X96576911Y-69794641D02*
X94336911Y-69794641D01*
X96576911Y-69914641D02*
X94336911Y-69914641D01*
X94336911Y-66274641D02*
X96576911Y-66274641D01*
X96576911Y-70514641D01*
X94336911Y-70514641D01*
X94336911Y-66274641D01*
%TO.C,D8*%
X114650661Y-65597139D02*
X114650661Y-66247139D01*
X114650661Y-71137139D02*
X114650661Y-70487139D01*
X115770661Y-69647139D02*
X113530661Y-69647139D01*
X115770661Y-69767139D02*
X113530661Y-69767139D01*
X115770661Y-69887139D02*
X113530661Y-69887139D01*
X113530661Y-66247139D02*
X115770661Y-66247139D01*
X115770661Y-70487139D01*
X113530661Y-70487139D01*
X113530661Y-66247139D01*
%TO.C,D9*%
X134766044Y-67234886D02*
X134777394Y-66584989D01*
X134862731Y-61695730D02*
X134851388Y-62345631D01*
X135907686Y-66004624D02*
X133668029Y-65965529D01*
X135909787Y-65884645D02*
X133670130Y-65845547D01*
X135911881Y-65764661D02*
X133672222Y-65725567D01*
X135971216Y-62365175D02*
X135897216Y-66604531D01*
X133657558Y-66565439D01*
X133731560Y-62326089D01*
X135971216Y-62365175D01*
%TO.C,D10*%
X155080494Y-62301421D02*
X155103185Y-61651821D01*
X155273838Y-56764796D02*
X155251154Y-57414400D01*
X156243433Y-61091271D02*
X154004800Y-61013097D01*
X156247628Y-60971347D02*
X154008994Y-60893167D01*
X156251815Y-60851418D02*
X154013180Y-60773242D01*
X156370471Y-57453485D02*
X156222495Y-61690904D01*
X153983860Y-61612730D01*
X154131838Y-57375318D01*
X156370471Y-57453485D01*
%TO.C,D11*%
X174546502Y-68913112D02*
X174580527Y-68264007D01*
X174836444Y-63380704D02*
X174802426Y-64029813D01*
X175730384Y-67723442D02*
X173493456Y-67606207D01*
X175736671Y-67603610D02*
X173499743Y-67486372D01*
X175742951Y-67483772D02*
X173506021Y-67366538D01*
X175920891Y-64088427D02*
X175698984Y-68322618D01*
X173462054Y-68205387D01*
X173683963Y-63971203D01*
X175920891Y-64088427D01*
%TO.C,D12*%
X194560783Y-72170975D02*
X194606132Y-71522563D01*
X194947235Y-66644468D02*
X194901894Y-67292886D01*
X195765248Y-71002148D02*
X193530706Y-70845891D01*
X195773625Y-70882444D02*
X193539084Y-70726184D01*
X195781996Y-70762734D02*
X193547452Y-70606478D01*
X196019165Y-67371011D02*
X195723395Y-71600685D01*
X193488852Y-71444432D01*
X193784624Y-67214765D01*
X196019165Y-67371011D01*
%TO.C,D13*%
X95456913Y-84674641D02*
X95456913Y-85324641D01*
X95456913Y-90214641D02*
X95456913Y-89564641D01*
X96576913Y-88724641D02*
X94336913Y-88724641D01*
X96576913Y-88844641D02*
X94336913Y-88844641D01*
X96576913Y-88964641D02*
X94336913Y-88964641D01*
X94336913Y-85324641D02*
X96576913Y-85324641D01*
X96576913Y-89564641D01*
X94336913Y-89564641D01*
X94336913Y-85324641D01*
%TO.C,D14*%
X114150661Y-84597139D02*
X114150661Y-85247139D01*
X114150661Y-90137139D02*
X114150661Y-89487139D01*
X115270661Y-88647139D02*
X113030661Y-88647139D01*
X115270661Y-88767139D02*
X113030661Y-88767139D01*
X115270661Y-88887139D02*
X113030661Y-88887139D01*
X113030661Y-85247139D02*
X115270661Y-85247139D01*
X115270661Y-89487139D01*
X113030661Y-89487139D01*
X113030661Y-85247139D01*
%TO.C,D15*%
X134471478Y-86321968D02*
X134482828Y-85672071D01*
X134568165Y-80782812D02*
X134556822Y-81432713D01*
X135613120Y-85091706D02*
X133373463Y-85052611D01*
X135615221Y-84971727D02*
X133375564Y-84932629D01*
X135617315Y-84851743D02*
X133377656Y-84812649D01*
X135676650Y-81452257D02*
X135602650Y-85691613D01*
X133362992Y-85652521D01*
X133436994Y-81413171D01*
X135676650Y-81452257D01*
%TO.C,D16*%
X154398208Y-81839511D02*
X154420899Y-81189911D01*
X154591552Y-76302886D02*
X154568868Y-76952490D01*
X155561147Y-80629361D02*
X153322514Y-80551187D01*
X155565342Y-80509437D02*
X153326708Y-80431257D01*
X155569529Y-80389508D02*
X153330894Y-80311332D01*
X155688185Y-76991575D02*
X155540209Y-81228994D01*
X153301574Y-81150820D01*
X153449552Y-76913408D01*
X155688185Y-76991575D01*
%TO.C,D17*%
X173891707Y-87413862D02*
X173925732Y-86764757D01*
X174181649Y-81881454D02*
X174147631Y-82530563D01*
X175075589Y-86224192D02*
X172838661Y-86106957D01*
X175081876Y-86104360D02*
X172844948Y-85987122D01*
X175088156Y-85984522D02*
X172851226Y-85867288D01*
X175266096Y-82589177D02*
X175044189Y-86823368D01*
X172807259Y-86706137D01*
X173029168Y-82471953D01*
X175266096Y-82589177D01*
%TO.C,D18*%
X193654218Y-91778372D02*
X193699567Y-91129960D01*
X194040670Y-86251865D02*
X193995329Y-86900283D01*
X194858683Y-90609545D02*
X192624141Y-90453288D01*
X194867060Y-90489841D02*
X192632519Y-90333581D01*
X194875431Y-90370131D02*
X192640887Y-90213875D01*
X195112600Y-86978408D02*
X194816830Y-91208082D01*
X192582287Y-91051829D01*
X192878059Y-86822162D01*
X195112600Y-86978408D01*
%TO.C,D19*%
X95456913Y-103724641D02*
X95456913Y-104374641D01*
X95456913Y-109264641D02*
X95456913Y-108614641D01*
X96576913Y-107774641D02*
X94336913Y-107774641D01*
X96576913Y-107894641D02*
X94336913Y-107894641D01*
X96576913Y-108014641D02*
X94336913Y-108014641D01*
X94336913Y-104374641D02*
X96576913Y-104374641D01*
X96576913Y-108614641D01*
X94336913Y-108614641D01*
X94336913Y-104374641D01*
%TO.C,D20*%
X114150663Y-103787141D02*
X114150663Y-104437141D01*
X114150663Y-109327141D02*
X114150663Y-108677141D01*
X115270663Y-107837141D02*
X113030663Y-107837141D01*
X115270663Y-107957141D02*
X113030663Y-107957141D01*
X115270663Y-108077141D02*
X113030663Y-108077141D01*
X113030663Y-104437141D02*
X115270663Y-104437141D01*
X115270663Y-108677141D01*
X113030663Y-108677141D01*
X113030663Y-104437141D01*
%TO.C,D21*%
X134184420Y-105139111D02*
X134195770Y-104489214D01*
X134281107Y-99599955D02*
X134269764Y-100249856D01*
X135326062Y-103908849D02*
X133086405Y-103869754D01*
X135328163Y-103788870D02*
X133088506Y-103749772D01*
X135330257Y-103668886D02*
X133090598Y-103629792D01*
X135389592Y-100269400D02*
X135315592Y-104508756D01*
X133075934Y-104469664D01*
X133149936Y-100230314D01*
X135389592Y-100269400D01*
%TO.C,D22*%
X153773373Y-100839511D02*
X153796064Y-100189911D01*
X153966717Y-95302886D02*
X153944033Y-95952490D01*
X154936312Y-99629361D02*
X152697679Y-99551187D01*
X154940507Y-99509437D02*
X152701873Y-99431257D01*
X154944694Y-99389508D02*
X152706059Y-99311332D01*
X155063350Y-95991575D02*
X154915374Y-100228994D01*
X152676739Y-100150820D01*
X152824717Y-95913408D01*
X155063350Y-95991575D01*
%TO.C,D23*%
X173081142Y-106563767D02*
X173115167Y-105914662D01*
X173371084Y-101031359D02*
X173337066Y-101680468D01*
X174265024Y-105374097D02*
X172028096Y-105256862D01*
X174271311Y-105254265D02*
X172034383Y-105137027D01*
X174277591Y-105134427D02*
X172040661Y-105017193D01*
X174455531Y-101739082D02*
X174233624Y-105973273D01*
X171996694Y-105856042D01*
X172218603Y-101621858D01*
X174455531Y-101739082D01*
%TO.C,D24*%
X192943205Y-110515778D02*
X192988554Y-109867366D01*
X193329657Y-104989271D02*
X193284316Y-105637689D01*
X194147670Y-109346951D02*
X191913128Y-109190694D01*
X194156047Y-109227247D02*
X191921506Y-109070987D01*
X194164418Y-109107537D02*
X191929874Y-108951281D01*
X194401587Y-105715814D02*
X194105817Y-109945488D01*
X191871274Y-109789235D01*
X192167046Y-105559568D01*
X194401587Y-105715814D01*
%TO.C,D25*%
X155340530Y-128995057D02*
X155374555Y-128345952D01*
X155630472Y-123462649D02*
X155596454Y-124111758D01*
X156524412Y-127805387D02*
X154287484Y-127688152D01*
X156530699Y-127685555D02*
X154293771Y-127568317D01*
X156536979Y-127565717D02*
X154300049Y-127448483D01*
X156714919Y-124170372D02*
X156493012Y-128404563D01*
X154256082Y-128287332D01*
X154477991Y-124053148D01*
X156714919Y-124170372D01*
%TO.C,D26*%
X174840329Y-131492404D02*
X174885678Y-130843992D01*
X175226781Y-125965897D02*
X175181440Y-126614315D01*
X176044794Y-130323577D02*
X173810252Y-130167320D01*
X176053171Y-130203873D02*
X173818630Y-130047613D01*
X176061542Y-130084163D02*
X173826998Y-129927907D01*
X176298711Y-126692440D02*
X176002941Y-130922114D01*
X173768398Y-130765861D01*
X174064170Y-126536194D01*
X176298711Y-126692440D01*
%TO.C,D27*%
X194331579Y-135461433D02*
X194410801Y-134816282D01*
X195006736Y-129962726D02*
X194927521Y-130607881D01*
X195595565Y-134357243D02*
X193372263Y-134084255D01*
X195610196Y-134238142D02*
X193386894Y-133965150D01*
X195624819Y-134119035D02*
X193401516Y-133846046D01*
X196039173Y-130744372D02*
X195522443Y-134952770D01*
X193299140Y-134679785D01*
X193815871Y-130471393D01*
X196039173Y-130744372D01*
%TO.C,D28*%
X213712645Y-141017354D02*
X213825523Y-140377233D01*
X214674657Y-135561518D02*
X214561785Y-136201643D01*
X215032687Y-139980831D02*
X212826720Y-139591857D01*
X215053533Y-139862657D02*
X212847564Y-139473681D01*
X215074370Y-139744478D02*
X212868400Y-139355505D01*
X215664771Y-136396126D02*
X214928498Y-140571712D01*
X212722529Y-140182744D01*
X213458803Y-136007165D01*
X215664771Y-136396126D01*
%TD*%
M02*
