M48
; DRILL file KiCad 10.0.4 date 2026-07-21T16:02:39
; FORMAT={-:-/ absolute / metric / decimal}
; #@! TF.CreationDate,2026-07-21T16:02:39-07:00
; #@! TF.GenerationSoftware,Kicad,Pcbnew,10.0.4
; #@! TF.FileFunction,NonPlated,1,2,NPTH
FMAT,2
METRIC
; #@! TA.AperFunction,NonPlated,NPTH,ComponentDrill
T1C1.500
; #@! TA.AperFunction,NonPlated,NPTH,ComponentDrill
T2C1.750
; #@! TA.AperFunction,NonPlated,NPTH,ComponentDrill
T3C1.800
; #@! TA.AperFunction,NonPlated,NPTH,ComponentDrill
T4C3.200
; #@! TA.AperFunction,NonPlated,NPTH,ComponentDrill
T5C3.988
%
G90
G05
T1
X85.338Y-50.107
X90.188Y-50.107
T2
X97.9Y-141.169
X107.957Y-57.504
X107.961Y-139.755
X108.269Y-76.607
X109.062Y-95.679
X109.861Y-114.757
X118.092Y-56.795
X118.404Y-75.899
X119.197Y-94.97
X119.996Y-114.048
X124.536Y-136.332
X127.612Y-54.188
X128.609Y-73.212
X129.03Y-92.236
X129.824Y-111.26
X134.641Y-135.27
X137.758Y-53.656
X138.755Y-72.68
X139.176Y-91.704
X139.97Y-110.728
X143.987Y-132.466
X147.279Y-48.481
X147.942Y-67.47
X148.568Y-86.539
X149.233Y-105.578
X154.134Y-131.934
X157.433Y-48.127
X158.096Y-67.115
X158.722Y-86.185
X159.386Y-105.223
X167.567Y-52.218
X168.4Y-71.265
X168.732Y-90.312
X169.065Y-109.359
X177.726Y-52.04
X178.558Y-71.087
X178.891Y-90.135
X179.223Y-109.182
X188.431Y-56.794
X188.431Y-75.844
X188.431Y-94.894
X188.431Y-113.944
X198.591Y-56.794
X198.591Y-75.844
X198.591Y-94.894
X198.591Y-113.944
X207.481Y-56.794
X209.862Y-75.844
X212.323Y-94.894
X214.624Y-113.944
X217.641Y-56.794
X220.022Y-75.844
X222.483Y-94.894
X224.784Y-113.944
T3
X85.038Y-47.077
X90.488Y-47.077
T4
X79.375Y-111.125
X81.556Y-135.793
X118.823Y-43.404
X164.306Y-132.556
X225.888Y-47.517
X235.744Y-127.794
X366.712Y-138.112
X423.862Y-44.45
X454.025Y-104.775
X456.406Y-139.7
T5
X102.931Y-140.462
X113.025Y-57.149
X113.337Y-76.253
X114.129Y-95.324
X114.928Y-114.403
X129.588Y-135.801
X132.685Y-53.922
X133.682Y-72.946
X134.103Y-91.97
X134.897Y-110.994
X149.061Y-132.2
X152.356Y-48.304
X153.019Y-67.292
X153.645Y-86.362
X154.31Y-105.4
X172.646Y-52.129
X173.479Y-71.176
X173.811Y-90.223
X174.144Y-109.27
X193.511Y-56.794
X193.511Y-75.844
X193.511Y-94.894
X193.511Y-113.944
X212.561Y-56.794
X214.942Y-75.844
X217.403Y-94.894
X219.704Y-113.944
M30
